<?xml version="1.0" encoding="utf-8"?>
<!-- Generator: Adobe Illustrator 21.1.0, SVG Export Plug-In . SVG Version: 6.00 Build 0)  -->
<svg version="1.1" id="Layer_1" xmlns="http://www.w3.org/2000/svg" xmlns:xlink="http://www.w3.org/1999/xlink" x="0px" y="0px"
	 viewBox="0 0 200 200" style="enable-background:new 0 0 200 200;" xml:space="preserve">
<style type="text/css">
	.st0{fill:#FFFFFF;}
	.st1{fill:#A4C439;}
</style>
<g>
	<path class="st0" d="M32.9,142.2c-8.6,0-15.6-7-15.6-15.6l0-47.8c0-8.6,7-15.6,15.6-15.6c4.2,0,8.1,1.6,11.1,4.6
		c3,3,4.6,6.9,4.6,11l0,47.8c0,4.2-1.6,8.1-4.6,11C41,140.5,37,142.2,32.9,142.2"/>
	<path class="st0" d="M32.9,67.3c-6.3,0-11.4,5.1-11.4,11.4l0,47.8c0,6.3,5.1,11.4,11.4,11.4c6.3,0,11.4-5.1,11.4-11.4l0-47.8
		C44.3,72.4,39.2,67.3,32.9,67.3"/>
	<path class="st0" d="M155.4,69.7l-4.2,0l-102.9,0l-4.2,0l0-4.2c0-17.2,9.4-33.3,24.8-42.7l-6-10.9c-0.7-1.3-0.9-2.9-0.5-4.4
		C62.8,6,63.8,4.7,65.2,4C66,3.5,67,3.3,67.9,3.3c2.1,0,4.1,1.1,5.1,3l6.3,11.4c6.5-2.4,13.3-3.6,20.4-3.6c7.2,0,14,1.2,20.5,3.6
		l6.2-11.4c1-1.9,3-3,5.1-3c1,0,1.9,0.2,2.7,0.7c1.4,0.8,2.4,2,2.8,3.5c0.4,1.5,0.3,3-0.5,4.4l-6,10.9c15.4,9.5,24.7,25.5,24.7,42.7
		L155.4,69.7z"/>
	<path class="st0" d="M124.9,24.3l8-14.6c0.4-0.8,0.1-1.7-0.6-2.2c-0.8-0.4-1.7-0.1-2.2,0.6L122.1,23c-6.8-3-14.4-4.7-22.4-4.7
		c-8,0-15.6,1.7-22.3,4.7L69.3,8.3c-0.4-0.8-1.4-1.1-2.1-0.6c-0.8,0.4-1.1,1.4-0.6,2.1l8,14.5c-15.7,8.1-26.3,23.5-26.2,41.1
		l102.9,0C151.2,47.8,140.6,32.4,124.9,24.3 M76.3,46.8c-2.4,0-4.3-1.9-4.3-4.3c0-2.4,1.9-4.3,4.3-4.3c2.4,0,4.3,1.9,4.3,4.3
		C80.6,44.9,78.7,46.8,76.3,46.8 M123.2,46.8c-2.4,0-4.3-1.9-4.3-4.3c0-2.4,1.9-4.3,4.3-4.3c2.4,0,4.3,2,4.3,4.3
		C127.5,44.9,125.5,46.8,123.2,46.8"/>
	<path class="st0" d="M80.6,196.7c-8.6,0-15.6-7-15.6-15.6l0-21.1l-4.1,0c-4.4,0-8.5-1.7-11.6-4.8c-3.1-3.1-4.8-7.2-4.8-11.6l0-74.1
		l0-4.2l4.2,0l102.1,0l4.2,0l0,4.2l0,74.1c0,9-7.4,16.4-16.4,16.4l-4.1,0l0,21.1c0,8.6-7,15.6-15.6,15.6c-4.2,0-8.1-1.6-11-4.6
		c-3-2.9-4.6-6.9-4.6-11l0-21.1l-7,0V181C96.2,189.6,89.2,196.7,80.6,196.7"/>
	<path class="st0" d="M48.7,143.5c0,6.7,5.4,12.2,12.2,12.2l8.3,0l0,25.3c0,6.3,5.1,11.4,11.4,11.4c6.3,0,11.4-5.1,11.4-11.4l0-25.3
		l15.4,0l0,25.3c0,6.3,5.1,11.4,11.4,11.4c6.3,0,11.4-5.1,11.4-11.4l0-25.3l8.3,0c6.7,0,12.2-5.5,12.2-12.2l0-74.1l-102.1,0
		L48.7,143.5z"/>
	<path class="st0" d="M166.6,142.1c-8.6,0-15.6-7-15.6-15.6l0-47.8c0-8.6,7-15.6,15.6-15.6c8.6,0,15.6,7,15.6,15.6l0,47.8
		C182.2,135.1,175.2,142.1,166.6,142.1"/>
	<path class="st0" d="M166.6,67.3c-6.3,0-11.4,5.1-11.4,11.4l0,47.8c0,6.3,5.1,11.4,11.4,11.4c6.3,0,11.4-5.1,11.4-11.4l0-47.8
		C178,72.4,172.9,67.3,166.6,67.3"/>
	<path class="st1" d="M32.9,67.3c-6.3,0-11.4,5.1-11.4,11.4l0,47.8c0,6.3,5.1,11.4,11.4,11.4c6.3,0,11.4-5.1,11.4-11.4l0-47.8
		C44.3,72.4,39.2,67.3,32.9,67.3 M124.9,24.3l8-14.6c0.4-0.8,0.1-1.7-0.6-2.2c-0.8-0.4-1.7-0.1-2.1,0.6L122.1,23
		c-6.8-3-14.4-4.7-22.4-4.7c-8,0-15.6,1.7-22.3,4.7L69.3,8.3c-0.4-0.8-1.4-1.1-2.1-0.6c-0.8,0.4-1.1,1.4-0.6,2.1l8,14.5
		c-15.7,8.1-26.3,23.5-26.2,41.1l102.9,0C151.2,47.8,140.6,32.4,124.9,24.3 M76.3,46.8c-2.4,0-4.3-1.9-4.3-4.3
		c0-2.4,1.9-4.3,4.3-4.3c2.4,0,4.3,1.9,4.3,4.3C80.6,44.9,78.7,46.8,76.3,46.8 M123.2,46.8c-2.4,0-4.3-1.9-4.3-4.3
		c0-2.4,1.9-4.3,4.3-4.3c2.4,0,4.3,2,4.3,4.3C127.5,44.9,125.5,46.8,123.2,46.8 M48.7,69.4l0,74.1c0,6.7,5.4,12.2,12.2,12.2l8.3,0
		l0,25.3c0,6.3,5.1,11.4,11.4,11.4c6.3,0,11.4-5.1,11.4-11.4l0-25.3l15.4,0l0,25.3c0,6.3,5.1,11.4,11.4,11.4
		c6.3,0,11.4-5.1,11.4-11.4l0-25.3l8.3,0c6.7,0,12.2-5.4,12.2-12.2l0-74.1L48.7,69.4z M178,78.7c0-6.3-5.1-11.4-11.4-11.4
		c-6.3,0-11.4,5.1-11.4,11.4l0,47.8c0,6.3,5.1,11.4,11.4,11.4c6.3,0,11.4-5.1,11.4-11.4L178,78.7z"/>
</g>
</svg>
