<?xml version="1.0" encoding="utf-8"?>
<!-- Generator: Adobe Illustrator 21.1.0, SVG Export Plug-In . SVG Version: 6.00 Build 0)  -->
<svg version="1.1" id="Layer_2" xmlns="http://www.w3.org/2000/svg" xmlns:xlink="http://www.w3.org/1999/xlink" x="0px" y="0px"
	 viewBox="0 0 200 78" style="enable-background:new 0 0 200 78;" xml:space="preserve">
<path d="M7.2,8.6h1.5l5.9,13.8h-1.9L11.3,19H4.4L3,22.4H1.1L7.2,8.6z M8,10.7L8,10.7L5,17.5h5.6L8,10.7z M16.1,14.5
	c0.5-0.5,1-0.8,1.7-1.1c0.6-0.2,1.3-0.3,2-0.3c1.4,0,2.3,0.3,2.9,1c0.6,0.6,0.9,1.6,0.9,2.9v3.9c0,0.3,0,0.5,0,0.8
	c0,0.3,0.1,0.5,0.1,0.8h-1.5c-0.1-0.2-0.1-0.4-0.1-0.7c0-0.3,0-0.5,0-0.7h0c-0.3,0.5-0.7,0.9-1.2,1.2c-0.5,0.3-1.1,0.4-1.8,0.4
	c-0.5,0-0.9-0.1-1.3-0.2S17,22.2,16.7,22c-0.3-0.2-0.6-0.5-0.7-0.8c-0.2-0.3-0.3-0.7-0.3-1.2c0-0.8,0.2-1.3,0.6-1.8s0.9-0.7,1.5-1
	c0.6-0.2,1.2-0.3,1.9-0.4c0.7-0.1,1.3-0.1,1.8-0.1H22v-0.3c0-0.7-0.2-1.2-0.6-1.5c-0.4-0.3-1-0.5-1.7-0.5c-0.5,0-1,0.1-1.5,0.2
	c-0.5,0.2-0.9,0.4-1.3,0.8L16.1,14.5z M20.5,18c-1,0-1.8,0.1-2.3,0.4c-0.6,0.3-0.9,0.7-0.9,1.3c0,0.6,0.2,1,0.6,1.2
	c0.4,0.2,0.9,0.4,1.4,0.4c0.4,0,0.8-0.1,1.2-0.2c0.3-0.1,0.6-0.3,0.8-0.6c0.2-0.2,0.4-0.5,0.5-0.9S22,19,22,18.6V18H20.5z M26.6,8.6
	h4.2c0.6,0,1.1,0.1,1.7,0.2s1,0.3,1.5,0.6c0.4,0.3,0.8,0.6,1,1c0.3,0.4,0.4,1,0.4,1.6c0,0.8-0.2,1.5-0.7,2c-0.4,0.5-1,0.9-1.8,1.1v0
	c0.4,0,0.9,0.2,1.2,0.3c0.4,0.2,0.7,0.4,1,0.7c0.3,0.3,0.5,0.6,0.7,1c0.2,0.4,0.2,0.8,0.2,1.3c0,0.8-0.2,1.4-0.5,1.9
	c-0.3,0.5-0.7,0.9-1.2,1.2c-0.5,0.3-1.1,0.5-1.7,0.6s-1.3,0.2-1.9,0.2h-4.1V8.6z M28.2,14.5h2.3c0.4,0,0.8,0,1.1-0.1
	c0.4-0.1,0.7-0.2,1-0.3c0.3-0.2,0.5-0.4,0.7-0.7c0.2-0.3,0.3-0.7,0.3-1.2c0-0.4-0.1-0.8-0.3-1c-0.2-0.3-0.4-0.5-0.7-0.6
	c-0.3-0.2-0.6-0.3-1-0.3c-0.4-0.1-0.7-0.1-1.1-0.1h-2.4V14.5z M28.2,20.9H31c0.4,0,0.8,0,1.2-0.1c0.4-0.1,0.8-0.2,1.1-0.4
	c0.3-0.2,0.6-0.4,0.8-0.7c0.2-0.3,0.3-0.7,0.3-1.1c0-0.5-0.1-0.9-0.3-1.2c-0.2-0.3-0.4-0.6-0.7-0.8c-0.3-0.2-0.7-0.3-1.1-0.4
	C31.9,16,31.5,16,31.1,16h-2.8V20.9z M38.6,7.7h1.5v7h0c0.4-0.5,0.9-0.9,1.5-1.2c0.6-0.3,1.2-0.4,1.8-0.4c0.7,0,1.4,0.1,2,0.4
	c0.6,0.2,1.1,0.6,1.5,1c0.4,0.4,0.7,0.9,1,1.5s0.4,1.2,0.4,1.9c0,0.7-0.1,1.3-0.4,1.9s-0.6,1.1-1,1.5s-0.9,0.8-1.5,1
	c-0.6,0.2-1.2,0.4-1.8,0.4c-0.8,0-1.5-0.2-2.2-0.5c-0.6-0.4-1.1-0.8-1.4-1.3h0v1.6h-1.5V7.7z M40.1,17.9c0,0.5,0.1,0.9,0.2,1.3
	c0.1,0.4,0.4,0.8,0.7,1.1c0.3,0.3,0.6,0.5,1,0.7c0.4,0.2,0.8,0.3,1.3,0.3c0.5,0,0.9-0.1,1.3-0.3c0.4-0.2,0.7-0.4,1-0.7
	c0.3-0.3,0.5-0.7,0.7-1.1c0.1-0.4,0.2-0.9,0.2-1.3c0-0.5-0.1-0.9-0.2-1.3c-0.1-0.4-0.4-0.8-0.7-1.1c-0.3-0.3-0.6-0.5-1-0.7
	c-0.4-0.2-0.8-0.3-1.3-0.3c-0.5,0-0.9,0.1-1.3,0.3c-0.4,0.2-0.7,0.4-1,0.7c-0.3,0.3-0.5,0.7-0.7,1.1C40.2,16.9,40.1,17.4,40.1,17.9z
	 M60.5,11.5c-0.4-0.6-0.9-1-1.5-1.3c-0.6-0.3-1.2-0.4-1.9-0.4c-0.8,0-1.5,0.2-2.1,0.5s-1.2,0.7-1.7,1.3s-0.8,1.1-1.1,1.8
	c-0.3,0.7-0.4,1.4-0.4,2.2c0,0.8,0.1,1.6,0.4,2.3c0.3,0.7,0.6,1.3,1.1,1.8c0.5,0.5,1,0.9,1.7,1.2c0.6,0.3,1.4,0.4,2.1,0.4
	c0.8,0,1.6-0.2,2.3-0.5s1.2-0.8,1.7-1.4l1.2,1c-0.6,0.8-1.4,1.4-2.3,1.8s-1.9,0.6-3,0.6c-1,0-1.9-0.2-2.8-0.5s-1.6-0.9-2.2-1.5
	c-0.6-0.6-1.1-1.4-1.5-2.3c-0.4-0.9-0.5-1.9-0.5-2.9c0-1,0.2-2,0.5-2.9c0.3-0.9,0.8-1.7,1.5-2.3c0.6-0.7,1.4-1.2,2.2-1.5
	c0.9-0.4,1.8-0.6,2.8-0.6c0.9,0,1.8,0.2,2.7,0.5c0.9,0.3,1.6,0.9,2.2,1.7L60.5,11.5z M70.8,15.6c-0.3-0.4-0.7-0.7-1.1-0.8
	c-0.4-0.2-0.8-0.3-1.2-0.3c-0.5,0-1,0.1-1.3,0.3s-0.7,0.4-1,0.7s-0.4,0.7-0.6,1.1c-0.1,0.4-0.2,0.8-0.2,1.3s0.1,0.9,0.2,1.3
	c0.1,0.4,0.4,0.8,0.6,1.1c0.3,0.3,0.6,0.6,1,0.7c0.4,0.2,0.8,0.3,1.3,0.3c1,0,1.8-0.4,2.3-1.1l1.1,1.1c-0.4,0.5-1,0.9-1.6,1.1
	c-0.6,0.2-1.2,0.4-1.9,0.4c-0.7,0-1.3-0.1-1.9-0.4s-1.1-0.6-1.5-1s-0.7-0.9-1-1.5c-0.2-0.6-0.3-1.2-0.3-1.9c0-0.7,0.1-1.3,0.3-1.9
	c0.2-0.6,0.5-1.1,1-1.5c0.4-0.4,0.9-0.8,1.5-1c0.6-0.2,1.2-0.4,1.9-0.4c0.7,0,1.3,0.1,1.9,0.4s1.1,0.6,1.6,1.1L70.8,15.6z M73.8,8.6
	h5.3c0.5,0,0.9,0.1,1.4,0.2C81,8.9,81.5,9,82,9.3c0.5,0.2,1,0.5,1.4,0.9c0.5,0.4,0.9,0.8,1.2,1.3c0.4,0.5,0.6,1.1,0.8,1.8
	c0.2,0.7,0.3,1.4,0.3,2.3c0,0.8-0.1,1.6-0.3,2.3c-0.2,0.7-0.5,1.3-0.8,1.8c-0.4,0.5-0.8,1-1.2,1.3c-0.5,0.4-0.9,0.7-1.4,0.9
	c-0.5,0.2-1,0.4-1.5,0.5c-0.5,0.1-1,0.2-1.4,0.2h-5.3V8.6z M75.4,20.9h3.1c0.8,0,1.5-0.1,2.2-0.3c0.7-0.2,1.3-0.5,1.8-1
	c0.5-0.4,0.9-1,1.2-1.7c0.3-0.7,0.4-1.5,0.4-2.4c0-1-0.1-1.8-0.4-2.4c-0.3-0.7-0.7-1.2-1.2-1.7c-0.5-0.4-1.1-0.8-1.8-1
	c-0.7-0.2-1.4-0.3-2.2-0.3h-3.1V20.9z M95.8,20.8L95.8,20.8c-0.3,0.5-0.8,1-1.4,1.3c-0.6,0.4-1.3,0.5-2.2,0.5
	c-0.6,0-1.2-0.1-1.8-0.4c-0.6-0.2-1-0.6-1.5-1s-0.7-0.9-1-1.5s-0.4-1.2-0.4-1.9c0-0.7,0.1-1.3,0.4-1.9s0.6-1.1,1-1.5
	c0.4-0.4,0.9-0.8,1.5-1c0.6-0.2,1.2-0.4,2-0.4c0.7,0,1.3,0.1,1.8,0.4c0.6,0.3,1,0.7,1.5,1.2h0v-7h1.5v14.8h-1.5V20.8z M95.8,17.9
	c0-0.5-0.1-0.9-0.2-1.3c-0.1-0.4-0.4-0.8-0.7-1.1c-0.3-0.3-0.6-0.5-1-0.7c-0.4-0.2-0.8-0.3-1.3-0.3c-0.5,0-0.9,0.1-1.3,0.3
	c-0.4,0.2-0.7,0.4-1,0.7c-0.3,0.3-0.5,0.7-0.7,1.1c-0.1,0.4-0.2,0.9-0.2,1.3c0,0.5,0.1,0.9,0.2,1.3c0.1,0.4,0.4,0.8,0.7,1.1
	c0.3,0.3,0.6,0.5,1,0.7c0.4,0.2,0.8,0.3,1.3,0.3c0.5,0,0.9-0.1,1.3-0.3c0.4-0.2,0.7-0.4,1-0.7c0.3-0.3,0.5-0.7,0.7-1.1
	C95.7,18.8,95.8,18.3,95.8,17.9z M100.4,8.6h8.7v1.5h-7.1v4.3h6.6V16h-6.6v4.9h7.4v1.5h-9V8.6z M119.9,20.8
	c-0.5,0.7-1.1,1.2-1.8,1.5c-0.7,0.3-1.4,0.4-2.3,0.4c-0.7,0-1.4-0.1-1.9-0.4s-1.1-0.6-1.5-1s-0.7-0.9-0.9-1.5s-0.3-1.2-0.3-1.9
	c0-0.7,0.1-1.4,0.4-1.9c0.2-0.6,0.6-1.1,1-1.5c0.4-0.4,0.9-0.8,1.5-1s1.2-0.4,1.9-0.4c0.6,0,1.2,0.1,1.8,0.3c0.5,0.2,1,0.5,1.4,0.9
	c0.4,0.4,0.7,0.9,0.9,1.5c0.2,0.6,0.3,1.3,0.3,2v0.5h-7.4c0,0.4,0.1,0.8,0.3,1.1c0.2,0.4,0.4,0.7,0.6,0.9c0.3,0.3,0.6,0.5,0.9,0.6
	s0.7,0.2,1.2,0.2c0.7,0,1.2-0.1,1.7-0.4c0.5-0.2,0.9-0.6,1.2-1L119.9,20.8z M118.6,17c0-0.8-0.3-1.4-0.8-1.9s-1.1-0.7-2-0.7
	s-1.5,0.2-2.1,0.7s-0.8,1.1-0.9,1.9H118.6z M122.9,8.6h8.6v1.5h-6.9v4.6h6.4v1.5h-6.4v6.2h-1.6V8.6z M134.2,14.6h-2v-1.3h2v-2.1
	c0-0.6,0.1-1.1,0.2-1.5c0.1-0.5,0.3-0.9,0.5-1.2c0.3-0.3,0.6-0.6,1-0.8c0.4-0.2,0.9-0.3,1.5-0.3c0.2,0,0.4,0,0.6,0.1
	s0.4,0.1,0.5,0.2L138.4,9c-0.4-0.1-0.7-0.2-1-0.2c-0.4,0-0.7,0.1-0.9,0.2s-0.4,0.3-0.5,0.6c-0.1,0.2-0.2,0.5-0.2,0.9
	c0,0.3,0,0.7,0,1.1v1.7h2.2v1.3h-2.2v7.9h-1.5V14.6z M151.6,21.5c-0.8,0.4-1.6,0.8-2.5,1s-1.8,0.3-2.7,0.3c-1.1,0-2.1-0.2-3-0.5
	s-1.7-0.8-2.3-1.5c-0.7-0.6-1.2-1.4-1.5-2.3c-0.4-0.9-0.5-1.9-0.5-3c0-1.1,0.2-2.1,0.6-3c0.4-0.9,0.9-1.7,1.6-2.3
	c0.7-0.6,1.5-1.1,2.4-1.5s1.9-0.5,2.9-0.5c0.9,0,1.8,0.1,2.6,0.4s1.6,0.7,2.3,1.4l-1.2,1.3c-0.5-0.5-1-0.9-1.7-1.2
	c-0.7-0.3-1.4-0.4-2.1-0.4c-0.8,0-1.5,0.1-2.2,0.4c-0.7,0.3-1.3,0.7-1.8,1.2s-0.9,1.1-1.2,1.8s-0.4,1.5-0.4,2.3
	c0,0.8,0.1,1.6,0.4,2.3s0.7,1.3,1.2,1.8c0.5,0.5,1.1,0.9,1.8,1.2c0.7,0.3,1.5,0.4,2.3,0.4c0.6,0,1.1-0.1,1.8-0.2
	c0.6-0.1,1.2-0.3,1.7-0.6v-4.2h-3.2v-1.5h4.8V21.5z M163.9,22c0,1.7-0.4,2.9-1.3,3.8c-0.9,0.9-2.1,1.3-3.7,1.3
	c-0.9,0-1.7-0.1-2.4-0.4c-0.7-0.3-1.4-0.7-2.1-1.3l1.1-1.2c0.5,0.5,1,0.9,1.5,1.2c0.5,0.3,1.2,0.4,1.9,0.4c0.7,0,1.2-0.1,1.7-0.3
	c0.4-0.2,0.8-0.5,1.1-0.8c0.3-0.3,0.4-0.7,0.5-1.2c0.1-0.4,0.2-0.9,0.2-1.4v-1.2h0c-0.4,0.6-0.8,1-1.4,1.3s-1.2,0.4-1.8,0.4
	c-0.7,0-1.4-0.1-2-0.4s-1.1-0.6-1.5-1c-0.4-0.4-0.8-0.9-1-1.5c-0.2-0.6-0.4-1.2-0.4-1.9c0-0.7,0.1-1.4,0.4-2c0.2-0.6,0.6-1.1,1-1.5
	s0.9-0.7,1.5-0.9c0.6-0.2,1.3-0.3,2-0.3c0.3,0,0.6,0,0.9,0.1c0.3,0.1,0.6,0.2,0.9,0.3c0.3,0.1,0.6,0.3,0.8,0.6
	c0.2,0.2,0.4,0.5,0.6,0.8h0v-1.6h1.5V22z M155.9,17.9c0,0.5,0.1,0.9,0.3,1.3c0.2,0.4,0.4,0.7,0.7,1s0.6,0.5,1,0.7
	c0.4,0.2,0.8,0.3,1.2,0.3c0.5,0,1-0.1,1.4-0.3c0.4-0.2,0.7-0.4,1-0.7c0.3-0.3,0.5-0.7,0.6-1.1c0.1-0.4,0.2-0.8,0.2-1.3
	c0-0.5-0.1-0.9-0.2-1.4s-0.4-0.8-0.7-1.1c-0.3-0.3-0.6-0.5-1-0.7c-0.4-0.2-0.8-0.2-1.3-0.2s-0.9,0.1-1.3,0.3s-0.7,0.4-1,0.7
	c-0.3,0.3-0.5,0.7-0.7,1.1S155.9,17.4,155.9,17.9z M167,8.6h1.6v5.9h7.4V8.6h1.6v13.8H176V16h-7.4v6.4H167V8.6z M180.8,7.7h1.5v6.9
	h0c0.1-0.2,0.2-0.4,0.4-0.5s0.4-0.3,0.7-0.5c0.3-0.1,0.5-0.3,0.8-0.4c0.3-0.1,0.6-0.1,1-0.1c0.6,0,1.1,0.1,1.6,0.3
	c0.4,0.2,0.8,0.4,1.1,0.8c0.3,0.3,0.5,0.7,0.6,1.2c0.1,0.5,0.2,1,0.2,1.5v5.6h-1.5v-5.5c0-0.8-0.2-1.4-0.5-1.8
	c-0.3-0.4-0.9-0.7-1.6-0.7c-0.5,0-0.9,0.1-1.3,0.3c-0.4,0.2-0.7,0.4-0.9,0.7s-0.4,0.7-0.5,1.1s-0.2,0.9-0.2,1.4v4.5h-1.5V7.7z
	 M192,8.6h1.6v13.8H192V8.6z M196.5,9.7c0-0.3,0.1-0.6,0.3-0.8c0.2-0.2,0.5-0.3,0.8-0.3s0.6,0.1,0.8,0.3c0.2,0.2,0.3,0.5,0.3,0.8
	c0,0.3-0.1,0.6-0.3,0.8c-0.2,0.2-0.5,0.3-0.8,0.3s-0.6-0.1-0.8-0.3C196.6,10.3,196.5,10,196.5,9.7z M196.9,13.3h1.5v9.1h-1.5V13.3z
	 M8.7,42.3c0,0.5-0.1,0.9-0.2,1.4S8.1,44.6,7.8,45c-0.3,0.4-0.7,0.7-1.2,0.9c-0.5,0.2-1.1,0.4-1.9,0.4c-1,0-1.8-0.2-2.4-0.7
	c-0.7-0.5-1.1-1.2-1.2-2.2l1.6-0.3c0.1,0.5,0.3,1,0.7,1.3c0.3,0.3,0.8,0.5,1.4,0.5c0.5,0,0.9-0.1,1.2-0.3c0.3-0.2,0.5-0.4,0.7-0.7
	c0.2-0.3,0.3-0.6,0.3-0.9c0.1-0.4,0.1-0.7,0.1-1.1V32h1.6V42.3z M14.1,47.9c0,0.2,0,0.5-0.1,0.8c-0.1,0.3-0.2,0.6-0.4,0.9
	s-0.5,0.5-0.8,0.7c-0.4,0.2-0.8,0.3-1.4,0.3c-0.2,0-0.4,0-0.5,0s-0.3-0.1-0.5-0.2l0.2-1.3c0.2,0.1,0.5,0.1,0.7,0.1
	c0.3,0,0.5-0.1,0.7-0.2s0.3-0.2,0.4-0.4c0.1-0.2,0.2-0.4,0.2-0.6c0-0.2,0-0.5,0-0.7V36.7h1.5V47.9z M12.2,33.2
	c0-0.3,0.1-0.6,0.3-0.8c0.2-0.2,0.5-0.3,0.8-0.3s0.6,0.1,0.8,0.3c0.2,0.2,0.3,0.5,0.3,0.8c0,0.3-0.1,0.6-0.3,0.8
	c-0.2,0.2-0.5,0.3-0.8,0.3c-0.3,0-0.6-0.1-0.8-0.3C12.3,33.7,12.2,33.5,12.2,33.2z M18,32h1.6v6h0.2l6.3-6h2.4l-6.8,6.3l7.2,7.5
	h-2.4l-6.6-7h-0.2v7H18V32z M30.6,31.1h1.5v9.6l4.2-4h2.2L34,40.9l4.9,5h-2.2l-4.5-4.8v4.8h-1.5V31.1z M41.2,32h1.6v12.3h6.3v1.5h-8
	V32z M51.4,31.1H53v14.8h-1.5V31.1z M56.9,32h2.4L64,42.9h0L68.8,32h2.4v13.8h-1.6V34.3h0l-5,11.6h-1l-5-11.6h0v11.6h-1.6V32z
	 M74.9,38.9c0-0.4,0-0.8,0-1.2c0-0.4,0-0.7,0-1h1.4c0,0.2,0,0.5,0,0.7c0,0.2,0,0.5,0,0.8h0c0.1-0.2,0.3-0.4,0.4-0.6
	c0.2-0.2,0.4-0.4,0.7-0.6c0.3-0.2,0.6-0.3,0.9-0.4c0.3-0.1,0.7-0.1,1.1-0.1c0.5,0,0.9,0.1,1.2,0.2c0.3,0.1,0.6,0.3,0.8,0.4
	c0.2,0.2,0.4,0.4,0.5,0.6c0.1,0.2,0.2,0.4,0.3,0.5c0.3-0.5,0.7-1,1.2-1.3c0.4-0.3,1-0.5,1.7-0.5c0.7,0,1.2,0.1,1.6,0.3
	c0.4,0.2,0.8,0.4,1.1,0.8s0.5,0.7,0.6,1.2c0.1,0.5,0.2,1,0.2,1.6v5.5h-1.5v-5.5c0-0.3,0-0.6-0.1-0.9c-0.1-0.3-0.2-0.6-0.4-0.8
	c-0.2-0.2-0.4-0.4-0.7-0.6c-0.3-0.1-0.7-0.2-1.1-0.2c-0.3,0-0.6,0.1-0.9,0.2c-0.3,0.1-0.5,0.3-0.8,0.5s-0.4,0.5-0.5,0.8
	c-0.1,0.3-0.2,0.7-0.2,1.1v5.3H81v-5.2c0-1-0.1-1.7-0.4-2.2c-0.3-0.4-0.7-0.6-1.3-0.6c-0.5,0-0.9,0.1-1.3,0.3
	c-0.4,0.2-0.7,0.4-0.9,0.7c-0.2,0.3-0.4,0.7-0.5,1.1c-0.1,0.4-0.2,0.9-0.2,1.4v4.5h-1.5V38.9z M92.4,32h2.1l8,11.5h0V32h1.6v13.8
	h-2.1l-8-11.5h0v11.5h-1.6V32z M107.9,38.9c0-0.4,0-0.8,0-1.2c0-0.4,0-0.7,0-1h1.4c0,0.2,0,0.5,0,0.7c0,0.2,0,0.5,0,0.8h0
	c0.1-0.2,0.3-0.4,0.4-0.6c0.2-0.2,0.4-0.4,0.7-0.6c0.3-0.2,0.6-0.3,0.9-0.4s0.7-0.1,1.1-0.1c0.6,0,1.1,0.1,1.6,0.3
	c0.4,0.2,0.8,0.4,1.1,0.8c0.3,0.3,0.5,0.7,0.6,1.2c0.1,0.5,0.2,1,0.2,1.5v5.6h-1.5v-5.5c0-0.8-0.2-1.4-0.5-1.8
	c-0.3-0.4-0.9-0.7-1.6-0.7c-0.5,0-0.9,0.1-1.3,0.3c-0.4,0.2-0.7,0.4-0.9,0.7s-0.4,0.7-0.5,1.1s-0.2,0.9-0.2,1.4v4.5h-1.5V38.9z
	 M126,46.2c-1.1,0-2-0.2-2.9-0.5s-1.6-0.9-2.3-1.5s-1.1-1.4-1.5-2.3s-0.5-1.9-0.5-2.9c0-1,0.2-2,0.5-2.9c0.4-0.9,0.9-1.7,1.5-2.3
	s1.4-1.1,2.3-1.5c0.9-0.4,1.8-0.5,2.9-0.5s2,0.2,2.9,0.5c0.9,0.4,1.6,0.9,2.3,1.5s1.1,1.4,1.5,2.3c0.4,0.9,0.5,1.9,0.5,2.9
	c0,1-0.2,2-0.5,2.9c-0.4,0.9-0.9,1.7-1.5,2.3s-1.4,1.1-2.3,1.5S127.1,46.2,126,46.2z M126,44.7c0.8,0,1.5-0.1,2.2-0.4
	c0.7-0.3,1.2-0.7,1.7-1.2c0.5-0.5,0.9-1.1,1.1-1.8c0.3-0.7,0.4-1.4,0.4-2.2c0-0.8-0.1-1.5-0.4-2.2c-0.3-0.7-0.6-1.3-1.1-1.8
	c-0.5-0.5-1.1-0.9-1.7-1.2c-0.7-0.3-1.4-0.4-2.2-0.4c-0.8,0-1.5,0.1-2.2,0.4c-0.7,0.3-1.2,0.7-1.7,1.2c-0.5,0.5-0.9,1.1-1.1,1.8
	c-0.3,0.7-0.4,1.4-0.4,2.2c0,0.8,0.1,1.5,0.4,2.2s0.6,1.3,1.1,1.8s1.1,0.9,1.7,1.2S125.2,44.7,126,44.7z M135.7,41.3
	c0-0.7,0.1-1.4,0.4-2s0.6-1.1,1-1.5c0.4-0.4,0.9-0.8,1.5-1s1.2-0.4,2-0.4s1.4,0.1,2,0.4s1.1,0.6,1.5,1c0.4,0.4,0.8,0.9,1,1.5
	c0.2,0.6,0.4,1.2,0.4,2s-0.1,1.4-0.4,2c-0.2,0.6-0.6,1.1-1,1.5s-0.9,0.8-1.5,1s-1.2,0.4-2,0.4s-1.4-0.1-2-0.4s-1.1-0.6-1.5-1
	s-0.8-0.9-1-1.5S135.7,42,135.7,41.3z M137.3,41.3c0,0.5,0.1,0.9,0.2,1.3s0.4,0.8,0.7,1.1s0.6,0.5,1,0.7s0.8,0.3,1.3,0.3
	s0.9-0.1,1.3-0.3c0.4-0.2,0.7-0.4,1-0.7c0.3-0.3,0.5-0.7,0.7-1.1c0.1-0.4,0.2-0.9,0.2-1.3s-0.1-0.9-0.2-1.3
	c-0.2-0.4-0.4-0.8-0.7-1.1c-0.3-0.3-0.6-0.5-1-0.7c-0.4-0.2-0.8-0.3-1.3-0.3s-0.9,0.1-1.3,0.3s-0.7,0.4-1,0.7
	c-0.3,0.3-0.5,0.7-0.7,1.1S137.3,40.8,137.3,41.3z M148.7,32h4.1c0.6,0,1.2,0.1,1.8,0.2c0.6,0.1,1.1,0.3,1.5,0.6s0.8,0.7,1.1,1.2
	c0.3,0.5,0.4,1.1,0.4,1.8c0,0.8-0.1,1.4-0.4,1.9c-0.3,0.5-0.7,0.9-1.1,1.2c-0.4,0.3-0.9,0.5-1.5,0.6c-0.5,0.1-1,0.2-1.5,0.2h-2.8
	v6.2h-1.6V32z M150.3,38.1h2.8c0.8,0,1.5-0.2,2-0.6c0.5-0.4,0.8-0.9,0.8-1.7s-0.3-1.4-0.8-1.7c-0.5-0.4-1.2-0.6-2-0.6h-2.8V38.1z
	 M160.5,36.7h1.5v1.3h0c0.4-0.5,0.9-0.9,1.5-1.2s1.2-0.4,1.8-0.4c0.7,0,1.4,0.1,2,0.4c0.6,0.2,1.1,0.6,1.5,1c0.4,0.4,0.7,0.9,1,1.5
	s0.4,1.2,0.4,1.9s-0.1,1.3-0.4,1.9s-0.6,1.1-1,1.5s-0.9,0.8-1.5,1c-0.6,0.2-1.2,0.4-1.8,0.4c-0.8,0-1.5-0.2-2.2-0.5
	s-1.1-0.8-1.4-1.3h0v6.1h-1.5V36.7z M162,41.3c0,0.5,0.1,0.9,0.2,1.3s0.4,0.8,0.7,1.1s0.6,0.5,1,0.7s0.8,0.3,1.3,0.3
	s0.9-0.1,1.3-0.3c0.4-0.2,0.7-0.4,1-0.7c0.3-0.3,0.5-0.7,0.7-1.1c0.1-0.4,0.2-0.9,0.2-1.3s-0.1-0.9-0.2-1.3
	c-0.2-0.4-0.4-0.8-0.7-1.1c-0.3-0.3-0.6-0.5-1-0.7c-0.4-0.2-0.8-0.3-1.3-0.3s-0.9,0.1-1.3,0.3s-0.7,0.4-1,0.7
	c-0.3,0.3-0.5,0.7-0.7,1.1S162,40.8,162,41.3z M187.7,45.9h-8c-1,0-2-0.2-2.8-0.5s-1.6-0.9-2.2-1.5s-1.1-1.4-1.5-2.2
	s-0.5-1.8-0.5-2.8c0-1,0.2-1.9,0.5-2.8c0.4-0.9,0.9-1.6,1.5-2.2c0.6-0.6,1.4-1.1,2.2-1.5c0.9-0.4,1.8-0.5,2.8-0.5s2,0.2,2.8,0.5
	c0.9,0.4,1.6,0.9,2.2,1.5c0.6,0.6,1.1,1.4,1.5,2.2c0.4,0.9,0.5,1.8,0.5,2.8c0,0.6-0.1,1.2-0.2,1.7s-0.4,1.1-0.7,1.6s-0.6,1-1.1,1.3
	s-0.9,0.7-1.4,0.9v0h4.3V45.9z M174.3,38.8c0,0.8,0.1,1.5,0.4,2.2s0.6,1.3,1.1,1.8s1,0.9,1.7,1.2s1.4,0.4,2.1,0.4
	c0.8,0,1.5-0.1,2.1-0.4c0.7-0.3,1.2-0.7,1.7-1.2c0.5-0.5,0.8-1.1,1.1-1.8s0.4-1.4,0.4-2.2c0-0.8-0.1-1.5-0.4-2.2
	c-0.3-0.7-0.6-1.3-1.1-1.8c-0.5-0.5-1-0.9-1.7-1.2c-0.7-0.3-1.4-0.4-2.1-0.4s-1.5,0.1-2.1,0.4s-1.2,0.7-1.7,1.2
	c-0.5,0.5-0.8,1.1-1.1,1.8C174.5,37.3,174.3,38,174.3,38.8z M199.1,50.3h-1.5v-5.8h0c-0.4,0.5-0.9,0.9-1.5,1.2
	c-0.6,0.3-1.2,0.4-1.8,0.4c-0.7,0-1.4-0.1-2-0.4s-1.1-0.6-1.5-1s-0.7-0.9-1-1.5s-0.4-1.2-0.4-1.9c0-0.7,0.1-1.3,0.4-1.9
	s0.6-1.1,1-1.5s0.9-0.8,1.5-1c0.6-0.2,1.2-0.4,1.8-0.4c0.8,0,1.5,0.2,2.2,0.5c0.6,0.4,1.1,0.8,1.4,1.3h0v-1.6h1.5V50.3z M197.6,41.3
	c0-0.5-0.1-0.9-0.2-1.3c-0.2-0.4-0.4-0.8-0.7-1.1c-0.3-0.3-0.6-0.5-1-0.7c-0.4-0.2-0.8-0.3-1.3-0.3s-0.9,0.1-1.3,0.3s-0.7,0.4-1,0.7
	c-0.3,0.3-0.5,0.7-0.7,1.1s-0.2,0.9-0.2,1.3s0.1,0.9,0.2,1.3s0.4,0.8,0.7,1.1s0.6,0.5,1,0.7s0.8,0.3,1.3,0.3s0.9-0.1,1.3-0.3
	c0.4-0.2,0.7-0.4,1-0.7c0.3-0.3,0.5-0.7,0.7-1.1C197.5,42.2,197.6,41.8,197.6,41.3z M2.7,55.5h3.5c0.7,0,1.3,0,2,0.1
	c0.7,0.1,1.2,0.2,1.8,0.5c0.5,0.3,0.9,0.6,1.3,1.1c0.3,0.5,0.5,1.2,0.5,2c0,1-0.3,1.8-0.9,2.5c-0.6,0.6-1.5,1-2.5,1.2l3.9,6.4h-2
	l-3.8-6.2H4.4v6.2H2.7V55.5z M4.4,61.6h1.5c0.5,0,0.9,0,1.4,0c0.5,0,0.9-0.1,1.3-0.3c0.4-0.1,0.7-0.4,1-0.7c0.3-0.3,0.4-0.7,0.4-1.3
	c0-0.5-0.1-0.9-0.3-1.2c-0.2-0.3-0.5-0.5-0.8-0.7c-0.3-0.2-0.7-0.3-1.1-0.3C7.5,57,7.1,57,6.7,57H4.4V61.6z M14.4,62.3
	c0-0.4,0-0.8,0-1.2c0-0.4,0-0.7,0-1h1.4c0,0.2,0,0.5,0,0.7c0,0.2,0,0.5,0,0.8h0c0.1-0.2,0.3-0.4,0.4-0.6c0.2-0.2,0.4-0.4,0.7-0.6
	c0.3-0.2,0.6-0.3,0.9-0.4c0.3-0.1,0.7-0.1,1.1-0.1c0.1,0,0.2,0,0.3,0c0.1,0,0.2,0,0.3,0.1l-0.1,1.5c-0.3-0.1-0.5-0.1-0.8-0.1
	c-0.9,0-1.6,0.3-2,0.9c-0.4,0.6-0.6,1.4-0.6,2.5v4.5h-1.5V62.3z M28.1,57.9c-0.3-0.4-0.6-0.8-1.1-1c-0.5-0.2-0.9-0.3-1.4-0.3
	c-0.4,0-0.7,0-1.1,0.1c-0.4,0.1-0.7,0.2-0.9,0.4c-0.3,0.2-0.5,0.4-0.7,0.7c-0.2,0.3-0.3,0.7-0.3,1.1c0,0.3,0,0.6,0.1,0.8
	c0.1,0.2,0.3,0.5,0.5,0.7c0.2,0.2,0.5,0.4,0.9,0.5c0.4,0.2,0.8,0.3,1.4,0.5c0.5,0.2,1.1,0.4,1.6,0.5c0.5,0.2,0.9,0.4,1.3,0.7
	c0.4,0.3,0.7,0.7,0.9,1.1c0.2,0.4,0.3,1,0.3,1.7c0,0.7-0.1,1.3-0.4,1.8s-0.6,0.9-1.1,1.3s-1,0.6-1.6,0.7s-1.2,0.2-1.8,0.2
	c-0.4,0-0.8,0-1.2-0.1c-0.4-0.1-0.8-0.2-1.2-0.3s-0.7-0.3-1-0.6c-0.3-0.2-0.6-0.5-0.8-0.9l1.4-1.2c0.3,0.5,0.7,0.9,1.2,1.2
	c0.5,0.3,1.1,0.4,1.7,0.4c0.4,0,0.7-0.1,1.1-0.2c0.4-0.1,0.7-0.3,1-0.5c0.3-0.2,0.5-0.5,0.7-0.8c0.2-0.3,0.3-0.6,0.3-1
	c0-0.4-0.1-0.8-0.2-1c-0.1-0.3-0.4-0.5-0.7-0.7c-0.3-0.2-0.7-0.4-1.1-0.5c-0.5-0.2-1-0.3-1.6-0.5c-0.5-0.2-1-0.3-1.4-0.5
	c-0.4-0.2-0.8-0.4-1.1-0.7c-0.3-0.3-0.5-0.6-0.7-1.1s-0.3-0.9-0.3-1.5c0-0.7,0.1-1.2,0.4-1.7c0.3-0.5,0.6-0.9,1.1-1.2
	c0.4-0.3,0.9-0.6,1.5-0.8c0.6-0.2,1.1-0.3,1.8-0.3c0.8,0,1.5,0.1,2.1,0.4c0.6,0.2,1.2,0.7,1.7,1.3L28.1,57.9z M32.3,66.9
	c0.3,0.4,0.6,0.7,1,0.9c0.4,0.2,0.8,0.3,1.4,0.3c0.2,0,0.5,0,0.7-0.1c0.2-0.1,0.5-0.1,0.7-0.3s0.4-0.3,0.5-0.4s0.2-0.4,0.2-0.6
	s-0.1-0.4-0.2-0.6c-0.1-0.2-0.3-0.3-0.4-0.4c-0.2-0.1-0.4-0.2-0.6-0.3s-0.5-0.1-0.7-0.2c-0.4-0.1-0.8-0.2-1.2-0.3s-0.7-0.3-1-0.5
	s-0.5-0.4-0.7-0.7s-0.3-0.7-0.3-1.2c0-0.4,0.1-0.8,0.3-1.2c0.2-0.3,0.5-0.6,0.8-0.8c0.3-0.2,0.7-0.4,1.1-0.5
	c0.4-0.1,0.8-0.2,1.2-0.2c0.7,0,1.3,0.1,1.8,0.4c0.6,0.3,1,0.7,1.3,1.3l-1.3,0.8c-0.2-0.3-0.5-0.6-0.8-0.8c-0.3-0.2-0.7-0.3-1.2-0.3
	c-0.2,0-0.4,0-0.6,0.1c-0.2,0.1-0.4,0.1-0.6,0.2c-0.2,0.1-0.3,0.2-0.4,0.4c-0.1,0.2-0.2,0.3-0.2,0.6c0,0.2,0.1,0.4,0.2,0.5
	c0.1,0.1,0.3,0.3,0.5,0.4s0.5,0.2,0.7,0.3c0.3,0.1,0.6,0.1,0.9,0.2c0.4,0.1,0.8,0.2,1.2,0.3c0.4,0.1,0.7,0.3,1,0.5s0.5,0.5,0.6,0.8
	s0.2,0.7,0.2,1.2c0,0.5-0.1,1-0.3,1.3c-0.2,0.4-0.5,0.7-0.8,0.9c-0.3,0.2-0.7,0.4-1.2,0.5c-0.4,0.1-0.9,0.2-1.3,0.2
	c-0.8,0-1.5-0.1-2-0.4s-1.1-0.7-1.5-1.3L32.3,66.9z M50,57h-4.6v12.3h-1.6V57h-4.6v-1.5H50V57z M56.6,61.5h-2.7V66
	c0,0.3,0,0.6,0,0.8c0,0.3,0.1,0.5,0.2,0.7c0.1,0.2,0.2,0.3,0.4,0.4c0.2,0.1,0.4,0.2,0.8,0.2c0.2,0,0.4,0,0.7-0.1s0.5-0.1,0.7-0.2
	l0.1,1.4c-0.3,0.1-0.6,0.2-0.9,0.3c-0.3,0.1-0.6,0.1-0.9,0.1c-0.5,0-1-0.1-1.3-0.2c-0.3-0.1-0.6-0.3-0.8-0.6c-0.2-0.3-0.3-0.6-0.4-1
	s-0.1-0.8-0.1-1.3v-5h-2v-1.3h2v-2.6h1.5v2.6h2.7V61.5z M69.2,64c0,0.8-0.1,1.5-0.3,2.1c-0.2,0.7-0.5,1.3-0.9,1.8s-0.9,0.9-1.6,1.2
	s-1.5,0.5-2.4,0.5c-1,0-1.8-0.2-2.4-0.5s-1.2-0.7-1.6-1.2s-0.7-1.1-0.9-1.8c-0.2-0.7-0.3-1.4-0.3-2.1v-8.6h1.6v8.3
	c0,0.6,0.1,1.1,0.2,1.6s0.3,1,0.6,1.4s0.6,0.7,1.1,1c0.5,0.2,1,0.4,1.7,0.4c0.7,0,1.3-0.1,1.7-0.4c0.5-0.2,0.8-0.6,1.1-1
	s0.5-0.9,0.6-1.4s0.2-1.1,0.2-1.6v-8.3h1.6V64z M80.2,67.1c0,0.4,0,0.8,0,1.2c0,0.4,0,0.7,0,1h-1.4c0-0.2,0-0.5,0-0.7
	c0-0.2,0-0.5,0-0.8h0c-0.1,0.2-0.3,0.4-0.4,0.6c-0.2,0.2-0.4,0.4-0.7,0.6c-0.3,0.2-0.6,0.3-0.9,0.4c-0.3,0.1-0.7,0.1-1.1,0.1
	c-0.6,0-1.1-0.1-1.6-0.3c-0.4-0.2-0.8-0.4-1.1-0.8c-0.3-0.3-0.5-0.7-0.6-1.2s-0.2-1-0.2-1.5v-5.6h1.5v5.5c0,0.8,0.2,1.4,0.5,1.8
	c0.3,0.4,0.9,0.7,1.6,0.7c0.5,0,0.9-0.1,1.3-0.3c0.4-0.2,0.7-0.4,0.9-0.7c0.2-0.3,0.4-0.7,0.5-1.1c0.1-0.4,0.2-0.9,0.2-1.4v-4.5h1.5
	V67.1z M81.5,55.5h1.9l4.3,11.4h0l4.4-11.4h1.7l-5.4,13.8h-1.6L81.5,55.5z M99.2,69.3h-1.7l-3.7-9.1h1.8l2.9,7.2h0l2.7-7.2h1.6
	L99.2,69.3z M103.1,55.5h1.8l3.1,11.5h0l3.4-11.5h1.8l3.4,11.5h0l3.2-11.5h1.7l-4.1,13.8h-1.8l-3.4-11.7h0L109,69.3h-1.8L103.1,55.5
	z M133.1,69.3h-1.5l-2.6-7h0l-2.3,7h-1.6l-3-9.1h1.7l2.1,7h0l2.4-7h1.6l2.4,7h0l2.1-7h1.6L133.1,69.3z M141.3,62l-4.6-6.5h2.1
	l3.7,5.4l3.7-5.4h2.1l-4.6,6.5l5.1,7.3h-2.2l-4.1-6.1l-4.1,6.1h-2L141.3,62z M152.4,64.4l-3.3-4.2h2l2.4,3.3l2.3-3.3h1.9l-3.1,4.2
	l3.8,4.9h-2l-2.9-3.9l-2.9,3.9h-1.9L152.4,64.4z M163.4,63.3l-5.2-7.9h2.1l3.9,6.2l4-6.2h2l-5.2,7.9v6h-1.6V63.3z M174.8,71.4
	c-0.2,0.4-0.3,0.7-0.5,1.1s-0.4,0.6-0.6,0.8s-0.5,0.4-0.8,0.5s-0.7,0.2-1.2,0.2c-0.2,0-0.5,0-0.7,0s-0.5-0.1-0.7-0.2l0.2-1.3
	c0.2,0.1,0.3,0.1,0.5,0.1s0.4,0,0.6,0c0.5,0,0.9-0.1,1.1-0.4s0.4-0.6,0.6-1.1l0.6-1.7l-3.8-9.2h1.8l2.8,7.2h0l2.7-7.2h1.7
	L174.8,71.4z M180,67.8l8-10.8h-7.9v-1.5h9.9v1.4l-8,10.9h8.1v1.5H180V67.8z M191.2,68.1l5.4-6.7h-5.1v-1.3h7.1v1.2l-5.4,6.7h5.5
	v1.3h-7.5V68.1z"/>
</svg>
