<?xml version="1.0" encoding="utf-8"?>
<!-- Generator: Adobe Illustrator 24.2.0, SVG Export Plug-In . SVG Version: 6.00 Build 0)  -->
<svg version="1.1" id="Layer_2_1_" xmlns="http://www.w3.org/2000/svg" xmlns:xlink="http://www.w3.org/1999/xlink" x="0px" y="0px"
	 viewBox="0 0 200 78" style="enable-background:new 0 0 200 78;" xml:space="preserve">
<path d="M8.2,41.8c0,0.6-0.1,1.2-0.2,1.8c-0.1,0.6-0.3,1.1-0.6,1.5c-0.3,0.5-0.7,0.8-1.3,1.1c-0.6,0.3-1.3,0.4-2.2,0.4
	c-1.1,0-2-0.3-2.7-0.8c-0.7-0.5-1.2-1.3-1.4-2.4l2.7-0.7c0,0.3,0.2,0.6,0.4,0.8C3.2,43.9,3.5,44,3.8,44c0.3,0,0.6-0.1,0.8-0.3
	s0.3-0.4,0.4-0.6c0.1-0.3,0.1-0.5,0.2-0.8s0-0.6,0-0.8v-8.6h3V41.8z M13.6,47c0,0.6-0.1,1.1-0.2,1.6c-0.1,0.5-0.3,0.9-0.6,1.2
	c-0.3,0.3-0.6,0.6-1.1,0.8c-0.4,0.2-1,0.3-1.6,0.3c-0.2,0-0.4,0-0.7,0c-0.2,0-0.4-0.1-0.7-0.1l0.2-2.5c0.2,0.1,0.5,0.2,0.7,0.2
	c0.2,0,0.4-0.1,0.6-0.2c0.1-0.1,0.2-0.3,0.3-0.5c0.1-0.2,0.1-0.4,0.1-0.6c0-0.2,0-0.4,0-0.6v-9.4h2.9V47z M10.6,34.2
	c0-0.5,0.2-0.8,0.5-1.2c0.3-0.3,0.7-0.5,1.2-0.5c0.5,0,0.8,0.2,1.2,0.5c0.3,0.3,0.5,0.7,0.5,1.2s-0.2,0.8-0.5,1.2
	c-0.3,0.3-0.7,0.5-1.2,0.5c-0.5,0-0.8-0.2-1.2-0.5C10.7,35,10.6,34.6,10.6,34.2z M16.6,32.8h3v5.6l5.2-5.6h3.9l-6,6.3l6.5,7.2H25
	l-5.5-6.4v6.4h-3V32.8z M30.3,31.9h2.9v8.8l3.2-3.6h3.5l-3.7,4.2l3.8,5.1h-3.6l-3.1-4.7h0v4.7h-2.9V31.9z M41.7,32.8h3v10.7h5.5v2.7
	h-8.5V32.8z M51.9,31.9h2.9v14.4h-2.9V31.9z M57.6,32.8h4.5l3.1,8.8h0l3.1-8.8h4.5v13.5h-3V36h0l-3.5,10.3H64L60.6,36h0v10.3h-3
	V32.8z M75.6,37.1h2.7v1.3h0c0.1-0.2,0.2-0.4,0.4-0.5c0.2-0.2,0.4-0.3,0.6-0.5c0.2-0.1,0.5-0.3,0.8-0.3c0.3-0.1,0.6-0.1,1-0.1
	c0.6,0,1.2,0.1,1.7,0.4c0.5,0.3,0.9,0.7,1.1,1.3c0.3-0.6,0.7-1,1.2-1.3s1-0.4,1.7-0.4c0.6,0,1.1,0.1,1.6,0.3s0.8,0.5,1,0.9
	s0.4,0.8,0.5,1.3c0.1,0.5,0.2,1,0.2,1.6v5.5h-2.9v-5.4c0-0.4-0.1-0.8-0.3-1.1c-0.2-0.3-0.5-0.5-1-0.5c-0.3,0-0.6,0.1-0.8,0.2
	c-0.2,0.1-0.4,0.3-0.5,0.4c-0.1,0.2-0.2,0.4-0.3,0.7c-0.1,0.3-0.1,0.5-0.1,0.8v4.9h-2.9v-4.9c0-0.2,0-0.4,0-0.6
	c0-0.2-0.1-0.5-0.1-0.7c-0.1-0.2-0.2-0.4-0.4-0.6s-0.4-0.2-0.8-0.2c-0.4,0-0.7,0.1-0.9,0.2c-0.2,0.1-0.4,0.3-0.5,0.5
	c-0.1,0.2-0.2,0.5-0.2,0.8s-0.1,0.6-0.1,0.9v4.6h-2.9V37.1z M92.9,32.8h4l5.7,9.3h0v-9.3h3v13.5h-3.9l-5.9-9.6h0v9.6h-3V32.8z
	 M108.4,37.1h2.7v1.3h0c0.1-0.2,0.2-0.4,0.4-0.5c0.2-0.2,0.4-0.3,0.6-0.5c0.2-0.1,0.5-0.3,0.8-0.3c0.3-0.1,0.6-0.1,0.9-0.1
	c0.7,0,1.3,0.1,1.7,0.3s0.8,0.5,1,0.9s0.4,0.9,0.5,1.4c0.1,0.5,0.1,1.1,0.1,1.7v5.1h-2.9v-4.5c0-0.3,0-0.5,0-0.8
	c0-0.3-0.1-0.5-0.2-0.8c-0.1-0.2-0.2-0.4-0.4-0.6s-0.5-0.2-0.8-0.2c-0.4,0-0.7,0.1-0.9,0.2c-0.2,0.1-0.4,0.3-0.5,0.5
	c-0.1,0.2-0.2,0.5-0.2,0.8s-0.1,0.6-0.1,0.9v4.6h-2.9V37.1z M119.4,39.6c0-1.1,0.2-2.1,0.5-2.9s0.9-1.6,1.5-2.2
	c0.6-0.6,1.4-1.1,2.3-1.4c0.9-0.3,1.9-0.5,2.9-0.5c1.1,0,2,0.2,2.9,0.5c0.9,0.3,1.7,0.8,2.3,1.4c0.6,0.6,1.1,1.4,1.5,2.2
	c0.4,0.9,0.5,1.8,0.5,2.9s-0.2,2.1-0.5,2.9c-0.4,0.9-0.9,1.6-1.5,2.2c-0.6,0.6-1.4,1.1-2.3,1.4c-0.9,0.3-1.9,0.5-2.9,0.5
	c-1.1,0-2-0.2-2.9-0.5c-0.9-0.3-1.7-0.8-2.3-1.4c-0.6-0.6-1.1-1.4-1.5-2.2S119.4,40.7,119.4,39.6z M122.5,39.6
	c0,0.6,0.1,1.2,0.3,1.7s0.5,1,0.8,1.4c0.4,0.4,0.8,0.7,1.3,0.9c0.5,0.2,1.1,0.3,1.7,0.3c0.6,0,1.2-0.1,1.7-0.3
	c0.5-0.2,1-0.5,1.3-0.9c0.4-0.4,0.6-0.8,0.8-1.4s0.3-1.1,0.3-1.7c0-0.6-0.1-1.2-0.3-1.7c-0.2-0.5-0.5-1-0.8-1.4
	c-0.4-0.4-0.8-0.7-1.3-0.9c-0.5-0.2-1.1-0.3-1.7-0.3c-0.6,0-1.2,0.1-1.7,0.3s-1,0.5-1.3,0.9c-0.4,0.4-0.6,0.8-0.8,1.4
	C122.6,38.4,122.5,39,122.5,39.6z M135.6,41.7c0-0.7,0.1-1.4,0.4-2c0.3-0.6,0.6-1.1,1.1-1.5c0.5-0.4,1-0.8,1.6-1
	c0.6-0.2,1.3-0.3,2-0.3s1.4,0.1,2,0.3s1.2,0.6,1.6,1c0.5,0.4,0.8,0.9,1.1,1.5c0.3,0.6,0.4,1.3,0.4,2c0,0.7-0.1,1.4-0.4,2
	c-0.3,0.6-0.6,1.1-1.1,1.5c-0.5,0.4-1,0.8-1.6,1c-0.6,0.2-1.3,0.3-2,0.3s-1.4-0.1-2-0.3c-0.6-0.2-1.2-0.6-1.6-1
	c-0.5-0.4-0.8-0.9-1.1-1.5C135.8,43.1,135.6,42.4,135.6,41.7z M138.5,41.7c0,0.7,0.2,1.3,0.6,1.7c0.4,0.4,1,0.6,1.7,0.6
	s1.3-0.2,1.7-0.6s0.6-1,0.6-1.7c0-0.7-0.2-1.3-0.6-1.7c-0.4-0.4-1-0.6-1.7-0.6s-1.3,0.2-1.7,0.6C138.7,40.4,138.5,41,138.5,41.7z
	 M148.3,32.8h5c0.7,0,1.4,0.1,2,0.2c0.6,0.1,1.2,0.3,1.6,0.7c0.5,0.3,0.8,0.7,1.1,1.3c0.3,0.5,0.4,1.2,0.4,2c0,0.8-0.1,1.4-0.4,2
	c-0.3,0.5-0.6,1-1,1.3c-0.4,0.3-1,0.5-1.6,0.7c-0.6,0.1-1.3,0.2-2,0.2h-2.2v5.2h-3V32.8z M151.3,38.5h2c0.3,0,0.5,0,0.8-0.1
	c0.2-0.1,0.5-0.1,0.7-0.3c0.2-0.1,0.4-0.3,0.5-0.5c0.1-0.2,0.2-0.5,0.2-0.8c0-0.3-0.1-0.6-0.2-0.8s-0.4-0.4-0.6-0.5
	c-0.2-0.1-0.5-0.2-0.8-0.2c-0.3,0-0.6,0-0.9,0h-1.5V38.5z M160.6,37.1h2.6v1.2h0c0.1-0.2,0.3-0.3,0.4-0.5c0.2-0.2,0.4-0.3,0.6-0.5
	c0.2-0.1,0.5-0.3,0.8-0.3c0.3-0.1,0.6-0.1,0.9-0.1c0.7,0,1.3,0.1,1.9,0.4s1,0.6,1.4,1c0.4,0.4,0.7,0.9,0.9,1.5
	c0.2,0.6,0.3,1.2,0.3,1.9c0,0.6-0.1,1.3-0.3,1.9c-0.2,0.6-0.5,1.1-0.8,1.6c-0.4,0.5-0.8,0.8-1.3,1.1c-0.5,0.3-1.1,0.4-1.8,0.4
	c-0.6,0-1.1-0.1-1.7-0.3c-0.5-0.2-0.9-0.5-1.3-0.9h0v5.3h-2.8V37.1z M163.3,41.7c0,0.7,0.2,1.3,0.6,1.7c0.4,0.4,1,0.6,1.7,0.6
	c0.7,0,1.3-0.2,1.7-0.6s0.6-1,0.6-1.7c0-0.7-0.2-1.3-0.6-1.7c-0.4-0.4-1-0.6-1.7-0.6c-0.7,0-1.3,0.2-1.7,0.6
	C163.5,40.4,163.3,41,163.3,41.7z M187.8,46.3h-8.2c-1.1,0-2-0.2-2.9-0.5c-0.9-0.3-1.7-0.8-2.3-1.4c-0.6-0.6-1.2-1.3-1.5-2.2
	c-0.4-0.8-0.6-1.8-0.6-2.9c0-1,0.2-1.9,0.6-2.8c0.4-0.8,0.9-1.6,1.5-2.2c0.6-0.6,1.4-1.1,2.3-1.4c0.9-0.3,1.8-0.5,2.8-0.5
	c1,0,1.9,0.2,2.8,0.5c0.9,0.3,1.6,0.8,2.3,1.4c0.6,0.6,1.2,1.3,1.5,2.2c0.4,0.8,0.6,1.8,0.6,2.8c0,0.5-0.1,1-0.2,1.4
	c-0.1,0.5-0.3,0.9-0.5,1.3c-0.2,0.4-0.5,0.8-0.8,1.1c-0.3,0.3-0.7,0.6-1.2,0.8v0h3.8V46.3z M175.5,39.4c0,0.6,0.1,1.1,0.3,1.6
	s0.5,0.9,0.9,1.3c0.4,0.4,0.8,0.7,1.3,0.9c0.5,0.2,1,0.3,1.6,0.3s1.1-0.1,1.6-0.3s0.9-0.5,1.3-0.9c0.4-0.4,0.7-0.8,0.9-1.3
	c0.2-0.5,0.3-1.1,0.3-1.6s-0.1-1.1-0.3-1.6c-0.2-0.5-0.5-0.9-0.9-1.3c-0.4-0.4-0.8-0.7-1.3-0.9s-1-0.3-1.6-0.3s-1.1,0.1-1.6,0.3
	c-0.5,0.2-0.9,0.5-1.3,0.9c-0.4,0.4-0.7,0.8-0.9,1.3C175.6,38.3,175.5,38.8,175.5,39.4z M199,50.6h-2.9v-5.3h0
	c-0.3,0.4-0.8,0.8-1.3,0.9c-0.5,0.2-1.1,0.3-1.7,0.3c-0.7,0-1.2-0.1-1.8-0.4c-0.5-0.3-1-0.6-1.3-1.1c-0.4-0.5-0.6-1-0.8-1.6
	c-0.2-0.6-0.3-1.2-0.3-1.9c0-0.7,0.1-1.3,0.3-1.9c0.2-0.6,0.5-1.1,0.9-1.5c0.4-0.4,0.9-0.8,1.4-1s1.2-0.4,1.9-0.4
	c0.3,0,0.6,0,0.9,0.1c0.3,0.1,0.6,0.2,0.8,0.3c0.2,0.1,0.5,0.3,0.6,0.5c0.2,0.2,0.3,0.3,0.4,0.5h0v-1.2h2.6V50.6z M196.4,41.7
	c0-0.7-0.2-1.3-0.6-1.7c-0.4-0.4-1-0.6-1.7-0.6s-1.3,0.2-1.7,0.6c-0.4,0.4-0.6,1-0.6,1.7c0,0.7,0.2,1.3,0.6,1.7
	c0.4,0.4,1,0.6,1.7,0.6s1.3-0.2,1.7-0.6S196.4,42.4,196.4,41.7z M-0.5,55.8h5.2c0.7,0,1.3,0.1,1.9,0.2c0.6,0.1,1.2,0.4,1.6,0.7
	C8.7,57,9.1,57.4,9.3,58s0.4,1.2,0.4,2c0,1-0.2,1.8-0.7,2.4c-0.5,0.7-1.2,1.1-2.2,1.3l3.4,5.7H6.7l-2.8-5.4H2.4v5.4h-3V55.8z
	 M2.4,61.4h1.7c0.3,0,0.5,0,0.8,0c0.3,0,0.6-0.1,0.8-0.2c0.2-0.1,0.4-0.2,0.6-0.4c0.2-0.2,0.2-0.5,0.2-0.9c0-0.3-0.1-0.6-0.2-0.8
	c-0.1-0.2-0.3-0.4-0.5-0.5c-0.2-0.1-0.5-0.2-0.7-0.2c-0.3,0-0.6-0.1-0.8-0.1H2.4V61.4z M10.9,60.1h2.9v1.5h0c0.3-0.6,0.7-1,1.1-1.3
	s0.9-0.4,1.6-0.4c0.2,0,0.3,0,0.5,0s0.3,0,0.5,0.1v2.6c-0.2-0.1-0.4-0.1-0.6-0.1c-0.2,0-0.4,0-0.6,0c-0.5,0-1,0.1-1.3,0.2
	c-0.3,0.2-0.6,0.4-0.7,0.6s-0.3,0.6-0.3,1c-0.1,0.4-0.1,0.8-0.1,1.3v3.9h-2.9V60.1z M25.1,59.1c-0.2-0.3-0.6-0.5-1-0.7
	s-0.8-0.2-1.2-0.2c-0.2,0-0.4,0-0.7,0.1s-0.4,0.1-0.6,0.2s-0.4,0.2-0.5,0.4c-0.1,0.2-0.2,0.4-0.2,0.6c0,0.4,0.2,0.7,0.5,0.9
	c0.3,0.2,0.7,0.4,1.1,0.6c0.5,0.2,1,0.3,1.5,0.5c0.5,0.2,1,0.4,1.5,0.6c0.5,0.3,0.8,0.7,1.1,1.1c0.3,0.5,0.5,1.1,0.5,1.9
	c0,0.7-0.1,1.4-0.4,2c-0.3,0.6-0.7,1-1.1,1.4c-0.5,0.4-1,0.6-1.7,0.8c-0.6,0.2-1.3,0.3-2,0.3c-0.9,0-1.7-0.1-2.4-0.4
	c-0.7-0.3-1.4-0.7-2.1-1.3l2.1-2.3c0.3,0.4,0.7,0.7,1.1,0.9c0.5,0.2,0.9,0.3,1.4,0.3c0.2,0,0.5,0,0.7-0.1c0.2-0.1,0.5-0.1,0.7-0.3
	c0.2-0.1,0.4-0.3,0.5-0.4c0.1-0.2,0.2-0.4,0.2-0.6c0-0.4-0.2-0.7-0.5-1c-0.3-0.2-0.7-0.4-1.2-0.6c-0.5-0.2-1-0.3-1.5-0.5
	c-0.5-0.2-1.1-0.4-1.5-0.7c-0.5-0.3-0.9-0.6-1.2-1.1c-0.3-0.5-0.5-1.1-0.5-1.8c0-0.7,0.1-1.4,0.4-1.9c0.3-0.5,0.7-1,1.1-1.4
	c0.5-0.4,1-0.6,1.6-0.8s1.3-0.3,1.9-0.3c0.8,0,1.5,0.1,2.2,0.3c0.7,0.2,1.3,0.6,1.9,1.1L25.1,59.1z M33.7,62.8
	c-0.4-0.5-1-0.8-1.7-0.8c-0.2,0-0.5,0.1-0.7,0.2c-0.2,0.1-0.3,0.3-0.3,0.6c0,0.2,0.1,0.4,0.4,0.5c0.2,0.1,0.5,0.2,0.9,0.3
	c0.4,0.1,0.7,0.2,1.2,0.3s0.8,0.2,1.2,0.4c0.4,0.2,0.7,0.5,0.9,0.8s0.4,0.8,0.4,1.4c0,0.6-0.1,1.1-0.4,1.5c-0.3,0.4-0.6,0.7-1,0.9
	c-0.4,0.2-0.9,0.4-1.4,0.5c-0.5,0.1-1,0.1-1.5,0.1c-0.6,0-1.3-0.1-2-0.3c-0.7-0.2-1.2-0.5-1.7-1l1.7-1.9c0.3,0.3,0.6,0.6,0.9,0.8
	c0.3,0.2,0.7,0.3,1.1,0.3c0.3,0,0.6,0,0.9-0.1c0.3-0.1,0.4-0.3,0.4-0.5c0-0.2-0.1-0.4-0.4-0.5c-0.2-0.1-0.5-0.2-0.9-0.3
	s-0.7-0.2-1.2-0.3c-0.4-0.1-0.8-0.2-1.2-0.4c-0.4-0.2-0.7-0.5-0.9-0.8c-0.2-0.3-0.4-0.8-0.4-1.4c0-0.5,0.1-1,0.3-1.4
	c0.2-0.4,0.5-0.7,0.9-1c0.4-0.3,0.8-0.4,1.2-0.6s0.9-0.2,1.4-0.2c0.6,0,1.2,0.1,1.8,0.3c0.6,0.2,1.1,0.5,1.6,0.9L33.7,62.8z
	 M39.8,58.5h-3.8v-2.6h10.6v2.6h-3.8v10.8h-3V58.5z M53.5,62.3H51v3.1c0,0.3,0,0.5,0,0.7c0,0.2,0.1,0.4,0.2,0.5
	c0.1,0.2,0.2,0.3,0.4,0.4s0.4,0.1,0.7,0.1c0.2,0,0.4,0,0.6,0c0.2,0,0.4-0.1,0.6-0.2v2.4c-0.3,0.1-0.6,0.2-1,0.2
	c-0.3,0-0.7,0.1-1,0.1c-0.5,0-0.9-0.1-1.3-0.2c-0.4-0.1-0.8-0.3-1.1-0.5c-0.3-0.2-0.5-0.5-0.7-0.9c-0.2-0.4-0.3-0.8-0.3-1.3v-4.4
	h-1.8v-2.3h1.8v-2.7H51v2.7h2.5V62.3z M66.1,64.1c0,0.8-0.1,1.5-0.4,2.2c-0.2,0.7-0.6,1.3-1.1,1.7c-0.5,0.5-1.1,0.9-1.8,1.2
	c-0.7,0.3-1.5,0.4-2.5,0.4c-0.9,0-1.8-0.1-2.5-0.4c-0.7-0.3-1.3-0.7-1.8-1.2c-0.5-0.5-0.8-1.1-1.1-1.7c-0.2-0.7-0.4-1.4-0.4-2.2
	v-8.3h3V64c0,0.4,0.1,0.8,0.2,1.2c0.1,0.4,0.3,0.7,0.6,0.9c0.2,0.3,0.5,0.5,0.9,0.6c0.3,0.1,0.7,0.2,1.1,0.2s0.8-0.1,1.1-0.2
	s0.6-0.3,0.9-0.6c0.2-0.3,0.4-0.6,0.6-0.9c0.1-0.4,0.2-0.7,0.2-1.2v-8.2h3V64.1z M76.9,69.3h-2.7V68h0c-0.1,0.2-0.2,0.4-0.4,0.5
	s-0.4,0.3-0.6,0.5c-0.2,0.1-0.5,0.3-0.8,0.3c-0.3,0.1-0.6,0.1-1,0.1c-0.7,0-1.3-0.1-1.8-0.3s-0.8-0.5-1-0.9s-0.4-0.9-0.5-1.4
	C68,66.4,68,65.8,68,65.2v-5.1h2.9v4.5c0,0.3,0,0.5,0,0.8c0,0.3,0.1,0.5,0.2,0.8c0.1,0.2,0.2,0.4,0.4,0.6c0.2,0.2,0.5,0.2,0.8,0.2
	s0.7-0.1,0.9-0.2s0.4-0.3,0.5-0.5c0.1-0.2,0.2-0.5,0.2-0.8c0-0.3,0.1-0.6,0.1-0.9v-4.6h2.9V69.3z M77.4,55.8h3.4l3.3,8.8h0l3.4-8.8
	h3.2l-5.5,13.5h-2.4L77.4,55.8z M90.3,60.1h3.1l2.3,6.3h0l2.2-6.3h2.9l-3.6,9.2h-3L90.3,60.1z M100.2,55.8h3.2l2.1,8.6h0l2.8-8.6
	h2.8l2.8,8.9h0l2.3-8.9h3l-3.9,13.5h-2.6l-3-9.3h0l-3,9.3h-2.5L100.2,55.8z M118.7,60.1h3l1.9,5.8h0l1.6-5.8h3.1l1.7,5.8h0l1.7-5.8
	h2.9l-3.3,9.2h-2.8l-1.9-6.1h0l-1.7,6.1h-2.9L118.7,60.1z M138.8,62.3l-4.4-6.4h3.7l2.9,4.7l2.8-4.7h3.6l-4.4,6.4l4.9,7.1h-3.7
	l-3.3-5.4l-3.2,5.4h-3.5L138.8,62.3z M150.8,64.4l-3.1-4.3h3.4l1.6,2.5l1.6-2.5h3.2l-3,4.3l3.6,4.9h-3.4l-2-3.1l-2.2,3.1h-3.3
	L150.8,64.4z M162,63.6l-5.1-7.7h3.7l2.9,5l3-5h3.5l-5.1,7.7v5.7h-3V63.6z M175.5,70.8c-0.2,0.5-0.4,0.9-0.6,1.3
	c-0.2,0.4-0.4,0.7-0.7,1s-0.6,0.5-1,0.6c-0.4,0.1-1,0.2-1.7,0.2c-0.7,0-1.4-0.1-2.1-0.3l0.4-2.3c0.4,0.2,0.9,0.3,1.3,0.3
	c0.3,0,0.6,0,0.8-0.1c0.2-0.1,0.4-0.2,0.5-0.3s0.2-0.3,0.3-0.5c0.1-0.2,0.2-0.4,0.3-0.7l0.2-0.5l-4-9.3h3.1l2.4,6.1h0l2-6.1h2.9
	L175.5,70.8z M179.9,66.6l6.8-8.1h-6.6v-2.6h10.2v2.6l-6.7,8.1h6.9v2.7h-10.6V66.6z M191.3,66.5l4.8-4.1h-4.7v-2.3h8v2.7l-5,4.2h5.1
	v2.3h-8.2V66.5z M5.6,8.5h2.5L13.9,22h-3.3l-1.2-2.9H4.2L3.1,22h-3.3L5.6,8.5z M6.8,12.4l-1.6,4.2h3.3L6.8,12.4z M20.7,20.8
	L20.7,20.8c-0.4,0.5-0.8,0.8-1.3,1.1c-0.5,0.2-1.1,0.3-1.7,0.3c-0.4,0-0.8-0.1-1.2-0.2c-0.4-0.1-0.8-0.3-1.1-0.5
	c-0.3-0.2-0.5-0.5-0.7-0.9c-0.2-0.4-0.3-0.8-0.3-1.2c0-0.5,0.1-1,0.3-1.3c0.2-0.4,0.5-0.7,0.8-0.9c0.3-0.2,0.7-0.4,1.1-0.6
	c0.4-0.1,0.9-0.2,1.3-0.3s0.9-0.1,1.4-0.1c0.5,0,0.9,0,1.3,0c0-0.5-0.2-0.9-0.5-1.2c-0.4-0.3-0.8-0.4-1.3-0.4
	c-0.5,0-0.9,0.1-1.3,0.3s-0.7,0.5-1,0.8L15,14c0.5-0.5,1.2-0.9,1.9-1.1c0.7-0.2,1.4-0.4,2.2-0.4c0.8,0,1.5,0.1,2.1,0.3
	c0.5,0.2,1,0.5,1.3,0.9c0.3,0.4,0.5,0.9,0.7,1.5c0.1,0.6,0.2,1.3,0.2,2V22h-2.6V20.8z M20,17.9c-0.2,0-0.5,0-0.8,0
	c-0.3,0-0.6,0.1-0.9,0.2c-0.3,0.1-0.6,0.2-0.8,0.4c-0.2,0.2-0.3,0.4-0.3,0.7c0,0.3,0.1,0.6,0.4,0.8c0.3,0.2,0.6,0.2,0.9,0.2
	c0.3,0,0.5,0,0.8-0.1c0.3-0.1,0.5-0.2,0.7-0.3c0.2-0.1,0.4-0.3,0.5-0.5c0.1-0.2,0.2-0.5,0.2-0.8v-0.6H20z M25.4,8.5h5
	c0.6,0,1.2,0,1.8,0.1c0.6,0.1,1.1,0.2,1.6,0.5c0.5,0.2,0.8,0.6,1.1,1c0.3,0.4,0.4,1,0.4,1.8c0,0.8-0.2,1.4-0.6,1.9
	c-0.4,0.5-1,0.9-1.7,1.1v0c0.4,0.1,0.8,0.2,1.2,0.4c0.4,0.2,0.7,0.4,0.9,0.7c0.3,0.3,0.5,0.6,0.6,1c0.1,0.4,0.2,0.8,0.2,1.2
	c0,0.7-0.2,1.3-0.5,1.8c-0.3,0.5-0.7,0.9-1.2,1.1s-1,0.5-1.6,0.6S31.5,22,30.9,22h-5.5V8.5z M28.4,13.9h2.1c0.2,0,0.5,0,0.7-0.1
	s0.4-0.1,0.6-0.2c0.2-0.1,0.3-0.3,0.4-0.5c0.1-0.2,0.2-0.4,0.2-0.7c0-0.3-0.1-0.5-0.2-0.7c-0.1-0.2-0.3-0.3-0.5-0.4
	c-0.2-0.1-0.4-0.2-0.6-0.2S30.6,11,30.4,11h-2V13.9z M28.4,19.5H31c0.2,0,0.5,0,0.7-0.1c0.2-0.1,0.4-0.1,0.6-0.3
	c0.2-0.1,0.3-0.3,0.5-0.5c0.1-0.2,0.2-0.4,0.2-0.7c0-0.3-0.1-0.6-0.2-0.8c-0.2-0.2-0.4-0.3-0.6-0.4c-0.2-0.1-0.5-0.2-0.8-0.2
	c-0.3,0-0.5-0.1-0.8-0.1h-2.2V19.5z M37.6,7.6h2.9v6.1h0c0.3-0.4,0.8-0.8,1.3-0.9c0.5-0.2,1.1-0.3,1.7-0.3c0.7,0,1.2,0.1,1.8,0.4
	c0.5,0.3,1,0.6,1.3,1.1c0.4,0.5,0.6,1,0.8,1.6c0.2,0.6,0.3,1.2,0.3,1.9c0,0.7-0.1,1.3-0.3,1.9c-0.2,0.6-0.5,1.1-0.9,1.5
	s-0.9,0.8-1.4,1c-0.6,0.2-1.2,0.4-1.9,0.4c-0.3,0-0.6,0-0.9-0.1c-0.3-0.1-0.6-0.2-0.8-0.3c-0.2-0.1-0.5-0.3-0.6-0.5
	s-0.3-0.3-0.4-0.5h0V22h-2.6V7.6z M40.2,17.4c0,0.7,0.2,1.3,0.6,1.7s1,0.6,1.7,0.6c0.7,0,1.3-0.2,1.7-0.6s0.6-1,0.6-1.7
	c0-0.7-0.2-1.3-0.6-1.7c-0.4-0.4-1-0.6-1.7-0.6c-0.7,0-1.3,0.2-1.7,0.6C40.4,16.1,40.2,16.7,40.2,17.4z M58.4,12
	c-0.3-0.4-0.6-0.6-1.1-0.8s-0.9-0.3-1.5-0.3c-0.6,0-1.1,0.1-1.5,0.3c-0.5,0.2-0.9,0.5-1.2,0.9c-0.3,0.4-0.6,0.8-0.8,1.4
	c-0.2,0.5-0.3,1.1-0.3,1.7c0,0.6,0.1,1.2,0.3,1.7c0.2,0.5,0.5,1,0.8,1.4c0.3,0.4,0.7,0.7,1.2,0.9c0.5,0.2,1,0.3,1.5,0.3
	c0.6,0,1.1-0.1,1.6-0.4c0.5-0.3,0.9-0.6,1.2-1.1L61,20c-0.6,0.8-1.3,1.4-2.2,1.8s-1.8,0.6-2.7,0.6c-1.1,0-2-0.2-2.9-0.5
	c-0.9-0.3-1.7-0.8-2.3-1.4c-0.6-0.6-1.1-1.4-1.5-2.2s-0.5-1.8-0.5-2.9c0-1.1,0.2-2.1,0.5-2.9s0.9-1.6,1.5-2.2
	c0.6-0.6,1.4-1.1,2.3-1.4c0.9-0.3,1.9-0.5,2.9-0.5c0.4,0,0.8,0,1.2,0.1c0.4,0.1,0.8,0.2,1.2,0.3s0.8,0.4,1.1,0.6
	c0.4,0.3,0.7,0.6,1,0.9L58.4,12z M68.5,15.7c-0.1-0.2-0.3-0.4-0.6-0.5c-0.3-0.1-0.5-0.2-0.8-0.2c-0.7,0-1.3,0.2-1.7,0.6
	c-0.4,0.4-0.6,1-0.6,1.7c0,0.7,0.2,1.3,0.6,1.7s1,0.6,1.7,0.6c0.3,0,0.6-0.1,0.8-0.2c0.2-0.1,0.4-0.3,0.6-0.5l1.9,2
	c-0.4,0.5-1,0.8-1.6,1c-0.6,0.2-1.2,0.3-1.7,0.3c-0.7,0-1.4-0.1-2-0.3c-0.6-0.2-1.2-0.6-1.6-1s-0.8-0.9-1.1-1.5
	c-0.3-0.6-0.4-1.3-0.4-2c0-0.7,0.1-1.4,0.4-2s0.6-1.1,1.1-1.5c0.5-0.4,1-0.8,1.6-1s1.3-0.3,2-0.3c0.5,0,1.1,0.1,1.7,0.3
	s1.1,0.5,1.6,1L68.5,15.7z M71.7,8.5h4.4c1.1,0,2.1,0.1,3.1,0.4c1,0.2,1.8,0.6,2.5,1.2s1.3,1.2,1.7,2.1c0.4,0.9,0.6,1.9,0.6,3.1
	c0,1.1-0.2,2-0.6,2.9c-0.4,0.8-1,1.5-1.7,2.1c-0.7,0.6-1.5,1-2.4,1.3c-0.9,0.3-1.9,0.4-2.9,0.4h-4.8V8.5z M74.7,19.2h1.5
	c0.7,0,1.3-0.1,1.9-0.2c0.6-0.1,1.1-0.4,1.5-0.7c0.4-0.3,0.8-0.7,1-1.3c0.2-0.5,0.4-1.2,0.4-1.9c0-0.7-0.1-1.2-0.4-1.7
	c-0.2-0.5-0.6-0.9-1-1.2c-0.4-0.3-0.9-0.6-1.5-0.7c-0.6-0.2-1.2-0.2-1.8-0.2h-1.7V19.2z M95.4,22h-2.6v-1.2h0
	c-0.1,0.2-0.3,0.3-0.4,0.5c-0.2,0.2-0.4,0.3-0.6,0.5c-0.2,0.1-0.5,0.3-0.8,0.3c-0.3,0.1-0.6,0.1-0.9,0.1c-0.7,0-1.3-0.1-1.9-0.4
	c-0.6-0.2-1-0.6-1.4-1s-0.7-0.9-0.9-1.5c-0.2-0.6-0.3-1.2-0.3-1.9c0-0.6,0.1-1.3,0.3-1.9s0.5-1.1,0.8-1.6c0.4-0.5,0.8-0.8,1.3-1.1
	c0.5-0.3,1.1-0.4,1.8-0.4c0.6,0,1.1,0.1,1.7,0.3c0.5,0.2,0.9,0.5,1.3,0.9h0V7.6h2.9V22z M92.8,17.4c0-0.7-0.2-1.3-0.6-1.7
	c-0.4-0.4-1-0.6-1.7-0.6s-1.3,0.2-1.7,0.6c-0.4,0.4-0.6,1-0.6,1.7c0,0.7,0.2,1.3,0.6,1.7c0.4,0.4,1,0.6,1.7,0.6s1.3-0.2,1.7-0.6
	S92.8,18.1,92.8,17.4z M98.1,8.5h9.1v2.7h-6.2v2.5h5.8v2.7h-5.8v2.7h6.5V22h-9.5V8.5z M118.3,20.4c-0.5,0.6-1,1-1.7,1.3
	c-0.7,0.3-1.4,0.5-2.2,0.5c-0.7,0-1.4-0.1-2-0.3c-0.6-0.2-1.2-0.6-1.6-1c-0.5-0.4-0.8-0.9-1.1-1.5c-0.3-0.6-0.4-1.3-0.4-2
	c0-0.7,0.1-1.4,0.4-2s0.6-1.1,1.1-1.5c0.5-0.4,1-0.8,1.6-1s1.3-0.3,2-0.3c0.7,0,1.3,0.1,1.8,0.3s1,0.6,1.4,1
	c0.4,0.4,0.7,0.9,0.9,1.5c0.2,0.6,0.3,1.3,0.3,2v0.9h-6.6c0.1,0.5,0.4,1,0.7,1.3c0.4,0.3,0.8,0.5,1.4,0.5c0.5,0,0.9-0.1,1.2-0.3
	c0.3-0.2,0.6-0.5,0.8-0.8L118.3,20.4z M115.9,16.3c0-0.5-0.1-0.9-0.5-1.2c-0.3-0.3-0.8-0.5-1.3-0.5c-0.3,0-0.6,0.1-0.8,0.2
	c-0.2,0.1-0.4,0.2-0.6,0.4c-0.2,0.2-0.3,0.3-0.4,0.6s-0.1,0.4-0.2,0.7H115.9z M120.9,8.5h9v2.7h-6.1V14h5.6v2.7h-5.6V22h-3V8.5z
	 M132.7,15h-1.9v-2.3h1.9v-1.6c0-0.5,0-1,0.1-1.4c0.1-0.4,0.3-0.8,0.5-1.2c0.3-0.3,0.6-0.6,1.1-0.8c0.5-0.2,1.1-0.3,1.9-0.3
	c0.3,0,0.6,0,0.9,0c0.3,0,0.6,0.1,0.8,0.1l-0.1,2.4c-0.2-0.1-0.3-0.1-0.5-0.1c-0.1,0-0.3,0-0.5,0c-0.5,0-0.8,0.1-1,0.3
	c-0.2,0.2-0.3,0.6-0.3,1.2v1.5h2.1V15h-2.1v7h-2.8V15z M151.2,21c-0.9,0.5-1.8,0.8-2.7,1c-0.9,0.2-1.9,0.3-2.9,0.3
	c-1.1,0-2-0.2-2.9-0.5c-0.9-0.3-1.7-0.8-2.3-1.4c-0.6-0.6-1.1-1.4-1.5-2.2s-0.5-1.8-0.5-2.9c0-1.1,0.2-2.1,0.5-2.9s0.9-1.6,1.5-2.2
	c0.6-0.6,1.4-1.1,2.3-1.4c0.9-0.3,1.9-0.5,2.9-0.5c1.1,0,2.1,0.1,3,0.4c0.9,0.3,1.7,0.7,2.4,1.3l-2.1,2.3c-0.4-0.4-0.9-0.7-1.4-0.9
	s-1.1-0.3-1.9-0.3c-0.6,0-1.2,0.1-1.7,0.3s-1,0.5-1.3,0.9c-0.4,0.4-0.6,0.8-0.8,1.4c-0.2,0.5-0.3,1.1-0.3,1.7c0,0.6,0.1,1.2,0.3,1.7
	c0.2,0.5,0.5,1,0.8,1.4c0.4,0.4,0.8,0.7,1.3,0.9s1.1,0.3,1.7,0.3c0.6,0,1.2-0.1,1.7-0.2s0.8-0.3,1.1-0.4v-2.2H146V14h5.3V21z
	 M163.1,21.2c0,1.7-0.4,3.1-1.3,4c-0.9,0.9-2.2,1.4-4,1.4c-0.8,0-1.6-0.1-2.4-0.3c-0.8-0.2-1.5-0.5-2.2-1.1l1.6-2.4
	c0.4,0.4,0.9,0.7,1.4,0.9s1,0.3,1.6,0.3c0.9,0,1.5-0.2,1.9-0.6c0.4-0.4,0.6-1,0.6-1.6v-0.9h0c-0.3,0.4-0.7,0.8-1.2,0.9
	c-0.5,0.2-0.9,0.3-1.4,0.3c-0.7,0-1.3-0.1-1.9-0.4s-1-0.6-1.4-1c-0.4-0.4-0.7-0.9-0.9-1.5c-0.2-0.6-0.3-1.2-0.3-1.9
	c0-0.6,0.1-1.2,0.3-1.8c0.2-0.6,0.5-1.1,0.8-1.5c0.4-0.4,0.8-0.8,1.3-1.1c0.5-0.3,1.1-0.4,1.8-0.4c0.4,0,0.8,0,1.1,0.1
	c0.3,0.1,0.6,0.2,0.9,0.3c0.3,0.1,0.5,0.3,0.7,0.5s0.3,0.3,0.5,0.5h0v-1.2h2.6V21.2z M155.9,17.3c0,0.3,0.1,0.6,0.2,0.9
	c0.1,0.3,0.3,0.5,0.5,0.7s0.4,0.4,0.7,0.5c0.3,0.1,0.6,0.2,0.9,0.2c0.3,0,0.6-0.1,0.9-0.2c0.3-0.1,0.5-0.3,0.7-0.5s0.4-0.4,0.5-0.7
	c0.1-0.3,0.2-0.6,0.2-0.9c0-0.3-0.1-0.6-0.2-0.9c-0.1-0.3-0.3-0.5-0.5-0.7c-0.2-0.2-0.5-0.4-0.7-0.5c-0.3-0.1-0.6-0.2-0.9-0.2
	c-0.3,0-0.6,0.1-0.9,0.2c-0.3,0.1-0.5,0.3-0.7,0.5c-0.2,0.2-0.4,0.5-0.5,0.7C156,16.7,155.9,17,155.9,17.3z M165.7,8.5h3v5h5.8v-5h3
	V22h-3v-5.8h-5.8V22h-3V8.5z M182.6,7.6V14h0c0.1-0.2,0.2-0.4,0.3-0.5c0.2-0.2,0.3-0.3,0.6-0.5c0.2-0.1,0.5-0.3,0.8-0.3
	c0.3-0.1,0.6-0.1,0.9-0.1c0.7,0,1.3,0.1,1.7,0.3s0.8,0.5,1,0.9s0.4,0.9,0.5,1.4c0.1,0.5,0.1,1.1,0.1,1.7V22h-2.9v-4.5
	c0-0.3,0-0.5,0-0.8c0-0.3-0.1-0.5-0.2-0.8c-0.1-0.2-0.2-0.4-0.4-0.6s-0.5-0.2-0.8-0.2c-0.4,0-0.7,0.1-0.9,0.2
	c-0.2,0.1-0.4,0.3-0.5,0.5c-0.1,0.2-0.2,0.5-0.2,0.8c0,0.3-0.1,0.6-0.1,0.9V22h-2.9V7.6H182.6z M190.9,8.5h3V22h-3V8.5z M196,9.8
	c0-0.5,0.2-0.8,0.5-1.2c0.3-0.3,0.7-0.5,1.2-0.5s0.8,0.2,1.2,0.5c0.3,0.3,0.5,0.7,0.5,1.2s-0.2,0.8-0.5,1.2
	c-0.3,0.3-0.7,0.5-1.2,0.5s-0.8-0.2-1.2-0.5C196.2,10.7,196,10.3,196,9.8z M196.2,12.8h2.8V22h-2.8V12.8z"/>
</svg>
