<?xml version="1.0" encoding="utf-8"?>
<!-- Generator: Adobe Illustrator 21.1.0, SVG Export Plug-In . SVG Version: 6.00 Build 0)  -->
<svg version="1.1" id="CameraReadyVectors" xmlns="http://www.w3.org/2000/svg" xmlns:xlink="http://www.w3.org/1999/xlink" x="0px"
	 y="0px" viewBox="0 0 5996.4 2616" style="enable-background:new 0 0 5996.4 2616;" xml:space="preserve">
<style type="text/css">
	.st0{fill:#FFFFFF;}
	.st1{fill:#EE3B6F;}
	.st2{opacity:0.34;fill:#121212;enable-background:new    ;}
</style>
<path id="RING" class="st0" d="M1122.6,2372c-135.9,0-271.1-26.3-399.4-78.2c-133.2-54-251.9-132.4-352.7-233.2
	c-97.4-97.3-174.1-211.2-228-338.5s-82.3-261.7-84.4-399.3c-2.2-142.6,24.1-282.4,78-415.6c80.1-197.7,215.7-364.9,392.1-483.5
	c85-57.1,177.7-101.7,275.5-132.5c98.5-31,200.6-47.5,303.5-49.1c142.6-2.2,282.4,24.1,415.6,78c126.1,51.1,239.5,124.4,337,217.8
	c50.8,48.7,97,102.7,137.2,160.7c39.8,57.3,74.2,118.8,102.1,182.9c27.6,63.3,49.1,129.5,64,196.9c15,68,23.3,137.7,24.8,207.1
	c3,144.5-23.2,286.3-77.9,421.3c-53.5,131.9-131,249.7-230.5,350c-72.7,73.3-155.7,135.6-246.7,185.1c-90.3,49.2-187,85-287.5,106.5
	C1271.5,2364.2,1196.9,2372,1122.6,2372z M1123.5,382c-4.7,0-9.4,0-14.2,0.1c-89.3,1.4-178,15.7-263.6,42.7
	c-85,26.8-165.5,65.5-239.4,115.2C453.2,642.8,335.5,788,265.9,959.8c-46.9,115.7-69.7,237.1-67.8,360.9
	c1.8,119.5,26.5,236.2,73.3,346.9c46.8,110.6,113.5,209.6,198,294.1c87.5,87.5,190.6,155.6,306.3,202.5
	c172.3,69.8,359.1,86.2,540.1,47.4c87.3-18.7,171.4-49.9,249.9-92.6c79.1-43,151.1-97.1,214.3-160.8
	c86.3-87,153.6-189.3,200.1-303.9l0,0c47.5-117.3,70.3-240.4,67.7-365.8c-2.5-121.2-28.4-239.3-77.1-350.9
	c-49.3-113.1-119.2-213.5-207.8-298.4c-84.6-81.1-183-144.7-292.6-189.1C1358.9,404.8,1242.3,382,1123.5,382z"/>
<path id="SOLID_DIALS" class="st0" d="M474.1,1317.8c1.3,83.8,18.6,165.6,51.4,243.2l-128.9,54.6c-39.9-94.2-60.9-193.7-62.5-295.6
	c-1.6-105.6,17.8-209.1,57.8-307.7c59.3-146.4,159.7-270.2,290.3-358c62.9-42.3,131.5-75.3,203.9-98.1
	c72.9-23,148.5-35.2,224.7-36.4c105.6-1.6,209.1,17.8,307.7,57.8c84.3,34.1,160.9,81.7,228.1,141.5c-39.5,20-86,43.7-136.1,69.5
	c-44.2-33-92.6-60.2-144.6-81.2c-81.1-32.9-166.3-48.9-253-47.5c-62.6,1-124.8,11-184.8,29.9c-59.6,18.8-116.1,45.9-167.9,80.7
	c-107.3,72.1-189.9,173.9-238.7,294.3C488.8,1146,472.8,1231.1,474.1,1317.8z M916.5,1003.6c59.2-40,128.1-61.8,199.3-63.1
	c30.8-0.6,61.2,2.7,91,9.8c51.5-28.6,106.2-58,160.6-86.8c-17.5-9.6-35.5-18.2-54.2-25.8c-64.1-26-131.4-38.5-200-37.2
	c-98.2,1.8-193.3,31.9-275,87C754.4,944,690,1023.6,651.9,1117.6l129.8,52.6C809.2,1102.1,855.8,1044.5,916.5,1003.6z"/>
<path id="COLOR_DIALS" class="st1" d="M653.3,1500c-25.5-61.5-38.5-126.2-38.7-192.3c-0.2-67.7,12.9-133.9,39-196.7l129.3,53.7
	c-18.9,45.5-28.4,93.5-28.2,142.5c0.2,48.8,10,96.5,29.2,141.9c20.6,48.7,50.5,91.3,89,126.8c33.5,30.9,72,55,114.6,71.9
	c48.4,19.1,99.2,27.7,150.9,25.5v0.7c44.8-2.1,88.4-12.2,129.7-30.1c47.8-20.7,89.7-50.6,124.7-88.7l0.5,0.5
	c30.2-33.1,53.9-71.1,70.5-113c19.1-48.4,27.7-99.2,25.5-150.9h0.7c-1.1-24.3-4.6-48.3-10.5-71.8c28.4-51.2,57.6-105.5,86.2-159.5
	c8.3,14.8,15.8,30.1,22.6,45.8c25.1,57.9,39.1,119.1,41.6,181.9c2.9,72.3-9.5,143.3-36.9,210.8c-25.5,63-62.6,119.2-110.1,167.1
	c-47.7,48-103.8,85.6-166.6,111.5l-0.4-0.9c-61.5,25.5-126.2,38.5-192.3,38.7c-0.6,0-1.2,0-1.7,0c-67.1,0-132.7-13.1-194.9-39
	l0.4-0.9c-61.5-25.5-116.4-62-163.4-108.6c-48-47.7-85.6-103.8-111.5-166.6L653.3,1500z M1910.8,1294.4
	c-1.8-102.6-23.4-202.7-64.1-297.4c-34.1-79.4-80.2-151.6-137.2-215.1c-20,39.5-43.6,85.9-69.4,135.8
	c31.1,41.3,57.2,86.3,77.9,134.6c32.4,75.5,50.1,155.1,52.6,236.8h-0.7c2.5,88.7-13,175.7-46.1,258.6
	c-30.5,76.3-74.3,145.1-130.3,204.6l-0.5-0.5c-61,64.5-133.4,115.1-215.4,150.3c-75.5,32.5-155.1,50.1-236.8,52.6v-0.7
	c-88.7,2.5-175.7-13-258.6-46.1c-78.8-31.4-149.5-77.1-210.3-135.7c-62.9-60.6-112.2-132.5-146.5-213.7l-128.9,54.6
	c41.8,98.7,101.7,186.1,178.3,259.9c72.8,70.2,157.3,125.1,251.3,163.2l-0.4,0.9c94.8,38.4,194.2,57.9,295.5,57.9
	c4.8,0,9.5,0,14.3-0.1c101.1-1.8,199.7-22.8,293.1-62.3l0.4,0.9c98.7-41.8,186.1-101.7,259.9-178.3
	c70.2-72.8,125.1-157.3,163.2-251.3l0.9,0.4C1893.3,1504.9,1912.7,1400.7,1910.8,1294.4z"/>
<path id="FLATSHADOW" class="st2" d="M2187.8,1285.5c-1.4-69.4-9.8-139.1-24.8-207.1c-3.4-15.5-7.2-31-11.4-46.4l-322.7-322.7
	l-41.6-41.6l-36.7,32.4c-79.8,159.7-354.4,702.7-441.5,789.8c-79.4,79.4-197.2,97.2-293.7,53.3l566.6,566.6l102.1,102.1
	c71-43.9,136.4-96,195.2-155.2c99.5-100.3,177-218,230.5-350C2164.5,1571.8,2190.8,1430,2187.8,1285.5z"/>
<path id="DASH" class="st0" d="M2874,885.7c220,0,372,142,372,350c0,207-154,350-379,350h-294v-700L2874,885.7L2874,885.7z
	 M2751,1443.7h127c109,0,187-84,187-207c0-124-82-209-195-209h-119V1443.7z M3640,1456.7l-51,129h-183l302-700h183l295,700h-190
	l-50-129H3640z M3794,1062.7l-102,259h202L3794,1062.7z M4953,955.7l-67,139c-74-43-167-73-224-73c-46,0-77,17-77,51
	c0,121,370,52,370,305c0,140-124,214-280,214c-117,0-237-44-320-112l69-137c72,63,180,105,253,105c56,0,91-21,91-61
	c0-124-370-50-370-298c0-129,111-211,279-211C4778,877.7,4881,908.7,4953,955.7z M5680,1585.7v-272h-290v272h-178v-700h178v288h290
	v-288h178v700H5680z"/>
</svg>
