<?xml version="1.0" encoding="utf-8"?>
<!-- Generator: Adobe Illustrator 24.0.3, SVG Export Plug-In . SVG Version: 6.00 Build 0)  -->
<svg version="1.1" id="Layer_3" xmlns="http://www.w3.org/2000/svg" xmlns:xlink="http://www.w3.org/1999/xlink" x="0px" y="0px"
	 viewBox="0 0 200 66.6" style="enable-background:new 0 0 200 66.6;" xml:space="preserve">
<g>
	<path d="M7,1.4h1.4l5,13.9h-1.1l-1.5-4.3H4.5L3,15.3H2L7,1.4z M4.8,10.2h5.7L7.7,2.3L4.8,10.2z"/>
	<path d="M19,15.5c-1,0-1.8-0.2-2.5-0.7c-0.7-0.5-1-1.2-1-2.2c0-0.6,0.1-1.1,0.4-1.5c0.3-0.4,0.6-0.7,1.1-1c0.4-0.2,1-0.4,1.5-0.5
		c0.6-0.1,1.2-0.1,1.8-0.1h2.1V8.6c0-1-0.2-1.7-0.6-2.1c-0.4-0.4-1.1-0.6-2-0.6c-0.8,0-1.4,0.2-1.9,0.5C17.5,6.7,17.2,7.3,17,8h-1
		c0.1-0.5,0.2-1,0.4-1.4s0.5-0.7,0.9-0.9c0.4-0.2,0.8-0.4,1.2-0.5C19,5,19.5,5,20,5c0.5,0,1,0.1,1.5,0.2c0.4,0.1,0.8,0.3,1.1,0.6
		s0.6,0.7,0.7,1.1s0.3,1,0.3,1.7v6.7h-1v-1.6c-0.3,0.5-0.8,0.9-1.3,1.2C20.6,15.3,19.9,15.5,19,15.5z M19.1,14.6
		c0.5,0,0.9-0.1,1.3-0.2c0.4-0.1,0.8-0.3,1.1-0.5c0.3-0.2,0.5-0.5,0.7-0.8c0.2-0.3,0.3-0.7,0.3-1v-1.7h-2.1c-0.5,0-1,0-1.5,0.1
		c-0.5,0.1-0.9,0.2-1.2,0.4s-0.6,0.4-0.8,0.7c-0.2,0.3-0.3,0.7-0.3,1.1c0,0.7,0.2,1.2,0.6,1.5C17.6,14.5,18.3,14.6,19.1,14.6z"/>
	<path d="M27.5,1.4h4c0.6,0,1.2,0.1,1.7,0.2c0.5,0.1,1,0.3,1.3,0.6c0.4,0.3,0.7,0.6,0.9,1.1c0.2,0.4,0.3,1,0.3,1.6V5
		c0,0.8-0.2,1.4-0.6,1.9c-0.4,0.5-1,0.9-1.8,1.1c1.1,0.2,1.8,0.6,2.3,1.1c0.5,0.6,0.7,1.3,0.7,2.3v0.1c0,1.3-0.4,2.3-1.2,2.9
		c-0.8,0.6-1.8,1-3.2,1h-4.5V1.4z M31.5,7.6c1.1,0,1.8-0.2,2.4-0.7c0.5-0.5,0.8-1.1,0.8-2V4.9c0-0.9-0.3-1.6-0.8-2
		c-0.5-0.4-1.3-0.6-2.4-0.6h-2.9v5.4H31.5z M32,14.5c1.1,0,1.9-0.2,2.5-0.8c0.5-0.5,0.8-1.2,0.8-2.2v-0.1c0-1.9-1.2-2.9-3.7-2.9
		h-3.1v5.9H32z"/>
	<path d="M44.6,15.5c-0.5,0-1-0.1-1.4-0.2c-0.4-0.1-0.8-0.3-1.1-0.6c-0.3-0.2-0.6-0.5-0.8-0.8c-0.2-0.3-0.4-0.6-0.6-0.9v2.3h-1V0.3
		h1l0,7.3c0.1-0.3,0.3-0.7,0.6-1c0.3-0.3,0.6-0.6,0.9-0.8c0.3-0.2,0.7-0.4,1.1-0.6C43.8,5,44.2,5,44.6,5c0.7,0,1.3,0.1,1.8,0.4
		s1,0.6,1.5,1c0.4,0.4,0.7,1,1,1.6c0.2,0.6,0.4,1.4,0.4,2.1v0.2c0,0.8-0.1,1.5-0.3,2.2c-0.2,0.6-0.5,1.2-1,1.6
		c-0.4,0.5-0.9,0.8-1.5,1C45.9,15.4,45.3,15.5,44.6,15.5z M44.5,14.6c1.1,0,1.9-0.4,2.6-1.1s1-1.8,1-3.2v-0.2c0-0.7-0.1-1.3-0.3-1.9
		c-0.2-0.5-0.5-1-0.8-1.3c-0.3-0.4-0.7-0.6-1.1-0.8c-0.4-0.2-0.9-0.3-1.4-0.3c-0.5,0-1,0.1-1.4,0.3c-0.5,0.2-0.9,0.5-1.2,0.8
		c-0.4,0.4-0.6,0.8-0.8,1.3c-0.2,0.5-0.3,1.2-0.3,1.9v0.2c0,0.7,0.1,1.3,0.3,1.9c0.2,0.5,0.5,1,0.8,1.3c0.3,0.4,0.7,0.6,1.2,0.8
		C43.5,14.5,44,14.6,44.5,14.6z"/>
	<path d="M58.2,15.5c-1,0-1.9-0.2-2.7-0.5c-0.8-0.3-1.5-0.8-2-1.4c-0.6-0.6-1-1.4-1.3-2.2c-0.3-0.9-0.4-1.8-0.4-2.9V8.3
		c0-1,0.2-2,0.5-2.8c0.3-0.9,0.8-1.6,1.4-2.2c0.6-0.6,1.3-1.1,2.1-1.5c0.8-0.4,1.6-0.5,2.5-0.5c0.7,0,1.4,0.1,2,0.3
		c0.6,0.2,1.2,0.5,1.7,0.8s0.9,0.8,1.2,1.4s0.5,1.2,0.7,1.9h-1.1c-0.2-1.1-0.7-2-1.5-2.6c-0.7-0.6-1.8-0.9-3.1-0.9
		c-0.8,0-1.5,0.1-2.2,0.4c-0.7,0.3-1.2,0.7-1.7,1.3S53.5,5,53.2,5.7c-0.3,0.8-0.4,1.6-0.4,2.5v0.2c0,0.9,0.1,1.8,0.4,2.5
		c0.2,0.8,0.6,1.4,1.1,1.9c0.5,0.5,1,0.9,1.7,1.2c0.7,0.3,1.4,0.4,2.2,0.4c1.3,0,2.3-0.3,3.2-1c0.8-0.6,1.4-1.6,1.6-2.8h1
		c-0.1,0.8-0.4,1.4-0.7,2c-0.3,0.6-0.8,1.1-1.3,1.5c-0.5,0.4-1.1,0.7-1.7,0.9C59.6,15.4,58.9,15.5,58.2,15.5z"/>
	<path d="M71.2,15.5c-0.7,0-1.3-0.1-1.9-0.4c-0.6-0.2-1.1-0.6-1.6-1c-0.4-0.4-0.8-1-1-1.6c-0.3-0.6-0.4-1.3-0.4-2.1v-0.2
		c0-0.8,0.1-1.5,0.4-2.1c0.3-0.6,0.6-1.2,1.1-1.6c0.4-0.5,1-0.8,1.6-1.1C69.9,5.1,70.5,5,71.2,5c0.5,0,1,0.1,1.5,0.2
		c0.5,0.1,0.9,0.3,1.3,0.6c0.4,0.3,0.7,0.6,1,1.1c0.3,0.4,0.4,0.9,0.5,1.5h-1c-0.1-0.4-0.2-0.8-0.4-1.1c-0.2-0.3-0.4-0.6-0.7-0.8
		c-0.3-0.2-0.6-0.4-1-0.5s-0.7-0.2-1.2-0.2c-0.5,0-1,0.1-1.5,0.3c-0.5,0.2-0.9,0.5-1.2,0.9c-0.3,0.4-0.6,0.8-0.8,1.4
		c-0.2,0.5-0.3,1.1-0.3,1.8v0.2c0,0.7,0.1,1.3,0.3,1.8c0.2,0.5,0.5,1,0.8,1.3c0.3,0.4,0.7,0.6,1.2,0.8c0.5,0.2,1,0.3,1.5,0.3
		c0.4,0,0.8-0.1,1.2-0.2s0.7-0.3,1-0.5c0.3-0.2,0.5-0.5,0.8-0.9c0.2-0.4,0.3-0.8,0.4-1.2h1c-0.1,0.5-0.2,1-0.5,1.5s-0.6,0.8-0.9,1.2
		c-0.4,0.3-0.8,0.6-1.3,0.8C72.3,15.4,71.8,15.5,71.2,15.5z"/>
	<path d="M78.7,1.4h3.6c1.2,0,2.2,0.2,3,0.5s1.6,0.8,2.2,1.4c0.6,0.6,1,1.3,1.3,2.2c0.3,0.8,0.4,1.7,0.4,2.7v0.2
		c0,1-0.1,1.9-0.4,2.7c-0.3,0.8-0.7,1.6-1.3,2.2c-0.6,0.6-1.3,1.1-2.2,1.5s-1.9,0.5-3.1,0.5h-3.6V1.4z M82.3,14.5
		c1,0,1.9-0.1,2.6-0.4s1.4-0.7,1.8-1.3s0.9-1.2,1.1-1.9s0.4-1.6,0.4-2.4V8.2c0-0.9-0.1-1.7-0.4-2.4c-0.2-0.7-0.6-1.4-1.1-1.9
		c-0.5-0.5-1.1-0.9-1.8-1.2c-0.7-0.3-1.6-0.5-2.7-0.5h-2.4v12.2H82.3z"/>
	<path d="M96.4,15.5c-0.7,0-1.3-0.1-1.8-0.3c-0.6-0.2-1-0.6-1.5-1s-0.7-1-1-1.6c-0.2-0.6-0.4-1.4-0.4-2.2v-0.2
		c0-0.8,0.1-1.5,0.4-2.1c0.2-0.6,0.6-1.2,1-1.7c0.4-0.5,0.9-0.8,1.5-1.1C95.2,5.1,95.9,5,96.5,5c0.5,0,1,0.1,1.4,0.2
		c0.4,0.1,0.7,0.3,1,0.5s0.6,0.5,0.8,0.8c0.2,0.3,0.4,0.6,0.5,0.9V0.3h1v15.1h-1V13c-0.1,0.3-0.3,0.6-0.6,0.9
		c-0.2,0.3-0.5,0.6-0.9,0.8c-0.3,0.2-0.7,0.4-1.1,0.6C97.3,15.4,96.9,15.5,96.4,15.5z M96.5,14.6c0.5,0,1-0.1,1.5-0.3
		c0.5-0.2,0.9-0.5,1.2-0.8c0.3-0.4,0.6-0.8,0.8-1.3c0.2-0.5,0.3-1.2,0.3-1.9v-0.2c0-0.7-0.1-1.3-0.3-1.9c-0.2-0.5-0.4-1-0.8-1.3
		c-0.3-0.4-0.7-0.6-1.1-0.8c-0.4-0.2-0.9-0.3-1.5-0.3c-0.5,0-1,0.1-1.5,0.3C94.7,6.3,94.3,6.6,94,7c-0.3,0.4-0.6,0.8-0.8,1.4
		c-0.2,0.5-0.3,1.1-0.3,1.8v0.2c0,0.7,0.1,1.3,0.3,1.8c0.2,0.5,0.4,1,0.8,1.3c0.3,0.4,0.7,0.6,1.1,0.8C95.5,14.5,96,14.6,96.5,14.6z
		"/>
	<path d="M105.3,1.4h8v0.9h-6.9v5.5h5.6v0.9h-5.6v5.8h7.3v0.9h-8.4V1.4z"/>
	<path d="M120.7,15.5c-0.7,0-1.4-0.1-2-0.4c-0.6-0.2-1.1-0.6-1.5-1.1c-0.4-0.5-0.7-1-1-1.6c-0.2-0.6-0.3-1.3-0.3-2.1v-0.2
		c0-0.8,0.1-1.5,0.4-2.1c0.2-0.6,0.6-1.2,1-1.6c0.4-0.5,0.9-0.8,1.5-1.1c0.6-0.3,1.2-0.4,1.9-0.4c0.6,0,1.2,0.1,1.7,0.3
		c0.5,0.2,1,0.5,1.4,0.9c0.4,0.4,0.7,0.9,1,1.6s0.4,1.4,0.4,2.2v0.4H117c0,1.4,0.4,2.4,1,3.2s1.6,1.1,2.8,1.1c0.9,0,1.6-0.2,2.1-0.5
		c0.5-0.4,0.9-0.9,1.1-1.6h1.1c-0.2,1-0.7,1.7-1.5,2.2C122.8,15.2,121.8,15.5,120.7,15.5z M123.9,9.5c-0.1-1.2-0.4-2.2-1-2.7
		c-0.6-0.6-1.4-0.9-2.4-0.9c-1,0-1.8,0.3-2.4,1c-0.6,0.7-1,1.5-1.1,2.7H123.9z"/>
	<path d="M128.3,1.4h7.9v0.9h-6.8v5.6h5.4v0.9h-5.4v6.6h-1.1V1.4z"/>
	<path d="M139.6,6h-1.5V5.1h1.5V3.3c0-1.1,0.3-1.8,0.8-2.3c0.5-0.5,1.2-0.8,2.1-0.8c0.2,0,0.5,0,0.6,0c0.2,0,0.3,0.1,0.5,0.1v0.9
		c-0.1-0.1-0.3-0.1-0.5-0.1c-0.2,0-0.4,0-0.6,0c-0.6,0-1,0.2-1.4,0.5c-0.3,0.3-0.5,0.9-0.5,1.6v1.9h2.8V6h-2.8v9.3h-1V6z"/>
	<path d="M152.4,15.5c-1.1,0-2-0.2-2.8-0.5s-1.5-0.8-2.1-1.5c-0.6-0.6-1-1.4-1.3-2.2c-0.3-0.9-0.5-1.8-0.5-2.8V8.3
		c0-1,0.2-2,0.5-2.8c0.3-0.9,0.8-1.6,1.4-2.2c0.6-0.6,1.3-1.1,2.1-1.5s1.7-0.5,2.6-0.5c0.7,0,1.3,0.1,1.9,0.2s1.2,0.4,1.7,0.8
		c0.5,0.3,0.9,0.8,1.3,1.3c0.4,0.5,0.6,1.1,0.7,1.9h-1.1c-0.2-1.2-0.8-2-1.6-2.5c-0.8-0.5-1.8-0.8-2.9-0.8c-0.8,0-1.6,0.2-2.3,0.5
		c-0.7,0.3-1.3,0.7-1.8,1.3c-0.5,0.5-0.9,1.2-1.1,2c-0.3,0.8-0.4,1.6-0.4,2.5v0.2c0,0.9,0.1,1.8,0.4,2.5c0.2,0.8,0.6,1.4,1.1,2
		s1.1,1,1.7,1.2c0.7,0.3,1.5,0.4,2.4,0.4c0.8,0,1.5-0.1,2.1-0.4c0.6-0.2,1.1-0.6,1.5-1c0.4-0.4,0.7-1,0.9-1.6
		c0.2-0.6,0.3-1.3,0.3-2.1V9.4h-4.3V8.5h5.3v0.8c0,1-0.1,1.9-0.4,2.7c-0.3,0.8-0.7,1.4-1.2,1.9c-0.5,0.5-1.2,0.9-1.9,1.2
		C154.1,15.4,153.3,15.5,152.4,15.5z"/>
	<path d="M165.8,19c-0.7,0-1.4-0.1-1.9-0.3c-0.5-0.2-1-0.4-1.4-0.7c-0.4-0.3-0.7-0.6-0.9-1c-0.2-0.4-0.3-0.8-0.4-1.2h1.1
		c0.1,0.7,0.5,1.2,1,1.6c0.6,0.4,1.4,0.6,2.4,0.6c0.5,0,1-0.1,1.5-0.2c0.5-0.1,0.8-0.3,1.2-0.6c0.3-0.3,0.6-0.6,0.8-1.1
		c0.2-0.4,0.3-1,0.3-1.6v-2.1c-0.1,0.3-0.3,0.6-0.6,0.9c-0.2,0.3-0.5,0.6-0.9,0.8c-0.3,0.2-0.7,0.4-1.1,0.6s-0.8,0.2-1.3,0.2
		c-0.7,0-1.3-0.1-1.8-0.3c-0.6-0.2-1-0.6-1.5-1c-0.4-0.4-0.7-0.9-1-1.5c-0.2-0.6-0.4-1.3-0.4-2V10c0-0.7,0.1-1.4,0.4-2
		c0.2-0.6,0.6-1.1,1-1.6c0.4-0.4,0.9-0.8,1.5-1c0.6-0.2,1.2-0.4,1.9-0.4c0.5,0,1,0.1,1.4,0.2c0.4,0.1,0.7,0.3,1,0.5
		c0.3,0.2,0.6,0.5,0.8,0.8c0.2,0.3,0.4,0.6,0.5,0.9V5.1h1v9.5c0,0.8-0.1,1.4-0.4,2c-0.2,0.5-0.6,1-1,1.4s-0.9,0.6-1.5,0.8
		C167.1,18.9,166.5,19,165.8,19z M165.7,14.1c0.5,0,1-0.1,1.5-0.3c0.5-0.2,0.9-0.4,1.2-0.8c0.3-0.4,0.6-0.8,0.8-1.3s0.3-1.1,0.3-1.7
		V9.9c0-0.6-0.1-1.2-0.3-1.7c-0.2-0.5-0.4-0.9-0.7-1.3c-0.3-0.3-0.7-0.6-1.1-0.8c-0.4-0.2-0.9-0.3-1.5-0.3c-0.5,0-1,0.1-1.5,0.3
		c-0.5,0.2-0.9,0.5-1.2,0.8c-0.3,0.4-0.6,0.8-0.8,1.3c-0.2,0.5-0.3,1.1-0.3,1.7v0.2c0,0.6,0.1,1.2,0.3,1.7c0.2,0.5,0.4,0.9,0.8,1.3
		c0.3,0.3,0.7,0.6,1.1,0.8S165.2,14.1,165.7,14.1z"/>
	<path d="M174.5,1.4h1.1v6.5h8.2V1.4h1.1v13.9h-1.1V8.8h-8.2v6.5h-1.1V1.4z"/>
	<path d="M189,0.3h1v6.9c0.1-0.3,0.3-0.5,0.5-0.8c0.2-0.3,0.5-0.5,0.8-0.7c0.3-0.2,0.7-0.4,1-0.5c0.4-0.1,0.8-0.2,1.3-0.2
		c0.5,0,1,0.1,1.5,0.2c0.4,0.1,0.8,0.4,1.1,0.7s0.6,0.8,0.7,1.3c0.2,0.5,0.3,1.1,0.3,1.9v6.3h-1V9c0-1.1-0.2-1.9-0.7-2.4
		s-1.2-0.7-2.1-0.7c-0.4,0-0.8,0.1-1.2,0.2c-0.4,0.1-0.8,0.4-1.1,0.6c-0.3,0.3-0.6,0.6-0.8,1c-0.2,0.4-0.3,0.9-0.3,1.4v6.2h-1V0.3z"
		/>
	<path d="M3.2,24.8h1.1v13.9H3.2V24.8z"/>
	<path d="M8.6,26.3c-0.2,0-0.4-0.1-0.5-0.2c-0.1-0.1-0.2-0.3-0.2-0.5c0-0.2,0.1-0.4,0.2-0.5c0.1-0.1,0.3-0.2,0.5-0.2S9,25,9.1,25.1
		c0.1,0.1,0.2,0.3,0.2,0.5c0,0.2-0.1,0.4-0.2,0.5C9,26.3,8.8,26.3,8.6,26.3z M8.1,28.5h1v10.2h-1V28.5z"/>
	<path d="M13.7,38.9c-0.5,0-0.9,0-1.2-0.1c-0.3-0.1-0.6-0.2-0.7-0.3v-0.9c0.2,0.1,0.5,0.2,0.8,0.3c0.3,0.1,0.7,0.1,1.1,0.1
		c0.8,0,1.4-0.2,1.8-0.6c0.4-0.4,0.7-1.2,0.7-2.2V24.8h1.1v10.4c0,0.6-0.1,1.2-0.3,1.7s-0.4,0.8-0.7,1.1s-0.7,0.5-1.1,0.7
		C14.7,38.8,14.2,38.9,13.7,38.9z"/>
	<path d="M19.2,41.5c0.6-0.1,1-0.2,1.2-0.5c0.2-0.3,0.3-0.7,0.3-1.3V28.5h1v11.1c0,0.9-0.2,1.6-0.6,2s-1,0.7-2,0.7V41.5z M21.2,26.3
		c-0.2,0-0.4-0.1-0.5-0.2c-0.1-0.1-0.2-0.3-0.2-0.5c0-0.2,0.1-0.4,0.2-0.5c0.1-0.1,0.3-0.2,0.5-0.2s0.4,0.1,0.5,0.2
		c0.1,0.1,0.2,0.3,0.2,0.5c0,0.2-0.1,0.4-0.2,0.5C21.6,26.3,21.4,26.3,21.2,26.3z"/>
	<path d="M25.4,24.8h1.1v6.9l6.8-6.9h1.2l-6.7,6.8l7.1,7.2h-1.3l-7-7v7h-1.1V24.8z"/>
	<path d="M37.2,23.7h1v9.7l5-4.8h1.2l-5,4.8l5.3,5.4h-1.3l-5.2-5.4v5.4h-1V23.7z"/>
	<path d="M47.1,24.8h1.1v13.1H55v0.9h-7.9V24.8z"/>
	<path d="M57.6,23.7h1v15.1h-1V23.7z"/>
	<path d="M62.3,24.8h1.6l4.9,12l4.9-12h1.5v13.9h-1.1V26.1l-5.2,12.6h-0.4l-5.2-12.6v12.6h-1V24.8z"/>
	<path d="M79,28.5h1v1.9c0.1-0.3,0.3-0.5,0.5-0.8c0.2-0.3,0.5-0.5,0.7-0.7c0.3-0.2,0.6-0.3,1-0.5c0.4-0.1,0.7-0.2,1.2-0.2
		c0.8,0,1.4,0.2,2,0.5s0.9,0.9,1.2,1.8c0.3-0.7,0.8-1.3,1.5-1.7s1.4-0.6,2.2-0.6c0.5,0,0.9,0.1,1.4,0.2c0.4,0.1,0.8,0.4,1.1,0.7
		c0.3,0.3,0.5,0.7,0.7,1.2c0.2,0.5,0.3,1.1,0.3,1.9v6.4h-1v-6.4c0-1.1-0.2-1.9-0.7-2.3c-0.4-0.5-1.1-0.7-1.9-0.7
		c-0.4,0-0.8,0.1-1.2,0.2c-0.4,0.1-0.7,0.3-1,0.6c-0.3,0.3-0.5,0.6-0.7,1s-0.3,0.9-0.3,1.4v6.2h-1v-6.4c0-1.1-0.2-1.9-0.7-2.3
		c-0.4-0.5-1.1-0.7-1.9-0.7c-0.4,0-0.8,0.1-1.2,0.2c-0.4,0.1-0.7,0.3-1,0.6c-0.3,0.3-0.5,0.6-0.7,1S80,32,80,32.5v6.2h-1V28.5z"/>
	<path d="M97,24.8h1.5l7.8,12.4V24.8h1v13.9h-1.3l-8-12.7v12.7h-1V24.8z"/>
	<path d="M111,28.5h1v2c0.1-0.3,0.3-0.5,0.5-0.8c0.2-0.3,0.5-0.5,0.8-0.7c0.3-0.2,0.7-0.4,1-0.5c0.4-0.1,0.8-0.2,1.3-0.2
		c0.5,0,1,0.1,1.5,0.2c0.4,0.1,0.8,0.4,1.1,0.7s0.6,0.8,0.7,1.3c0.2,0.5,0.3,1.1,0.3,1.9v6.3h-1v-6.4c0-1.1-0.2-1.9-0.7-2.4
		s-1.2-0.7-2.1-0.7c-0.4,0-0.8,0.1-1.2,0.2c-0.4,0.1-0.8,0.4-1.1,0.6c-0.3,0.3-0.6,0.6-0.8,1c-0.2,0.4-0.3,0.9-0.3,1.4v6.2h-1V28.5z
		"/>
	<path d="M128.9,38.9c-1,0-1.9-0.2-2.7-0.6c-0.8-0.4-1.6-0.9-2.2-1.5s-1.1-1.4-1.4-2.2c-0.3-0.9-0.5-1.8-0.5-2.7v-0.2
		c0-1,0.2-1.9,0.5-2.8s0.8-1.6,1.4-2.2c0.6-0.6,1.3-1.1,2.2-1.5c0.8-0.4,1.7-0.5,2.7-0.5c1,0,1.9,0.2,2.7,0.5
		c0.8,0.4,1.5,0.9,2.1,1.5s1.1,1.4,1.4,2.2s0.5,1.8,0.5,2.7v0.2c0,1-0.2,1.9-0.5,2.8c-0.3,0.9-0.8,1.6-1.4,2.2s-1.3,1.1-2.1,1.5
		C130.8,38.7,129.9,38.9,128.9,38.9z M128.9,38c0.8,0,1.6-0.2,2.3-0.5s1.3-0.7,1.8-1.3c0.5-0.5,0.9-1.2,1.2-2
		c0.3-0.8,0.4-1.6,0.4-2.5v-0.2c0-0.8-0.1-1.6-0.4-2.4c-0.3-0.7-0.6-1.4-1.1-1.9c-0.5-0.6-1.1-1-1.8-1.3c-0.7-0.3-1.5-0.5-2.3-0.5
		s-1.6,0.2-2.3,0.5c-0.7,0.3-1.3,0.7-1.8,1.3c-0.5,0.5-0.9,1.2-1.2,1.9c-0.3,0.7-0.4,1.6-0.4,2.5v0.2c0,0.9,0.1,1.7,0.4,2.5
		c0.3,0.8,0.7,1.4,1.2,2c0.5,0.5,1.1,1,1.8,1.3S128.1,38,128.9,38z"/>
	<path d="M142.7,38.9c-0.7,0-1.3-0.1-1.9-0.4c-0.6-0.3-1.1-0.6-1.6-1.1s-0.8-1-1-1.6c-0.3-0.6-0.4-1.3-0.4-2.1v-0.2
		c0-0.8,0.1-1.5,0.4-2.1c0.3-0.6,0.6-1.2,1.1-1.6c0.4-0.5,1-0.8,1.6-1.1c0.6-0.3,1.2-0.4,1.9-0.4c0.7,0,1.3,0.1,1.9,0.4
		s1.1,0.6,1.6,1.1c0.4,0.5,0.8,1,1,1.6c0.3,0.6,0.4,1.3,0.4,2.1v0.2c0,0.8-0.1,1.5-0.4,2.1c-0.3,0.6-0.6,1.2-1.1,1.6
		c-0.5,0.5-1,0.8-1.6,1.1C144,38.8,143.3,38.9,142.7,38.9z M142.7,38c0.5,0,1-0.1,1.5-0.3c0.5-0.2,0.9-0.5,1.2-0.9
		c0.3-0.4,0.6-0.8,0.8-1.3s0.3-1.1,0.3-1.8v-0.2c0-0.7-0.1-1.3-0.3-1.8c-0.2-0.5-0.5-1-0.8-1.4c-0.3-0.4-0.7-0.7-1.2-0.8
		c-0.5-0.2-1-0.3-1.5-0.3c-0.5,0-1.1,0.1-1.5,0.3c-0.5,0.2-0.9,0.5-1.2,0.9c-0.4,0.4-0.6,0.8-0.8,1.4s-0.3,1.1-0.3,1.8v0.2
		c0,0.7,0.1,1.2,0.3,1.8s0.5,1,0.8,1.4c0.3,0.4,0.7,0.7,1.2,0.9C141.6,37.9,142.1,38,142.7,38z"/>
	<path d="M150.5,24.8h3.7c0.7,0,1.3,0.1,1.9,0.2c0.6,0.1,1.1,0.4,1.5,0.7c0.4,0.3,0.8,0.7,1,1.2c0.2,0.5,0.4,1.1,0.4,1.8v0.1
		c0,0.7-0.1,1.3-0.4,1.8c-0.2,0.5-0.6,0.9-1,1.2c-0.4,0.3-0.9,0.5-1.5,0.7c-0.6,0.1-1.2,0.2-1.9,0.2h-2.6v6h-1.1V24.8z M154.2,31.9
		c1.1,0,2-0.2,2.6-0.7c0.6-0.5,0.9-1.3,0.9-2.4v-0.1c0-0.6-0.1-1.1-0.3-1.4s-0.4-0.7-0.7-0.9c-0.3-0.2-0.7-0.4-1.1-0.5
		c-0.4-0.1-0.9-0.2-1.5-0.2h-2.7v6.2H154.2z"/>
	<path d="M161.6,28.5h1v2.4c0.1-0.3,0.3-0.7,0.6-1c0.3-0.3,0.6-0.6,0.9-0.8c0.3-0.2,0.7-0.4,1.1-0.6c0.4-0.1,0.8-0.2,1.3-0.2
		c0.7,0,1.3,0.1,1.8,0.4s1,0.6,1.5,1c0.4,0.4,0.7,1,1,1.6c0.2,0.6,0.4,1.4,0.4,2.1v0.2c0,0.8-0.1,1.5-0.3,2.2
		c-0.2,0.6-0.5,1.2-1,1.6s-0.9,0.8-1.5,1c-0.6,0.2-1.2,0.4-1.8,0.4c-0.5,0-1-0.1-1.4-0.2c-0.4-0.1-0.8-0.3-1.1-0.6
		c-0.3-0.2-0.6-0.5-0.8-0.8s-0.4-0.6-0.6-0.9v5.9h-1V28.5z M166.4,38c1.1,0,1.9-0.4,2.6-1.1s1-1.8,1-3.2v-0.2c0-0.7-0.1-1.3-0.3-1.9
		c-0.2-0.5-0.5-1-0.8-1.3c-0.3-0.4-0.7-0.6-1.1-0.8c-0.4-0.2-0.9-0.3-1.4-0.3s-1,0.1-1.4,0.3c-0.5,0.2-0.9,0.5-1.2,0.8
		c-0.4,0.4-0.6,0.8-0.8,1.3c-0.2,0.5-0.3,1.2-0.3,1.9v0.2c0,0.7,0.1,1.3,0.3,1.9s0.5,1,0.8,1.3c0.3,0.4,0.7,0.6,1.2,0.8
		C165.4,37.9,165.9,38,166.4,38z"/>
	<path d="M183.5,37.9c-0.5,0.3-1,0.5-1.6,0.7s-1.2,0.2-1.8,0.2c-1,0-1.9-0.2-2.7-0.6c-0.8-0.4-1.6-0.9-2.2-1.5s-1.1-1.4-1.4-2.2
		c-0.3-0.9-0.5-1.8-0.5-2.7v-0.2c0-1,0.2-1.9,0.5-2.8s0.8-1.6,1.4-2.2c0.6-0.6,1.3-1.1,2.2-1.5c0.8-0.4,1.7-0.5,2.7-0.5
		c1,0,1.9,0.2,2.7,0.5c0.8,0.4,1.5,0.9,2.1,1.5s1.1,1.4,1.4,2.2s0.5,1.8,0.5,2.7v0.2c0,1.2-0.2,2.2-0.7,3.2s-1.1,1.8-1.9,2.4
		l1.7,1.8l-0.7,0.6L183.5,37.9z M180,38c1,0,2-0.2,2.8-0.7l-2-2.1l0.7-0.6l2.1,2.3c0.7-0.6,1.2-1.3,1.5-2.1c0.4-0.8,0.5-1.8,0.5-2.8
		v-0.2c0-0.8-0.1-1.6-0.4-2.4c-0.3-0.7-0.6-1.4-1.1-1.9c-0.5-0.6-1.1-1-1.8-1.3c-0.7-0.3-1.5-0.5-2.3-0.5s-1.6,0.2-2.3,0.5
		c-0.7,0.3-1.3,0.7-1.8,1.3c-0.5,0.5-0.9,1.2-1.2,1.9c-0.3,0.7-0.4,1.6-0.4,2.5v0.2c0,0.9,0.1,1.7,0.4,2.5c0.3,0.8,0.7,1.4,1.2,2
		c0.5,0.5,1.1,1,1.8,1.3S179.2,38,180,38z"/>
	<path d="M197.4,36.4c-0.1,0.3-0.3,0.6-0.6,0.9c-0.2,0.3-0.5,0.6-0.9,0.8c-0.3,0.2-0.7,0.4-1.1,0.6s-0.9,0.2-1.3,0.2
		c-0.7,0-1.3-0.1-1.8-0.3c-0.6-0.2-1-0.6-1.5-1c-0.4-0.4-0.7-1-1-1.6c-0.2-0.6-0.4-1.4-0.4-2.2v-0.2c0-0.8,0.1-1.5,0.4-2.1
		s0.6-1.2,1-1.7c0.4-0.5,0.9-0.8,1.5-1.1c0.6-0.3,1.2-0.4,1.9-0.4c0.5,0,1,0.1,1.4,0.2c0.4,0.1,0.7,0.3,1,0.5s0.6,0.5,0.8,0.8
		c0.2,0.3,0.4,0.6,0.5,0.9v-2.3h1v13.7h-1V36.4z M193.6,38c0.5,0,1-0.1,1.5-0.3c0.5-0.2,0.9-0.5,1.2-0.8s0.6-0.8,0.8-1.3
		c0.2-0.5,0.3-1.2,0.3-1.9v-0.2c0-0.7-0.1-1.3-0.3-1.9c-0.2-0.5-0.4-1-0.7-1.3c-0.3-0.4-0.7-0.6-1.1-0.8c-0.4-0.2-0.9-0.3-1.5-0.3
		c-0.5,0-1,0.1-1.5,0.3c-0.5,0.2-0.9,0.5-1.2,0.8c-0.3,0.4-0.6,0.8-0.8,1.4c-0.2,0.5-0.3,1.1-0.3,1.8v0.2c0,0.7,0.1,1.3,0.3,1.8
		c0.2,0.5,0.4,1,0.8,1.3s0.7,0.6,1.1,0.8C192.6,37.9,193.1,38,193.6,38z"/>
	<path d="M3.1,48.2h3.8c0.7,0,1.3,0.1,1.9,0.2c0.6,0.1,1.1,0.4,1.5,0.7c0.4,0.3,0.8,0.7,1,1.2s0.4,1,0.4,1.7V52
		c0,0.6-0.1,1.1-0.3,1.5c-0.2,0.4-0.4,0.8-0.8,1.1c-0.3,0.3-0.7,0.5-1.1,0.7s-0.9,0.3-1.4,0.4l4.4,6.4h-1.2l-4.4-6.4H4.2v6.4H3.1
		V48.2z M7,54.9c1.1,0,2-0.2,2.6-0.7c0.6-0.5,0.9-1.2,0.9-2.2v-0.1c0-0.5-0.1-1-0.3-1.3c-0.2-0.4-0.4-0.7-0.7-0.9
		c-0.3-0.2-0.7-0.4-1.1-0.5C8,49.1,7.5,49.1,7,49.1H4.2v5.8H7z"/>
	<path d="M14.6,51.9h1v2.1c0.3-0.6,0.7-1.2,1.2-1.6s1.3-0.7,2.2-0.7v1c-0.5,0-1,0.1-1.4,0.2c-0.4,0.1-0.8,0.4-1.1,0.6
		c-0.3,0.3-0.5,0.7-0.7,1.1c-0.2,0.5-0.3,1-0.3,1.7v5.7h-1V51.9z"/>
	<path d="M25.7,62.3c-0.9,0-1.6-0.1-2.2-0.3c-0.6-0.2-1.1-0.5-1.6-0.9c-0.4-0.4-0.7-0.8-1-1.3c-0.2-0.5-0.4-1-0.4-1.6h1.1
		c0.1,0.4,0.2,0.9,0.3,1.2c0.2,0.4,0.4,0.7,0.7,1s0.7,0.5,1.2,0.7c0.5,0.2,1.1,0.3,1.8,0.3c0.5,0,1-0.1,1.5-0.2
		c0.4-0.1,0.8-0.4,1.1-0.6c0.3-0.3,0.6-0.6,0.7-0.9c0.2-0.4,0.3-0.8,0.3-1.2c0-0.5-0.1-0.9-0.2-1.2s-0.3-0.6-0.6-0.9
		s-0.7-0.4-1.2-0.6c-0.5-0.1-1.1-0.3-1.8-0.4c-1.5-0.2-2.7-0.6-3.4-1.2c-0.7-0.6-1.1-1.4-1.1-2.5c0-0.5,0.1-1,0.3-1.5
		s0.5-0.8,0.9-1.2s0.8-0.6,1.4-0.8c0.5-0.2,1.1-0.3,1.8-0.3c1.3,0,2.3,0.3,3.1,0.9c0.8,0.6,1.2,1.5,1.4,2.6h-1
		c-0.2-0.9-0.5-1.5-1.1-2s-1.4-0.7-2.4-0.7c-1.1,0-1.9,0.2-2.5,0.7s-0.9,1.1-0.9,2c0,0.4,0.1,0.7,0.2,1c0.1,0.3,0.3,0.6,0.6,0.8
		c0.3,0.2,0.6,0.4,1.1,0.6s1.1,0.3,1.8,0.4c0.8,0.1,1.5,0.3,2,0.4c0.6,0.2,1.1,0.4,1.4,0.7c0.4,0.3,0.7,0.7,0.9,1.1
		c0.2,0.5,0.3,1,0.3,1.7c0,0.5-0.1,1.1-0.3,1.5c-0.2,0.5-0.5,0.9-0.9,1.3c-0.4,0.4-0.9,0.6-1.5,0.8C27.1,62.2,26.4,62.3,25.7,62.3z"
		/>
	<path d="M36,62.3c-1.2,0-2.1-0.3-2.8-0.9c-0.7-0.6-1-1.4-1.1-2.3h1c0.1,0.7,0.4,1.3,0.8,1.7c0.5,0.4,1.2,0.6,2.1,0.6
		c0.9,0,1.5-0.2,1.9-0.5s0.7-0.8,0.7-1.5c0-0.3,0-0.6-0.1-0.8c-0.1-0.2-0.3-0.4-0.5-0.6c-0.2-0.2-0.5-0.3-0.8-0.4
		c-0.3-0.1-0.7-0.2-1.2-0.3c-0.6-0.1-1.2-0.2-1.6-0.4c-0.4-0.1-0.8-0.3-1.1-0.5c-0.3-0.2-0.5-0.5-0.6-0.8c-0.1-0.3-0.2-0.7-0.2-1.1
		c0-0.4,0.1-0.8,0.3-1.2c0.2-0.3,0.4-0.6,0.8-0.9c0.3-0.2,0.7-0.4,1.1-0.5c0.4-0.1,0.8-0.2,1.2-0.2c0.5,0,0.9,0,1.3,0.1
		s0.8,0.3,1.1,0.5s0.6,0.5,0.8,0.9c0.2,0.4,0.3,0.8,0.4,1.3h-1c-0.1-0.7-0.4-1.1-0.8-1.4c-0.4-0.3-1-0.4-1.7-0.4
		c-0.7,0-1.3,0.2-1.7,0.5c-0.4,0.3-0.7,0.8-0.7,1.3c0,0.3,0,0.5,0.1,0.7c0.1,0.2,0.3,0.4,0.5,0.5c0.2,0.2,0.5,0.3,0.9,0.4
		c0.4,0.1,0.8,0.2,1.3,0.3c0.5,0.1,1,0.2,1.5,0.3c0.4,0.1,0.8,0.3,1.1,0.5s0.5,0.5,0.7,0.8c0.1,0.3,0.2,0.7,0.2,1.2
		c0,0.9-0.3,1.6-0.9,2.1C38.1,62,37.2,62.3,36,62.3z"/>
	<path d="M45.3,49.1h-4.3v-0.9h9.8v0.9h-4.3v13.1h-1.1V49.1z"/>
	<path d="M55.3,62.3c-0.8,0-1.4-0.2-1.9-0.7s-0.6-1.1-0.6-1.9v-6.9h-1.5v-0.9h1.5v-2.3h1v2.3h2.7v0.9h-2.7v6.8
		c0,0.6,0.1,1.1,0.4,1.4s0.6,0.4,1.1,0.4c0.3,0,0.5,0,0.7-0.1c0.2,0,0.4-0.1,0.6-0.2V62c-0.2,0.1-0.4,0.1-0.6,0.2
		C55.9,62.2,55.7,62.3,55.3,62.3z"/>
	<path d="M63.9,62.3c-1.6,0-2.8-0.4-3.7-1.3c-0.9-0.9-1.3-2.1-1.3-3.8v-9H60V57c0,1.5,0.3,2.6,1,3.3c0.7,0.7,1.6,1,2.9,1
		c1.3,0,2.3-0.4,3-1.1c0.7-0.7,1-1.9,1-3.5v-8.6h1.1v8.7c0,1.7-0.4,3-1.3,3.9C67,61.8,65.7,62.3,63.9,62.3z"/>
	<path d="M75.5,62.3c-0.5,0-1-0.1-1.4-0.2s-0.8-0.4-1.1-0.7c-0.3-0.3-0.6-0.7-0.7-1.2C72,59.7,72,59.1,72,58.4v-6.5h1v6.4
		c0,1.1,0.2,1.9,0.7,2.4s1.2,0.7,2.1,0.7c0.4,0,0.8-0.1,1.2-0.2c0.4-0.1,0.8-0.3,1.1-0.6s0.6-0.6,0.8-1c0.2-0.4,0.3-0.9,0.3-1.4
		v-6.2h1v10.2h-1v-2c-0.1,0.3-0.3,0.5-0.5,0.8c-0.2,0.3-0.5,0.5-0.8,0.7c-0.3,0.2-0.6,0.4-1,0.5S76,62.3,75.5,62.3z"/>
	<path d="M82.2,48.2h1.1l4.7,12.9l4.5-12.9h1l-4.9,13.9h-1.3L82.2,48.2z"/>
	<path d="M94,51.9h1.1l3.5,9.2l3.5-9.2h1.1l-3.8,10.2h-1.3L94,51.9z"/>
	<path d="M104.1,48.2h1.1l3.2,12.3l3.7-12.3h0.8l3.5,12.3l3.4-12.3h1L117,62.1h-1.1l-3.4-12l-3.6,12h-1L104.1,48.2z"/>
	<path d="M121.5,51.9h1.1l2.7,8.9l2.8-8.9h0.9l2.7,8.9l2.8-8.9h1.1l-3.2,10.2h-1.2l-2.5-8.5l-2.7,8.5h-1.2L121.5,51.9z"/>
	<path d="M141.7,54.9l-4.4-6.7h1.2l3.9,5.9l3.9-5.9h1.1l-4.4,6.7l4.8,7.2h-1.2l-4.2-6.4l-4.2,6.4h-1.1L141.7,54.9z"/>
	<path d="M152.5,56.9l-3.5-4.9h1.2l2.9,4.2l2.9-4.2h1.2l-3.5,4.9l3.9,5.3h-1.2l-3.2-4.6l-3.2,4.6h-1.1L152.5,56.9z"/>
	<path d="M163.3,55.9l-4.8-7.7h1.2l4.1,6.8l3.9-6.8h1.1l-4.5,7.8v6.2h-1.1V55.9z"/>
	<path d="M173.2,61.2l-4-9.3h1.1l3.5,8.1l3.3-8.1h1.1l-5.7,13.7h-1.1L173.2,61.2z"/>
	<path d="M179,61.9l8.6-12.8h-7.9v-0.9h9.5v0.2l-8.5,12.8h8.4v0.9h-10V61.9z"/>
	<path d="M190.3,62l6.6-9.1h-6v-0.9h7.7v0.2l-6.6,9.1h6.4v0.9h-8.1V62z"/>
</g>
</svg>
