<?xml version="1.0" encoding="utf-8"?>
<!-- Generator: Adobe Illustrator 24.0.3, SVG Export Plug-In . SVG Version: 6.00 Build 0)  -->
<svg version="1.1" id="Layer_3" xmlns="http://www.w3.org/2000/svg" xmlns:xlink="http://www.w3.org/1999/xlink" x="0px" y="0px"
	 viewBox="0 0 200 66.6" style="enable-background:new 0 0 200 66.6;" xml:space="preserve">
<g>
	<path d="M1.8,15.3L6.2,2.1h3.2l4.4,13.2h-2.6l-1.1-3.3H5.2l-1,3.3H1.8z M7.7,4.1l-2,6.1h3.9L7.7,4.1z"/>
	<path d="M18.9,15.5c-1,0-1.7-0.2-2.3-0.7c-0.6-0.5-0.9-1.2-0.9-2.2c0-1.1,0.5-1.8,1.4-2.3c0.9-0.5,2.1-0.7,3.6-0.7h1.2V9.1
		c0-0.7-0.1-1.2-0.4-1.5s-0.7-0.5-1.4-0.5c-1.1,0-1.7,0.5-1.9,1.5h-2.2c0.1-1.1,0.5-1.9,1.3-2.4c0.8-0.5,1.7-0.8,2.9-0.8
		c2.6,0,3.9,1.2,3.9,3.5v6.3h-2.2v-1.2C21.2,15.1,20.2,15.5,18.9,15.5z M19.5,13.9c0.7,0,1.3-0.2,1.7-0.5s0.7-0.8,0.7-1.4v-1h-1.1
		c-1.9,0-2.8,0.5-2.8,1.6C17.9,13.5,18.4,13.9,19.5,13.9z"/>
	<path d="M27.6,15.3V2.1h4.7c2.9,0,4.3,1.1,4.3,3.4v0.1c0,1.4-0.7,2.4-2.1,2.8c0.9,0.2,1.6,0.5,2,1.1c0.4,0.5,0.6,1.2,0.6,2.1v0.1
		c0,1.2-0.4,2.1-1.2,2.8c-0.8,0.6-1.9,0.9-3.4,0.9H27.6z M30,7.7h2c0.8,0,1.4-0.2,1.7-0.5c0.4-0.3,0.5-0.8,0.5-1.5V5.7
		c0-0.6-0.2-1.1-0.6-1.4c-0.4-0.3-1-0.4-1.7-0.4h-2V7.7z M30,13.6h2.4c1.6,0,2.4-0.7,2.4-2.1v-0.1c0-0.7-0.2-1.2-0.6-1.5
		c-0.4-0.3-1.1-0.5-2-0.5H30V13.6z"/>
	<path d="M45.5,15.5c-0.7,0-1.4-0.2-1.9-0.5c-0.5-0.3-1-0.7-1.2-1.3v1.6h-2.2V1.2h2.2v6C42.6,6.7,43,6.3,43.6,6
		c0.6-0.3,1.2-0.5,1.9-0.5c1.2,0,2.3,0.4,3.1,1.3c0.8,0.9,1.2,2.1,1.2,3.6v0.1c0,1.5-0.4,2.7-1.2,3.6C47.8,15.1,46.8,15.5,45.5,15.5
		z M44.9,13.7c0.8,0,1.5-0.3,1.9-0.8c0.4-0.5,0.7-1.3,0.7-2.4v-0.1c0-1-0.2-1.8-0.7-2.4c-0.5-0.5-1.1-0.8-1.9-0.8
		c-0.8,0-1.4,0.3-1.9,0.8c-0.5,0.5-0.7,1.3-0.7,2.4v0.1c0,1,0.2,1.8,0.7,2.4C43.4,13.5,44.1,13.7,44.9,13.7z"/>
	<path d="M58.5,15.5c-2,0-3.6-0.6-4.8-1.8c-1.1-1.2-1.7-2.8-1.7-4.9V8.6c0-2,0.6-3.6,1.8-4.9c1.2-1.3,2.7-1.9,4.6-1.9
		c1.6,0,2.9,0.4,3.9,1.2c1,0.8,1.6,1.9,1.8,3.4h-2.5c-0.3-1.8-1.3-2.7-3.2-2.7c-1.2,0-2.1,0.4-2.8,1.3s-1,2-1,3.5v0.1
		c0,1.5,0.3,2.7,1,3.5c0.7,0.8,1.6,1.2,2.8,1.2c0.9,0,1.7-0.2,2.3-0.7c0.6-0.5,1-1.2,1.1-2.1h2.4c-0.2,1.6-0.8,2.7-1.8,3.6
		C61.4,15.1,60.1,15.5,58.5,15.5z"/>
	<path d="M71.2,15.5c-1.4,0-2.6-0.4-3.5-1.3c-0.9-0.9-1.4-2.1-1.4-3.6v-0.1c0-1.5,0.5-2.7,1.4-3.6c0.9-0.9,2.1-1.4,3.5-1.4
		c1.2,0,2.2,0.3,3,0.9c0.8,0.6,1.3,1.5,1.4,2.7h-2.2c-0.2-1.2-0.9-1.8-2.2-1.8c-0.8,0-1.4,0.3-1.9,0.9c-0.5,0.6-0.7,1.3-0.7,2.3v0.1
		c0,1,0.2,1.8,0.7,2.4c0.5,0.6,1.1,0.8,2,0.8c0.6,0,1.1-0.2,1.6-0.5c0.4-0.4,0.7-0.9,0.7-1.5h2.1c-0.1,1.1-0.5,2.1-1.3,2.7
		C73.6,15.2,72.5,15.5,71.2,15.5z"/>
	<path d="M78.5,15.3V2.1h4c2.2,0,3.9,0.6,5.1,1.7c1.2,1.2,1.7,2.7,1.7,4.7v0.2c0,2-0.6,3.6-1.8,4.8c-1.2,1.2-2.9,1.8-5.1,1.8H78.5z
		 M81,13.4h1.4c1.5,0,2.5-0.4,3.3-1.2s1.1-1.9,1.1-3.4V8.6c0-3-1.5-4.6-4.4-4.6H81V13.4z"/>
	<path d="M95.9,15.5c-1.3,0-2.3-0.4-3.1-1.3c-0.8-0.9-1.2-2.1-1.2-3.6v-0.1c0-1.5,0.4-2.8,1.2-3.7c0.8-0.9,1.9-1.4,3.1-1.4
		c1.4,0,2.5,0.6,3.1,1.7v-6h2.2v14.2h-2.2v-1.6c-0.3,0.5-0.7,0.9-1.3,1.3C97.2,15.3,96.6,15.5,95.9,15.5z M96.5,13.7
		c0.8,0,1.5-0.3,2-0.8c0.5-0.5,0.7-1.3,0.7-2.4v-0.1c0-1-0.2-1.8-0.7-2.4c-0.5-0.5-1.1-0.8-1.9-0.8S95.1,7.5,94.7,8
		C94.2,8.6,94,9.4,94,10.4v0.1c0,1,0.2,1.8,0.7,2.3C95.1,13.5,95.7,13.7,96.5,13.7z"/>
	<path d="M104.9,15.3V2.1h8.3V4h-5.8v3.6h4.7v1.9h-4.7v3.9h6.1v1.9H104.9z"/>
	<path d="M120.6,15.5c-1.4,0-2.6-0.4-3.5-1.3c-0.9-0.9-1.4-2.1-1.4-3.6v-0.1c0-1.5,0.5-2.7,1.4-3.6c0.9-0.9,2.1-1.4,3.5-1.4
		c1.3,0,2.4,0.4,3.3,1.2s1.3,2,1.3,3.7V11H118c0,0.9,0.3,1.6,0.7,2.1c0.5,0.5,1.1,0.7,1.9,0.7c1.3,0,2-0.5,2.2-1.5h2.2
		c-0.2,1-0.6,1.8-1.4,2.3C122.8,15.2,121.8,15.5,120.6,15.5z M118,9.5h4.8c-0.1-1.6-0.9-2.4-2.3-2.4c-0.7,0-1.2,0.2-1.7,0.6
		C118.4,8.1,118.1,8.7,118,9.5z"/>
	<path d="M128,15.3V2.1h8.2v2h-5.7V8h4.5v1.9h-4.5v5.4H128z"/>
	<path d="M139.2,15.3v-8h-1.3V5.7h1.3V4.4c0-1.1,0.3-1.9,0.9-2.4c0.6-0.6,1.4-0.8,2.4-0.8c0.5,0,0.9,0.1,1.3,0.2V3
		c-0.3-0.1-0.6-0.2-1-0.2c-0.9,0-1.3,0.5-1.3,1.4v1.4h2.2v1.7h-2.2v8H139.2z"/>
	<path d="M152.4,15.5c-2.1,0-3.7-0.6-4.9-1.9c-1.2-1.2-1.7-2.9-1.7-4.9V8.6c0-2,0.6-3.6,1.9-4.9s2.8-1.9,4.8-1.9
		c1.5,0,2.8,0.4,3.9,1.1c1.1,0.7,1.7,1.9,1.8,3.3h-2.5c-0.3-1.7-1.4-2.5-3.2-2.5c-1.3,0-2.3,0.4-3,1.3c-0.7,0.9-1.1,2-1.1,3.5v0.1
		c0,1.5,0.3,2.6,1,3.5c0.7,0.9,1.7,1.3,3.1,1.3c1.2,0,2.1-0.3,2.6-0.9s0.9-1.4,0.9-2.4h-3.3V8.4h5.8v1.2c0,1.8-0.5,3.3-1.6,4.3
		C155.8,15,154.3,15.5,152.4,15.5z"/>
	<path d="M165.5,18.9c-1.4,0-2.5-0.3-3.3-0.9c-0.8-0.6-1.2-1.4-1.4-2.3h2.3c0.2,1,1,1.5,2.4,1.5c1.8,0,2.7-0.9,2.7-2.6v-1.4
		c-0.3,0.5-0.7,0.9-1.3,1.3c-0.6,0.4-1.2,0.5-1.9,0.5c-1.2,0-2.3-0.4-3.1-1.3c-0.8-0.9-1.2-2-1.2-3.3v-0.1c0-1.4,0.4-2.5,1.2-3.4
		c0.8-0.9,1.9-1.4,3.1-1.4c1.4,0,2.5,0.6,3.1,1.7V5.7h2.2v9c0,1.4-0.5,2.5-1.3,3.2C168.2,18.5,167,18.9,165.5,18.9z M165.6,13.2
		c0.8,0,1.4-0.3,1.9-0.8c0.5-0.5,0.7-1.3,0.7-2.2v-0.1c0-0.9-0.2-1.6-0.7-2.1c-0.5-0.5-1.1-0.8-1.9-0.8c-0.8,0-1.5,0.3-1.9,0.8
		c-0.5,0.5-0.7,1.3-0.7,2.1v0.1c0,0.9,0.2,1.6,0.7,2.1C164.2,13,164.8,13.2,165.6,13.2z"/>
	<path d="M174,15.3V2.1h2.5v5.6h5.9V2.1h2.5v13.2h-2.5V9.7h-5.9v5.6H174z"/>
	<path d="M188.5,15.3V1.2h2.2v6c0.2-0.5,0.6-0.9,1.2-1.2c0.5-0.3,1.2-0.5,1.9-0.5c1,0,1.8,0.3,2.4,0.9c0.6,0.6,0.9,1.6,0.9,2.9v6.1
		h-2.2V9.4c0-0.7-0.2-1.3-0.5-1.6c-0.3-0.3-0.8-0.5-1.5-0.5s-1.2,0.2-1.6,0.6c-0.4,0.4-0.6,1-0.6,1.7v5.7H188.5z"/>
	<path d="M2.9,37.5V24.3h2.5v13.2H2.9z"/>
	<path d="M10.5,25.9c-0.3,0.2-0.6,0.4-0.9,0.4s-0.7-0.1-0.9-0.4c-0.3-0.2-0.4-0.5-0.4-0.9c0-0.4,0.1-0.7,0.4-0.9
		c0.3-0.2,0.6-0.4,0.9-0.4s0.7,0.1,0.9,0.4c0.3,0.2,0.4,0.6,0.4,0.9C10.9,25.3,10.8,25.6,10.5,25.9z M8.5,37.5v-9.7h2.2v9.7H8.5z"/>
	<path d="M14.9,37.7c-0.9,0-1.6-0.1-2.1-0.4v-1.9c0.6,0.2,1.1,0.3,1.7,0.3c1.3,0,2-0.8,2-2.3v-9.2H19v9.2c0,1.4-0.4,2.4-1.1,3.1
		C17.2,37.3,16.2,37.7,14.9,37.7z"/>
	<path d="M20.5,41v-1.7c0.9-0.1,1.3-0.5,1.3-1.4V27.9h2.2v10c0,1-0.3,1.8-0.8,2.3C22.8,40.7,21.8,41,20.5,41z M23.9,25.9
		c-0.3,0.2-0.6,0.4-0.9,0.4s-0.7-0.1-0.9-0.4c-0.3-0.2-0.4-0.5-0.4-0.9c0-0.4,0.1-0.7,0.4-0.9c0.3-0.2,0.6-0.4,0.9-0.4
		s0.7,0.1,0.9,0.4c0.3,0.2,0.4,0.6,0.4,0.9C24.3,25.3,24.2,25.6,23.9,25.9z"/>
	<path d="M27.1,37.5V24.3h2.5v6l5.1-6h2.6l-5.5,6.3l5.8,6.9h-2.9l-5.1-6.2v6.2H27.1z"/>
	<path d="M39.2,37.5V23.4h2.2v8.7l3.5-4.3h2.4l-3.8,4.4l4.1,5.2h-2.6l-3.6-4.8v4.8H39.2z"/>
	<path d="M49.5,37.5V24.3h2.5v11.3h5.6v2H49.5z"/>
	<path d="M59.6,37.5V23.4h2.2v14.2H59.6z"/>
	<path d="M64.9,37.5V24.3h3.3l3.5,9l3.4-9h3.3v13.2h-2.5v-10l-3.9,10h-0.8l-4-10v10H64.9z"/>
	<path d="M81.2,37.5v-9.7h2.2v1.5c0.2-0.5,0.6-0.9,1.1-1.2c0.5-0.3,1.1-0.5,1.8-0.5c1.4,0,2.3,0.6,2.7,1.7c0.4-0.6,0.8-1,1.4-1.3
		c0.6-0.3,1.2-0.4,1.9-0.4c0.9,0,1.7,0.3,2.3,0.9c0.6,0.6,0.9,1.6,0.9,2.8v6.1h-2.2v-6c0-1.4-0.6-2-1.7-2c-0.6,0-1.1,0.2-1.5,0.6
		c-0.4,0.4-0.6,0.9-0.6,1.6v5.8h-2.2v-6c0-1.4-0.6-2-1.7-2c-0.6,0-1.1,0.2-1.5,0.6c-0.4,0.4-0.6,0.9-0.6,1.6v5.8H81.2z"/>
	<path d="M98.5,37.5V24.3h2.9l5.6,9.6v-9.6h2.2v13.2h-2.6l-6-10.1v10.1H98.5z"/>
	<path d="M112.2,37.5v-9.7h2.2v1.5c0.2-0.5,0.6-0.9,1.2-1.2c0.5-0.3,1.2-0.5,1.9-0.5c1,0,1.8,0.3,2.4,0.9c0.6,0.6,0.9,1.6,0.9,2.9
		v6.1h-2.2v-5.9c0-0.7-0.2-1.3-0.5-1.6c-0.3-0.3-0.8-0.5-1.5-0.5s-1.2,0.2-1.6,0.6c-0.4,0.4-0.6,1-0.6,1.7v5.7H112.2z"/>
	<path d="M129.8,37.7c-2,0-3.6-0.6-4.8-1.9c-1.2-1.3-1.9-2.9-1.9-4.8v-0.1c0-1.9,0.6-3.5,1.9-4.8c1.3-1.3,2.9-1.9,4.8-1.9
		c2,0,3.6,0.6,4.8,1.9s1.9,2.9,1.9,4.8v0.1c0,2-0.6,3.6-1.8,4.9S131.7,37.7,129.8,37.7z M129.8,35.7c1.2,0,2.2-0.4,3-1.3
		c0.7-0.9,1.1-2,1.1-3.5v-0.1c0-1.4-0.4-2.5-1.1-3.4c-0.7-0.9-1.7-1.3-3-1.3c-1.3,0-2.3,0.4-3,1.3c-0.7,0.9-1.1,2-1.1,3.5V31
		c0,1.4,0.4,2.6,1.2,3.4S128.6,35.7,129.8,35.7z"/>
	<path d="M146.6,36.3c-0.9,0.9-2.1,1.4-3.6,1.4s-2.6-0.5-3.6-1.4s-1.4-2.1-1.4-3.6v-0.1c0-1.5,0.5-2.7,1.4-3.6
		c0.9-0.9,2.1-1.4,3.6-1.4c1.4,0,2.6,0.5,3.6,1.4s1.4,2.1,1.4,3.6v0.1C148,34.2,147.5,35.4,146.6,36.3z M143,36c0.8,0,1.5-0.3,2-0.9
		s0.7-1.4,0.7-2.4v-0.1c0-1-0.2-1.8-0.7-2.4c-0.5-0.6-1.1-0.9-2-0.9c-0.8,0-1.5,0.3-2,0.9c-0.5,0.6-0.7,1.4-0.7,2.3v0.1
		c0,1,0.2,1.8,0.7,2.4S142.2,36,143,36z"/>
	<path d="M150.3,37.5V24.3h4.3c1.5,0,2.7,0.3,3.6,1c0.9,0.7,1.3,1.7,1.3,3.1v0.1c0,1.3-0.4,2.4-1.3,3c-0.9,0.7-2.1,1-3.5,1h-1.8v5
		H150.3z M152.7,30.7h1.8c0.8,0,1.4-0.2,1.9-0.6c0.4-0.4,0.6-0.9,0.6-1.7v-0.1c0-1.5-0.8-2.2-2.5-2.2h-1.8V30.7z"/>
	<path d="M161.4,40.8v-13h2.2v1.6c0.3-0.5,0.7-0.9,1.3-1.2s1.2-0.5,1.9-0.5c1.2,0,2.3,0.4,3.1,1.3c0.8,0.9,1.2,2.1,1.2,3.6v0.1
		c0,1.5-0.4,2.7-1.2,3.6c-0.8,0.9-1.8,1.4-3.1,1.4c-0.7,0-1.4-0.2-1.9-0.5c-0.6-0.3-1-0.7-1.2-1.2v4.8H161.4z M166.3,35.9
		c0.8,0,1.5-0.3,1.9-0.8c0.4-0.5,0.7-1.3,0.7-2.4v-0.1c0-1-0.2-1.8-0.7-2.4c-0.5-0.5-1.1-0.8-1.9-0.8c-0.8,0-1.4,0.3-1.9,0.8
		c-0.5,0.5-0.7,1.3-0.7,2.4v0.1c0,1,0.2,1.8,0.7,2.4C164.8,35.7,165.5,35.9,166.3,35.9z"/>
	<path d="M183.8,39.2l-1.8-1.9c-0.8,0.3-1.7,0.4-2.6,0.4c-2,0-3.6-0.6-4.8-1.9c-1.2-1.3-1.9-2.9-1.9-4.8v-0.1c0-1.9,0.6-3.5,1.9-4.8
		c1.3-1.3,2.9-1.9,4.8-1.9c2,0,3.6,0.6,4.8,1.9c1.2,1.3,1.9,2.8,1.9,4.8v0.1c0,2.2-0.8,4-2.3,5.3l1.5,1.6L183.8,39.2z M179.5,35.8
		c0.4,0,0.7,0,1-0.1l-1.3-1.4l1.5-1.4l1.6,1.8c0.8-0.9,1.2-2.1,1.2-3.7v-0.1c0-1.4-0.4-2.5-1.1-3.4c-0.7-0.9-1.7-1.3-3-1.3
		c-1.3,0-2.3,0.4-3,1.3c-0.7,0.9-1.1,2-1.1,3.5V31c0,1.5,0.4,2.6,1.2,3.5C177.3,35.3,178.3,35.8,179.5,35.8z"/>
	<path d="M195.2,40.8v-4.9c-0.3,0.5-0.7,0.9-1.3,1.3c-0.6,0.3-1.2,0.5-1.9,0.5c-1.3,0-2.3-0.4-3.1-1.3s-1.2-2-1.2-3.6v-0.1
		c0-1.5,0.4-2.8,1.2-3.7c0.8-0.9,1.9-1.4,3.1-1.4c1.4,0,2.5,0.6,3.1,1.7v-1.5h2.2v13H195.2z M192.6,35.9c0.8,0,1.5-0.3,2-0.8
		c0.5-0.5,0.7-1.3,0.7-2.4v-0.1c0-1-0.2-1.8-0.7-2.4c-0.5-0.5-1.1-0.8-1.9-0.8s-1.5,0.3-1.9,0.8c-0.5,0.6-0.7,1.4-0.7,2.4v0.1
		c0,1,0.2,1.8,0.7,2.3C191.2,35.7,191.8,35.9,192.6,35.9z"/>
	<path d="M2.8,59.7V46.5h4.4c1.5,0,2.7,0.3,3.6,1c0.9,0.6,1.3,1.6,1.3,2.9v0.1c0,1.9-1,3-2.9,3.6l3.7,5.7h-2.7l-3.5-5.3H5.3v5.3H2.8
		z M5.3,52.6h2c1.7,0,2.5-0.7,2.5-2.1v-0.1c0-0.7-0.2-1.2-0.6-1.6c-0.4-0.3-1.1-0.5-1.9-0.5h-2V52.6z"/>
	<path d="M14.5,59.7v-9.7h2.2v1.8c0.6-1.3,1.7-1.9,3.1-2V52c-1,0-1.8,0.2-2.4,0.6c-0.5,0.4-0.8,1.1-0.8,2.1v5H14.5z"/>
	<path d="M26.3,59.9c-1.7,0-3-0.4-3.9-1.1C21.6,58,21.1,57,21,55.6h2.4c0.1,0.8,0.4,1.4,0.8,1.8c0.4,0.4,1.1,0.6,2.2,0.6
		c0.7,0,1.3-0.2,1.8-0.6c0.5-0.4,0.7-0.9,0.7-1.5c0-0.6-0.2-1.1-0.6-1.4c-0.4-0.3-1.1-0.5-2.2-0.7c-1.6-0.2-2.8-0.6-3.6-1.2
		c-0.7-0.6-1.1-1.5-1.1-2.7c0-1.1,0.4-2,1.3-2.7c0.9-0.7,2-1.1,3.3-1.1c1.4,0,2.6,0.3,3.4,1c0.8,0.6,1.3,1.6,1.4,2.9h-2.3
		c-0.1-0.7-0.4-1.2-0.8-1.5c-0.4-0.3-1-0.5-1.8-0.5c-0.7,0-1.3,0.2-1.7,0.5c-0.4,0.3-0.6,0.7-0.6,1.3c0,0.6,0.2,1,0.5,1.3
		c0.4,0.3,1.1,0.5,2.2,0.7c1.6,0.2,2.8,0.6,3.6,1.2c0.8,0.6,1.1,1.5,1.1,2.8c0,1.2-0.5,2.1-1.4,2.9S27.8,59.9,26.3,59.9z"/>
	<path d="M36.5,59.9c-1.2,0-2.2-0.3-2.9-0.8c-0.7-0.6-1.1-1.3-1.1-2.4h2.1c0.1,0.5,0.2,0.9,0.5,1.2c0.3,0.3,0.8,0.4,1.4,0.4
		c1.2,0,1.7-0.4,1.7-1.2c0-0.4-0.2-0.7-0.5-0.9c-0.3-0.2-0.8-0.3-1.6-0.5c-1.3-0.2-2.2-0.5-2.7-1c-0.5-0.4-0.8-1.1-0.8-2
		c0-0.9,0.4-1.6,1.1-2.1c0.7-0.5,1.6-0.8,2.6-0.8c2.3,0,3.6,1,3.8,2.9H38c-0.1-0.4-0.3-0.8-0.5-1s-0.7-0.3-1.2-0.3
		c-0.5,0-0.9,0.1-1.1,0.3c-0.3,0.2-0.4,0.5-0.4,0.8c0,0.3,0.1,0.6,0.4,0.8s0.8,0.3,1.6,0.5c1.3,0.2,2.2,0.5,2.8,0.9
		c0.6,0.4,0.9,1.1,0.9,2.1c0,1-0.3,1.7-1,2.3C38.6,59.6,37.7,59.9,36.5,59.9z"/>
	<path d="M44.9,59.7V48.4h-3.7v-1.9H51v1.9h-3.7v11.3H44.9z"/>
	<path d="M55.9,59.9c-0.9,0-1.7-0.2-2.2-0.7S53,58,53,57v-5.3h-1.3v-1.7H53v-2.1h2.2v2.1h2.1v1.7h-2.1v5.1c0,0.8,0.4,1.2,1.1,1.2
		c0.4,0,0.8-0.1,1.1-0.2v1.8C57,59.8,56.5,59.9,55.9,59.9z"/>
	<path d="M64.4,59.9c-1.7,0-2.9-0.4-3.8-1.3s-1.4-2.2-1.4-3.9v-8.2h2.5v8c0,1.2,0.2,2.1,0.6,2.6c0.4,0.5,1.1,0.8,2.1,0.8
		c1,0,1.7-0.3,2.2-0.8c0.5-0.5,0.7-1.5,0.7-2.8v-7.8h2.5v8c0,1.7-0.5,3.1-1.4,4C67.5,59.5,66.2,59.9,64.4,59.9z"/>
	<path d="M75.5,59.9c-1,0-1.8-0.3-2.4-0.9c-0.6-0.6-0.9-1.5-0.9-2.8v-6.2h2.2V56c0,0.7,0.2,1.3,0.5,1.6c0.3,0.3,0.8,0.5,1.4,0.5
		c0.6,0,1.2-0.2,1.6-0.6c0.4-0.4,0.6-1,0.6-1.7v-5.8h2.2v9.7h-2.2v-1.5c-0.3,0.5-0.7,0.9-1.2,1.2C76.8,59.8,76.2,59.9,75.5,59.9z"/>
	<path d="M86.7,59.7l-4.5-13.2h2.6l3.4,10.7l3.5-10.7H94l-4.5,13.2H86.7z"/>
	<path d="M97.6,59.7l-3.5-9.7h2.4l2.5,7.4l2.5-7.4h2.2l-3.5,9.7H97.6z"/>
	<path d="M107.6,59.7l-3.3-13.2h2.5l2.3,9.7l2.6-9.7h2l2.6,9.8l2.4-9.8h2.3l-3.3,13.2h-2.5l-2.6-9.6l-2.7,9.6H107.6z"/>
	<path d="M124.2,59.7l-3-9.7h2.4l1.9,7l2.1-7h1.9l1.9,7l2-7h2.2l-3,9.7h-2.3l-1.8-6.5l-2,6.5H124.2z"/>
	<path d="M136.4,59.7l4.3-6.8l-4-6.4h2.8l2.8,4.7l2.8-4.7h2.5l-3.9,6.4l4.2,6.8h-2.8l-3.1-5.2l-3.1,5.2H136.4z"/>
	<path d="M148.4,59.7l3.4-5l-3.1-4.7h2.6l2,3.1l2-3.1h2.3l-3.1,4.6l3.5,5.1h-2.6l-2.3-3.5l-2.3,3.5H148.4z"/>
	<path d="M162.8,59.7V54l-4.4-7.5h2.7l3,5.5l2.9-5.5h2.4l-4.1,7.5v5.7H162.8z"/>
	<path d="M171.1,63l1.8-4.3l-3.8-8.7h2.4l2.6,6.2l2.4-6.2h2.2l-5.3,13H171.1z"/>
	<path d="M179.1,59.7v-0.3l6.8-11h-6.1v-1.9h9.5v0.3l-6.6,10.9h6.4v2H179.1z"/>
	<path d="M190,59.7v-0.3l5.1-7.6h-4.6v-1.8h7.9v0.3l-5.1,7.6h5v1.8H190z"/>
</g>
</svg>
