<?xml version="1.0" encoding="utf-8"?>
<!-- Generator: Adobe Illustrator 21.1.0, SVG Export Plug-In . SVG Version: 6.00 Build 0)  -->
<svg version="1.1" id="Layer_3" xmlns="http://www.w3.org/2000/svg" xmlns:xlink="http://www.w3.org/1999/xlink" x="0px" y="0px"
	 viewBox="0 0 512 384" style="enable-background:new 0 0 512 384;" xml:space="preserve">
<style type="text/css">
	.st0{fill:#FAA819;}
	.st1{fill:#E68625;}
	.st2{fill:#FCC06A;}
	.st3{fill:#FFFFFF;}
	.st4{fill:#C8C8C8;}
	.st5{fill:#463017;}
</style>
<path class="st0" d="M163.6,73.1c0,0,5.1,19.8,5.9,26.4c0.7,6.6-13.2,21.3-13.2,28.6c0,7.3,2.9,20.5,19.1,27.2
	c16.1,6.6,18.3,23.5,18.3,33.8c0,10.3-5.9,30.1-5.9,30.1s-3.7,49.2,16.1,58c19.8,8.8,15.4,8.8,19.8,8.8c4.4,0,36.7,13.2,55.8,8.1
	c19.1-5.1,24.2-11,24.2-11s19.1,1.5,24.9-15.4c5.9-16.9,9.5-52.1,7.3-68.2c-2.2-16.1-5.1-37.4,8.1-44.8
	c13.2-7.3,27.1-16.1,24.9-23.5c-2.2-7.3-13.9-17.6-13.9-17.6s-2.9-18.3-0.7-22.7c2.2-4.4,15.4-15.4,8.1-23.5
	c-7.3-8.1-20.5-8.1-20.5-8.1L325,60.7c0,0-28.6-25.7-66-24.2c-37.4,1.5-60.9,24.2-60.9,24.2s-12.5-4.4-23.5,0
	C163.6,65.1,161.4,60.7,163.6,73.1L163.6,73.1z"/>
<path class="st1" d="M230.7,182.4c0,0-14.5,22.2-25.2,38c-1.6,2.4,10.7,2.6,10.7,2.6L230.7,182.4L230.7,182.4z M237.6,136.3
	c0,0-4.4,10.9-6.8,16.7c-2.6,6.3-12.5,9.4-12.5,9.4s5.1-5.4,5.1-19.1c0-5.7,7.4-8,7.4-8L237.6,136.3L237.6,136.3z"/>
<path class="st1" d="M233.2,142.5c0,0-9,10.7-25.6,4.7c-16.7-6-18.4-27.4-18.4-33.3c0-6,31.6,6,35.9,8.5S237.4,135.2,233.2,142.5
	L233.2,142.5z M170.2,28.4c0,0,15.4-3,25.6,5.1c10.3,8.1,13.2,14.5,13.2,14.5l-17.3,13.7c0,0-8.4-3.9-10.9-15
	C178.3,35.6,180,30.5,170.2,28.4z"/>
<path class="st1" d="M228.7,111.7c-6.6-9.4-17.5-13.5-26.3-14.2c-14.9-1.2-21.9,4.1-21.9,4.1s24.3,1,31.4,10.2
	c13.1,17.1,32.1,18.5,35.2,14.8c-3.5,0.2-7.4-1.6-11.5-5.5C232.9,118.6,230.8,114.6,228.7,111.7L228.7,111.7z M187.6,144.9
	c0,0-27-9.3-21.9-18.7c5.1-9.4,1-14.5,1-14.5s-15.1,11.3-11.2,23.2c2.4,7.3,6.3,12.7,28.1,22.9c10.4,19.4,2.2,54.3,2.7,54.4
	c0.8,0.3,14.6-6.8,13.7-39.5C199.7,162.7,198.9,149,187.6,144.9L187.6,144.9z M223,45.1c-11.3,5.8-26.8,13.8-26.8,13.8l6.1,3.1
	c-0.6,0.9-0.9,1.5-0.9,1.5l6.3,2.8c0,0,15.3,11.1,24.7,18.2c-3.1-9.6-12.3-24.7-12.3-24.7S217.4,52.8,223,45.1L223,45.1z
	 M260.6,279.5c-34.8,0-46.6-17.7-46.6-17.7l5.4,13.2c2.1,5.7,24,23.6,41.1,23.6"/>
<path class="st1" d="M217.8,249.9c0,0,3.2,19.6,16,19.6c10.9,0,14.1-16.5,14.1-19.9L217.8,249.9L217.8,249.9z M196.5,220.4
	c1.1-3.1,5.1-15.8,6.4-27.3c1.5-13.8,1-34,1-34s-3.4,13.2-6.4,15.4c-3,2.1-8.6,16.7-8.6,16.7s-3,21.6-4.4,28.9
	C188.4,220.8,191.7,218.5,196.5,220.4L196.5,220.4z M165.5,134.7c0,0,7.3-2.6,9.4-18.4c2.1-15.8-2.6-29.5-2.6-29.5
	s0.4,21.8-2.1,26.1c-2.6,4.3-4.7,5.6-7.7,11.1C159.5,129.6,163.8,133,165.5,134.7z"/>
<path class="st2" d="M174.2,32.1l-1.5-0.9C168.3,31.3,174.2,32.1,174.2,32.1L174.2,32.1z"/>
<path class="st0" d="M228.9,40.4c0,0-6.8-1.1-10.3-6.3c-3.4-5.1-13.1-15.4-28.5-15.5c-15.4-0.1-30.7,4.1-30.7,4.1l13.3,8.4
	c1.4,0,3.9,0,8,0.1c16.7,0.6,19.3,17.1,19.3,17.1l59-8.1"/>
<path class="st3" d="M234.6,131.8c0,0-8,8-20.2,5.4c-12.3-2.6-19.7-8-20.2-17.4c-0.6-9.4,2.6-13.1,2.6-13.1s13.7,4.3,20.2,10
	C223.5,122.4,228.3,131.5,234.6,131.8L234.6,131.8z"/>
<path class="st4" d="M224.9,129c0,0-6.9,3.2-14.7,0.6c-10.1-3.4-10.8-13.9-10.8-13.9s-6.2,18.2,11.2,21.7c14,2.8,22.2-5.3,22.2-5.3
	L224.9,129L224.9,129z"/>
<path class="st5" d="M229.8,36.5c-0.7-15.6,12.1-28.1,16.5-28.6c0.2,2.6-0.2,13,4.2,16.2c1.3-8.4,5.7-17.7,22.9-23.8
	c-3.7,9.8-0.5,18,1,21.8c11.8-10.7,19.7-8.9,19.7-8.9s-8.2,14.1-5,23.4C265.6,34.7,230,39,229.8,36.5L229.8,36.5z M179.7,60.3
	c-5.6-4.7-1.4-9-1.9-14.3c-0.2-2.8-0.5-5.5-1.4-7c-5.2-8.2-17.4-10.7-17.6-10.7l-5.7-1.1l3.8-4.5c0.5-0.6,16.1-15.5,40.3-7.7
	c16.9,5.5,29.4,24,29.9,24.7l-8.5,4c-0.1-0.2-10-17.6-24.5-22.2c-11.7-3.8-22.5-0.2-27.2,2.2c4.9,2,11.4,5.5,15.2,11.7
	c1.8,2.9,2.1,6.5,2.4,10.1c0.4,4.7,0.8,9.1,4.2,11.9L179.7,60.3L179.7,60.3z M164.6,128.7c0,0,7.1-8.8,9.2-26
	c0.8-6.8-0.6-20.1-3-25.2c0.4,12.6-2.8,25.2-2.8,25.2S165.9,126.1,164.6,128.7L164.6,128.7z"/>
<path class="st5" d="M202.1,51.4c0,0-2.3-10-8.6-15c-8.9-7.1-19.8-3.3-19.9-3.3l-1.6-4.9c0.5-0.2,13-4.1,24.4,4
	c11.5,8.1,12.9,15.4,13,16.3L202.1,51.4L202.1,51.4z M187,122.4c0,0-3.7-5.3-3.1-11.2c0.3-2.9,1.7-5.9,4.1-6.9
	c4.5-2,6.4,3.1,6.4,3.1S188.1,108.9,187,122.4L187,122.4z"/>
<path class="st5" d="M227.9,130.5c0.2,0.3,0.2,0.5,0.2,0.5s-11.6,8.7-23.6-0.1c-6.4-4.7-5.8-16.5-3.8-21.5c5.1,1.2,9.4,3.2,13,5.7
	c-4.6-4.1-8.5-7.1-8.5-7.1l-5.2-1.5L190,103c-0.1,0.8-3.8,18,6.8,29.7c4.7,5.2,26.7,16.8,37.2-3.1L227.9,130.5L227.9,130.5z"/>
<path class="st5" d="M226.8,131.8c6.6,10,23.1,4.3,22.8-6.3c0,0-11,6.1-20.8-5.1c-5.7-6.5-24-24.6-48.7-18.6
	C197.2,105.5,219.8,121.2,226.8,131.8L226.8,131.8z"/>
<path class="st5" d="M177.8,159.9c1.6,0.9,7.1,6.7,7.1,15.3c0,4.3-0.4,26-2.6,39.2c3.2,2.1,5.5,2.5,8.7,4.7
	c1.6-15.3,2.8-37.6,2.2-46.6c-0.6-10.2-6.1-17.1-11.2-20c-1.6-0.9-3.3-1.8-4.9-2.7c-8.7-4.7-17.7-9.6-17.7-17.9
	c0-6.5,2.5-8.5,5.2-10.7l0.3-0.2c1.8-1.4,3.8-3.1,5-5.7c3.3-7.3,3.8-25.9,0-30.6c-1.9-2.4-6.9-10.3-5.5-15.6c0.6-2,1.8-3.5,3.9-4.6
	c2.2-1.1,5.2-1.7,8.8-1.7c7.2,0,15.2,2.2,19.3,3.5c14.7,4.7,32.4,18.1,37.5,22.1l0.3,0.2l3.3,2.3l-2-3.4c-0.1-0.2-13-21.4-36.1-29.2
	c-4.5-1.5-13.3-4-21.9-4c-5.1,0-9.5,0.9-13,2.7c-4.2,2.2-7.1,5.6-8.3,10c-2.9,10.7,6.6,22.6,6.9,22.9c1.1,2,1.6,16.3-1,22
	c-0.3,0.8-1.3,1.6-2.5,2.6c-0.4,0.3-0.8,0.6-1.3,1c-3.6,2.7-9,6.8-9,16.3c0,12.9,13.1,20,23.7,25.6
	C174.7,158.1,176.3,159,177.8,159.9L177.8,159.9z"/>
<path class="st5" d="M179.7,60.3c-5.6-4.7-1.4-9-1.9-14.3c-0.2-2.8-0.5-5.5-1.4-7c-5.2-8.2-17.4-10.7-17.6-10.7l-5.7-1.1l3.8-4.5
	c0.5-0.6,16.1-15.5,40.3-7.7c16.9,5.5,29.4,24,29.9,24.7l-8.5,4c-0.1-0.2-10-17.6-24.5-22.2c-11.7-3.8-22.5-0.2-27.2,2.2
	c4.9,2,11.4,5.5,15.2,11.7c1.8,2.9,2.1,6.5,2.4,10.1c0.4,4.7,0.8,9.1,4.2,11.9L179.7,60.3L179.7,60.3z"/>
<path class="st5" d="M179.5,61.3l-0.4-0.3c-4.2-3.5-3.4-6.9-2.7-10.2c0.3-1.5,0.7-3.1,0.5-4.7c-0.2-2.7-0.4-5.3-1.3-6.6
	c-4.9-7.8-16.9-10.3-17-10.3l-7.2-1.4l4.8-5.6c0.1-0.1,10.1-10.2,27.1-10.2c4.6,0,9.4,0.8,14.1,2.3c17.7,5.7,30.3,24.9,30.4,25.1
	l0.5,0.8l-10,4.7l-0.4-0.6c-1.1-1.8-10.6-17.5-24.1-21.9c-3.3-1.1-6.8-1.6-10.4-1.6c-6.4,0-11.7,1.8-14.5,2.9
	c4.7,2.1,10.3,5.6,13.9,11.3c1.9,3.1,2.3,6.8,2.6,10.4c0.4,4.5,0.7,8.7,3.9,11.4l1.2,1L179.5,61.3L179.5,61.3z"/>
<path class="st5" d="M202.1,51.4c0,0-2.3-10-8.6-15c-8.9-7.1-19.8-3.3-19.9-3.3l-1.6-4.9c0.5-0.2,13-4.1,24.4,4
	c11.5,8.1,12.9,15.4,13,16.3L202.1,51.4L202.1,51.4z"/>
<path class="st5" d="M201.5,52.6l-0.2-1c0-0.1-2.3-9.7-8.3-14.5c-3.4-2.7-7.6-4.1-12.3-4.1c-3.7,0-6.4,0.9-6.7,1l-0.8,0.3l-2.1-6.5
	l0.8-0.3c0.4-0.1,3.7-1.1,8.3-1.1c6.2,0,12,1.8,16.8,5.2c11.8,8.3,13.3,16,13.4,16.8l0.1,0.7L201.5,52.6L201.5,52.6z M180.7,31.3
	c5.1,0,9.7,1.6,13.4,4.5c5.4,4.3,7.9,11.8,8.6,14.5l5.8-2.3c-0.5-2.1-2.8-8.2-12.5-15c-4.6-3.3-10-4.9-15.9-4.9
	c-3.2,0-5.7,0.5-7,0.8l1,3.2C175.4,31.8,177.7,31.3,180.7,31.3z M233.3,264.8c-2.5,0-5.1-0.9-6.9-2.5c-1.4-1.2-6-5.4-8-10.6
	c-0.8-1.9-0.6-3.5,0.5-4.6c0.8-0.8,2.3-1.7,5.5-1.7l2.3,0c2.7,0,7.3,0,11.2,0h3.8c2.4,0,4.2,0.5,5.2,1.6c1.3,1.3,0.9,3,0.5,3.9
	c-0.6,1.6-3.2,6.6-7.6,11.3C238.2,263.9,235.9,264.8,233.3,264.8L233.3,264.8z M235.9,132.4l-9.1-0.6c0,0,2.3,4.1,3.8,9.4
	c1.7,6-1.6,14.8-1.6,14.8S241.3,142.2,235.9,132.4L235.9,132.4z M224.6,288.9c-32.4-2.5-43.9-33.2-43.9-39.5l8.5,0h-4.2h4.2
	c0,2.8,8.7,29,36,31.1L224.6,288.9L224.6,288.9z"/>
<path class="st3" d="M215.4,234c-0.5-2.9-0.6-5.7,0.1-8.4c-2.5-1.9-6.9-2.5-10.2-3.6c-2.7-1.7-16.6,1.8-26.7-10.4
	c-12.6-15.3-10-24.4-10-24.4c-3.2,3.6-6.4,2.2-11.3,19s2.3,28.5,15.9,40.2c6.4,5.5,15.4,7.8,23.2,8.7c-2.6-2.6,4.5-2.9,9.3-4.7
	c-0.4-3.9,0.3-7.7,3.2-10.8c1.8-1.9,4-3,6.4-3.8c0.1-0.3,0.2-0.6,0.4-0.9C215.6,234.5,215.5,234.2,215.4,234L215.4,234z"/>
<path class="st4" d="M205.6,250.2c-0.3-0.8-0.5-1.7-0.7-2.5c-0.2-0.9-1.3-3.5,0-0.6c-0.4-0.8-0.6-1.6-0.8-2.3
	c-21.9,0-41-15.1-37.3-46.7c-2.9-3.8-6.9,7.7-6.9,7.7s-11,31.9,17.4,44.2c9.4,4.1,17.8,7.1,19.8,5.9c4.1,0.8,7.8-2,9.2-3.9
	C206.1,251.4,205.9,250.8,205.6,250.2L205.6,250.2z"/>
<path class="st5" d="M215.1,229.4c0-2.7,0.6-5.3,1.9-7.8c0.1-0.2,0.2-0.3,0.3-0.5c-8.4-0.1-18.1-0.9-26.4-4.2
	c-9.1-3.6-20.5-16.1-22.4-30.7c0,0-17.1,13.2-12.1,41.5c4.7,26.6,26.9,35.2,52.3,36.7c0-0.2-2.8-6.1-1.9-9.7
	c-14.4,1-30.5-4.5-38.3-17.3c-7.1-11.7-5.1-31.7-2.2-34.6C173.3,225.2,199,229.8,215.1,229.4L215.1,229.4z"/>
<path class="st5" d="M217.7,213.3c-4.6,13.4-13.9,24.2-13.9,24.2s12.8-0.6,13.5-2.9c0.5-1.7,11.6-27.5,15.8-57.8
	C229.2,183.3,218.1,212.1,217.7,213.3L217.7,213.3z"/>
<path class="st1" d="M290.3,182.4c0,0,14.5,22.2,25.2,38c1.6,2.4-10.7,2.6-10.7,2.6L290.3,182.4L290.3,182.4z M283.4,136.3
	c0,0,4.4,10.9,6.8,16.7c2.6,6.3,12.5,9.4,12.5,9.4s-5.1-5.4-5.1-19.1c0-5.7-7.4-8-7.4-8L283.4,136.3L283.4,136.3z"/>
<path class="st1" d="M287.8,142.5c0,0,9,10.7,25.6,4.7c16.7-6,18.4-27.4,18.4-33.3c0-6-31.6,6-35.9,8.5
	C291.7,125,283.6,135.2,287.8,142.5L287.8,142.5z M350.8,28.4c0,0-15.4-3-25.6,5.1C314.9,41.6,311.9,48,311.9,48l17.3,13.7
	c0,0,8.4-3.9,10.9-15C342.6,35.6,340.9,30.5,350.8,28.4L350.8,28.4z"/>
<path class="st1" d="M292.3,111.7c6.6-9.4,17.5-13.5,26.3-14.2c14.9-1.2,21.9,4.1,21.9,4.1s-24.3,1-31.4,10.2
	C296.1,129,277,130.3,274,126.6c3.5,0.2,7.4-1.6,11.5-5.5C288.1,118.6,290.2,114.6,292.3,111.7L292.3,111.7z M333.4,144.9
	c0,0,27-9.3,21.9-18.7c-5.1-9.4-1-14.5-1-14.5s15.1,11.3,11.2,23.2c-2.4,7.3-6.3,12.7-28.1,22.9c-10.4,19.4-2.2,54.3-2.7,54.4
	c-0.8,0.3-14.6-6.8-13.7-39.5C321.3,162.7,322.1,149,333.4,144.9L333.4,144.9z M298,45.1c11.3,5.8,26.8,13.8,26.8,13.8l-6.1,3.1
	c0.6,0.9,0.9,1.5,0.9,1.5l-6.3,2.8c0,0-15.3,11.1-24.7,18.2c3.1-9.6,12.3-24.7,12.3-24.7S303.6,52.8,298,45.1L298,45.1z
	 M260.4,279.5c34.8,0,46.6-17.7,46.6-17.7l-5.4,13.2c-2.1,5.7-24,23.6-41.1,23.6"/>
<path class="st1" d="M303.2,249.9c0,0-3.2,19.6-16,19.6c-10.9,0-14.1-16.5-14.1-19.9L303.2,249.9L303.2,249.9z M324.5,220.4
	c-1.1-3.1-5.1-15.8-6.4-27.3c-1.5-13.8-1-34-1-34s3.4,13.2,6.4,15.4c3,2.1,8.5,16.7,8.5,16.7s3,21.6,4.4,28.9
	C332.6,220.8,329.3,218.5,324.5,220.4L324.5,220.4z M355.5,134.7c0,0-7.3-2.6-9.4-18.4c-2.1-15.8,2.6-29.5,2.6-29.5
	s-0.4,21.8,2.1,26.1c2.6,4.3,4.7,5.6,7.7,11.1C361.4,129.6,357.2,133,355.5,134.7L355.5,134.7z"/>
<path class="st2" d="M346.8,32.1l1.5-0.9C352.7,31.3,346.8,32.1,346.8,32.1z"/>
<path class="st0" d="M292.1,40.4c0,0,6.8-1.1,10.3-6.3c3.4-5.1,13.1-15.4,28.5-15.5c15.4-0.1,30.7,4.1,30.7,4.1l-13.3,8.4
	c-1.4,0-3.9,0-8,0.1C323.6,31.8,321,48.4,321,48.4l-59-8.1"/>
<path class="st3" d="M286.4,131.8c0,0,8,8,20.2,5.4c12.3-2.6,19.7-8,20.2-17.4c0.6-9.4-2.6-13.1-2.6-13.1s-13.7,4.3-20.2,10
	C297.5,122.4,292.7,131.5,286.4,131.8L286.4,131.8z"/>
<path class="st4" d="M296.1,129c0,0,6.9,3.2,14.7,0.6c10.1-3.4,10.8-13.9,10.8-13.9s6.2,18.2-11.2,21.7c-14,2.8-22.2-5.3-22.2-5.3
	L296.1,129L296.1,129z"/>
<path class="st5" d="M341.3,60.3c5.6-4.7,1.4-9,1.9-14.3c0.2-2.8,0.5-5.5,1.4-7c5.2-8.2,17.4-10.7,17.6-10.7l5.7-1.1l-3.8-4.5
	c-0.5-0.6-16.1-15.5-40.3-7.7c-16.9,5.5-29.4,24-29.9,24.7l8.5,4c0.1-0.2,10-17.6,24.5-22.2c11.7-3.8,22.5-0.2,27.2,2.2
	c-4.9,2-11.4,5.5-15.2,11.7c-1.8,2.9-2.1,6.5-2.4,10.1c-0.4,4.7-0.8,9.1-4.2,11.9L341.3,60.3L341.3,60.3z M356.4,128.7
	c0,0-7.1-8.8-9.2-26c-0.8-6.8,0.6-20.1,3-25.2c-0.4,12.6,2.8,25.2,2.8,25.2S355.1,126.1,356.4,128.7z"/>
<path class="st5" d="M318.9,51.4c0,0,2.3-10,8.6-15c8.9-7.1,19.8-3.3,19.9-3.3l1.6-4.9c-0.5-0.2-13-4.1-24.4,4
	c-11.5,8.1-12.9,15.4-13,16.3L318.9,51.4L318.9,51.4z M334,122.4c0,0,3.7-5.3,3.1-11.2c-0.3-2.9-1.7-5.9-4.1-6.9
	c-4.5-2-6.4,3.1-6.4,3.1S332.8,108.9,334,122.4L334,122.4z"/>
<path class="st5" d="M293.1,130.5c-0.2,0.3-0.2,0.5-0.2,0.5s11.6,8.7,23.6-0.1c6.4-4.7,5.8-16.5,3.8-21.5c-5.1,1.2-9.4,3.2-13,5.7
	c4.6-4.1,8.5-7.1,8.5-7.1l5.2-1.5L331,103c0.1,0.8,3.8,18-6.8,29.7c-4.7,5.2-26.7,16.8-37.2-3.1L293.1,130.5L293.1,130.5z"/>
<path class="st5" d="M294.2,131.8c-6.6,10-23.1,4.3-22.8-6.3c0,0,11,6.1,20.8-5.1c5.7-6.5,24-24.6,48.7-18.6
	C323.8,105.5,301.1,121.2,294.2,131.8L294.2,131.8z"/>
<path class="st5" d="M343.2,159.9c-1.6,0.9-7.1,6.7-7.1,15.3c0,4.3,0.4,26,2.6,39.2c-3.2,2.1-5.5,2.5-8.7,4.7
	c-1.6-15.3-2.8-37.6-2.2-46.6c0.6-10.2,6.1-17.1,11.2-20c1.6-0.9,3.3-1.8,4.9-2.7c8.7-4.7,17.7-9.6,17.7-17.9
	c0-6.5-2.5-8.5-5.2-10.7l-0.3-0.2c-1.8-1.4-3.8-3.1-5-5.7c-3.3-7.3-3.8-25.9,0-30.6c1.9-2.4,6.9-10.3,5.5-15.6
	c-0.6-2-1.8-3.5-3.9-4.6c-2.2-1.1-5.2-1.7-8.8-1.7c-7.2,0-15.2,2.2-19.3,3.5c-14.7,4.7-32.4,18.1-37.5,22.1
	c-0.1,0.1-0.2,0.2-0.3,0.2l-3.3,2.3l2-3.4c0.1-0.2,13-21.4,36.1-29.2c4.5-1.5,13.3-4,21.9-4c5.1,0,9.5,0.9,13,2.7
	c4.2,2.2,7.1,5.6,8.3,10c2.9,10.7-6.6,22.6-6.9,22.9c-1.1,2-1.6,16.3,1,22c0.3,0.8,1.3,1.6,2.5,2.6c0.4,0.3,0.8,0.6,1.3,1
	c3.6,2.7,9,6.8,9,16.3c0,12.9-13.1,20-23.7,25.6C346.3,158.1,344.6,159,343.2,159.9L343.2,159.9z"/>
<path class="st5" d="M327.5,58.8c-2.1-3.5-7.4-10.4-19.7-16.4c-13.7-6.7-29.6-10.1-47.3-10.1v0h-0.1v0c-17.6,0-33.5,3.4-47.3,10.1
	c-12.3,6-17.6,12.8-19.7,16.4l-0.9,1.2l10.5,2.3l0.3-0.4l0.2-0.4c0.2-0.7,1.6-4.5,13.3-10.2c12.6-6.1,27.2-9.2,43.5-9.2
	c16.3,0,31,3.1,43.5,9.2c11.7,5.7,13.2,9.5,13.3,10.2l0.2,0.4l0.3,0.4l10.5-2.3L327.5,58.8L327.5,58.8z"/>
<path class="st5" d="M341.3,60.3c5.6-4.7,1.4-9,1.9-14.3c0.2-2.8,0.5-5.5,1.4-7c5.2-8.2,17.4-10.7,17.6-10.7l5.7-1.1l-3.8-4.5
	c-0.5-0.6-16.1-15.5-40.3-7.7c-16.9,5.5-29.4,24-29.9,24.7l8.5,4c0.1-0.2,10-17.6,24.5-22.2c11.7-3.8,22.5-0.2,27.2,2.2
	c-4.9,2-11.4,5.5-15.2,11.7c-1.8,2.9-2.1,6.5-2.4,10.1c-0.4,4.7-0.8,9.1-4.2,11.9L341.3,60.3L341.3,60.3z"/>
<path class="st5" d="M330.4,57.7l1.2-1c3.2-2.6,3.5-6.9,3.9-11.4c0.3-3.6,0.6-7.4,2.6-10.4c3.6-5.6,9.2-9.2,13.9-11.3
	c-2.8-1.2-8-2.9-14.5-2.9c-3.6,0-7,0.5-10.3,1.6c-13.5,4.3-23,20-24.1,21.9l-0.4,0.6l-10-4.7l0.5-0.8c0.1-0.2,12.7-19.4,30.4-25.1
	c4.7-1.5,9.5-2.3,14.1-2.3c17,0,27,10.1,27.1,10.2l4.8,5.6l-7.2,1.4c-0.1,0-12.1,2.5-17,10.3c-0.8,1.3-1,3.9-1.3,6.6
	c-0.1,1.6,0.2,3.2,0.5,4.7c0.7,3.3,1.5,6.7-2.7,10.2l-0.4,0.3L330.4,57.7L330.4,57.7z"/>
<path class="st5" d="M318.9,51.4c0,0,2.3-10,8.6-15c8.9-7.1,19.8-3.3,19.9-3.3l1.6-4.9c-0.5-0.2-13-4.1-24.4,4
	c-11.5,8.1-12.9,15.4-13,16.3L318.9,51.4L318.9,51.4z"/>
<path class="st5" d="M310.5,49l0.1-0.7c0.1-0.8,1.6-8.5,13.4-16.8c4.9-3.4,10.7-5.2,16.8-5.2c4.7,0,8,1,8.3,1.1l0.8,0.3l-2.1,6.5
	l-0.8-0.3c-0.3-0.1-3.1-1-6.7-1c-4.7,0-8.9,1.4-12.3,4.1c-6,4.8-8.3,14.4-8.3,14.5l-0.2,1L310.5,49L310.5,49z M346.8,32.1l1.1-3.2
	c-1.2-0.3-3.8-0.8-7-0.8c-5.9,0-11.2,1.7-15.9,4.9c-9.7,6.8-12,13-12.5,15l5.8,2.3c0.8-2.7,3.3-10.2,8.6-14.5
	c3.7-2.9,8.3-4.5,13.4-4.5C343.2,31.3,345.6,31.8,346.8,32.1L346.8,32.1z M281.2,262.2c-4.4-4.7-7-9.8-7.6-11.3
	c-0.4-0.9-0.8-2.6,0.5-3.9c1-1,2.8-1.6,5.2-1.6h3.8c3.9,0,8.5,0,11.2,0l2.3,0c3.2,0,4.8,0.9,5.5,1.7c1.1,1.1,1.3,2.7,0.5,4.6
	c-2,5.2-6.7,9.5-8,10.6c-1.8,1.5-4.4,2.5-6.9,2.5C285.1,264.8,282.8,263.9,281.2,262.2L281.2,262.2z M285,132.4l9.1-0.6
	c0,0-2.3,4.1-3.8,9.4c-1.7,6,1.6,14.8,1.6,14.8S279.7,142.2,285,132.4L285,132.4z"/>
<path class="st1" d="M260.5,99.8c-5.8,0-13.4-0.2-19.1-4.2c0,0,7.4,13,19.1,13l0-1.7l0,1.7c11.6,0,19.1-13,19.1-13
	C273.9,99.7,266.3,99.8,260.5,99.8L260.5,99.8z"/>
<path class="st5" d="M276.5,99.8c-5.8,3.5-11,4.8-16,4.9c-5-0.1-10.2-1.3-16-4.9c0,0,8.5,10.4,16,10.4v0h0c0,0,0,0,0,0
	C268,110.1,276.5,99.8,276.5,99.8L276.5,99.8z M296.4,288.9l-0.7-8.4c27.4-2.1,36-28.3,36-31.1h8.5
	C340.3,255.7,328.9,286.4,296.4,288.9L296.4,288.9z"/>
<path class="st3" d="M305.5,234c0.5-2.9,0.6-5.7-0.1-8.4c2.5-1.9,6.9-2.5,10.2-3.6c2.7-1.7,16.6,1.8,26.7-10.4
	c12.6-15.3,10-24.4,10-24.4c3.2,3.6,6.4,2.2,11.3,19c4.9,16.8-2.3,28.5-15.9,40.2c-6.4,5.5-15.4,7.8-23.2,8.7
	c2.6-2.6-4.4-2.9-9.3-4.7c0.4-3.9-0.3-7.7-3.2-10.8c-1.8-1.9-4-3-6.4-3.8c-0.1-0.3-0.2-0.6-0.4-0.9
	C305.4,234.5,305.5,234.2,305.5,234L305.5,234z"/>
<path class="st4" d="M315.3,250.2c0.3-0.8,0.5-1.7,0.7-2.5c0.2-0.9,1.3-3.5,0-0.6c0.4-0.8,0.6-1.6,0.8-2.3c21.9,0,41-15.1,37.3-46.7
	c2.9-3.8,6.9,7.7,6.9,7.7s11,31.9-17.4,44.2c-9.4,4.1-17.8,7.1-19.8,5.9c-4.1,0.8-7.8-2-9.2-3.9
	C314.9,251.4,315.1,250.8,315.3,250.2L315.3,250.2z"/>
<path class="st5" d="M305.9,229.4c0-2.7-0.6-5.3-1.9-7.8c-0.1-0.2-0.2-0.3-0.3-0.5c8.4-0.1,18.1-0.9,26.4-4.2
	c9.1-3.6,20.5-16.1,22.4-30.7c0,0,17.1,13.2,12.1,41.5c-4.7,26.6-26.9,35.2-52.3,36.7c0-0.2,2.9-6.1,1.9-9.7
	c14.4,1,30.5-4.5,38.3-17.3c7.1-11.7,5.1-31.7,2.2-34.6C347.7,225.2,322,229.8,305.9,229.4L305.9,229.4z"/>
<path class="st5" d="M316.2,236c-3-3.3-8.6-7.2-21.4-7.2l-34.2,0h-0.1c-9.8,0-34.2,0-34.2,0c-12.8,0-18.4,3.9-21.4,7.2
	c-4.4,4.8-5.1,11.4-2.1,19.7c8.1,22.1,19.5,44.5,57.7,44.5v0h0c0,0,0,0,0,0c38.2,0,49.6-22.4,57.7-44.5
	C321.3,247.4,320.6,240.8,316.2,236L316.2,236z M310.2,254.2c-3.9,11.1-14.3,37.9-49.7,37.9c-35.5,0-45.9-26.8-49.7-37.9
	c-2.1-6.1-2-10.7,0.5-13.5c1.7-1.9,5.6-4.2,14.4-4.2l9.3,0c6.8,0,15.4,0,25.5,0c10.1,0,18.7,0,25.5,0l9.2,0c8.9,0,12.7,2.3,14.4,4.2
	C312.2,243.5,312.4,248,310.2,254.2L310.2,254.2z"/>
<path class="st5" d="M303.3,213.3c4.6,13.4,13.9,24.2,13.9,24.2s-12.8-0.6-13.5-2.9c-0.5-1.7-11.6-27.5-15.8-57.8
	C291.8,183.3,302.9,212.1,303.3,213.3L303.3,213.3z M158.5,320.6c-1.7-1-3.6-1.9-5.7-2.7c-2.1-0.7-4.3-1.3-6.7-1.8
	c-2.4-0.4-5-0.6-7.8-0.6c-5.3,0-10.2,0.8-14.5,2.4c-4.3,1.6-8.1,3.8-11.2,6.7c-3.1,2.9-5.5,6.3-7.1,10.2c-1.7,3.9-2.5,8.3-2.5,12.9
	c0,4.6,0.9,8.9,2.6,12.8c1.7,3.9,4.1,7.4,7.2,10.2c3,2.8,6.7,5.1,10.8,6.7c4.1,1.6,8.7,2.4,13.6,2.4c2.7,0,5.2-0.1,7.5-0.4
	c2.3-0.3,4.6-0.7,6.7-1.2c2.1-0.5,4.1-1.2,5.9-2.1c1.8-0.9,3.6-1.9,5.3-3c0.3-0.2,0.5-0.6,0.5-0.9v-25.7c0-0.6-0.5-1.1-1.1-1.1h-23
	c-0.6,0-1.1,0.5-1.1,1.1v10.3c0,0.6,0.5,1.1,1.1,1.1h8.3v7.3c-1.1,0.4-2.4,0.7-3.6,1c-1.5,0.3-3.3,0.5-5.3,0.5c-2.6,0-5-0.4-7.1-1.3
	c-2.1-0.8-4-2.1-5.5-3.7c-1.6-1.6-2.8-3.6-3.7-6c-0.9-2.4-1.3-5.1-1.3-8.2c0-2.8,0.4-5.3,1.2-7.6c0.8-2.2,2-4.2,3.4-5.7
	c1.5-1.6,3.3-2.8,5.4-3.7c2.1-0.9,4.5-1.3,7.2-1.3c1.5,0,2.8,0.1,4,0.2c1.2,0.1,2.3,0.3,3.3,0.6c1,0.3,2.1,0.7,3.1,1.1
	c1,0.5,5.9,3.2,7,3.9c0.8,0.4,1.2,0.5,1.8-0.3l6.5-9.5c0.3-0.5,0.3-1.1-0.2-1.5C161.9,322.7,160.3,321.5,158.5,320.6L158.5,320.6z
	 M215.7,356.3c-0.7-1.1-1.6-2-2.5-2.8c-0.3-0.2-0.6-0.5-0.9-0.7c1.3-0.6,2.6-1.3,3.7-2.1c1.7-1.2,3.2-2.7,4.3-4.2
	c1.2-1.6,2.1-3.3,2.7-5.2c0.6-1.9,0.9-3.9,0.9-5.9c0-2.7-0.5-5.3-1.5-7.6c-1-2.4-2.7-4.4-4.9-6.2c-2.2-1.7-5.1-3-8.5-4
	c-3.4-0.9-7.5-1.4-12.3-1.4h-21c-0.6,0-1.1,0.5-1.1,1.1v60.8c0,0.6,0.5,1.1,1.1,1.1h15c0.6,0,1.1-0.5,1.1-1.1v-21.4h2.7
	c1.2,0,1.8,0.2,2.2,0.4c0.4,0.2,0.9,0.7,1.2,1.2l10.8,17.7c1.3,2.1,3.5,3.2,6.4,3.2h13.6c0.6,0,1.1-0.5,1.1-1.1
	c0-0.3-0.1-0.6-0.4-0.8L215.7,356.3L215.7,356.3z M206.3,339.7c-0.3,1-0.9,1.8-1.7,2.6c-0.8,0.7-1.8,1.3-3.1,1.8
	c-1.3,0.4-2.9,0.7-4.9,0.7h-4.9V329h4.9c3.6,0,6.2,0.7,7.9,2c1.6,1.3,2.4,3,2.4,5.4C206.8,337.5,206.7,338.7,206.3,339.7
	L206.3,339.7z M291.1,316.1h-15c-0.6,0-1.1,0.5-1.1,1.1v36c0,2-0.3,3.8-0.8,5.4c-0.5,1.5-1.3,2.8-2.3,3.9c-1,1-2.2,1.8-3.6,2.4
	c-2.9,1.1-7.1,1.1-10,0c-1.4-0.6-2.6-1.4-3.6-2.4c-1-1.1-1.7-2.4-2.3-3.9c-0.5-1.5-0.8-3.4-0.8-5.4v-36c0-0.6-0.5-1.1-1.1-1.1h-15
	c-0.6,0-1.1,0.5-1.1,1.1v36c0,3.9,0.7,7.5,2,10.7c1.3,3.3,3.3,6.1,5.8,8.5c2.5,2.3,5.6,4.2,9.1,5.5c3.5,1.3,7.6,1.9,12,1.9
	c4.4,0,8.4-0.7,12-1.9c3.6-1.3,6.6-3.2,9.1-5.5c2.5-2.4,4.5-5.2,5.8-8.4c1.3-3.2,2-6.8,2-10.7v-36
	C292.2,316.7,291.7,316.1,291.1,316.1L291.1,316.1z M361.8,316.1h-13.2c-0.6,0-1.1,0.5-1.1,1.1v32.2c0,1,0,2,0.1,3.1L319,318.7
	c-0.5-0.5-0.9-0.9-1.2-1.2c-0.4-0.3-0.9-0.6-1.3-0.8s-0.9-0.3-1.5-0.4c-0.5-0.1-1.1-0.1-1.8-0.1h-7.9c-0.6,0-1.1,0.5-1.1,1.1v60.8
	c0,0.6,0.5,1.1,1.1,1.1h13.2c0.6,0,1.1-0.5,1.1-1.1v-32.6c0-0.8,0-1.7-0.1-2.6l28.2,33.6c0.9,1,1.8,1.8,2.7,2.2
	c0.9,0.4,2.1,0.6,3.4,0.6h7.8c0.6,0,1.1-0.5,1.1-1.1v-60.8C363,316.7,362.4,316.1,361.8,316.1L361.8,316.1z M423.9,316.1h-51.4
	c-0.6,0-1.1,0.5-1.1,1.1v11.2c0,0.6,0.5,1.1,1.1,1.1h17.1v48.5c0,0.6,0.5,1.1,1.1,1.1h15c0.6,0,1.1-0.5,1.1-1.1v-48.5h17.1
	c0.6,0,1.1-0.5,1.1-1.1v-11.2C425,316.7,424.5,316.1,423.9,316.1z"/>
</svg>
