<?xml version="1.0" encoding="utf-8"?>
<!-- Generator: Adobe Illustrator 22.0.0, SVG Export Plug-In . SVG Version: 6.00 Build 0)  -->
<svg version="1.1" id="Layer_1" xmlns="http://www.w3.org/2000/svg" xmlns:xlink="http://www.w3.org/1999/xlink" x="0px" y="0px"
	 viewBox="0 0 273.8 169" style="enable-background:new 0 0 273.8 169;" xml:space="preserve">
<style type="text/css">
	.st0{fill:#ED7B22;}
	.st1{fill:#F9A958;}
</style>
<g id="XMLID_2_">
	<g id="XMLID_128_">
		<path id="XMLID_142_" class="st0" d="M49.1,43.6c2.7,0,4.9-2.2,4.9-4.8c0-2.7-2.2-4.8-4.9-4.8c-2.7,0-5,2.2-5,4.8
			C44.1,41.5,46.3,43.6,49.1,43.6z"/>
		<path id="XMLID_141_" class="st0" d="M153.3,32.5c2.7,0,5-2.2,5-4.8c0-2.7-2.2-4.8-5-4.8c-2.7,0-4.9,2.2-4.9,4.8
			S150.6,32.5,153.3,32.5z"/>
		<path id="XMLID_136_" class="st0" d="M268.2,68.2c0,0-7.2,2.7-12.9,5.5C254.8,63,253,52.5,251,42c0-0.3-0.5-2.5-0.5-2.5h-9.2
			c0,0,1,2.6,1.1,2.8c1.8,5.8,3.1,11.6,3.7,17.6c0.3,2.9,0.3,5.9-0.1,8.8c-0.7,5.1-3.2,10.1-7.9,12.7c-4.2,2.4-9,2.3-13.4,0.4
			c-5.9-2.5-7.3-9.2-7.5-15.1c-0.2-7.6,2.4-14.3,5-21.4c0.2-0.5,2.5-5.9,2.5-5.9h-8.3c-0.1,0-2.9,8.2-3,8.9
			c-0.9,3.4-2.2,6.6-2.8,10.1c-0.8,4.2-1.2,9.1-0.6,13.8c0-0.1-0.8,1.2-1.2,1.7c-3.7,5.7-10.8,10.6-17.9,11.4
			c-2.2,0.2-4.5,0.1-6.7-0.3c-4.7-0.8-8.5-3.6-10.8-7.6c-0.6-1-1.1-2.2-1.4-3.3c-0.4-1.2-0.6-2.6-0.7-3.9c-0.2-7.2,2.5-15,8.4-19.6
			c4.6-3.6,11-4.6,15.5-0.3c1.2,1.1,2.3,2.8,3,4.3l6.3-2.9c-1.9-6.5-8.1-11.3-14.8-12.2c-6.6-0.9-12.8,2.7-17.2,7.3
			c-1.3,1.4-2.6,3-3.6,4.6c-3.6,5.6-5.3,12-6,18.5C162.5,73.3,163,77,161,80c-1.9,2.9-5.1,5.6-8.7,3.7c-6.8-3.6-5.8-16.2-4.5-22.3
			c1.6-7.7,5-14.9,8.5-22h-8c0,0-0.1,0.3-0.3,0.6c-7.8,17.4-19.8,19.1-19.8,19.1c1.9-7.1,3.9-15.7-2.1-21.5
			c-3.6-3.5-11.2-3.6-14.8-0.1c-5.1,4.9-5.9,13.8-2.9,19.9c0.8,1.6,2,3.3,3.4,4.5c1.8,1.7,4.2,3.3,6.5,4.3c0,0-0.3,0.7-1,2
			c-2.6,5.2-5.7,9.3-8.2,11.6c-0.5,0.5-1.1,1-1.6,1.4C101.2,86,95,85.9,89.8,80c-2.8-3.7-3-8.7-3-11.7c0.1-1,0.2-1.9,0.3-2.8
			c1-7.5,3.4-15,6.2-22c0.1-0.3,1.8-4.1,1.8-4.1H86c0.1,0-2.1,6.6-2.1,6.8c-0.9,3.2-4,13.4-6.5,19.4c-2.2,4.4-5.6,6.9-8.3,8.3
			c-0.6,0.2-1,0.3-1,0.3c-0.5-2.1-1-4.2-1.5-6.3c-0.5-2-1.1-4-1.8-6c-0.6-1.9-1.3-3.7-2-5.5c-0.6-1.5-1.2-3-1.8-4.5
			c-0.4-1.1-0.9-2.1-1.3-3.1l-0.1-0.3c-3,1.2-5.9,2.4-8.9,3.7c1.5,2.7,4.9,9.8,8,22.8c0.3,1,0.5,2.1,0.7,3.3
			c-3.6,1.5-7.3,2.8-10.9,4.1c-14.3,5.2-28.7,9.8-37.7,22.7c-8.7,12.4-6.8,31.8,6.6,40.5c6.1,4,13.7,5.2,20.9,4.2
			c8.8-1.2,16.7-6.9,21.7-13.9c7.2-10.1,10.4-23.5,11-35.6c0.3-5.7-0.1-11.4-1-17c0-0.1,0.7-0.5,1.1-0.6c0.7-0.4,4.8-2.9,7.4-6.6
			c0,0,0.3-0.5,0.4-0.5c0.4,4.1,1.6,7.2,3.9,10.7c1.4,2.2,3.5,4,5.7,5.4c5,3.2,10.8,3.1,16.4,1.5c7.5-2.2,12.7-8.5,16.5-14.9
			c0.4-0.7,0.8-1.5,1.2-2.3c1.5-2.9,2.8-5.7,3.8-8.2c0.2,0,1.2-0.3,2.2-0.5c3.4-0.8,8.8-2.7,13-6.8c0,0-0.9,2.6-1.5,5.9
			c-0.4,2.6-0.4,5-0.3,7.6c0.4,6.4,3.5,14.2,9.1,17.9c6,4,12.6,0.4,16.1-5c0.2-0.3,2.2-3.6,2.1-3.7c3.4,5,8.4,8.7,14.4,9.8
			c6.5,1.2,11.9,0.6,18-2.1c7.7-3.9,12.2-9.7,12.8-10.6c1.3,2.9,3.5,5.9,6.2,7.9c1.1,0.8,2.3,1.3,3.5,1.7c0.7,0.2,3.4,1.1,4,0.8
			c-2.1,1.3-4.1,2.6-6.1,4c-8.3,5.7-15.1,12.8-17.6,22.7c-3.3,13.1,8.2,25.3,22.1,23.5c2.9-0.4,5.1-1.3,7.7-2.4
			c10.1-4.5,16.5-14.1,19.7-24.1c3.1-9.7,3.7-20,3.9-30.1c0-0.4,0-0.8,0-1.1c3.7-1.9,15.1-8.2,15.1-8.2L268.2,68.2z M60.2,100.7
			c-0.4,4.6-0.9,10.9-2.3,15.3c-2.1,7.1-6,13.4-11.5,18.5c-5.9,5.4-14.9,6.7-22.2,2.2c-7.1-4.4-10.2-13.5-7.1-21.2
			c3.4-8.4,12.4-14,20.2-17.9c7.4-3.7,15.5-6,23.1-9.3c0,0.3,0,0.5,0,0.8C60.6,92.9,60.6,96.8,60.2,100.7z M122.9,56.3
			c-0.1,0.3-1,3-1.2,3c0,0-7-1.6-8.1-8.1c-0.4-2.1-0.2-4.7,1-6.4c1.3-1.8,4-2.7,6.1-1.8c2.2,1,3.1,3.6,3.3,6
			C124.2,51.5,123.5,54.4,122.9,56.3z M248.1,89.2c-0.2,5-1,10-2.1,14.8c-1.6,7.1-3,14-7.7,19.7c-9.3,11.3-29.3,11.2-26-6.8
			c0.9-5.2,4.3-9.1,8.1-12.6c8.1-7.4,17.8-12.4,27.6-17.4C248,88.1,248.1,89,248.1,89.2z"/>
	</g>
	<g id="XMLID_100_">
		<g id="XMLID_110_">
			<path id="XMLID_118_" class="st1" d="M49.1,39.6c2.7,0,4.9-2.2,4.9-4.8c0-2.7-2.2-4.8-4.9-4.8c-2.7,0-5,2.2-5,4.8
				C44.1,37.5,46.3,39.6,49.1,39.6z"/>
			<path id="XMLID_117_" class="st1" d="M153.3,28.5c2.7,0,5-2.2,5-4.8c0-2.7-2.2-4.8-5-4.8c-2.7,0-4.9,2.2-4.9,4.8
				S150.6,28.5,153.3,28.5z"/>
			<g id="XMLID_111_">
				<path id="XMLID_112_" class="st1" d="M268.2,64.2c0,0-7.2,2.7-12.9,5.5C254.8,59,253,48.5,251,38c0-0.3-0.5-2.5-0.5-2.5h-9.2
					c0,0,1,2.6,1.1,2.8c1.8,5.8,3.1,11.6,3.7,17.6c0.3,2.9,0.3,5.9-0.1,8.8c-0.7,5.1-3.2,10.1-7.9,12.7c-4.2,2.4-9,2.3-13.4,0.4
					c-5.9-2.5-7.3-9.2-7.5-15.1c-0.2-7.6,2.4-14.3,5-21.4c0.2-0.5,2.5-5.9,2.5-5.9h-8.3c-0.1,0-2.9,8.2-3,8.9
					c-0.9,3.4-2.2,6.6-2.8,10.1c-0.8,4.2-1.2,9.1-0.6,13.8c0-0.1-0.8,1.2-1.2,1.7c-3.7,5.7-10.8,10.6-17.9,11.4
					c-2.2,0.2-4.5,0.1-6.7-0.3c-4.7-0.8-8.5-3.6-10.8-7.6c-0.6-1-1.1-2.2-1.4-3.3c-0.4-1.2-0.6-2.6-0.7-3.9
					c-0.2-7.2,2.5-15,8.4-19.6c4.6-3.6,11-4.6,15.5-0.3c1.2,1.1,2.3,2.8,3,4.3l6.3-2.9c-1.9-6.5-8.1-11.3-14.8-12.2
					c-6.6-0.9-12.8,2.7-17.2,7.3c-1.3,1.4-2.6,3-3.6,4.6c-3.6,5.6-5.3,12-6,18.5C162.5,69.3,163,73,161,76c-1.9,2.9-5.1,5.6-8.7,3.7
					c-6.8-3.6-5.8-16.2-4.5-22.3c1.6-7.7,5-14.9,8.5-22h-8c0,0-0.1,0.3-0.3,0.6c-7.8,17.4-19.8,19.1-19.8,19.1
					c1.9-7.1,3.9-15.7-2.1-21.5c-3.6-3.5-11.2-3.6-14.8-0.1c-5.1,4.9-5.9,13.8-2.9,19.9c0.8,1.6,2,3.3,3.4,4.5
					c1.8,1.7,4.2,3.3,6.5,4.3c0,0-0.3,0.7-1,2c-2.6,5.2-5.7,9.3-8.2,11.6c-0.5,0.5-1.1,1-1.6,1.4C101.2,82,95,81.9,89.8,76
					c-2.8-3.7-3-8.7-3-11.7c0.1-1,0.2-1.9,0.3-2.8c1-7.5,3.4-15,6.2-22c0.1-0.3,1.8-4.1,1.8-4.1H86c0.1,0-2.1,6.6-2.1,6.8
					c-0.9,3.2-4,13.4-6.5,19.4c-2.2,4.4-5.6,6.9-8.3,8.3c-0.6,0.2-1,0.3-1,0.3c-0.5-2.1-1-4.2-1.5-6.3c-0.5-2-1.1-4-1.8-6
					c-0.6-1.9-1.3-3.7-2-5.5c-0.6-1.5-1.2-3-1.8-4.5c-0.4-1.1-0.9-2.1-1.3-3.1l-0.1-0.3c-3,1.2-5.9,2.4-8.9,3.7
					c1.5,2.7,4.9,9.8,8,22.8c0.3,1,0.5,2.1,0.7,3.3c-3.6,1.5-7.3,2.8-10.9,4.1c-14.3,5.2-28.7,9.8-37.7,22.7
					c-8.7,12.4-6.8,31.8,6.6,40.5c6.1,4,13.7,5.2,20.9,4.2c8.8-1.2,16.7-6.9,21.7-13.9c7.2-10.1,10.4-23.5,11-35.6
					c0.3-5.7-0.1-11.4-1-17c0-0.1,0.7-0.5,1.1-0.6c0.7-0.4,4.8-2.9,7.4-6.6c0,0,0.3-0.5,0.4-0.5c0.4,4.1,1.6,7.2,3.9,10.7
					c1.4,2.2,3.5,4,5.7,5.4c5,3.2,10.8,3.1,16.4,1.5c7.5-2.2,12.7-8.5,16.5-14.9c0.4-0.7,0.8-1.5,1.2-2.3c1.5-2.9,2.8-5.7,3.8-8.2
					c0.2,0,1.2-0.3,2.2-0.5c3.4-0.8,8.8-2.7,13-6.8c0,0-0.9,2.6-1.5,5.9c-0.4,2.6-0.4,5-0.3,7.6c0.4,6.4,3.5,14.2,9.1,17.9
					c6,4,12.6,0.4,16.1-5c0.2-0.3,2.2-3.6,2.1-3.7c3.4,5,8.4,8.7,14.4,9.8c6.5,1.2,11.9,0.6,18-2.1c7.7-3.9,12.2-9.7,12.8-10.6
					c1.3,2.9,3.5,5.9,6.2,7.9c1.1,0.8,2.3,1.3,3.5,1.7c0.7,0.2,3.4,1.1,4,0.8c-2.1,1.3-4.1,2.6-6.1,4c-8.3,5.7-15.1,12.8-17.6,22.7
					c-3.3,13.1,8.2,25.3,22.1,23.5c2.9-0.4,5.1-1.3,7.7-2.4c10.1-4.5,16.5-14.1,19.7-24.1c3.1-9.7,3.7-20,3.9-30.1
					c0-0.4,0-0.8,0-1.1c3.7-1.9,15.1-8.2,15.1-8.2L268.2,64.2z M60.2,96.7c-0.4,4.6-0.9,10.9-2.3,15.3c-2.1,7.1-6,13.4-11.5,18.5
					c-5.9,5.4-14.9,6.7-22.2,2.2c-7.1-4.4-10.2-13.5-7.1-21.2c3.4-8.4,12.4-14,20.2-17.9c7.4-3.7,15.5-6,23.1-9.3c0,0.3,0,0.5,0,0.8
					C60.6,88.9,60.6,92.8,60.2,96.7z M122.9,52.3c-0.1,0.3-1,3-1.2,3c0,0-7-1.6-8.1-8.1c-0.4-2.1-0.2-4.7,1-6.4
					c1.3-1.8,4-2.7,6.1-1.8c2.2,1,3.1,3.6,3.3,6C124.2,47.5,123.5,50.4,122.9,52.3z M248.1,85.2c-0.2,5-1,10-2.1,14.8
					c-1.6,7.1-3,14-7.7,19.7c-9.3,11.3-29.3,11.2-26-6.8c0.9-5.2,4.3-9.1,8.1-12.6c8.1-7.4,17.8-12.4,27.6-17.4
					C248,84.1,248.1,85,248.1,85.2z"/>
			</g>
		</g>
	</g>
</g>
</svg>
