<?xml version="1.0" encoding="utf-8"?>
<!-- Generator: Adobe Illustrator 21.1.0, SVG Export Plug-In . SVG Version: 6.00 Build 0)  -->
<svg version="1.1" id="Layer_2" xmlns="http://www.w3.org/2000/svg" xmlns:xlink="http://www.w3.org/1999/xlink" x="0px" y="0px"
	 viewBox="0 0 512 384" style="enable-background:new 0 0 512 384;" xml:space="preserve">
<style type="text/css">
	.st0{fill:#EF533F;}
</style>
<path class="st0" d="M445.8,124.6c-2.5-2.8-37.6-46.7-43.7-54.1c-6.2-7.4-9.2-6.1-13-5.5s-48.1,8-53.3,8.9c-5.1,0.9-8.4,2.9-5.2,7.4
	c2.8,3.9,31.9,45.2,38.4,54.3l-115.8,27.7l-92.1-154c-3.7-5.4-4.4-7.3-12.8-7C140,2.7,76.1,8,71.5,8.4c-4.6,0.4-9.5,2.4-5,13.2
	c4.6,10.7,77.1,167.1,79.2,171.7c2,4.6,7.3,11.9,19.6,9c12.6-3,56.4-14.5,80.3-20.7c12.6,22.9,38.4,69.3,43.2,75.9
	c6.4,8.9,10.7,7.4,20.5,4.4c7.6-2.3,119.3-42.5,124.3-44.5c5-2.1,8.1-3.6,4.7-8.6c-2.5-3.7-32-43.2-47.4-63.8
	c10.6-2.8,48.2-12.8,52.2-13.9C447.7,129.8,448.3,127.5,445.8,124.6z M235.3,167.7c-1.4,0.3-66.2,15.8-69.7,16.6
	c-3.5,0.8-3.5,0.4-3.9-0.8c-0.4-1.2-77.1-159.4-78.2-161.4s-1-3.5,0-3.5s61.3-5.4,63.4-5.5c2.1-0.1,1.9,0.3,2.7,1.7
	c0,0,85,146.7,86.5,149.3C237.6,166.6,236.7,167.4,235.3,167.7z M418.2,202c1,1.6,2.1,2.7-1.2,3.8c-3.3,1.2-109.8,37.1-111.8,38
	c-2.1,0.9-3.7,1.2-6.4-2.7s-37.3-63.8-37.3-63.8L374.4,148c2.8-0.9,3.7-1.5,5.5,1.3C381.6,152.1,417.1,200.3,418.2,202z
	 M425.4,121.8c-2.5,0.6-44,10.8-44,10.8l-33.9-46.5c-1-1.3-1.7-2.7,0.6-3c2.4-0.3,40.9-7.3,42.6-7.7c1.7-0.4,3.2-0.9,5.4,2.1
	c2.1,2.9,31.5,40,32.6,41.5C429.8,120.4,427.9,121.2,425.4,121.8z"/>
<g>
	<path class="st0" d="M68.7,378c-0.9-0.9-1.3-2-1.3-3.3V305c0-0.6,0.2-1.2,0.6-1.6c0.4-0.4,1-0.6,1.6-0.6h8.6c0.6,0,1.2,0.2,1.6,0.6
		c0.4,0.4,0.6,1,0.6,1.6v61.8h24.8c0.6,0,1.2,0.2,1.6,0.6c0.4,0.4,0.6,1,0.6,1.6v8c0,0.6-0.2,1.2-0.6,1.6c-0.4,0.4-1,0.6-1.6,0.6
		H71.9C70.7,379.3,69.6,378.9,68.7,378z"/>
	<path class="st0" d="M121.4,375.6c-3.7-3.4-5.6-7.8-5.6-13.2c0-4.9,1.7-9,5.1-12.3c3.4-3.2,8.2-5.4,14.5-6.4
		c1.6-0.1,3.1-0.4,4.5-0.6c5-0.6,8-1,9.1-1.3c2.6-0.4,4-1.9,4-4.5c0-2.6-1.1-4.8-3.3-6.4c-2.2-1.6-4.9-2.4-8.2-2.4
		c-5.8,0-10,2.1-12.6,6.3c-0.6,0.9-1.3,1.4-2,1.4c-0.6,0-1-0.1-1.4-0.4l-6-4.1c-0.6-0.4-1-1-1-1.8c0-0.2,0.1-0.5,0.2-1
		c2.1-3.9,5.1-7,9.2-9.2s8.7-3.3,13.8-3.3c4.7,0,8.9,0.9,12.4,2.7c3.6,1.8,6.3,4.3,8.3,7.6c2,3.3,2.9,7.1,2.9,11.3v38.9
		c0,0.6-0.2,1.2-0.6,1.6c-0.4,0.4-1,0.6-1.6,0.6h-7.3c-0.6,0-1.2-0.2-1.6-0.6s-0.6-0.9-0.6-1.7v-4.2c-4.9,5.2-10.8,7.8-17.6,7.8
		C130,380.7,125.1,379,121.4,375.6z M144.9,367.1c2.5-1.4,4.5-3.3,6-5.6c1.5-2.3,2.3-4.8,2.3-7.3V352l-8,1.2
		c-4.4,0.5-7.2,0.9-8.5,1.2c-5.9,1.1-8.8,3.6-8.8,7.6c0,2.2,0.8,4,2.5,5.3c1.6,1.3,3.8,2,6.5,2C139.7,369.3,142.4,368.6,144.9,367.1
		z"/>
	<path class="st0" d="M178.9,378.7c-0.4-0.4-0.6-1-0.6-1.6v-7.9c0-0.6,0.2-1.2,0.6-1.6c0.4-0.4,1-0.6,1.6-0.6h8.1v-36.8h-9.2
		c-0.6,0-1.2-0.2-1.6-0.6c-0.4-0.4-0.6-1-0.6-1.6v-7.6c0-0.6,0.2-1.2,0.6-1.6c0.4-0.4,1-0.6,1.6-0.6H196c1.3,0,2.4,0.4,3.3,1.3
		c0.9,0.9,1.3,2,1.3,3.3v3.9l5.8-4.6c2.1-1.7,4-2.9,5.6-3.6c1.6-0.7,3.4-1,5.6-1h3.3c0.6,0,1.2,0.2,1.6,0.6c0.4,0.4,0.6,1,0.6,1.6
		v8.2c0,0.6-0.2,1.2-0.6,1.6c-0.4,0.4-1,0.6-1.6,0.6h-2.8c-1.9,0-3.5,0.3-4.8,1c-1.4,0.6-3.4,2.1-6.2,4.3l-5.9,4.7v27h10.6
		c0.6,0,1.2,0.2,1.6,0.6c0.4,0.4,0.6,1,0.6,1.6v7.9c0,0.6-0.2,1.2-0.6,1.6c-0.4,0.4-1,0.6-1.6,0.6h-31.3
		C179.9,379.3,179.3,379.1,178.9,378.7z"/>
	<path class="st0" d="M235.4,375.6c-3.7-3.4-5.6-7.8-5.6-13.2c0-4.9,1.7-9,5.1-12.3c3.4-3.2,8.2-5.4,14.5-6.4
		c1.6-0.1,3.1-0.4,4.5-0.6c5-0.6,8-1,9.1-1.3c2.6-0.4,4-1.9,4-4.5c0-2.6-1.1-4.8-3.3-6.4c-2.2-1.6-4.9-2.4-8.2-2.4
		c-5.8,0-10,2.1-12.6,6.3c-0.6,0.9-1.3,1.4-2,1.4c-0.6,0-1-0.1-1.4-0.4l-6-4.1c-0.6-0.4-1-1-1-1.8c0-0.2,0.1-0.5,0.2-1
		c2.1-3.9,5.1-7,9.2-9.2s8.7-3.3,13.8-3.3c4.7,0,8.9,0.9,12.4,2.7c3.6,1.8,6.3,4.3,8.3,7.6c2,3.3,2.9,7.1,2.9,11.3v38.9
		c0,0.6-0.2,1.2-0.6,1.6c-0.4,0.4-1,0.6-1.6,0.6h-7.3c-0.6,0-1.2-0.2-1.6-0.6c-0.4-0.4-0.6-0.9-0.6-1.7v-4.2
		c-4.9,5.2-10.8,7.8-17.6,7.8C244,380.7,239.1,379,235.4,375.6z M258.9,367.1c2.5-1.4,4.5-3.3,6-5.6c1.5-2.3,2.3-4.8,2.3-7.3V352
		l-8,1.2c-4.4,0.5-7.2,0.9-8.5,1.2c-5.9,1.1-8.8,3.6-8.8,7.6c0,2.2,0.8,4,2.5,5.3c1.6,1.3,3.8,2,6.5,2
		C253.8,369.3,256.4,368.6,258.9,367.1z"/>
	<path class="st0" d="M312.2,380c-1.6,0-2.7-0.7-3.3-2.2l-19.8-56.3c-0.1-0.4-0.2-0.7-0.2-1c0-0.7,0.2-1.3,0.7-1.8
		c0.5-0.5,1.1-0.7,1.9-0.7h7.5c0.7,0,1.4,0.2,2,0.6c0.6,0.4,1,1,1.2,1.7l14.5,43l14.5-43c0.2-0.7,0.6-1.3,1.2-1.7
		c0.6-0.4,1.3-0.6,2-0.6h7c0.8,0,1.4,0.2,1.9,0.7c0.5,0.5,0.7,1.1,0.7,1.8c0,0.2-0.1,0.5-0.2,1L324,377.7c-0.3,0.7-0.7,1.3-1.3,1.7
		c-0.6,0.4-1.3,0.6-2,0.6L312.2,380z"/>
	<path class="st0" d="M364.6,375.9c-3.9-2.3-7-5.4-9.3-9.3c-2.3-3.9-3.4-8.2-3.4-12.8v-11.6c0-4.6,1.1-8.9,3.4-12.8
		c2.3-3.9,5.4-7,9.3-9.3c3.9-2.3,8.2-3.4,12.8-3.4c4.6,0,8.9,1.1,12.8,3.4c3.9,2.3,7,5.4,9.3,9.3c2.3,3.9,3.4,8.2,3.4,12.8v7.2
		c0,1.3-0.4,2.4-1.3,3.3c-0.9,0.9-2,1.3-3.3,1.3h-33.5v0.5c0,3.5,1.2,6.5,3.7,8.9c2.5,2.5,5.4,3.7,8.9,3.7h17c0.6,0,1.2,0.2,1.6,0.6
		c0.4,0.4,0.6,1,0.6,1.6v7.7c0,0.6-0.2,1.2-0.6,1.6c-0.4,0.4-1,0.6-1.6,0.6h-17C372.8,379.3,368.5,378.2,364.6,375.9z M390.1,342.4
		v-1c0-3.5-1.2-6.5-3.7-8.9c-2.5-2.5-5.4-3.7-8.9-3.7c-3.5,0-6.5,1.2-8.9,3.7c-2.5,2.5-3.7,5.4-3.7,8.9v1H390.1z"/>
	<path class="st0" d="M421.2,378c-0.9-0.9-1.3-2-1.3-3.3v-65h-9.7c-0.6,0-1.2-0.2-1.6-0.6c-0.4-0.4-0.6-1-0.6-1.6v-7.9
		c0-0.6,0.2-1.2,0.6-1.6c0.4-0.4,1-0.6,1.6-0.6h18c1.3,0,2.4,0.4,3.3,1.3c0.9,0.9,1.3,2,1.3,3.3v65h9.7c0.6,0,1.2,0.2,1.6,0.6
		c0.4,0.4,0.6,1,0.6,1.6v7.9c0,0.6-0.2,1.2-0.6,1.6c-0.4,0.4-1,0.6-1.6,0.6h-18C423.1,379.3,422,378.9,421.2,378z"/>
</g>
</svg>
