<?xml version="1.0" encoding="utf-8"?>
<!-- Generator: Adobe Illustrator 22.0.0, SVG Export Plug-In . SVG Version: 6.00 Build 0)  -->
<svg version="1.1" id="Layer_2_copy" xmlns="http://www.w3.org/2000/svg" xmlns:xlink="http://www.w3.org/1999/xlink" x="0px"
	 y="0px" viewBox="0 0 200 66.6" style="enable-background:new 0 0 200 66.6;" xml:space="preserve">
<path d="M10.6,16l-1.3-3.4H4.1L2.9,16H0.8L5.8,3.4H8L12.8,16H10.6z M4.8,10.9h3.9l-2-5.4L4.8,10.9z M21.8,7c0.7,0.5,1.1,1.3,1.1,2.4
	V14c0,0.9-0.4,1.5-1.1,1.8c-0.8,0.3-1.8,0.5-3.2,0.5c-1.1,0-2.1-0.2-2.8-0.7c-0.7-0.5-1.1-1.3-1.1-2.4c0-1,0.3-1.8,0.9-2.3
	c0.6-0.5,1.5-0.8,2.6-0.8c1.1,0,2.1,0.2,2.9,0.7V9.9c0-1.3-0.8-1.9-2.3-1.9c-0.6,0-1.1,0.1-1.7,0.3c-0.6,0.2-1,0.4-1.4,0.7V7.1
	c0.4-0.2,0.9-0.4,1.5-0.6c0.7-0.2,1.4-0.2,2.1-0.2C20.2,6.3,21.1,6.5,21.8,7z M20.4,14.6c0.3-0.1,0.5-0.3,0.5-0.7v-1.8
	c-0.6-0.3-1.4-0.4-2.1-0.4c-0.7,0-1.3,0.1-1.6,0.4s-0.6,0.6-0.6,1.1c0,0.5,0.2,0.9,0.6,1.2c0.4,0.3,0.9,0.4,1.5,0.4
	C19.6,14.8,20.1,14.7,20.4,14.6z M35.6,10.4c0.4,0.5,0.6,1.2,0.6,2c0,1.2-0.4,2.2-1.3,2.8c-0.8,0.6-2,0.9-3.4,0.9h-5.1V3.4h4.7
	c1.5,0,2.6,0.3,3.3,0.9c0.7,0.6,1.1,1.4,1.1,2.5c0,0.6-0.1,1.1-0.4,1.5c-0.3,0.4-0.6,0.7-1.1,1C34.6,9.5,35.1,9.8,35.6,10.4z
	 M28.5,8.6h2.9c0.6,0,1.1-0.1,1.5-0.4C33.2,8,33.4,7.6,33.4,7c0-0.7-0.2-1.1-0.6-1.4c-0.4-0.3-0.9-0.4-1.6-0.4h-2.7V8.6z M33.4,13.8
	c0.5-0.3,0.7-0.8,0.7-1.6c0-0.8-0.2-1.3-0.7-1.5c-0.5-0.3-1.1-0.4-1.9-0.4h-2.9v4h3C32.3,14.3,32.9,14.1,33.4,13.8z M46.8,7.6
	c0.7,0.8,1.1,2.1,1.1,3.6c0,1.9-0.4,3.2-1.3,4c-0.9,0.8-2,1.2-3.4,1.2c-2.7,0-4.1-0.7-4.1-2.2V2.7h2v4.2c0.4-0.2,0.8-0.3,1.2-0.4
	c0.5-0.1,0.9-0.2,1.2-0.2C45,6.3,46,6.7,46.8,7.6z M45.2,13.7c0.4-0.6,0.6-1.4,0.6-2.5c0-1.1-0.2-1.9-0.7-2.4
	C44.8,8.3,44.1,8,43.2,8c-0.4,0-0.7,0-1.1,0.1c-0.4,0.1-0.7,0.2-1,0.4v5.1c0,0.6,0.7,0.9,2,0.9C44.1,14.6,44.8,14.3,45.2,13.7z
	 M50.3,9.7c0-4.4,2-6.5,6-6.5c1.3,0,2.6,0.3,3.9,0.9V6c-1.2-0.7-2.4-1.1-3.7-1.1c-1.4,0-2.5,0.4-3.1,1.1c-0.7,0.8-1,2-1,3.7
	c0,1.7,0.3,2.9,1,3.6s1.7,1.1,3.2,1.1c1.2,0,2.4-0.3,3.6-1v1.9c-0.6,0.3-1.2,0.5-1.9,0.7s-1.4,0.2-2,0.2C52.3,16.2,50.3,14,50.3,9.7
	z M64,15.1c-0.9-0.8-1.3-2-1.3-3.7c0-1.8,0.4-3.1,1.3-3.8c0.9-0.8,2-1.2,3.4-1.2c1,0,2,0.2,2.9,0.6v1.8c-1-0.4-1.8-0.6-2.6-0.6
	c-1,0-1.7,0.3-2.2,0.8c-0.5,0.5-0.7,1.3-0.7,2.4c0,1.1,0.2,2,0.7,2.5c0.5,0.5,1.3,0.8,2.3,0.8c0.9,0,1.7-0.2,2.6-0.6v1.8
	c-0.9,0.4-1.9,0.6-2.9,0.6C66,16.2,64.9,15.8,64,15.1z M73.2,3.4h4.4c4.1,0,6.1,2.1,6.1,6.3c0,4.2-2,6.3-6.1,6.3h-4.4V3.4z
	 M77.5,14.3c1.4,0,2.5-0.4,3.1-1.1c0.7-0.7,1-1.9,1-3.5c0-1.6-0.3-2.7-1-3.5c-0.7-0.7-1.7-1.1-3.1-1.1h-2.1v9.2H77.5z M95.1,2.5V14
	c0,0.5-0.2,0.9-0.6,1.3c-0.4,0.3-0.9,0.6-1.6,0.8s-1.3,0.2-2,0.2c-1.4,0-2.5-0.4-3.3-1.1c-0.9-0.8-1.3-2.1-1.3-4
	c0-1.5,0.4-2.7,1.1-3.6c0.7-0.9,1.9-1.3,3.3-1.3c0.3,0,0.7,0,1.2,0.1c0.4,0.1,0.9,0.2,1.2,0.4V2.5H95.1z M93.1,8.5
	c-0.3-0.2-0.6-0.3-1-0.4C91.7,8,91.3,8,91,8c-1.8,0-2.7,1.1-2.7,3.2c0,1.1,0.2,1.9,0.6,2.5c0.4,0.6,1.1,0.9,2.1,0.9
	c0.6,0,1.1-0.1,1.5-0.2c0.4-0.1,0.6-0.3,0.6-0.6V8.5z M98.5,16V3.4h8.3v1.8h-6.2v3.7h5.4v1.8h-5.4v3.7h6.2V16H98.5z M117.3,7.7
	c0.7,1,1,2.3,1,4h-6.7c0.1,0.9,0.3,1.6,0.8,2.1c0.5,0.5,1.2,0.7,2.1,0.7c0.6,0,1.1-0.1,1.7-0.2c0.5-0.1,1-0.3,1.4-0.6v1.9
	c-1,0.4-2.1,0.6-3.4,0.6c-1.4,0-2.6-0.4-3.4-1.3c-0.8-0.9-1.2-2.1-1.2-3.7c0-1.6,0.4-2.9,1.2-3.8c0.8-0.9,1.9-1.3,3.3-1.3
	C115.5,6.3,116.6,6.7,117.3,7.7z M112.4,8.4c-0.4,0.4-0.6,1-0.7,1.8h4.6c-0.1-0.8-0.3-1.4-0.7-1.8c-0.4-0.4-0.9-0.6-1.6-0.6
	C113.3,7.9,112.8,8.1,112.4,8.4z M121.3,16V3.4h8.1v1.8h-6v3.8h5.3v1.8h-5.3V16H121.3z M133,8.1h-1.5V6.5h1.5V6.1
	c0-1.5,0.3-2.4,1-2.9c0.7-0.5,1.4-0.7,2.3-0.7c0.4,0,0.7,0,1.1,0.1v1.8c-0.2-0.1-0.3-0.1-0.4-0.2s-0.3-0.1-0.4-0.1
	c-0.3,0-0.6,0-0.8,0.1c-0.2,0.1-0.4,0.2-0.6,0.5S135,5.4,135,5.9v0.6h2.4v1.7H135V16h-2V8.1z M141.2,14.6c-1-1.1-1.5-2.7-1.5-4.9
	c0-2.2,0.5-3.8,1.5-4.9s2.5-1.6,4.4-1.6c1.5,0,2.9,0.3,4.2,0.9v2c-0.8-0.4-1.5-0.6-2.1-0.8c-0.6-0.2-1.2-0.3-1.9-0.3
	c-1.4,0-2.4,0.4-3.1,1.1c-0.7,0.8-1,2-1,3.6c0,1.7,0.3,2.9,1,3.6c0.7,0.8,1.7,1.1,3.1,1.1c0.9,0,1.7-0.1,2.4-0.4v-3h-2.7V9.3h4.8
	v5.8c-1.5,0.8-3,1.2-4.7,1.2C143.7,16.3,142.2,15.7,141.2,14.6z M161,6.9c0.7,0.4,1.1,1,1.1,1.8v7.6c0,1.1-0.4,2-1.1,2.7
	c-0.7,0.7-1.8,1-3.4,1c-1.1,0-2.2-0.2-3.1-0.5v-1.8c1.1,0.4,2,0.6,2.9,0.6c1,0,1.7-0.2,2.1-0.5c0.4-0.4,0.6-0.8,0.6-1.4v-0.6
	c-0.4,0.2-0.8,0.4-1.2,0.5c-0.4,0.1-0.9,0.2-1.3,0.2c-1.4,0-2.5-0.4-3.2-1.3c-0.7-0.8-1.1-2-1.1-3.5c0-2,0.5-3.3,1.4-4.1
	c0.9-0.8,2.1-1.1,3.6-1.1C159.4,6.3,160.3,6.5,161,6.9z M156,13.8c0.4,0.6,1.1,0.9,1.9,0.9c0.8,0,1.5-0.2,2.2-0.6v-5
	c0-0.4-0.2-0.7-0.5-0.9c-0.3-0.2-0.8-0.2-1.4-0.2c-1.1,0-1.8,0.3-2.2,0.9s-0.6,1.5-0.6,2.6C155.3,12.5,155.5,13.2,156,13.8z
	 M165.4,16V3.4h2.1v5.5h5.9V3.4h2.1V16h-2.1v-5.4h-5.9V16H165.4z M187.4,10.1V16h-2v-5.7c0-0.8-0.2-1.4-0.6-1.8
	c-0.4-0.4-0.9-0.6-1.6-0.6c-0.8,0-1.5,0.2-2.2,0.6l0,7.4h-2V2.5h2v4.6c0.9-0.5,1.9-0.8,2.8-0.8C186.2,6.3,187.4,7.6,187.4,10.1z
	 M190.8,16V3.4h2.1V16H190.8z M196.4,5V3.2h2.1V5H196.4z M196.4,16V6.5h2l0,9.5H196.4z M1.3,38.3v-2c0.8,0.6,1.6,0.9,2.3,0.9
	c0.7,0,1.3-0.2,1.6-0.5c0.3-0.4,0.5-1,0.5-1.8v-8.7h2.1V35c0,1.5-0.4,2.5-1.1,3.1C6,38.7,5.1,39,4,39C3,39,2.1,38.8,1.3,38.3z
	 M10.6,40.8c0.7,0,1.1-0.1,1.4-0.4c0.3-0.3,0.4-0.7,0.4-1.3v-9.8h2l0,9.9c0,2.2-1.3,3.3-3.8,3.3V40.8z M12.3,27.7v-1.8h2.1v1.8H12.3
	z M26,38.8l-4.3-5.4l-1.2,1.3v4.1h-2.1V26.2h2.1v6.2l5.1-6.2h2.7l-5.1,5.7l5.6,7H26z M40.2,38.8h-2.6l-3.8-4.3v4.3h-2V25.7h2l0,7.2
	l3.5-3.6h2.5l-4.3,4.1L40.2,38.8z M43.4,38.8V26.2h2.1V37h6.1v1.8H43.4z M56.6,38.8h-2V25.7h2V38.8z M70.9,26.2h2.1v12.7H71v-9.7
	L66.8,35l-4-5.8v9.6h-2V26.2h2.2l4,5.9L70.9,26.2z M90.5,29.9c0.6,0.6,0.9,1.4,0.9,2.6v6.3h-2v-6c0-1.3-0.8-2-2.3-2
	c-0.7,0-1.3,0.2-1.8,0.5c0.1,0.3,0.1,0.7,0.1,1.2v6.3h-2v-6c0-1.3-0.8-2-2.3-2c-0.7,0-1.4,0.1-2,0.4v7.7h-2v-8.8
	c0.6-0.3,1.3-0.5,2.1-0.7c0.8-0.2,1.6-0.3,2.3-0.3c1.2,0,2.2,0.2,2.8,0.7c1-0.5,2.1-0.7,3.2-0.7C88.9,29.1,89.8,29.4,90.5,29.9z
	 M104.2,26.2h2v12.7h-1.9l-6.9-9.4v9.4h-2V26.2h2l6.7,9.3V26.2z M112.3,29.4c0.8-0.2,1.6-0.3,2.3-0.3c1.3,0,2.3,0.3,2.9,0.8
	c0.6,0.6,0.9,1.4,0.9,2.6v6.3h-2v-6c0-1.3-0.8-2-2.3-2c-0.7,0-1.4,0.1-2.1,0.4v7.7h-2v-8.8C110.8,29.8,111.5,29.5,112.3,29.4z
	 M123.7,37.4c-1-1.1-1.5-2.7-1.5-4.9c0-2.2,0.5-3.8,1.5-4.9c1-1.1,2.5-1.7,4.4-1.7c1.9,0,3.4,0.5,4.4,1.6c1,1.1,1.5,2.7,1.5,4.9
	c0,2.2-0.5,3.8-1.5,4.9c-1,1.1-2.5,1.7-4.4,1.7C126.1,39.1,124.7,38.5,123.7,37.4z M130.9,36.1c0.6-0.8,0.9-2,0.9-3.6
	c0-1.6-0.3-2.8-0.9-3.6c-0.6-0.7-1.6-1.1-2.8-1.1c-1.3,0-2.2,0.4-2.8,1.1c-0.6,0.7-0.9,2-0.9,3.6c0,1.7,0.3,2.9,0.9,3.6
	c0.6,0.7,1.6,1.1,2.8,1.1C129.3,37.2,130.3,36.9,130.9,36.1z M138.2,37.8c-0.8-0.9-1.1-2.1-1.1-3.8c0-3.3,1.5-5,4.6-5
	c1.5,0,2.7,0.4,3.5,1.3s1.2,2.1,1.2,3.7s-0.4,2.9-1.2,3.7c-0.8,0.9-1.9,1.3-3.4,1.3C140.1,39.1,138.9,38.7,138.2,37.8z M144.2,34.1
	c0-1.1-0.2-1.9-0.6-2.5c-0.4-0.6-1.1-0.8-2-0.8c-0.9,0-1.6,0.3-2,0.8c-0.4,0.6-0.6,1.4-0.6,2.5c0,1.1,0.2,1.9,0.6,2.5
	c0.4,0.6,1.1,0.9,2,0.9C143.3,37.4,144.2,36.3,144.2,34.1z M151.8,38.8h-2.1V26.2h5c1.5,0,2.6,0.3,3.4,1c0.8,0.7,1.2,1.7,1.2,3
	s-0.4,2.3-1.2,3c-0.8,0.7-1.9,1.1-3.4,1.1h-2.9V38.8z M154.5,32.5c1,0,1.7-0.2,2.1-0.6c0.4-0.4,0.6-1,0.6-1.6c0-0.7-0.2-1.3-0.6-1.7
	c-0.4-0.4-1.1-0.6-2.1-0.6h-2.7v4.6H154.5z M170.4,30.3c0.8,0.8,1.3,2.1,1.3,4c0,1.5-0.4,2.7-1.2,3.6c-0.8,0.9-1.9,1.3-3.2,1.3
	c-0.3,0-0.7,0-1.2-0.1c-0.4-0.1-0.8-0.2-1.2-0.4v4.1h-2V31.1c0-0.7,0.4-1.2,1.2-1.6c0.8-0.3,1.8-0.5,2.9-0.5
	C168.4,29.1,169.5,29.5,170.4,30.3z M168.9,36.6c0.5-0.6,0.7-1.3,0.7-2.4c0-1.1-0.2-1.9-0.6-2.5c-0.4-0.6-1.1-0.9-2.1-0.9
	c-0.6,0-1.1,0.1-1.5,0.2c-0.4,0.1-0.6,0.3-0.6,0.6v5.3c0.6,0.4,1.3,0.6,2,0.6C167.8,37.4,168.4,37.1,168.9,36.6z M185.3,39.2
	c0.2,0,0.4,0,0.6-0.1c0.2-0.1,0.4-0.2,0.6-0.3v1.5c-0.4,0.2-0.9,0.4-1.5,0.4c-0.6,0-1.1-0.1-1.5-0.4s-0.8-0.7-1.1-1.3
	c-0.5,0.1-1.1,0.2-1.7,0.2c-3.9,0-5.9-2.2-5.9-6.6s2-6.6,5.9-6.6c3.9,0,5.9,2.2,5.9,6.6c0,2.8-0.8,4.7-2.4,5.8
	C184.4,38.9,184.8,39.2,185.3,39.2z M177.8,28.8c-0.6,0.8-0.9,2-0.9,3.7c0,1.7,0.3,3,0.9,3.8v-0.9c0.3-0.3,0.6-0.5,1-0.7
	c0.4-0.2,0.9-0.3,1.4-0.3c0.7,0,1.3,0.2,1.8,0.6c0.5,0.4,1,0.9,1.3,1.6c0.4-0.4,0.6-0.9,0.8-1.6c0.2-0.7,0.3-1.5,0.3-2.4
	c0-1.7-0.3-2.9-0.9-3.7c-0.6-0.8-1.5-1.1-2.8-1.1C179.3,27.7,178.4,28,177.8,28.8z M180.6,37.5c0.4,0,0.7-0.1,1-0.1
	c-0.5-0.9-1.1-1.4-1.8-1.4c-0.6,0-1.2,0.2-1.7,0.7C178.7,37.2,179.5,37.5,180.6,37.5z M198.3,31.5v11.2h-2v-4.2
	c-0.4,0.2-0.7,0.3-1.2,0.4c-0.4,0.1-0.8,0.1-1.1,0.1c-1.4,0-2.5-0.4-3.3-1.3c-0.8-0.8-1.2-2-1.2-3.6c0-3.5,1.6-5.2,4.9-5.2
	C197.1,29.1,198.3,29.9,198.3,31.5z M192.3,36.6c0.5,0.6,1.1,0.8,2,0.8c0.7,0,1.4-0.2,2-0.6v-5.1c0-0.3-0.2-0.5-0.6-0.7
	s-0.8-0.2-1.3-0.2c-1.1,0-1.8,0.3-2.2,0.9c-0.4,0.6-0.6,1.4-0.6,2.5C191.6,35.2,191.9,36,192.3,36.6z M9.7,61.6l-3-4.8H4.1v4.8H2V49
	h5.6c1.3,0,2.3,0.3,3,1c0.7,0.6,1.1,1.6,1.1,2.9c0,0.9-0.3,1.7-0.8,2.4c-0.5,0.7-1.2,1.1-2,1.3l3.4,5.1H9.7z M4.1,55.1H7
	c0.8,0,1.5-0.2,1.9-0.6c0.4-0.4,0.6-0.9,0.6-1.7c0-0.7-0.2-1.3-0.5-1.6c-0.3-0.4-0.9-0.6-1.6-0.6H4.1V55.1z M14.1,53
	c0.4-0.2,1-0.4,1.8-0.7c0.8-0.3,1.7-0.4,2.5-0.4c0.5,0,0.9,0.1,1.3,0.2v1.6c-0.4-0.1-0.8-0.1-1.3-0.1c-0.8,0-1.6,0.1-2.4,0.2v7.8h-2
	V53z M23,61.6c-0.6-0.2-1.3-0.4-1.9-0.8v-2.1c0.5,0.4,1.1,0.7,1.8,1c0.7,0.2,1.5,0.4,2.3,0.4c0.8,0,1.4-0.2,1.7-0.5
	c0.4-0.3,0.6-0.8,0.6-1.3c0-0.4-0.1-0.7-0.3-1c-0.2-0.3-0.5-0.5-0.9-0.6c-0.3-0.2-0.8-0.4-1.4-0.6l-0.4-0.2
	c-0.7-0.2-1.3-0.5-1.7-0.7c-0.5-0.3-0.8-0.6-1.1-1.1c-0.3-0.5-0.5-1.1-0.5-1.8c0-0.6,0.2-1.2,0.5-1.7c0.3-0.5,0.8-1,1.4-1.3
	c0.6-0.3,1.5-0.5,2.4-0.5c0.7,0,1.3,0.1,1.8,0.2c0.5,0.1,1,0.4,1.7,0.7v2.1c-0.6-0.4-1.2-0.7-1.7-0.9c-0.5-0.2-1-0.3-1.7-0.3
	c-0.7,0-1.3,0.2-1.7,0.5c-0.4,0.3-0.6,0.7-0.6,1.2c0,0.4,0.1,0.8,0.3,1s0.5,0.5,0.8,0.6c0.3,0.2,0.9,0.3,1.5,0.6
	c0.8,0.3,1.4,0.5,1.9,0.8c0.5,0.3,0.9,0.6,1.3,1.1s0.5,1.1,0.5,1.8c0,0.7-0.2,1.3-0.5,1.9c-0.3,0.6-0.8,1-1.4,1.4
	c-0.7,0.3-1.5,0.5-2.4,0.5C24.4,61.9,23.6,61.8,23,61.6z M32.8,61.7c-0.5-0.1-1-0.3-1.5-0.6v-1.9c0.6,0.4,1.1,0.6,1.6,0.8
	c0.5,0.2,1,0.3,1.6,0.3c0.5,0,1-0.1,1.3-0.3c0.3-0.2,0.5-0.5,0.5-0.9c0-0.3-0.1-0.6-0.4-0.8c-0.3-0.2-0.6-0.3-1.2-0.5l-0.4-0.2
	c-0.9-0.2-1.6-0.5-2.1-0.9c-0.5-0.4-0.8-1-0.8-1.9c0-0.7,0.2-1.2,0.5-1.7c0.4-0.4,0.8-0.8,1.3-1c0.5-0.2,1.1-0.3,1.7-0.3
	c0.6,0,1.1,0.1,1.5,0.2c0.4,0.1,0.9,0.3,1.4,0.6v1.7c-0.7-0.3-1.2-0.6-1.5-0.7c-0.3-0.1-0.7-0.2-1.2-0.2c-0.5,0-0.9,0.1-1.3,0.3
	c-0.3,0.2-0.5,0.5-0.5,0.8c0,0.4,0.2,0.7,0.5,0.9c0.3,0.2,0.8,0.4,1.5,0.6c0.6,0.2,1.1,0.3,1.5,0.5c0.4,0.2,0.7,0.4,1,0.8
	c0.3,0.4,0.4,0.9,0.4,1.5c0,1-0.4,1.8-1.1,2.3c-0.7,0.5-1.6,0.8-2.7,0.8C33.8,61.9,33.2,61.8,32.8,61.7z M43.2,61.6V50.7h-4.1V49
	h10.3v1.8h-4.1v10.9H43.2z M52.2,61.2c-0.5-0.5-0.7-1.1-0.7-2v-5.4h-1.5v-1.7h1.5v-2.7h2.1v2.7h2.3v1.7h-2.3v5c0,0.5,0.1,0.8,0.2,1
	s0.5,0.3,0.9,0.3c0.2,0,0.4,0,0.6-0.1c0.2-0.1,0.4-0.1,0.6-0.2v1.8c-0.4,0.2-1,0.3-1.6,0.3C53.4,61.9,52.7,61.6,52.2,61.2z
	 M59.2,60.6c-0.9-0.9-1.4-2.2-1.4-3.9V49H60v7.7c0,1.2,0.3,2.1,0.8,2.7s1.3,0.9,2.3,0.9c2.1,0,3.1-1.2,3.1-3.5V49h2v7.7
	c0,1.7-0.4,3-1.3,3.9c-0.9,0.9-2.1,1.3-3.7,1.3C61.4,61.9,60.1,61.5,59.2,60.6z M71.9,60.9c-0.7-0.7-1.1-1.6-1.1-2.9v-6h2v5.7
	c0,0.8,0.2,1.4,0.5,1.8c0.4,0.4,0.9,0.6,1.7,0.6c0.8,0,1.3-0.2,1.7-0.6c0.4-0.4,0.5-1,0.5-1.8v-5.7h1.9v6c0,1.3-0.4,2.2-1.1,2.9
	c-0.7,0.7-1.7,1-3.1,1C73.6,61.9,72.6,61.6,71.9,60.9z M90.1,49l2.2,0l-4.9,12.7h-2.2L80.4,49h2.4l3.7,10.2L90.1,49z M100.2,52.1
	h2.1l-4,9.5h-2l-4-9.5h2.1l3,7.4L100.2,52.1z M118.5,49h2.3l-3.9,12.7h-2.1l-3-9.5l-3,9.5h-2.1L102.9,49h2.3l2.8,10l3-10h1.8l3,10
	L118.5,49z M133.6,52.1h2.1l-3.2,9.5h-1.9l-2.1-6.8l-2,6.8h-1.9l-3.2-9.5h2.1l2.1,7.2l2-7.2h1.7l2.1,7.2L133.6,52.1z M147.5,61.6
	h-2.6l-3.3-4.7l-3.1,4.7h-2.4l4.4-6.4l-4.4-6.3h2.6l3.2,4.6L145,49h2.4l-4.3,6.3L147.5,61.6z M157.4,52.1l-3.5,4.7l3.5,4.8h-2.4
	l-2.4-3.3l-2.4,3.3h-2.2l3.6-4.8l-3.5-4.8h2.4l2.4,3.3l2.4-3.3H157.4z M169.3,49l-4.6,7v5.7h-2.1v-5.7l-4.8-7h2.6l3.4,5.3l3.2-5.3
	H169.3z M179.4,52.1l-3.9,10.1c-0.8,2.1-1.9,3.1-3.3,3.1c-0.5,0-0.9-0.1-1.3-0.2v-1.7c0.3,0.1,0.6,0.2,1,0.2c0.5,0,0.9-0.2,1.2-0.5
	c0.3-0.3,0.5-0.8,0.7-1.5l-3.9-9.5h2.3l2.6,7.1l2.6-7.1H179.4z M190.2,49v1.6l-6.8,9.3h6.8v1.8h-9.4V60l6.9-9.3h-6.8V49H190.2z
	 M199.1,52.1v1.6l-4.8,6.2h4.8v1.7h-7.2V60l5-6.3H192v-1.6H199.1z"/>
</svg>
