<?xml version="1.0" encoding="utf-8"?>
<!-- Generator: Adobe Illustrator 21.1.0, SVG Export Plug-In . SVG Version: 6.00 Build 0)  -->
<svg version="1.1" id="Layer_2" xmlns="http://www.w3.org/2000/svg" xmlns:xlink="http://www.w3.org/1999/xlink" x="0px" y="0px"
	 viewBox="0 0 200 78" style="enable-background:new 0 0 200 78;" xml:space="preserve">
<path d="M4.6,22.7L3.7,25H0.4l5.4-12.6h3.3L14.5,25H11l-0.9-2.3H4.6z M7.4,15.6l-1.8,4.7h3.6L7.4,15.6z M24,18.7V25h-3v-1.1
	c-0.6,0.8-1.7,1.3-3,1.3c-2.1,0-3.3-1.3-3.3-3c0-1.8,1.3-2.9,3.7-2.9h2.6V19c0-1-0.6-1.5-1.9-1.5c-0.8,0-1.9,0.3-2.9,0.8l-0.9-2.1
	c1.5-0.7,2.9-1.1,4.5-1.1C22.4,15.2,24,16.5,24,18.7z M20.9,21.7v-0.9h-2c-0.9,0-1.4,0.3-1.4,1c0,0.7,0.5,1.2,1.4,1.2
	C19.9,23,20.8,22.5,20.9,21.7z M32,12.4c2.8,0,4.6,1.2,4.6,3.2c0,1.3-0.8,2.4-2.2,2.8c1.6,0.3,2.6,1.5,2.6,3.2
	c0,2.1-1.9,3.5-4.8,3.5h-6.2V12.4H32z M29.2,17.4h2.6c0.9,0,1.5-0.5,1.5-1.3c0-0.8-0.6-1.3-1.5-1.3h-2.6V17.4z M29.2,22.5h2.6
	c1.2,0,1.9-0.5,1.9-1.4c0-0.8-0.7-1.4-1.9-1.4h-2.6V22.5z M49.4,20.2c0,3-1.8,4.9-4.5,4.9c-1.3,0-2.3-0.5-3-1.4V25h-3.1V11.6h3.1
	v4.9c0.7-0.9,1.7-1.4,2.9-1.4C47.6,15.2,49.4,17.2,49.4,20.2z M46.3,20.1c0-1.5-0.9-2.5-2.2-2.5c-1.3,0-2.1,1-2.1,2.5
	c0,1.5,0.9,2.5,2.1,2.5C45.4,22.6,46.3,21.6,46.3,20.1z M61.9,14.4L60,16.6c-0.8-1-2.1-1.6-3.2-1.6c-2,0-3.5,1.6-3.5,3.7
	c0,2.1,1.5,3.7,3.5,3.7c1.1,0,2.3-0.6,3.2-1.5l1.9,2c-1.4,1.4-3.3,2.3-5.2,2.3c-3.8,0-6.6-2.8-6.6-6.5c0-3.6,2.9-6.4,6.7-6.4
	C58.7,12.3,60.6,13.1,61.9,14.4z M71.5,17.4l-2.2,1.4c-0.5-0.6-1.1-1-2-1c-1.2,0-2,1-2,2.4c0,1.5,0.8,2.5,2,2.5c0.9,0,1.6-0.4,2-1.1
	l2.3,1.3c-0.8,1.4-2.4,2.3-4.4,2.3c-3,0-5-2-5-4.9c0-3,2-5,5-5C69.1,15.2,70.6,16,71.5,17.4z M78.3,12.4c4,0,6.7,2.6,6.7,6.3
	c0,3.7-2.8,6.3-6.8,6.3h-5.3V12.4H78.3z M76.1,22.4h2.3c2,0,3.4-1.5,3.4-3.7c0-2.2-1.5-3.8-3.5-3.8h-2.1V22.4z M96.3,25h-3.1v-1.3
	c-0.7,0.9-1.7,1.4-2.9,1.4c-2.7,0-4.5-2-4.5-5c0-3,1.8-4.9,4.5-4.9c1.3,0,2.3,0.5,3,1.4v-4.9h3.1V25z M93.2,20.2
	c0-1.5-0.9-2.5-2.2-2.5c-1.3,0-2.2,1-2.2,2.5c0,1.5,0.9,2.5,2.2,2.5C92.3,22.7,93.2,21.7,93.2,20.2z M101.9,14.9v2.5h6v2.5h-6v2.5
	h6.9V25H98.7V12.4h9.9v2.5H101.9z M119.8,21h-6.8c0.3,1.2,1.1,1.8,2.3,1.8c0.8,0,1.7-0.3,2.3-1l1.6,1.6c-1,1.1-2.4,1.7-4.2,1.7
	c-3.2,0-5.2-2-5.2-4.9c0-3,2.1-5,5.1-5C118.3,15.2,120,17.4,119.8,21z M116.8,19.3c0-1.2-0.8-2-1.9-2c-1.1,0-1.8,0.8-2,2H116.8z
	 M124.5,14.9v2.9h5.7v2.5h-5.7V25h-3.2V12.4h9.3v2.5H124.5z M135.6,15v0.7h2.2v2.1h-2.2V25h-3.1v-7.2h-1.3v-2.1h1.3v-0.9
	c0-2.1,1.6-3.3,3.7-3.3c1,0,2,0.3,2.7,0.7l-1.1,2.2c-0.3-0.3-0.8-0.4-1.1-0.4C136.1,13.9,135.6,14.3,135.6,15z M150.4,18.6v4.9
	c-1.3,1-3.5,1.6-5.2,1.6c-3.8,0-6.7-2.8-6.7-6.4c0-3.7,3-6.4,7-6.4c1.9,0,3.9,0.7,5.1,1.9l-1.8,2.2c-0.9-0.8-2.2-1.4-3.4-1.4
	c-2.1,0-3.7,1.6-3.7,3.7c0,2.1,1.6,3.8,3.7,3.8c0.6,0,1.5-0.2,2.2-0.6v-3.3H150.4z M161.7,24.1c0,2.8-2.1,4.5-5.3,4.5
	c-1.7,0-3.2-0.5-4.3-1.3l1.1-2.1c0.9,0.6,2,1,3,1c1.5,0,2.4-0.8,2.4-2v-1c-0.6,0.8-1.6,1.3-2.8,1.3c-2.4,0-4.2-1.9-4.2-4.7
	c0-2.8,1.7-4.6,4.1-4.6c1.2,0,2.2,0.5,2.9,1.3v-1.2h3.1V24.1z M158.6,19.9c0-1.4-0.8-2.4-2-2.4c-1.2,0-2.1,1-2.1,2.4
	c0,1.4,0.8,2.4,2.1,2.4C157.8,22.2,158.6,21.3,158.6,19.9z M172.3,25v-4.9h-5.2V25h-3.2V12.4h3.2v5.2h5.2v-5.2h3.2V25H172.3z
	 M187.9,18.9V25h-3.1v-5.3c0-1.1-0.6-1.8-1.7-1.8c-1.2,0-2,1-2,2.3V25H178V11.6h3.1v5.3c0.7-1.2,1.8-1.7,3.3-1.7
	C186.5,15.2,187.9,16.6,187.9,18.9z M189.9,25V12.4h3.2V25H189.9z M198.6,12.5c0,1-0.7,1.7-1.6,1.7s-1.6-0.7-1.6-1.7
	c0-1,0.7-1.6,1.6-1.6S198.6,11.5,198.6,12.5z M195.4,25v-9.7h3.1V25H195.4z M9.1,42.5c0,2.7-1.7,4.2-4.4,4.2c-1.8,0-3.2-0.7-4.3-2
	l1.5-2.1C2.8,43.5,3.8,44,4.5,44c0.8,0,1.4-0.5,1.4-1.5v-5.9H1.6V34h7.5V42.5z M14.9,46.9c0,2.2-1.5,3.3-3.5,3.3
	c-0.9,0-1.8-0.2-2.4-0.6l0.8-2.2c0.4,0.2,0.7,0.3,1.1,0.3c0.6,0,1-0.3,1-1.1v-9.8h3.1V46.9z M15.1,34.1c0,1-0.7,1.6-1.8,1.6
	c-1,0-1.8-0.7-1.8-1.6c0-1,0.7-1.7,1.8-1.7C14.4,32.5,15.1,33.1,15.1,34.1z M22.7,41.6l-1.7,1.9v3.1h-3.2V34h3.2v5.5l4.8-5.5h3.7
	l-4.7,5.2l5,7.4h-3.8L22.7,41.6z M34.9,44v2.6h-3.1V33.2h3.1v7.1l3.2-3.4h3.5L38,40.6l3.7,6H38l-2.1-3.7L34.9,44z M51.9,43.9v2.7
	h-8.6V34h3.2v9.9H51.9z M53.9,46.6V33.2H57v13.4H53.9z M71,46.6l0-8.2l-3,6.9h-2.1l-3-6.9v8.2H60V34h3.5l3.4,7.5l3.4-7.5h3.5v12.6
	H71z M93.1,40.5v6.1H90v-5.3c0-1.2-0.6-1.9-1.7-1.9c-1.2,0-1.9,1-1.9,2.3v4.8h-3.1v-5.3c0-1.2-0.6-1.9-1.7-1.9c-1.2,0-1.9,1-1.9,2.3
	v4.8h-3.1v-9.7h3.1v1.6c0.7-1.2,1.8-1.7,3.2-1.7c1.6,0,2.8,0.8,3.2,2.2c0.6-1.4,1.8-2.2,3.4-2.2C91.8,36.8,93.1,38.2,93.1,40.5z
	 M104.5,46.6l-5.8-7.8v7.8h-3V34h2.8l5.8,7.8V34h3v12.6H104.5z M120.1,40.5v6.1H117v-5.3c0-1.1-0.7-1.8-1.7-1.8c-1.1,0-1.9,0.8-2,2
	v5.1h-3.1v-9.7h3.1v1.6c0.7-1.1,1.8-1.7,3.2-1.7C118.7,36.8,120.1,38.2,120.1,40.5z M135.5,40.3c0,3.7-2.9,6.5-6.8,6.5
	c-3.9,0-6.8-2.8-6.8-6.5c0-3.7,2.9-6.4,6.8-6.4C132.6,33.9,135.5,36.6,135.5,40.3z M125.1,40.3c0,2.1,1.6,3.8,3.6,3.8
	c1.9,0,3.5-1.6,3.5-3.8c0-2.1-1.5-3.7-3.5-3.7C126.8,36.6,125.1,38.2,125.1,40.3z M147.3,41.7c0,3-2.1,5-5.3,5c-3.2,0-5.3-2-5.3-5
	c0-3,2.1-5,5.3-5C145.2,36.8,147.3,38.8,147.3,41.7z M139.9,41.8c0,1.5,0.9,2.5,2.2,2.5c1.3,0,2.2-1,2.2-2.5c0-1.5-0.9-2.5-2.2-2.5
	C140.7,39.3,139.9,40.3,139.9,41.8z M154.9,34c3.2,0,5.1,1.6,5.1,4.4c0,3-1.9,4.7-5.1,4.7h-2.3v3.5h-3.2V34H154.9z M152.6,40.5h2.1
	c1.4,0,2.2-0.7,2.2-2c0-1.3-0.8-2-2.2-2h-2.1V40.5z M172.6,41.8c0,3-1.8,4.9-4.5,4.9c-1.3,0-2.3-0.5-3-1.4v4.8H162V36.9h3.1v1.3
	c0.7-0.9,1.7-1.4,2.9-1.4C170.8,36.8,172.6,38.8,172.6,41.8z M169.5,41.7c0-1.5-0.9-2.5-2.2-2.5c-1.3,0-2.1,1-2.1,2.5
	c0,1.5,0.9,2.5,2.1,2.5C168.6,44.2,169.5,43.2,169.5,41.7z M188.1,48.2c-1,0.9-2.4,1.4-3.7,1.4c-1.7,0-3.2-1.1-4.1-2.8
	c-3.8-0.1-6.6-2.8-6.6-6.5c0-3.7,2.9-6.4,6.8-6.4c3.9,0,6.8,2.7,6.8,6.4c0,2.8-1.7,5.1-4.2,6c0.4,0.5,1,0.9,1.5,0.9s1.4-0.4,2.2-1
	L188.1,48.2z M180.7,44.1c1.9,0,3.5-1.6,3.5-3.8c0-2.1-1.5-3.7-3.5-3.7s-3.6,1.6-3.6,3.7C177.1,42.4,178.8,44.1,180.7,44.1z
	 M199.4,50.1h-3.1v-4.8c-0.7,0.9-1.7,1.4-2.9,1.4c-2.7,0-4.5-2-4.5-5c0-3,1.8-4.9,4.5-4.9c1.3,0,2.3,0.5,3,1.4v-1.3h3.1V50.1z
	 M196.2,41.8c0-1.5-0.9-2.5-2.2-2.5c-1.3,0-2.2,1-2.2,2.5c0,1.5,0.9,2.5,2.2,2.5C195.4,44.3,196.2,43.3,196.2,41.8z M7.5,64.7
	L7.5,64.7H5v3.5H1.8V55.6h5.6c3.3,0,5.2,1.6,5.2,4.4c0,1.9-0.8,3.3-2.3,4.1l2.6,4.2H9.4L7.5,64.7z M7.4,62.1c1.4,0,2.2-0.7,2.2-2
	c0-1.3-0.8-2-2.2-2H5v4H7.4z M17.1,60.1c0.7-1.1,1.8-1.8,3.2-1.8v2.8c-1.8-0.2-3,0.7-3.2,2.1v5H14v-9.7h3.1V60.1z M30.7,56.9
	l-1.2,2.5c-1.3-0.8-3-1.3-4-1.3c-0.8,0-1.4,0.3-1.4,0.9c0,2.2,6.7,0.9,6.7,5.5c0,2.5-2.2,3.9-5,3.9c-2.1,0-4.3-0.8-5.8-2l1.2-2.5
	c1.3,1.1,3.2,1.9,4.6,1.9c1,0,1.6-0.4,1.6-1.1c0-2.2-6.7-0.9-6.7-5.4c0-2.3,2-3.8,5-3.8C27.6,55.5,29.4,56,30.7,56.9z M39.1,59.4
	l-1.1,2c-1.2-0.6-2.3-1-3.1-1c-0.6,0-1,0.2-1,0.7c0,1.3,5.1,0.7,5.1,4.1c0,2-1.7,3.1-4.1,3.1c-1.6,0-3.2-0.5-4.4-1.4l1-2
	c1.1,0.8,2.4,1.2,3.4,1.2c0.6,0,1.1-0.2,1.1-0.7c0-1.4-5-0.7-5-4.1c0-2,1.7-3.1,3.9-3.1C36.6,58.4,38,58.7,39.1,59.4z M45.8,58.2v10
	h-3.2v-10h-3.8v-2.6h10.8v2.6H45.8z M56.1,67.7c-0.7,0.4-1.7,0.7-2.6,0.7c-1.9,0-3.2-1.1-3.2-3.1V61h-1.4v-2h1.4v-2.7h3.1v2.7h2.5
	V61h-2.5v3.8c0,0.8,0.3,1.1,0.9,1.1c0.3,0,0.7-0.1,1.2-0.3L56.1,67.7z M68.2,62.9c0,3.3-2.2,5.4-5.7,5.4c-3.5,0-5.8-2.1-5.8-5.4
	v-7.3h3.2v7.3c0,1.7,1.1,2.8,2.6,2.8c1.5,0,2.5-1,2.5-2.8v-7.3h3.2V62.9z M79.2,68.2H76v-1.6c-0.7,1.2-1.7,1.7-3.2,1.7
	c-2.1,0-3.5-1.4-3.5-3.7v-6.1h3.1v5.2c0,1.2,0.6,1.9,1.6,1.9c1.2,0,1.9-1,1.9-2.3v-4.8h3.1V68.2z M84.5,68.2l-4.9-12.6H83l3.2,9.3
	l3.2-9.3h3.3l-5,12.6H84.5z M95.4,68.2l-3.7-9.7h3.2l2.1,6.9l2.1-6.9h3.1l-3.7,9.7H95.4z M113.3,68.2l-2.3-8.7l-2.4,8.7h-3.3
	l-4.1-12.6h3.4l2.5,9.3l2.4-9.3h3.1l2.5,9.3l2.4-9.3h3.3l-4.2,12.6H113.3z M130.1,68.2l-1.9-6.2l-1.9,6.2h-3.1l-3.5-9.7h3.2l2,6.7
	l1.9-6.7h3l2,6.7l2-6.7h3l-3.5,9.7H130.1z M148.9,68.2H145l-2.7-4l-2.7,4h-3.7l4.5-6.4l-4.2-6.2h3.7l2.4,3.7l2.4-3.7h3.8l-4.2,6
	L148.9,68.2z M155.4,58.5h3.4l-3.1,4.7l3.3,5h-3.6l-1.8-3l-2,3h-3.4l3.3-5l-3.1-4.7h3.6l1.6,2.8L155.4,58.5z M165.6,68.2h-3.2v-4
	l-4.7-8.6h3.2l3,5.5l3-5.5h3.2l-4.6,8.5V68.2z M175.6,69.2c-0.7,1.8-1.9,2.6-3.7,2.6c-1.1,0-2-0.3-2.8-1l1.3-2.1
	c0.5,0.4,0.8,0.5,1.3,0.5c0.6,0,1-0.3,1.2-0.8L173,68l-4-9.5h3.2l2.4,6.4l2.1-6.4h3.1L175.6,69.2z M183.6,65.7h6.8v2.5h-11.1v-2.1
	l6.8-8h-6.5v-2.5h10.8v2.1L183.6,65.7z M194.7,65.9h4.9v2.3h-8.8v-1.9l4.8-5.5H191v-2.3h8.5v1.9L194.7,65.9z"/>
</svg>
