<?xml version="1.0" encoding="utf-8"?>
<!-- Generator: Adobe Illustrator 22.1.0, SVG Export Plug-In . SVG Version: 6.00 Build 0)  -->
<svg version="1.1" id="Layer_2" xmlns="http://www.w3.org/2000/svg" xmlns:xlink="http://www.w3.org/1999/xlink" x="0px" y="0px"
	 viewBox="0 0 200 78" style="enable-background:new 0 0 200 78;" xml:space="preserve">
<path d="M11.5,24l-1-2.9H4.6l-1,2.9H1.8l4.8-13.2h1.9L13.3,24H11.5z M5.1,19.7H10l-2.4-6.8L5.1,19.7z M16.1,22.6
	c-1-1-1.4-2.3-1.4-3.9c0-1.6,0.5-2.9,1.4-3.9c0.9-1,2.1-1.5,3.6-1.5c0.9,0,1.7,0.2,2.3,0.6s1.2,1,1.5,1.6v-2.1h1.7V24h-1.7v-2.1
	c-0.3,0.7-0.8,1.2-1.5,1.7s-1.4,0.6-2.3,0.6C18.2,24.2,17.1,23.7,16.1,22.6z M22.5,21.6c0.7-0.7,1-1.7,1-2.8c0-1.2-0.3-2.1-1-2.8
	c-0.7-0.7-1.5-1.1-2.5-1.1c-1,0-1.8,0.3-2.5,1c-0.7,0.7-1,1.6-1,2.8c0,1.2,0.3,2.1,1,2.9c0.7,0.7,1.5,1.1,2.5,1.1
	C20.9,22.7,21.8,22.3,22.5,21.6z M27.9,10.8h4.7c1.3,0,2.4,0.3,3.1,1c0.7,0.7,1.1,1.5,1.1,2.5c0,1.5-0.8,2.4-2.5,2.9
	c0.8,0.1,1.5,0.5,2.1,1.1s0.8,1.3,0.8,2.1c0,1-0.4,1.8-1.2,2.5c-0.8,0.7-1.8,1-3.1,1h-4.9V10.8z M29.6,12.2v4.3h2.9
	c0.8,0,1.4-0.2,1.9-0.6c0.4-0.4,0.7-0.9,0.7-1.6s-0.2-1.2-0.7-1.6c-0.4-0.4-1.1-0.6-1.9-0.6H29.6z M29.6,22.6h3.1
	c0.8,0,1.5-0.2,2-0.6c0.5-0.4,0.7-1,0.7-1.7s-0.3-1.3-0.8-1.7c-0.5-0.4-1.2-0.6-2-0.6h-3V22.6z M44.9,13.4c1.4,0,2.6,0.5,3.6,1.5
	c0.9,1,1.4,2.3,1.4,3.9c0,1.6-0.5,2.9-1.4,3.9s-2.1,1.5-3.6,1.5c-0.9,0-1.7-0.2-2.3-0.6s-1.2-1-1.5-1.7V24h-1.7V9.9h1.7v5.7
	c0.4-0.7,0.9-1.2,1.5-1.6S44,13.4,44.9,13.4z M44.6,22.7c1,0,1.8-0.4,2.5-1.1s1-1.7,1-2.9c0-1.2-0.3-2.1-1-2.8c-0.7-0.7-1.5-1-2.5-1
	c-1,0-1.8,0.4-2.5,1.1c-0.7,0.7-1,1.6-1,2.8c0,1.2,0.3,2.1,1,2.8C42.8,22.3,43.6,22.7,44.6,22.7z M53.1,22.2
	c-1.3-1.3-1.9-2.9-1.9-4.8s0.6-3.5,1.9-4.8c1.3-1.3,2.9-1.9,4.8-1.9c1.4,0,2.6,0.3,3.7,1s1.9,1.6,2.4,2.8h-2.1
	c-0.8-1.5-2.1-2.2-3.9-2.2c-1.4,0-2.6,0.5-3.5,1.4c-0.9,0.9-1.4,2.2-1.4,3.8c0,1.6,0.5,2.8,1.4,3.8c0.9,1,2.1,1.4,3.5,1.4
	c0.9,0,1.7-0.2,2.3-0.6s1.2-0.9,1.6-1.7h2.1c-0.5,1.2-1.3,2.1-2.4,2.8s-2.3,1-3.7,1C56,24.1,54.4,23.5,53.1,22.2z M67.2,22.7
	c-0.9-1-1.4-2.3-1.4-3.9c0-1.6,0.5-2.9,1.4-3.9c0.9-1,2.2-1.5,3.6-1.5c1.3,0,2.3,0.3,3.1,0.9c0.8,0.6,1.3,1.4,1.7,2.5h-1.9
	c-0.2-0.6-0.6-1.1-1-1.4c-0.5-0.3-1.1-0.5-1.8-0.5c-1,0-1.8,0.3-2.4,1c-0.6,0.7-0.9,1.7-0.9,2.9s0.3,2.2,0.9,2.9
	c0.6,0.7,1.4,1,2.4,1c1.5,0,2.4-0.6,2.9-1.9h1.9c-0.3,1-0.9,1.8-1.7,2.5c-0.8,0.6-1.8,0.9-3,0.9C69.3,24.2,68.1,23.7,67.2,22.7z
	 M81.8,10.8c2.1,0,3.8,0.6,5,1.8c1.2,1.2,1.8,2.8,1.8,4.9c0,2.1-0.6,3.7-1.8,4.8c-1.2,1.1-2.9,1.7-5,1.7h-4.2V10.8H81.8z M79.4,22.7
	h2.4c1.7,0,2.9-0.5,3.8-1.4c0.9-0.9,1.3-2.2,1.3-3.8c0-1.6-0.4-2.9-1.3-3.8c-0.9-0.9-2.1-1.4-3.8-1.4h-2.4V22.7z M91.4,22.6
	c-1-1-1.4-2.3-1.4-3.9c0-1.6,0.5-2.9,1.4-3.9c0.9-1,2.1-1.5,3.6-1.5c0.9,0,1.7,0.2,2.3,0.6s1.2,1,1.5,1.6V9.9h1.7V24h-1.7v-2.1
	c-0.3,0.7-0.8,1.2-1.5,1.7s-1.4,0.6-2.3,0.6C93.6,24.2,92.4,23.7,91.4,22.6z M97.8,21.6c0.7-0.7,1-1.7,1-2.8c0-1.2-0.3-2.1-1-2.8
	c-0.7-0.7-1.5-1.1-2.5-1.1c-1,0-1.8,0.3-2.5,1c-0.7,0.7-1,1.6-1,2.8c0,1.2,0.3,2.1,1,2.9c0.7,0.7,1.5,1.1,2.5,1.1
	C96.3,22.7,97.1,22.3,97.8,21.6z M110.2,10.8v1.4H105v4.5h4.7V18H105v4.6h5.2V24h-7V10.8H110.2z M117,24.2c-1.5,0-2.7-0.5-3.6-1.5
	c-0.9-1-1.4-2.3-1.4-3.9c0-1.6,0.5-2.9,1.4-3.9s2.2-1.5,3.7-1.5s2.7,0.5,3.6,1.4c0.9,0.9,1.4,2.1,1.4,3.6c0,0.4,0,0.7-0.1,1h-8.3
	c0.1,1,0.4,1.9,1,2.5c0.6,0.6,1.4,0.9,2.3,0.9c0.7,0,1.3-0.2,1.8-0.5c0.5-0.3,0.8-0.7,1.1-1.3h1.9c-0.3,0.9-0.9,1.7-1.7,2.3
	C119.2,23.9,118.2,24.2,117,24.2z M119.3,15.7c-0.6-0.6-1.4-0.9-2.3-0.9c-0.9,0-1.7,0.3-2.3,0.9c-0.6,0.6-0.9,1.4-1,2.4h6.6
	C120.3,17.1,120,16.3,119.3,15.7z M124.1,24V10.8h7.4v1.4h-5.7v4.5h4.5v1.4h-4.5V24H124.1z M137.5,13.6V15h-2.2v9h-1.7v-9h-1.3v-1.4
	h1.3v-0.9c0-1.1,0.3-2,0.9-2.5c0.6-0.5,1.6-0.8,2.9-0.8v1.4c-0.8,0-1.3,0.1-1.6,0.4c-0.3,0.3-0.4,0.8-0.4,1.4v0.9H137.5z
	 M145.2,24.1c-1.8,0-3.4-0.6-4.7-1.9c-1.3-1.3-1.9-2.9-1.9-4.8s0.6-3.5,1.9-4.8c1.3-1.3,2.9-1.9,4.8-1.9c1.4,0,2.6,0.3,3.7,1
	s1.9,1.6,2.4,2.8h-2.1c-0.8-1.5-2.1-2.2-3.9-2.2c-1.4,0-2.6,0.5-3.5,1.4c-0.9,0.9-1.4,2.2-1.4,3.8c0,1.6,0.5,2.8,1.4,3.8
	c0.9,1,2.1,1.4,3.5,1.4c1.4,0,2.5-0.4,3.3-1.2c0.8-0.8,1.3-1.8,1.5-3.2h-5.4v-1.4h7.3v1.4c-0.2,1.7-0.9,3.1-2.1,4.2
	C148.5,23.6,147,24.1,145.2,24.1z M154.6,22.6c-1-1-1.4-2.3-1.4-3.9c0-1.6,0.5-2.9,1.4-3.9s2.1-1.5,3.6-1.5c0.9,0,1.7,0.2,2.3,0.6
	s1.2,1,1.5,1.6v-2.1h1.7v10.7c0,1.4-0.5,2.6-1.4,3.5c-0.9,0.9-2.1,1.4-3.5,1.4c-1.4,0-2.6-0.3-3.5-1c-0.9-0.7-1.5-1.5-1.6-2.6h1.7
	c0.2,0.6,0.6,1.1,1.2,1.5c0.6,0.4,1.4,0.6,2.3,0.6c0.9,0,1.6-0.3,2.3-0.9s0.9-1.4,0.9-2.5v-2.4c-0.3,0.7-0.8,1.2-1.5,1.7
	s-1.4,0.6-2.3,0.6C156.7,24.2,155.5,23.7,154.6,22.6z M160.9,21.6c0.7-0.7,1-1.7,1-2.8c0-1.2-0.3-2.1-1-2.8
	c-0.7-0.7-1.5-1.1-2.5-1.1c-1,0-1.8,0.3-2.5,1c-0.7,0.7-1,1.6-1,2.8c0,1.2,0.3,2.1,1,2.9c0.7,0.7,1.5,1.1,2.5,1.1
	S160.2,22.3,160.9,21.6z M174.7,10.8h1.7V24h-1.7v-5.9h-6.6V24h-1.7V10.8h1.7v5.9h6.6V10.8z M180.9,9.9v5.3c0.7-1.2,1.8-1.9,3.4-1.9
	c1.2,0,2.1,0.4,2.9,1.1c0.8,0.8,1.2,1.9,1.2,3.3V24h-1.7v-5.9c0-1.1-0.3-1.8-0.8-2.4c-0.5-0.5-1.2-0.8-2.1-0.8
	c-0.9,0-1.6,0.3-2.1,0.8c-0.5,0.5-0.8,1.3-0.8,2.4V24h-1.7V9.9H180.9z M190.9,24V10.8h1.7V24H190.9z M197,11.6
	c-0.2,0.2-0.5,0.3-0.8,0.3s-0.6-0.1-0.8-0.3S195,11,195,10.7c0-0.3,0.1-0.6,0.3-0.8c0.2-0.2,0.5-0.3,0.8-0.3s0.6,0.1,0.8,0.3
	c0.2,0.2,0.3,0.5,0.3,0.8C197.3,11,197.2,11.3,197,11.6z M195.3,24V13.6h1.7V24H195.3z M7.6,43.4v-9.7h1.7v9.7c0,1.1-0.3,2-1,2.6
	s-1.6,1-2.7,1c-1.1,0-2-0.3-2.7-1s-1-1.5-1-2.6h1.8c0,0.6,0.2,1.1,0.5,1.5c0.3,0.4,0.8,0.6,1.4,0.6s1.1-0.2,1.5-0.6
	C7.4,44.4,7.6,44,7.6,43.4z M13.6,36.4h1.7V49c0,1.8-0.9,2.7-2.7,2.7h-1.1v-1.4h0.7c0.5,0,0.8-0.1,1-0.3s0.3-0.5,0.3-1V36.4z
	 M15.3,34.4c-0.2,0.2-0.5,0.3-0.8,0.3s-0.6-0.1-0.8-0.3c-0.2-0.2-0.3-0.5-0.3-0.8c0-0.3,0.1-0.6,0.3-0.8s0.5-0.3,0.8-0.3
	c0.3,0,0.6,0.1,0.8,0.3c0.2,0.2,0.3,0.5,0.3,0.8C15.6,33.8,15.5,34.1,15.3,34.4z M20.6,46.8h-1.7V33.6h1.7v6.1l5.4-6.1h2.3l-6.2,6.7
	l6.2,6.5H26l-5.4-5.9V46.8z M32.6,46.8h-1.7V32.7h1.7V41l4-4.6h2.4l-4.9,5.2l4.9,5.2h-2.3l-4.1-4.6V46.8z M41.3,33.6h1.7v11.8h4.6
	v1.3h-6.3V33.6z M50.2,46.8V32.7h1.7v14.1H50.2z M68.9,33.6v13.2h-1.7v-9.6l-4.4,9.6h-1.1l-4.4-9.6v9.6h-1.7V33.6h1.8l5,10.8
	l4.9-10.8H68.9z M74.1,36.4v1.7c0.7-1.2,1.8-1.9,3.4-1.9c0.8,0,1.5,0.2,2.2,0.6c0.6,0.4,1.1,0.9,1.5,1.7c0.4-0.7,0.9-1.3,1.5-1.7
	s1.4-0.6,2.2-0.6c1.2,0,2.2,0.4,2.9,1.1c0.8,0.8,1.2,1.9,1.2,3.3v6.2h-1.7v-5.9c0-1.1-0.3-1.8-0.8-2.4c-0.5-0.5-1.2-0.8-2.1-0.8
	c-0.9,0-1.6,0.3-2.1,0.8c-0.5,0.5-0.8,1.3-0.8,2.4v5.9h-1.7v-5.9c0-1.1-0.3-1.8-0.8-2.4c-0.5-0.5-1.2-0.8-2.1-0.8
	c-0.9,0-1.6,0.3-2.1,0.8c-0.5,0.5-0.8,1.3-0.8,2.4v5.9h-1.7V36.4H74.1z M101.1,33.6h1.7v13.2h-1.7l-7-10.5v10.5h-1.7V33.6h1.7
	l7,10.5V33.6z M108.1,36.4v1.7c0.7-1.2,1.8-1.9,3.4-1.9c1.2,0,2.1,0.4,2.9,1.1c0.8,0.8,1.2,1.9,1.2,3.3v6.2h-1.7v-5.9
	c0-1.1-0.3-1.8-0.8-2.4c-0.5-0.5-1.2-0.8-2.1-0.8c-0.9,0-1.6,0.3-2.1,0.8c-0.5,0.5-0.8,1.3-0.8,2.4v5.9h-1.7V36.4H108.1z M125,46.9
	c-1.9,0-3.5-0.6-4.8-1.9s-1.9-2.9-1.9-4.8s0.6-3.5,1.9-4.8c1.3-1.3,2.9-1.9,4.8-1.9c1.9,0,3.5,0.6,4.8,1.9c1.3,1.3,1.9,2.9,1.9,4.8
	c0,2-0.6,3.6-1.9,4.8C128.5,46.3,126.9,46.9,125,46.9z M128.6,44c0.9-0.9,1.4-2.2,1.4-3.8c0-1.6-0.5-2.8-1.4-3.8
	c-0.9-0.9-2.1-1.4-3.5-1.4s-2.6,0.5-3.6,1.4c-0.9,0.9-1.4,2.2-1.4,3.8c0,1.6,0.5,2.8,1.4,3.8c0.9,1,2.1,1.4,3.6,1.4
	C126.5,45.4,127.7,44.9,128.6,44z M135.3,45.5c-1-1-1.4-2.3-1.4-3.9c0-1.6,0.5-2.9,1.5-3.9c1-1,2.3-1.5,3.8-1.5s2.8,0.5,3.8,1.5
	c1,1,1.5,2.3,1.5,3.9c0,1.6-0.5,2.9-1.6,3.9c-1,1-2.3,1.5-3.8,1.5C137.5,47,136.3,46.5,135.3,45.5z M139,45.5c1,0,1.8-0.4,2.5-1.1
	s1.1-1.7,1.1-2.9c0-1.2-0.3-2.2-1-2.9s-1.5-1-2.5-1s-1.8,0.3-2.5,1c-0.7,0.7-1,1.7-1,2.9c0,1.2,0.3,2.2,1,2.9
	C137.2,45.2,138,45.5,139,45.5z M154.9,34.7c0.8,0.7,1.2,1.6,1.2,2.8c0,1.1-0.4,2.1-1.1,2.8c-0.8,0.7-1.9,1.1-3.4,1.1H149v5.4h-1.7
	V33.6h4.3C153,33.6,154.1,34,154.9,34.7z M149,40h2.5c1,0,1.7-0.2,2.1-0.7s0.7-1,0.7-1.8c0-1.7-0.9-2.5-2.8-2.5H149V40z M164.5,36.2
	c1.4,0,2.6,0.5,3.6,1.5s1.4,2.3,1.4,3.9c0,1.6-0.5,2.9-1.4,3.9c-1,1-2.1,1.5-3.6,1.5c-0.9,0-1.7-0.2-2.3-0.6c-0.7-0.4-1.2-1-1.5-1.7
	v7.1h-1.7V36.4h1.7v2.1c0.4-0.7,0.9-1.2,1.5-1.6S163.6,36.2,164.5,36.2z M164.2,45.5c1,0,1.8-0.4,2.5-1.1c0.7-0.7,1-1.7,1-2.9
	c0-1.2-0.3-2.1-1-2.8c-0.7-0.7-1.5-1-2.5-1s-1.8,0.4-2.5,1.1c-0.7,0.7-1,1.6-1,2.8s0.3,2.1,1,2.8C162.4,45.1,163.2,45.5,164.2,45.5z
	 M178.4,46.9c-1.9,0-3.5-0.6-4.8-1.9s-1.9-2.9-1.9-4.8s0.6-3.5,1.9-4.8c1.3-1.3,2.9-1.9,4.8-1.9c1.9,0,3.5,0.6,4.8,1.9
	c1.3,1.3,1.9,2.9,1.9,4.8c0,1.3-0.3,2.4-0.8,3.4s-1.3,1.8-2.3,2.4l3.4,3.3H183l-2.7-2.6C179.7,46.8,179.1,46.9,178.4,46.9z
	 M174.8,36.5c-0.9,0.9-1.4,2.2-1.4,3.8c0,1.6,0.5,2.8,1.4,3.8c0.9,1,2.1,1.4,3.6,1.4c1.4,0,2.6-0.5,3.5-1.4c0.9-0.9,1.4-2.2,1.4-3.8
	c0-1.6-0.5-2.8-1.4-3.8c-0.9-0.9-2.1-1.4-3.5-1.4S175.7,35.5,174.8,36.5z M188.7,45.4c-1-1-1.4-2.3-1.4-3.9c0-1.6,0.5-2.9,1.4-3.9
	s2.1-1.5,3.6-1.5c0.9,0,1.7,0.2,2.3,0.6s1.2,1,1.5,1.6v-2.1h1.7v15.4h-1.7v-7.1c-0.3,0.7-0.8,1.2-1.5,1.7c-0.7,0.4-1.4,0.6-2.3,0.6
	C190.8,47,189.6,46.5,188.7,45.4z M195,44.4c0.7-0.7,1-1.7,1-2.8s-0.3-2.1-1-2.8c-0.7-0.7-1.5-1.1-2.5-1.1c-1,0-1.8,0.3-2.5,1
	c-0.7,0.7-1,1.6-1,2.8s0.3,2.1,1,2.9s1.5,1.1,2.5,1.1S194.3,45.1,195,44.4z M4.2,64.2v5.4H2.4V56.4h4.3c1.5,0,2.6,0.4,3.4,1.1
	c0.8,0.7,1.2,1.6,1.2,2.7s-0.3,1.9-0.9,2.6c-0.6,0.7-1.4,1.1-2.6,1.3l3.6,5.5H9.3l-3.5-5.4H4.2z M4.2,57.8v5h2.5
	c0.9,0,1.7-0.2,2.1-0.7s0.7-1,0.7-1.8c0-1.7-0.9-2.5-2.8-2.5H4.2z M15.7,59.2v1.8c0.6-1.3,1.7-1.9,3.2-1.9v1.8h-0.5
	c-0.9,0-1.6,0.2-2,0.7c-0.5,0.5-0.7,1.3-0.7,2.4v5.7H14V59.2H15.7z M22.2,59.9c0,0.5,0.1,0.9,0.4,1.2c0.3,0.3,0.6,0.6,1,0.7
	c0.4,0.2,0.9,0.3,1.4,0.4c0.5,0.1,1,0.2,1.5,0.4c0.5,0.1,1,0.3,1.4,0.6s0.8,0.6,1,1c0.3,0.5,0.4,1,0.4,1.7c0,1-0.4,1.9-1.2,2.7
	c-0.8,0.8-1.8,1.1-3.2,1.1s-2.4-0.3-3.3-0.9s-1.3-1.4-1.3-2.5h1.8c0.1,0.6,0.3,1.1,0.7,1.4c0.4,0.4,1.1,0.6,1.9,0.6s1.5-0.2,2-0.6
	s0.7-0.9,0.7-1.5c0-0.6-0.1-1-0.4-1.3c-0.3-0.3-0.6-0.5-1-0.7c-0.4-0.2-0.9-0.3-1.4-0.4s-1-0.2-1.5-0.4c-0.5-0.2-1-0.3-1.4-0.6
	s-0.8-0.6-1-1s-0.4-1-0.4-1.7c0-1.1,0.4-2,1.2-2.7c0.8-0.7,1.8-1,3.1-1s2.3,0.3,3,0.9s1.2,1.4,1.3,2.4h-1.9c-0.1-0.5-0.3-1-0.7-1.3
	s-1-0.6-1.8-0.6c-0.7,0-1.3,0.2-1.8,0.6C22.4,58.7,22.2,59.2,22.2,59.9z M31.3,62.1c0-0.9,0.4-1.6,1.1-2.2c0.7-0.6,1.7-0.9,2.8-0.9
	c1.2,0,2.1,0.3,2.7,0.9s1,1.4,1.1,2.4h-1.8c0-0.6-0.2-1.1-0.6-1.4c-0.4-0.4-0.9-0.5-1.5-0.5s-1.2,0.2-1.5,0.5s-0.6,0.7-0.6,1.2
	c0,0.5,0.2,0.9,0.6,1.1c0.4,0.3,0.9,0.5,1.5,0.6c0.6,0.1,1.2,0.3,1.8,0.4s1.1,0.5,1.5,0.9s0.6,1.1,0.6,1.9s-0.4,1.5-1.1,2
	c-0.7,0.6-1.7,0.8-2.8,0.8c-1.2,0-2.1-0.3-2.8-0.9c-0.7-0.6-1.1-1.4-1.1-2.4h1.8c0,0.6,0.2,1,0.6,1.4c0.4,0.3,0.9,0.5,1.6,0.5
	s1.2-0.1,1.6-0.4c0.4-0.3,0.6-0.7,0.6-1.1c0-0.4-0.2-0.8-0.5-1.1c-0.3-0.3-0.7-0.4-1.1-0.6s-1-0.2-1.5-0.4c-0.5-0.1-1-0.3-1.5-0.4
	c-0.5-0.2-0.8-0.4-1.1-0.8S31.3,62.7,31.3,62.1z M40.9,57.8v-1.4h8.7v1.4h-3.5v11.8h-1.7V57.8H40.9z M55.1,68.2h1.4v1.4h-1.7
	c-1.8,0-2.7-0.9-2.7-2.7v-6.3h-1.3v-1.4h1.3v-2.6h1.7v2.6h2.7v1.4h-2.7v6.3c0,0.5,0.1,0.8,0.3,1S54.6,68.2,55.1,68.2z M58.2,65v-8.5
	H60V65c0,1.1,0.3,1.9,0.9,2.4c0.6,0.5,1.4,0.8,2.4,0.8s1.8-0.3,2.4-0.8s0.9-1.4,0.9-2.4v-8.5h1.7V65c0,1.5-0.5,2.7-1.4,3.5
	c-0.9,0.8-2.1,1.2-3.6,1.2c-1.5,0-2.6-0.4-3.6-1.2C58.7,67.7,58.2,66.5,58.2,65z M78.2,59.2h1.7v10.4h-1.7v-1.7
	c-0.7,1.2-1.8,1.8-3.4,1.8c-1.2,0-2.1-0.4-2.9-1.2c-0.8-0.8-1.2-1.9-1.2-3.3v-6.2h1.7v5.9c0,1,0.3,1.8,0.8,2.4
	c0.5,0.6,1.2,0.8,2.1,0.8c0.9,0,1.6-0.3,2.1-0.8c0.5-0.6,0.8-1.3,0.8-2.4V59.2z M86.7,69.6l-5.1-13.2h1.8l4.1,11.3l4.2-11.3h1.8
	l-5.1,13.2H86.7z M94.1,59.2H96l3.2,8.8l3.2-8.8h1.9l-4.1,10.4h-2L94.1,59.2z M120.6,56.4h1.8l-4,13.2h-1.9l-3-10.6l-3.2,10.6
	l-1.9,0l-3.7-13.2h1.8l2.9,11.2l3.2-11.2h1.9l2.9,11.2L120.6,56.4z M136.1,59.2h1.7l-3.3,10.4h-1.8l-2.4-8.3l-2.4,8.3h-1.8
	l-3.3-10.4h1.8l2.4,8.7l2.5-8.7h1.8l2.3,8.7L136.1,59.2z M148.9,56.4l-4.1,6.6l4,6.6H147l-3.2-5.2l-3,5.2h-1.9l4.1-6.6l-4.1-6.6h1.9
	l3.2,5.2l3-5.2H148.9z M158.5,59.2l-3.4,5.2l3.3,5.2h-2l-2.5-3.9l-2.3,3.9h-1.9l3.4-5.2l-3.4-5.3h2l2.5,3.9l2.3-3.9H158.5z
	 M164.8,69.6h-1.7v-5l-4.3-8.2h1.9L164,63l3.2-6.6h1.9l-4.3,8.2V69.6z M173.6,69.4l-4.1-10.3h1.9l3.2,8.4l3.2-8.4h1.8l-6.3,15.3
	h-1.8L173.6,69.4z M188.9,56.4v1.4l-6.4,10.4h6.4v1.4h-8.4v-1.4l6.4-10.4h-6.4v-1.4H188.9z M197.5,59.2v1.4l-5,7.6h5v1.4h-7v-1.4
	l5-7.6h-5v-1.4H197.5z"/>
</svg>
