<?xml version="1.0" encoding="utf-8"?>
<!-- Generator: Adobe Illustrator 22.1.0, SVG Export Plug-In . SVG Version: 6.00 Build 0)  -->
<svg version="1.1" id="Layer_2" xmlns="http://www.w3.org/2000/svg" xmlns:xlink="http://www.w3.org/1999/xlink" x="0px" y="0px"
	 viewBox="0 0 200 78" style="enable-background:new 0 0 200 78;" xml:space="preserve">
<path d="M10.1,20H4.5l-1.4,4H1.2L6.4,9.9h1.7L13.4,24h-1.8L10.1,20z M5,18.5h4.6L7.3,12H7.3L5,18.5z M14.4,21c0-1.8,1.4-2.9,3.9-3
	l2.9-0.2v-0.9c0-1.3-0.9-2-2.4-2c-1.2,0-2.1,0.6-2.3,1.6h-1.6c0-1.8,1.8-3.1,4-3.1c2.5,0,4.1,1.3,4.1,3.4V24h-1.6v-1.8h0
	c-0.6,1.2-1.9,1.9-3.4,1.9C15.8,24.1,14.4,22.9,14.4,21z M21.3,20v-0.8l-2.8,0.2C17,19.4,16.1,20,16.1,21c0,1,0.8,1.6,2.2,1.6
	C20,22.6,21.3,21.5,21.3,20z M25.6,24V9.9h5.5c2.4,0,4,1.4,4,3.5c0,1.5-1.1,2.8-2.4,3.1v0.1c1.9,0.2,3.1,1.6,3.1,3.5
	c0,2.5-1.8,4-4.8,4H25.6z M27.4,16h2.8c2.1,0,3.2-0.8,3.2-2.4c0-1.4-1-2.2-2.7-2.2h-3.4V16z M30.8,22.4c2.1,0,3.2-0.9,3.2-2.5
	s-1.2-2.5-3.4-2.5h-3.3v5H30.8z M39.5,22.2L39.5,22.2l0,1.8h-1.6V9.3h1.7v5.9h0c0.7-1.2,1.9-1.8,3.4-1.8c2.6,0,4.5,2.1,4.5,5.4
	c0,3.2-1.8,5.4-4.5,5.4C41.4,24.1,40.2,23.4,39.5,22.2z M39.6,18.7c0,2.3,1.2,3.8,3.1,3.8c1.8,0,3.1-1.5,3.1-3.8
	c0-2.3-1.2-3.8-3.1-3.8C40.8,14.9,39.6,16.5,39.6,18.7z M49,16.9c0-4.4,2.5-7.3,6.3-7.3c3.1,0,5.4,1.9,5.8,4.7h-1.8
	c-0.4-1.8-2.1-3.1-4.1-3.1c-2.8,0-4.5,2.2-4.5,5.7c0,3.5,1.8,5.7,4.6,5.7c2.1,0,3.6-1,4.1-2.7h1.8c-0.6,2.8-2.7,4.3-5.8,4.3
	C51.5,24.2,49,21.4,49,16.9z M70.2,16.9c-0.2-1.1-1.2-2-2.7-2c-1.8,0-3.1,1.5-3.1,3.8c0,2.4,1.3,3.8,3.1,3.8c1.5,0,2.4-0.7,2.7-2
	h1.7c-0.3,2.1-2,3.5-4.4,3.5c-2.9,0-4.8-2.1-4.8-5.4c0-3.2,1.9-5.4,4.8-5.4c2.6,0,4.2,1.7,4.4,3.5H70.2z M78.7,9.9
	c4.2,0,6.7,2.6,6.7,7c0,4.4-2.5,7.1-6.7,7.1h-4.8V9.9H78.7z M75.6,22.4h3c3.2,0,5-2,5-5.4c0-3.5-1.8-5.5-5-5.5h-3V22.4z M86.9,18.7
	c0-3.2,1.9-5.4,4.5-5.4c1.5,0,2.7,0.7,3.4,1.8h0V9.3h1.7V24h-1.6v-1.8h0c-0.7,1.2-1.9,1.9-3.4,1.9C88.8,24.1,86.9,21.9,86.9,18.7z
	 M88.7,18.7c0,2.3,1.2,3.8,3.1,3.8c1.8,0,3.1-1.6,3.1-3.8c0-2.3-1.2-3.8-3.1-3.8C89.9,14.9,88.7,16.4,88.7,18.7z M108,24h-8.7V9.9
	h8.7v1.6h-7V16h6.6v1.6H101v4.8h7V24z M118.8,21c-0.3,1.8-2.1,3.1-4.4,3.1c-3,0-4.8-2.1-4.8-5.3s1.9-5.4,4.7-5.4
	c2.8,0,4.6,2,4.6,5.2v0.7h-7.6v0.1c0,2,1.2,3.3,3.1,3.3c1.3,0,2.3-0.6,2.6-1.6H118.8z M111.4,17.8h5.8c0-1.8-1.2-3-2.8-3
	C112.7,14.9,111.5,16.1,111.4,17.8z M121.1,24V9.9h8.6v1.6h-6.8v4.8h6.2v1.6h-6.2V24H121.1z M132.1,14.9h-1.5v-1.4h1.5v-1
	c0-1.9,0.8-2.8,2.8-2.8c0.3,0,0.6,0,0.9,0.1v1.4c-0.2,0-0.5-0.1-0.8-0.1c-0.9,0-1.2,0.4-1.3,1.4v1h2.1v1.4h-2.1V24h-1.7V14.9z
	 M143.9,24.2c-3.9,0-6.5-2.9-6.5-7.4c0-4.4,2.5-7.2,6.5-7.2c3,0,5.4,1.8,5.9,4.6H148c-0.6-1.9-2.1-3-4-3c-2.9,0-4.6,2.1-4.6,5.6
	c0,3.5,1.8,5.7,4.6,5.7c2.5,0,4.2-1.6,4.2-4v-0.3h-4v-1.5h5.7v1.3C149.9,22,147.7,24.2,143.9,24.2z M152,24.9h1.8
	c0.3,0.9,1.3,1.4,2.7,1.4c1.8,0,3-0.9,3-2.4v-1.7h0c-0.7,1.1-1.9,1.8-3.4,1.8c-2.7,0-4.5-2.1-4.5-5.3c0-3.2,1.8-5.3,4.5-5.3
	c1.5,0,2.7,0.7,3.4,1.8h0v-1.7h1.6v10.2c0,2.5-1.8,4.1-4.8,4.1C154,27.8,152.2,26.6,152,24.9z M159.4,18.7c0-2.3-1.2-3.8-3.1-3.8
	c-1.8,0-3,1.5-3,3.8c0,2.3,1.2,3.8,3,3.8C158.2,22.5,159.4,21,159.4,18.7z M173.3,24v-6.4h-7.7V24h-1.8V9.9h1.8V16h7.7V9.9h1.8V24
	H173.3z M177.8,9.3h1.7v5.9h0c0.7-1.2,1.7-1.8,3.3-1.8c2.3,0,3.7,1.6,3.7,3.9V24h-1.7v-6.4c0-1.7-0.8-2.7-2.5-2.7
	c-1.8,0-2.9,1.2-2.9,3.1V24h-1.7V9.3z M189.1,24V9.9h1.8V24H189.1z M193.4,10.7c0-0.6,0.5-1.1,1.1-1.1c0.6,0,1.1,0.5,1.1,1.1
	c0,0.6-0.5,1.1-1.1,1.1C193.9,11.8,193.4,11.3,193.4,10.7z M193.6,13.5h1.7V24h-1.7V13.5z M3.2,44.7c0,1.2,0.9,2,2.2,2
	c1.6,0,2.4-0.9,2.4-2.6V33.9h1.8v10.2c0,2.7-1.5,4.3-4.1,4.3c-2.3,0-4-1.5-4-3.6H3.2z M14.6,48.5c0,2.1-1,3.1-3.2,3.1
	c0,0-0.3,0-0.3,0v-1.4c0,0,0.3,0,0.3,0c1.2,0,1.6-0.4,1.6-1.6V37.5h1.7V48.5z M12.6,34.7c0-0.6,0.5-1.1,1.1-1.1
	c0.6,0,1.1,0.5,1.1,1.1c0,0.6-0.5,1.1-1.1,1.1C13.1,35.8,12.6,35.3,12.6,34.7z M17.9,48V33.9h1.8v6.9h0.1l6.2-6.9h2.2l-5.8,6.2
	l6.3,7.9h-2.2l-5.3-6.6l-1.5,1.7V48H17.9z M37.2,37.5h2.1L34.7,42l4.7,6h-2l-4-4.9l-1,0.9v4h-1.7V33.3h1.7v8.9L37.2,37.5z M50.2,48
	h-8.6V33.9h1.8v12.5h6.8V48z M52.8,33.3h1.7V48h-1.7V33.3z M71.7,48H70V37.1H70l-4.5,10.8H64l-4.5-10.8h-0.1V48h-1.6V33.9h2
	l4.9,11.8h0.1l4.9-11.8h2V48z M74.9,37.5h1.6v1.7h0c0.5-1.1,1.6-1.8,3-1.8c1.4,0,2.5,0.7,2.9,2h0c0.6-1.2,1.8-2,3.3-2
	c2.1,0,3.4,1.3,3.4,3.4V48h-1.7v-6.8c0-1.5-0.8-2.3-2.2-2.3s-2.4,1-2.4,2.5V48h-1.7v-7c0-1.3-0.9-2.1-2.2-2.1
	c-1.4,0-2.4,1.1-2.4,2.6V48h-1.7V37.5z M92.5,48V33.9h1.7l7.7,11.1h0.1V33.9h1.7V48H102l-7.7-11h-0.1v11H92.5z M107,37.5h1.6v1.7h0
	c0.7-1.2,1.7-1.8,3.3-1.8c2.3,0,3.7,1.5,3.7,3.9V48h-1.7v-6.5c0-1.7-0.8-2.7-2.5-2.7c-1.7,0-2.8,1.2-2.8,3V48H107V37.5z M131.2,41
	c0,4.5-2.5,7.3-6.5,7.3s-6.5-2.8-6.5-7.3s2.5-7.3,6.5-7.3S131.2,36.5,131.2,41z M120,41c0,3.5,1.8,5.7,4.7,5.7s4.7-2.2,4.7-5.7
	c0-3.5-1.8-5.7-4.7-5.7S120,37.5,120,41z M133.4,42.7c0-3.3,1.9-5.4,4.9-5.4s4.9,2.1,4.9,5.4c0,3.3-1.9,5.4-4.9,5.4
	S133.4,46,133.4,42.7z M141.4,42.7c0-2.4-1.2-3.8-3.1-3.8s-3.1,1.4-3.1,3.8s1.2,3.8,3.1,3.8C140.2,46.6,141.4,45.1,141.4,42.7z
	 M151.2,33.9c2.6,0,4.5,1.9,4.5,4.5c0,2.7-1.9,4.5-4.5,4.5h-3.5v5h-1.8V33.9H151.2z M147.6,41.4h3.1c2,0,3.2-1.1,3.2-3
	c0-1.9-1.1-3-3.2-3h-3.1V41.4z M167.8,42.7c0,3.2-1.8,5.4-4.5,5.4c-1.5,0-2.7-0.7-3.4-1.8h0v5.2h-1.7v-14h1.6v1.7h0
	c0.6-1.1,2-1.8,3.4-1.8C165.9,37.4,167.8,39.5,167.8,42.7z M166,42.7c0-2.3-1.2-3.8-3.1-3.8c-1.8,0-3.1,1.6-3.1,3.8
	c0,2.3,1.2,3.8,3.1,3.8C164.8,46.6,166,45.1,166,42.7z M180.2,49.6l-1.3-1.8c-0.8,0.3-1.6,0.4-2.5,0.4c-4,0-6.5-2.8-6.5-7.3
	s2.5-7.3,6.5-7.3s6.5,2.8,6.5,7.3c0,2.7-0.9,4.8-2.6,6.1l1.9,2.6H180.2z M177.9,46.4l-1.8-2.4h2l1.2,1.6c1.1-1,1.8-2.6,1.8-4.6
	c0-3.5-1.8-5.7-4.7-5.7s-4.7,2.2-4.7,5.7c0,3.5,1.8,5.7,4.7,5.7C177,46.6,177.5,46.5,177.9,46.4z M193,39.2L193,39.2l0-1.7h1.6v14
	H193v-5.2h0c-0.7,1.2-1.9,1.8-3.4,1.8c-2.6,0-4.5-2.1-4.5-5.4c0-3.2,1.8-5.4,4.5-5.4C191.1,37.4,192.3,38,193,39.2z M193,42.7
	c0-2.3-1.3-3.8-3.1-3.8s-3,1.5-3,3.8c0,2.3,1.2,3.8,3,3.8S193,45,193,42.7z M4.1,72H2.4V57.9h5.4c2.7,0,4.5,1.7,4.5,4.2
	c0,2-1.1,3.5-2.8,4l3.3,5.8h-2.1l-3-5.6H4.1V72z M4.1,64.9h3.5c1.8,0,2.8-1,2.8-2.7c0-1.7-1.1-2.7-2.9-2.7H4.1V64.9z M14,61.5h1.6
	v1.7h0c0.3-1.1,1.3-1.8,2.5-1.8c0.3,0,0.6,0,0.7,0.1v1.7c-0.1,0-0.5-0.1-0.9-0.1c-1.4,0-2.3,1-2.3,2.5V72H14V61.5z M21.5,68.1
	c0.2,1.5,1.6,2.5,3.6,2.5c1.9,0,3.3-1,3.3-2.4c0-1.2-0.8-1.9-2.7-2.4l-1.8-0.5c-2.6-0.7-3.8-1.8-3.8-3.7c0-2.3,2.1-4,5-4
	c2.8,0,4.8,1.7,4.9,4h-1.8c-0.2-1.5-1.4-2.4-3.2-2.4c-1.8,0-3.1,0.9-3.1,2.3c0,1.1,0.8,1.7,2.7,2.2l1.5,0.4c2.9,0.7,4.1,1.9,4.1,3.9
	c0,2.6-2,4.2-5.3,4.2c-3,0-5.1-1.6-5.2-4.1H21.5z M35.6,61.4c2.1,0,3.8,1.3,3.8,3h-1.6c-0.1-1-1-1.6-2.3-1.6c-1.3,0-2.2,0.6-2.2,1.5
	c0,0.7,0.6,1.2,1.8,1.5l1.6,0.4c2.1,0.5,2.9,1.3,2.9,2.8c0,1.8-1.7,3.1-4.2,3.1c-2.3,0-3.9-1.2-4.1-3.1h1.7c0.2,1.1,1,1.7,2.5,1.7
	s2.3-0.6,2.3-1.5c0-0.7-0.4-1.1-1.6-1.4l-1.8-0.5c-1.8-0.5-2.7-1.4-2.7-2.8C31.7,62.6,33.3,61.4,35.6,61.4z M43.3,72V59.5h-4.5v-1.6
	h10.8v1.6H45V72H43.3z M53.3,59.1v2.4h2.1v1.4h-2.1v6.3c0,1,0.4,1.4,1.3,1.4c0.2,0,0.6,0,0.7,0V72c-0.2,0-0.7,0.1-1.1,0.1
	c-1.9,0-2.6-0.8-2.6-2.8v-6.4h-1.5v-1.4h1.5v-2.4H53.3z M59,66.9c0,2.1,1.4,3.7,3.8,3.7s3.8-1.5,3.8-3.7v-9h1.8v9.2
	c0,3-2.1,5.2-5.6,5.2s-5.6-2.2-5.6-5.2v-9.2H59V66.9z M79.3,72h-1.6v-1.7h0c-0.7,1.2-1.7,1.8-3.3,1.8c-2.3,0-3.6-1.5-3.6-3.9v-6.7
	h1.7v6.5c0,1.7,0.8,2.7,2.5,2.7c1.7,0,2.8-1.2,2.8-3v-6.1h1.7V72z M85.4,72l-5.2-14.1h1.8l4.2,12h0.1l4.2-12h1.8L87.2,72H85.4z
	 M98,72h-1.7l-3.9-10.5h1.8l2.9,8.7h0l3-8.7h1.8L98,72z M107.6,72H106l-3.8-14.1h1.8l2.8,11.5h0.1l3.2-11.5h1.8l3.2,11.5h0.1
	l2.8-11.5h1.8L115.9,72h-1.7L111,60.8h-0.1L107.6,72z M131.5,72h-1.7l-2.4-8.2h0l-2.4,8.2h-1.7l-2.9-10.5h1.7l2.1,8.6h0l2.4-8.6h1.6
	l2.4,8.6h0l2.1-8.6h1.7L131.5,72z M139.4,64.9L139.4,64.9l-4.7-7h2.1l3.8,5.7h0.1l3.8-5.7h2l-4.9,7.1V65l4.8,7h-2.1l-3.7-5.6h-0.1
	l-3.8,5.6h-2L139.4,64.9z M151.4,68l-2.6,4H147l3.6-5.3l-3.5-5.3h1.9l2.6,4h0l2.5-4h1.9l-3.6,5.2l3.5,5.3H154L151.4,68L151.4,68z
	 M160.7,72v-6.1l-5-8h2l3.8,6.3h0.1l3.8-6.3h2l-5,8V72H160.7z M168.2,75.8v-1.4c0.2,0,0.5,0.1,0.7,0.1c1,0,1.5-0.5,1.9-1.7L171,72
	l-3.9-10.5h1.8l2.9,8.8h0l2.9-8.8h1.8l-4.1,11.2c-0.9,2.4-1.7,3.2-3.6,3.2C168.7,75.8,168.4,75.8,168.2,75.8z M177.7,70.8l8-11.2
	v-0.1h-7.8v-1.6h10v1.2l-8,11.2v0.1h8.2V72h-10.4V70.8z M189.8,70.8l5.9-7.9v0h-5.9v-1.4h7.8v1.3l-5.8,7.8v0h5.9V72h-7.8V70.8z"/>
</svg>
