<?xml version="1.0" encoding="utf-8"?>
<!-- Generator: Adobe Illustrator 24.2.0, SVG Export Plug-In . SVG Version: 6.00 Build 0)  -->
<svg version="1.1" id="Layer_3" xmlns="http://www.w3.org/2000/svg" xmlns:xlink="http://www.w3.org/1999/xlink" x="0px" y="0px"
	 viewBox="0 0 200 78" style="enable-background:new 0 0 200 78;" xml:space="preserve">
<path d="M13,20.9l-1.3-3.3H6.1l-1.3,3.3H3L8,7.8h1.9l5,13.1H13z M8.9,10.2L6.7,16h4.3L8.9,10.2z M25.3,20.9h-1.7v-1.4
	c-0.3,0.5-0.7,0.8-1.3,1.1c-0.6,0.3-1.2,0.4-1.8,0.4c-1.2,0-2.3-0.4-3.2-1.3c-0.9-0.9-1.3-2-1.3-3.3c0-1.4,0.4-2.5,1.3-3.3
	c0.9-0.9,1.9-1.3,3.2-1.3c0.6,0,1.3,0.1,1.9,0.4c0.6,0.3,1,0.7,1.3,1.1V12h1.7V20.9z M22.7,18.6c0.6-0.5,0.9-1.2,0.9-2.2
	c0-0.9-0.3-1.6-0.9-2.1s-1.3-0.8-2.1-0.8c-0.8,0-1.5,0.3-2,0.8c-0.5,0.5-0.8,1.2-0.8,2.1c0,0.9,0.3,1.6,0.8,2.1
	c0.6,0.6,1.2,0.8,2.1,0.8C21.5,19.4,22.2,19.1,22.7,18.6z M37.1,11.2c0,1.4-0.5,2.3-1.6,2.7c0.7,0.1,1.2,0.5,1.7,1.2
	c0.4,0.7,0.6,1.3,0.6,2c0,1.1-0.3,2-1,2.7c-0.7,0.7-1.6,1.1-2.8,1.1h-5.3V7.8h4.9c1.1,0,1.9,0.3,2.6,0.9
	C36.8,9.3,37.1,10.2,37.1,11.2z M30.5,9.5v3.8h3.2c0.5,0,1-0.2,1.3-0.6c0.3-0.4,0.5-0.9,0.5-1.4c0-0.6-0.2-1-0.5-1.3
	c-0.3-0.3-0.8-0.5-1.4-0.5H30.5z M33.9,14.8h-3.4v4.4H34c0.6,0,1.1-0.2,1.5-0.6c0.4-0.4,0.6-0.9,0.6-1.5c0-0.6-0.2-1.1-0.6-1.6
	C35,15,34.5,14.8,33.9,14.8z M42.1,20.9h-1.7V7.2h1.7v6.2c0.6-1,1.6-1.5,3.1-1.5c1.3,0,2.3,0.4,3.2,1.3c0.9,0.8,1.3,2,1.3,3.3
	s-0.4,2.5-1.3,3.3c-0.9,0.9-1.9,1.3-3.2,1.3c-0.7,0-1.3-0.1-1.8-0.4c-0.6-0.3-1-0.7-1.3-1.1V20.9z M42.2,16.4c0,0.9,0.3,1.6,0.9,2.2
	c0.6,0.5,1.3,0.8,2.1,0.8s1.5-0.3,2.1-0.8c0.6-0.6,0.8-1.3,0.8-2.1c0-0.9-0.3-1.6-0.8-2.1c-0.6-0.5-1.2-0.8-2-0.8
	c-0.8,0-1.5,0.3-2.1,0.8C42.5,14.8,42.2,15.5,42.2,16.4z M51.7,14.4c0-1.9,0.6-3.4,1.9-4.8c1.3-1.3,2.9-2,4.8-2s3.5,0.7,4.8,2.2
	L61.9,11c-1-1.1-2.2-1.6-3.6-1.6c-1.4,0-2.5,0.5-3.5,1.5c-0.9,1-1.4,2.2-1.4,3.6c0,1.4,0.5,2.6,1.4,3.6c0.9,1,2.1,1.5,3.5,1.5
	c1.4,0,2.6-0.6,3.6-1.7l1.3,1.1c-1.3,1.5-2.9,2.2-4.8,2.2c-1.9,0-3.6-0.6-4.9-1.9C52.3,17.8,51.7,16.2,51.7,14.4z M69.5,11.8
	c1.4,0,2.5,0.5,3.4,1.4l-1.3,1.1c-0.6-0.6-1.3-0.8-2.1-0.8s-1.5,0.3-2.1,0.8c-0.6,0.5-0.9,1.2-0.9,2.1s0.3,1.6,0.9,2.1
	s1.3,0.8,2.1,0.8c0.8,0,1.5-0.3,2.1-0.9l1.3,1.1c-0.9,0.9-2,1.4-3.3,1.4c-1.3,0-2.5-0.4-3.4-1.3c-0.9-0.9-1.4-2-1.4-3.3
	s0.5-2.5,1.4-3.3S68.1,11.8,69.5,11.8z M80.5,20.9h-5.1V7.8h5.1c1.8,0,3.2,0.6,4.3,1.9c1.1,1.2,1.6,2.8,1.6,4.7
	c0,1.9-0.5,3.5-1.6,4.7C83.8,20.3,82.4,20.9,80.5,20.9z M77.2,9.5v9.8h3.3c1.3,0,2.3-0.5,3.1-1.4c0.7-0.9,1.1-2.1,1.1-3.5
	c0-1.4-0.4-2.6-1.1-3.5c-0.7-0.9-1.7-1.4-3-1.4H77.2z M97.7,20.9H96v-1.4c-0.3,0.5-0.7,0.8-1.3,1.1c-0.6,0.3-1.2,0.4-1.9,0.4
	c-1.2,0-2.3-0.4-3.2-1.3c-0.9-0.9-1.3-2-1.3-3.3c0-1.4,0.4-2.5,1.3-3.3s1.9-1.3,3.2-1.3c0.7,0,1.3,0.1,1.9,0.4
	c0.6,0.3,1,0.6,1.3,1.1V7.2h1.7V20.9z M95.1,18.6c0.6-0.5,0.9-1.3,0.9-2.2c0-0.9-0.3-1.6-0.9-2.1s-1.3-0.8-2.1-0.8
	c-0.8,0-1.5,0.3-2,0.8c-0.5,0.5-0.8,1.2-0.8,2.1c0,0.9,0.3,1.6,0.8,2.1c0.6,0.6,1.2,0.8,2,0.8S94.6,19.1,95.1,18.6z M101.1,20.9V7.8
	h7.7v1.7h-6v4.2h5.2v1.7h-5.2v4h6.2v1.7H101.1z M120,16.4c0,0.4,0,0.6,0,0.7h-7.2c0.1,0.7,0.4,1.3,0.9,1.8c0.5,0.4,1.1,0.7,1.8,0.7
	c1.3,0,2.2-0.5,2.7-1.4c0,0,0,0,0.1,0c0,0,0.1,0,0.1,0.1c0.1,0,0.2,0.1,0.3,0.1c0.1,0,0.2,0.1,0.3,0.1l0.7,0.3
	c-0.4,0.7-0.9,1.3-1.7,1.7c-0.7,0.4-1.5,0.6-2.4,0.6c-1.3,0-2.4-0.4-3.3-1.3c-0.9-0.9-1.3-2-1.3-3.4c0-1.4,0.4-2.5,1.3-3.3
	s1.9-1.3,3.2-1.3c1.3,0,2.4,0.4,3.2,1.3C119.6,13.9,120,15.1,120,16.4z M115.6,13.4c-0.7,0-1.4,0.2-1.9,0.6c-0.5,0.5-0.8,1-0.9,1.8
	h5.5c-0.1-0.7-0.4-1.3-0.9-1.8C116.9,13.6,116.3,13.4,115.6,13.4z M122.7,20.9V7.8h7.6v1.7h-5.9v4.2h4.7v1.7h-4.7v5.6H122.7z
	 M136.6,7.2h1v1.7h-1c-1.1,0-1.7,0.8-1.7,2.3V12h2.1v1.5H135v7.3h-1.7v-7.3h-1.7V12h1.7v-0.9c0-1.3,0.3-2.2,0.9-2.9
	C134.7,7.5,135.5,7.2,136.6,7.2z M145.1,9.3c-1.3,0-2.4,0.5-3.3,1.5c-0.9,1-1.4,2.2-1.4,3.6c0,1.4,0.5,2.6,1.4,3.6
	c0.9,1,2,1.5,3.3,1.5s2.3-0.3,3.1-0.9c0.8-0.6,1.2-1.5,1.2-2.6h-3.7v-1.5h5.7c0,2.2-0.5,3.9-1.6,5c-1.1,1.2-2.6,1.7-4.5,1.7
	s-3.5-0.7-4.8-2c-1.3-1.3-1.9-2.9-1.9-4.7c0-1.9,0.6-3.4,1.9-4.8c1.3-1.3,2.8-2,4.6-2s3.3,0.6,4.5,1.7l-1.3,1.2
	C147.5,9.7,146.4,9.3,145.1,9.3z M157.5,23.7c2.1,0,3.2-1.3,3.2-4c0,0,0-0.1,0-0.1v-0.1c-0.3,0.5-0.7,0.9-1.3,1.2s-1.2,0.4-1.9,0.4
	c-1.3,0-2.3-0.4-3.2-1.3c-0.9-0.8-1.3-2-1.3-3.3c0-1.4,0.4-2.5,1.3-3.3c0.9-0.9,1.9-1.3,3.2-1.3c0.7,0,1.3,0.1,1.9,0.4
	c0.6,0.3,1,0.6,1.3,1.1V12h1.7v7.5c0,3.9-1.6,5.8-4.9,5.8c-0.8,0-1.6-0.2-2.3-0.6c-0.7-0.4-1.3-1-1.7-1.8c0.1,0,0.3-0.1,0.8-0.4
	l0.7-0.4c0.2,0.5,0.6,0.8,1.1,1.1S157,23.7,157.5,23.7z M155.6,18.6c0.5,0.5,1.2,0.8,2,0.8s1.5-0.3,2.1-0.8c0.6-0.5,0.9-1.2,0.9-2.2
	c0-0.9-0.3-1.6-0.9-2.1c-0.6-0.5-1.3-0.8-2.1-0.8c-0.8,0-1.5,0.3-2.1,0.8c-0.6,0.6-0.8,1.3-0.8,2.1C154.8,17.4,155,18.1,155.6,18.6z
	 M173.8,7.8h1.8v13.1h-1.8v-5.7h-6.3v5.7h-1.8V7.8h1.8v5.8h6.3V7.8z M180.6,16.1v4.8h-1.7V7.2h1.7v6.2c0.2-0.5,0.7-0.9,1.2-1.1
	c0.6-0.3,1.1-0.4,1.7-0.4c1.1,0,2,0.3,2.6,1c0.6,0.7,1,1.7,0.9,2.9v5.1h-1.7v-5c0-0.7-0.2-1.3-0.6-1.7c-0.4-0.4-0.9-0.6-1.6-0.6
	s-1.3,0.2-1.8,0.6S180.6,15.2,180.6,16.1z M190.4,20.9V7.8h1.8v13.1H190.4z M195.2,8.8c0-0.3,0.1-0.6,0.3-0.8
	c0.2-0.2,0.5-0.3,0.9-0.3c0.3,0,0.6,0.1,0.8,0.3c0.2,0.2,0.4,0.5,0.4,0.8c0,0.3-0.1,0.6-0.4,0.8c-0.2,0.2-0.5,0.3-0.8,0.3
	c-0.3,0-0.6-0.1-0.9-0.3C195.3,9.3,195.2,9.1,195.2,8.8z M197.2,20.9h-1.7V12h1.7V20.9z M4.6,30.6h1.8v13.6c0,1.3-0.3,2.3-1,3.1
	c-0.7,0.8-1.7,1.2-3,1.2c-0.2,0-0.7-0.1-1.4-0.2L1,46.6c0.3,0.1,0.8,0.2,1.3,0.2c0.7,0,1.3-0.2,1.7-0.7c0.4-0.5,0.6-1.1,0.6-1.9
	V30.6z M9.3,48H8.1v-1.6h1c1.1,0,1.6-0.7,1.6-2.2v-9.4h1.7v9.4C12.5,46.8,11.4,48,9.3,48z M10.5,31.5c0-0.3,0.1-0.6,0.3-0.8
	c0.3-0.2,0.5-0.3,0.8-0.3s0.6,0.1,0.8,0.3c0.2,0.2,0.4,0.5,0.4,0.8c0,0.3-0.1,0.6-0.4,0.8c-0.2,0.2-0.5,0.3-0.8,0.3
	s-0.6-0.1-0.8-0.3C10.6,32.1,10.5,31.9,10.5,31.5z M18.8,43.7H17V30.6h1.8v5.7l4.3-5.7h2.2l-5,6.5l6.1,6.6h-2.4l-5.2-5.6V43.7z
	 M30.6,43.7h-1.7V30h1.7v7.9l3.1-3.1H36l-3.8,3.8l4.7,5h-2.3l-4-4.3V43.7z M40,43.7V30.6h1.8V42h5.3v1.7H40z M50.3,43.7V30H52v13.7
	H50.3z M58.9,30.6l4.6,9.6l4.6-9.6h1.6l1.6,13.1h-1.7l-1.2-9.8l-4.1,8.4h-1.6l-4.1-8.4l-1.2,9.8h-1.7l1.6-13.1H58.9z M82.9,38.9v4.8
	h-1.7v-5c0-0.7-0.2-1.3-0.5-1.7c-0.3-0.4-0.8-0.6-1.5-0.6c-0.6,0-1.2,0.2-1.7,0.7c-0.5,0.4-0.7,1.1-0.7,1.9v4.8h-1.7v-8.9h1.7v1.3
	c0.2-0.4,0.5-0.8,1-1c0.5-0.3,0.9-0.4,1.3-0.4c1.7-0.1,2.8,0.5,3.4,1.8c0.6-1.2,1.6-1.8,3.1-1.8c1.1,0,2,0.3,2.5,1
	c0.6,0.7,0.9,1.6,0.9,2.9v5.1h-1.7v-5c0-0.7-0.2-1.3-0.5-1.7c-0.4-0.4-0.9-0.6-1.6-0.6c-0.7,0-1.2,0.2-1.6,0.7
	C83.2,37.5,82.9,38.1,82.9,38.9z M102.8,30.6v13.1h-1.7l-6-9.9v9.9h-1.8V30.6h1.7l5.9,9.8v-9.8H102.8z M109,38.9v4.8h-1.7v-8.9h1.7
	v1.3c0.3-0.5,0.6-0.9,1.1-1.1c0.5-0.3,1.1-0.4,1.6-0.4c1.1,0,1.9,0.3,2.5,1c0.6,0.7,0.9,1.6,0.9,2.9v5.1h-1.7v-5
	c0-0.7-0.2-1.3-0.5-1.7c-0.3-0.4-0.8-0.6-1.5-0.6c-0.7,0-1.2,0.2-1.7,0.7C109.2,37.4,109,38.1,109,38.9z M118.7,37.2
	c0-1.9,0.6-3.4,1.9-4.8c1.3-1.3,2.8-2,4.7-2s3.4,0.7,4.7,2c1.3,1.3,1.9,2.9,1.9,4.8s-0.6,3.5-1.9,4.8c-1.3,1.3-2.8,1.9-4.7,1.9
	s-3.4-0.7-4.7-2C119.3,40.6,118.7,39,118.7,37.2z M125.3,32.1c-1.4,0-2.5,0.5-3.5,1.5c-0.9,1-1.4,2.2-1.4,3.6s0.5,2.6,1.4,3.6
	c0.9,1,2.1,1.4,3.5,1.4c1.4,0,2.5-0.5,3.5-1.5c0.9-1,1.4-2.2,1.4-3.6c0-1.4-0.5-2.6-1.4-3.6C127.8,32.6,126.7,32.1,125.3,32.1z
	 M139.6,43.9c-1.3,0-2.4-0.4-3.3-1.3c-0.9-0.9-1.4-2-1.4-3.3c0-1.4,0.4-2.5,1.3-3.3s2-1.3,3.3-1.3c1.3,0,2.4,0.4,3.3,1.3
	c0.9,0.9,1.3,2,1.3,3.3c0,1.4-0.5,2.5-1.4,3.3C142,43.4,140.9,43.9,139.6,43.9z M141.7,41.4c0.6-0.5,0.8-1.3,0.8-2.1
	s-0.3-1.6-0.8-2.1c-0.6-0.5-1.2-0.8-2.1-0.8c-0.8,0-1.5,0.3-2.1,0.8c-0.6,0.5-0.9,1.3-0.9,2.1s0.3,1.6,0.8,2.2
	c0.6,0.6,1.2,0.8,2.1,0.8C140.5,42.2,141.2,42,141.7,41.4z M148.1,43.7V30.6h5.2c1.3,0,2.3,0.4,2.9,1.2c0.7,0.8,1,1.7,1,2.9
	c0,1.2-0.3,2.1-1,2.9c-0.7,0.8-1.6,1.2-2.9,1.2h-3.4v4.9H148.1z M153.3,32.3h-3.4v4.9h3.3c0.7,0,1.3-0.2,1.7-0.7
	c0.4-0.4,0.6-1,0.6-1.7c0-0.7-0.2-1.3-0.5-1.8C154.6,32.5,154,32.3,153.3,32.3z M160.5,34.8h1.7v1.4c0.3-0.5,0.7-0.9,1.3-1.1
	c0.5-0.3,1.2-0.4,1.8-0.4c1.2,0,2.3,0.4,3.1,1.3c0.9,0.9,1.3,2,1.3,3.3c0,1.4-0.4,2.5-1.3,3.3c-0.8,0.9-1.9,1.3-3.2,1.3
	c-0.7,0-1.3-0.1-1.9-0.4s-1-0.6-1.2-1.1V48h-1.7V34.8z M163.1,37.1c-0.6,0.5-0.8,1.3-0.8,2.2s0.3,1.6,0.9,2.1s1.3,0.8,2.1,0.8
	c0.8,0,1.5-0.3,2-0.8c0.5-0.5,0.8-1.2,0.8-2.1s-0.3-1.6-0.8-2.1c-0.6-0.6-1.3-0.8-2.1-0.8C164.3,36.3,163.7,36.6,163.1,37.1z
	 M172.8,37.2c0-1.9,0.6-3.5,1.9-4.8c1.3-1.3,2.8-2,4.7-2s3.4,0.7,4.7,2c1.3,1.3,1.9,2.9,1.9,4.8c0,1.2-0.3,2.3-0.8,3.3
	c-0.5,1-1.3,1.8-2.3,2.5l1.4,2.1l-1.4,0.8l-1.5-2.3c-0.7,0.2-1.4,0.3-2.1,0.3c-1.9,0-3.4-0.7-4.7-2S172.8,39,172.8,37.2z
	 M179.5,32.1c-1.4,0-2.5,0.5-3.5,1.5c-0.9,1-1.4,2.2-1.4,3.6c0,1.4,0.4,2.6,1.3,3.5c0.9,0.9,1.9,1.4,3.2,1.5c0.6,0,1.1,0,1.4-0.1
	l-1.3-2.2l1.4-0.9l1.5,2.4c0.7-0.5,1.3-1.1,1.7-1.8s0.6-1.6,0.6-2.4c0-1.4-0.5-2.6-1.4-3.6C182,32.6,180.8,32.1,179.5,32.1z
	 M196.7,34.8h1.7V48h-1.7v-5.6c-0.3,0.5-0.7,0.9-1.2,1.1c-0.6,0.3-1.2,0.4-1.9,0.4c-1.3,0-2.3-0.4-3.2-1.3c-0.8-0.8-1.3-2-1.3-3.3
	c0-1.4,0.4-2.5,1.3-3.4c0.9-0.9,1.9-1.3,3.2-1.3c0.7,0,1.3,0.1,1.8,0.4c0.6,0.3,1,0.6,1.3,1.1V34.8z M191.7,41.4
	c0.5,0.5,1.2,0.8,2,0.8s1.5-0.3,2.1-0.8c0.6-0.5,0.9-1.2,0.9-2.1c0-0.9-0.3-1.6-0.9-2.2c-0.5-0.5-1.2-0.8-2-0.8
	c-0.8,0-1.5,0.3-2.1,0.8c-0.6,0.5-0.8,1.3-0.8,2.1C190.9,40.2,191.1,40.9,191.7,41.4z M6.3,61.6v4.9H4.6V53.4h5
	c1.3,0,2.2,0.4,2.9,1.2c0.6,0.8,1,1.7,1,2.8c0,1.1-0.3,2-0.8,2.8s-1.4,1.2-2.5,1.3l3.5,5h-2.1L8,61.6H6.3z M9.5,55.1H6.3v4.9h3.1
	c0.7,0,1.3-0.2,1.6-0.7c0.4-0.5,0.5-1.1,0.5-1.8c0-0.7-0.2-1.3-0.5-1.8C10.7,55.3,10.2,55.1,9.5,55.1z M17.8,63.3v3.2h-1.7v-8.9h1.7
	v2c0.4-1.5,1.3-2.2,2.5-2.2c0.7,0,1.2,0.1,1.5,0.3l-0.3,1.6c-0.4-0.2-0.8-0.3-1.3-0.3c-0.8,0-1.4,0.4-1.8,1.1
	C18.1,61,17.8,62,17.8,63.3z M23.3,62.7h1.8c0,0.6,0.3,1.1,0.8,1.6s1.2,0.7,2,0.7c0.8,0,1.4-0.2,1.9-0.5c0.5-0.4,0.7-0.8,0.8-1.4
	c0.1-1.2-0.6-2-2.2-2.3l-1.7-0.4c-2.1-0.5-3.2-1.7-3.2-3.4c0-1.1,0.4-2,1.3-2.6c0.8-0.7,1.8-1,3-1s2.2,0.4,3,1.1
	c0.8,0.7,1.2,1.6,1.2,2.8h-1.8c0-0.6-0.2-1.2-0.7-1.6c-0.5-0.4-1-0.6-1.7-0.6c-0.7,0-1.3,0.2-1.8,0.5c-0.5,0.4-0.7,0.8-0.7,1.4
	c0,0.9,0.6,1.5,1.9,1.8l1.7,0.4c1.3,0.3,2.2,0.9,2.8,1.6s0.8,1.6,0.7,2.6c-0.1,1-0.6,1.9-1.4,2.5c-0.8,0.7-1.8,1-3.1,1
	c-1.3,0-2.3-0.4-3.2-1.2C23.7,64.7,23.3,63.8,23.3,62.7z M37.6,57.4c0.8,0,1.5,0.2,2.1,0.6c0.6,0.4,0.9,1.1,0.9,1.9h-1.7
	c0-0.3-0.2-0.5-0.5-0.7c-0.3-0.2-0.6-0.3-0.9-0.3c-0.3,0-0.6,0.1-0.9,0.2c-0.3,0.1-0.4,0.3-0.5,0.6s-0.1,0.5,0,0.7
	c0.1,0.3,0.5,0.5,1,0.7l1.3,0.3c1.5,0.4,2.3,1.2,2.3,2.6c0,0.8-0.3,1.4-1,1.9c-0.7,0.5-1.5,0.7-2.4,0.7s-1.7-0.3-2.4-0.8
	c-0.7-0.5-1-1.2-1-2.1h1.6c0.1,0.5,0.3,0.8,0.7,1c0.4,0.2,0.8,0.3,1.3,0.3c0.5,0,0.8-0.1,1-0.4c0.2-0.2,0.4-0.5,0.4-0.8
	c0-0.3-0.1-0.6-0.3-0.7c-0.2-0.2-0.5-0.3-0.9-0.4l-1.2-0.3c-0.9-0.2-1.5-0.6-1.9-1c-0.4-0.5-0.5-1.1-0.5-1.8s0.4-1.3,1-1.7
	C36,57.6,36.7,57.4,37.6,57.4z M42.4,55.1v-1.7h9.8v1.7h-4v11.4h-1.8V55.1H42.4z M56.6,54.4v3.3h1.9v1.5h-1.9v7.3h-1.7v-7.3h-1.6
	v-1.5h1.6v-3.3H56.6z M68.6,62v-8.6h1.8V62c0,1.4-0.5,2.5-1.4,3.4c-0.9,0.9-2.1,1.3-3.4,1.3c-1.3,0-2.5-0.4-3.4-1.3
	c-0.9-0.9-1.4-2-1.4-3.4v-8.6h1.8V62c0,0.9,0.3,1.6,0.9,2.2c0.6,0.6,1.3,0.8,2.1,0.8c0.8,0,1.5-0.3,2.1-0.8
	C68.3,63.6,68.6,62.9,68.6,62z M79.7,62.4v-4.8h1.7v8.9h-1.7v-1.3c-0.3,0.5-0.6,0.9-1.1,1.1s-1,0.4-1.6,0.4c-1.1,0-1.9-0.3-2.5-1
	c-0.6-0.7-0.9-1.7-0.9-2.9v-5.1h1.7v5c0,0.7,0.2,1.3,0.5,1.7c0.3,0.4,0.9,0.6,1.5,0.6s1.3-0.2,1.7-0.6
	C79.5,63.9,79.7,63.3,79.7,62.4z M83.5,53.4h1.8l3,10.1l3-10.1h1.7l-3.8,13.1h-1.8L83.5,53.4z M97.8,66.5l-3.7-8.9H96l2.7,6.7
	l2.7-6.7h1.8L97.8,66.5z M115.3,63.7l3.3-10.3h1.7l-4.2,13.1h-1.5l-2.3-8.2l-2.3,8.2h-1.8L104,53.4h1.9l3.3,10.3l2.4-8.5l1.3,0
	L115.3,63.7z M135.6,57.6l-3.3,8.9h-1.4l-2.4-6.5l-2.3,6.5h-1.4l-3.4-8.9h1.8l2.2,6.2l2.2-6.2h1.7l2.2,6.2l2.2-6.2H135.6z
	 M147.1,53.4l-4.1,6.1l4.6,7h-2.1l-3.5-5.6l-3.5,5.6h-2.1l4.6-7l-4.1-6.1h2.1l3,4.6l3-4.6H147.1z M151.7,61.6l-2.9-4h2.1l1.8,2.6
	l1.8-2.6h2.1l-2.9,4l3.5,4.9h-2l-2.5-3.4l-2.5,3.4h-2L151.7,61.6z M164.4,66.5h-1.8v-6l-5-7.1h2.1l3.7,5.3l3.8-5.3h2.1l-5,7.1V66.5z
	 M179,57.6l-5.5,13.2h-1.8l1.9-4.6l-3.6-8.6h1.8l2.7,6.4l2.7-6.4H179z M180.3,66.5V65l6.9-9.9h-6.6v-1.7h8.9v1.5l-6.9,9.9h6.9v1.7
	H180.3z M191.6,57.6h7.5V59l-5.4,5.8h5.4v1.7h-7.8v-1.4l5.3-5.8h-5V57.6z"/>
</svg>
