<?xml version="1.0" encoding="utf-8"?>
<!-- Generator: Adobe Illustrator 24.2.0, SVG Export Plug-In . SVG Version: 6.00 Build 0)  -->
<svg version="1.1" xmlns="http://www.w3.org/2000/svg" xmlns:xlink="http://www.w3.org/1999/xlink" x="0px" y="0px"
	 viewBox="0 0 200 78" style="enable-background:new 0 0 200 78;" xml:space="preserve">
<style type="text/css">
	.st0{display:none;}
	.st1{display:inline;}
</style>
<g id="Layer_2_1_" class="st0">
	<path class="st1" d="M7.2,8.6h1.5l5.9,13.8h-1.9L11.3,19H4.4L3,22.4H1.1L7.2,8.6z M8,10.7L8,10.7l-3,6.8h5.6L8,10.7z M16.1,14.5
		c0.5-0.5,1-0.8,1.7-1.1c0.6-0.2,1.3-0.3,2-0.3c1.4,0,2.3,0.3,2.9,1c0.6,0.6,0.9,1.6,0.9,2.9v3.9c0,0.3,0,0.5,0,0.8s0.1,0.5,0.1,0.8
		h-1.5c-0.1-0.2-0.1-0.4-0.1-0.7c0-0.3,0-0.5,0-0.7l0,0c-0.3,0.5-0.7,0.9-1.2,1.2c-0.5,0.3-1.1,0.4-1.8,0.4c-0.5,0-0.9-0.1-1.3-0.2
		S17,22.2,16.7,22s-0.6-0.5-0.7-0.8c-0.2-0.3-0.3-0.7-0.3-1.2c0-0.8,0.2-1.3,0.6-1.8s0.9-0.7,1.5-1c0.6-0.2,1.2-0.3,1.9-0.4
		c0.7-0.1,1.3-0.1,1.8-0.1H22v-0.3c0-0.7-0.2-1.2-0.6-1.5s-1-0.5-1.7-0.5c-0.5,0-1,0.1-1.5,0.2c-0.5,0.2-0.9,0.4-1.3,0.8L16.1,14.5z
		 M20.5,18c-1,0-1.8,0.1-2.3,0.4c-0.6,0.3-0.9,0.7-0.9,1.3c0,0.6,0.2,1,0.6,1.2s0.9,0.4,1.4,0.4c0.4,0,0.8-0.1,1.2-0.2
		c0.3-0.1,0.6-0.3,0.8-0.6c0.2-0.2,0.4-0.5,0.5-0.9s0.2-0.6,0.2-1V18H20.5z M26.6,8.6h4.2c0.6,0,1.1,0.1,1.7,0.2
		c0.6,0.1,1,0.3,1.5,0.6c0.4,0.3,0.8,0.6,1,1c0.3,0.4,0.4,1,0.4,1.6c0,0.8-0.2,1.5-0.7,2c-0.4,0.5-1,0.9-1.8,1.1l0,0
		c0.4,0,0.9,0.2,1.2,0.3c0.4,0.2,0.7,0.4,1,0.7c0.3,0.3,0.5,0.6,0.7,1s0.2,0.8,0.2,1.3c0,0.8-0.2,1.4-0.5,1.9s-0.7,0.9-1.2,1.2
		c-0.5,0.3-1.1,0.5-1.7,0.6s-1.3,0.2-1.9,0.2h-4.1C26.6,22.3,26.6,8.6,26.6,8.6z M28.2,14.5h2.3c0.4,0,0.8,0,1.1-0.1
		c0.4-0.1,0.7-0.2,1-0.3c0.3-0.2,0.5-0.4,0.7-0.7s0.3-0.7,0.3-1.2c0-0.4-0.1-0.8-0.3-1c-0.2-0.3-0.4-0.5-0.7-0.6
		c-0.3-0.2-0.6-0.3-1-0.3c-0.4-0.1-0.7-0.1-1.1-0.1h-2.4v4.3H28.2z M28.2,20.9H31c0.4,0,0.8,0,1.2-0.1s0.8-0.2,1.1-0.4
		c0.3-0.2,0.6-0.4,0.8-0.7c0.2-0.3,0.3-0.7,0.3-1.1c0-0.5-0.1-0.9-0.3-1.2c-0.2-0.3-0.4-0.6-0.7-0.8c-0.3-0.2-0.7-0.3-1.1-0.4
		C31.9,16,31.5,16,31.1,16h-2.8v4.9H28.2z M38.6,7.7h1.5v7l0,0c0.4-0.5,0.9-0.9,1.5-1.2s1.2-0.4,1.8-0.4c0.7,0,1.4,0.1,2,0.4
		c0.6,0.2,1.1,0.6,1.5,1s0.7,0.9,1,1.5s0.4,1.2,0.4,1.9c0,0.7-0.1,1.3-0.4,1.9s-0.6,1.1-1,1.5s-0.9,0.8-1.5,1s-1.2,0.4-1.8,0.4
		c-0.8,0-1.5-0.2-2.2-0.5c-0.6-0.4-1.1-0.8-1.4-1.3l0,0v1.6h-1.5V7.7H38.6z M40.1,17.9c0,0.5,0.1,0.9,0.2,1.3
		c0.1,0.4,0.4,0.8,0.7,1.1c0.3,0.3,0.6,0.5,1,0.7s0.8,0.3,1.3,0.3s0.9-0.1,1.3-0.3c0.4-0.2,0.7-0.4,1-0.7c0.3-0.3,0.5-0.7,0.7-1.1
		c0.1-0.4,0.2-0.9,0.2-1.3c0-0.5-0.1-0.9-0.2-1.3c-0.1-0.4-0.4-0.8-0.7-1.1s-0.6-0.5-1-0.7s-0.8-0.3-1.3-0.3s-0.9,0.1-1.3,0.3
		c-0.4,0.2-0.7,0.4-1,0.7s-0.5,0.7-0.7,1.1C40.2,16.9,40.1,17.4,40.1,17.9z M60.5,11.5c-0.4-0.6-0.9-1-1.5-1.3s-1.2-0.4-1.9-0.4
		c-0.8,0-1.5,0.2-2.1,0.5s-1.2,0.7-1.7,1.3s-0.8,1.1-1.1,1.8s-0.4,1.4-0.4,2.2c0,0.8,0.1,1.6,0.4,2.3c0.3,0.7,0.6,1.3,1.1,1.8
		s1,0.9,1.7,1.2c0.6,0.3,1.4,0.4,2.1,0.4c0.8,0,1.6-0.2,2.3-0.5s1.2-0.8,1.7-1.4l1.2,1c-0.6,0.8-1.4,1.4-2.3,1.8s-1.9,0.6-3,0.6
		c-1,0-1.9-0.2-2.8-0.5s-1.6-0.9-2.2-1.5c-0.6-0.6-1.1-1.4-1.5-2.3S50,16.6,50,15.6s0.2-2,0.5-2.9s0.8-1.7,1.5-2.3
		c0.6-0.7,1.4-1.2,2.2-1.5C55.1,8.5,56,8.3,57,8.3c0.9,0,1.8,0.2,2.7,0.5s1.6,0.9,2.2,1.7L60.5,11.5z M70.8,15.6
		c-0.3-0.4-0.7-0.7-1.1-0.8c-0.4-0.2-0.8-0.3-1.2-0.3c-0.5,0-1,0.1-1.3,0.3s-0.7,0.4-1,0.7s-0.4,0.7-0.6,1.1
		c-0.1,0.4-0.2,0.8-0.2,1.3s0.1,0.9,0.2,1.3s0.4,0.8,0.6,1.1c0.3,0.3,0.6,0.6,1,0.7c0.4,0.2,0.8,0.3,1.3,0.3c1,0,1.8-0.4,2.3-1.1
		l1.1,1.1c-0.4,0.5-1,0.9-1.6,1.1s-1.2,0.4-1.9,0.4c-0.7,0-1.3-0.1-1.9-0.4s-1.1-0.6-1.5-1s-0.7-0.9-1-1.5c-0.2-0.6-0.3-1.2-0.3-1.9
		c0-0.7,0.1-1.3,0.3-1.9c0.2-0.6,0.5-1.1,1-1.5c0.4-0.4,0.9-0.8,1.5-1s1.2-0.4,1.9-0.4c0.7,0,1.3,0.1,1.9,0.4s1.1,0.6,1.6,1.1
		L70.8,15.6z M73.8,8.6h5.3c0.5,0,0.9,0.1,1.4,0.2C81,8.9,81.5,9,82,9.3c0.5,0.2,1,0.5,1.4,0.9c0.5,0.4,0.9,0.8,1.2,1.3
		c0.4,0.5,0.6,1.1,0.8,1.8c0.2,0.7,0.3,1.4,0.3,2.3c0,0.8-0.1,1.6-0.3,2.3c-0.2,0.7-0.5,1.3-0.8,1.8c-0.4,0.5-0.8,1-1.2,1.3
		c-0.5,0.4-0.9,0.7-1.4,0.9c-0.5,0.2-1,0.4-1.5,0.5s-1,0.2-1.4,0.2h-5.3C73.8,22.6,73.8,8.6,73.8,8.6z M75.4,20.9h3.1
		c0.8,0,1.5-0.1,2.2-0.3c0.7-0.2,1.3-0.5,1.8-1c0.5-0.4,0.9-1,1.2-1.7c0.3-0.7,0.4-1.5,0.4-2.4c0-1-0.1-1.8-0.4-2.4
		c-0.3-0.7-0.7-1.2-1.2-1.7c-0.5-0.4-1.1-0.8-1.8-1c-0.7-0.2-1.4-0.3-2.2-0.3h-3.1V20.9z M95.8,20.8L95.8,20.8
		c-0.3,0.5-0.8,1-1.4,1.3c-0.6,0.4-1.3,0.5-2.2,0.5c-0.6,0-1.2-0.1-1.8-0.4c-0.6-0.2-1-0.6-1.5-1s-0.7-0.9-1-1.5s-0.4-1.2-0.4-1.9
		c0-0.7,0.1-1.3,0.4-1.9s0.6-1.1,1-1.5s0.9-0.8,1.5-1s1.2-0.4,2-0.4c0.7,0,1.3,0.1,1.8,0.4c0.6,0.3,1,0.7,1.5,1.2l0,0v-7h1.5v14.8
		h-1.5L95.8,20.8L95.8,20.8z M95.8,17.9c0-0.5-0.1-0.9-0.2-1.3s-0.4-0.8-0.7-1.1c-0.3-0.3-0.6-0.5-1-0.7s-0.8-0.3-1.3-0.3
		s-0.9,0.1-1.3,0.3s-0.7,0.4-1,0.7s-0.5,0.7-0.7,1.1c-0.1,0.4-0.2,0.9-0.2,1.3c0,0.5,0.1,0.9,0.2,1.3s0.4,0.8,0.7,1.1
		c0.3,0.3,0.6,0.5,1,0.7s0.8,0.3,1.3,0.3s0.9-0.1,1.3-0.3c0.4-0.2,0.7-0.4,1-0.7c0.3-0.3,0.5-0.7,0.7-1.1
		C95.7,18.8,95.8,18.3,95.8,17.9z M100.4,8.6h8.7v1.5H102v4.3h6.6V16H102v4.9h7.4v1.5h-9V8.6z M119.9,20.8c-0.5,0.7-1.1,1.2-1.8,1.5
		c-0.7,0.3-1.4,0.4-2.3,0.4c-0.7,0-1.4-0.1-1.9-0.4s-1.1-0.6-1.5-1s-0.7-0.9-0.9-1.5s-0.3-1.2-0.3-1.9c0-0.7,0.1-1.4,0.4-1.9
		c0.2-0.6,0.6-1.1,1-1.5s0.9-0.8,1.5-1s1.2-0.4,1.9-0.4c0.6,0,1.2,0.1,1.8,0.3c0.5,0.2,1,0.5,1.4,0.9s0.7,0.9,0.9,1.5
		c0.2,0.6,0.3,1.3,0.3,2v0.5H113c0,0.4,0.1,0.8,0.3,1.1c0.2,0.4,0.4,0.7,0.6,0.9c0.3,0.3,0.6,0.5,0.9,0.6s0.7,0.2,1.2,0.2
		c0.7,0,1.2-0.1,1.7-0.4c0.5-0.2,0.9-0.6,1.2-1L119.9,20.8z M118.6,17c0-0.8-0.3-1.4-0.8-1.9s-1.1-0.7-2-0.7s-1.5,0.2-2.1,0.7
		s-0.8,1.1-0.9,1.9H118.6z M122.9,8.6h8.6v1.5h-6.9v4.6h6.4v1.5h-6.4v6.2H123L122.9,8.6L122.9,8.6z M134.2,14.6h-2v-1.3h2v-2.1
		c0-0.6,0.1-1.1,0.2-1.5c0.1-0.5,0.3-0.9,0.5-1.2c0.3-0.3,0.6-0.6,1-0.8c0.4-0.2,0.9-0.3,1.5-0.3c0.2,0,0.4,0,0.6,0.1
		s0.4,0.1,0.5,0.2L138.4,9c-0.4-0.1-0.7-0.2-1-0.2c-0.4,0-0.7,0.1-0.9,0.2s-0.4,0.3-0.5,0.6c-0.1,0.2-0.2,0.5-0.2,0.9
		c0,0.3,0,0.7,0,1.1v1.7h2.2v1.3h-2.2v7.9h-1.5v-7.9H134.2z M151.6,21.5c-0.8,0.4-1.6,0.8-2.5,1s-1.8,0.3-2.7,0.3
		c-1.1,0-2.1-0.2-3-0.5s-1.7-0.8-2.3-1.5c-0.7-0.6-1.2-1.4-1.5-2.3c-0.4-0.9-0.5-1.9-0.5-3s0.2-2.1,0.6-3c0.4-0.9,0.9-1.7,1.6-2.3
		c0.7-0.6,1.5-1.1,2.4-1.5s1.9-0.5,2.9-0.5c0.9,0,1.8,0.1,2.6,0.4s1.6,0.7,2.3,1.4l-1.2,1.3c-0.5-0.5-1-0.9-1.7-1.2
		s-1.4-0.4-2.1-0.4c-0.8,0-1.5,0.1-2.2,0.4c-0.7,0.3-1.3,0.7-1.8,1.2s-0.9,1.1-1.2,1.8s-0.4,1.5-0.4,2.3c0,0.8,0.1,1.6,0.4,2.3
		s0.7,1.3,1.2,1.8s1.1,0.9,1.8,1.2c0.7,0.3,1.5,0.4,2.3,0.4c0.6,0,1.1-0.1,1.8-0.2c0.6-0.1,1.2-0.3,1.7-0.6v-4.2h-3.2v-1.5h4.8v6.9
		H151.6z M163.9,22c0,1.7-0.4,2.9-1.3,3.8c-0.9,0.9-2.1,1.3-3.7,1.3c-0.9,0-1.7-0.1-2.4-0.4s-1.4-0.7-2.1-1.3l1.1-1.2
		c0.5,0.5,1,0.9,1.5,1.2c0.5,0.3,1.2,0.4,1.9,0.4s1.2-0.1,1.7-0.3c0.4-0.2,0.8-0.5,1.1-0.8s0.4-0.7,0.5-1.2c0.1-0.4,0.2-0.9,0.2-1.4
		v-1.2l0,0c-0.4,0.6-0.8,1-1.4,1.3s-1.2,0.4-1.8,0.4c-0.7,0-1.4-0.1-2-0.4s-1.1-0.6-1.5-1s-0.8-0.9-1-1.5s-0.4-1.2-0.4-1.9
		c0-0.7,0.1-1.4,0.4-2c0.2-0.6,0.6-1.1,1-1.5s0.9-0.7,1.5-0.9s1.3-0.3,2-0.3c0.3,0,0.6,0,0.9,0.1c0.3,0.1,0.6,0.2,0.9,0.3
		c0.3,0.1,0.6,0.3,0.8,0.6c0.2,0.2,0.4,0.5,0.6,0.8l0,0v-1.6h1.5V22z M155.9,17.9c0,0.5,0.1,0.9,0.3,1.3s0.4,0.7,0.7,1
		s0.6,0.5,1,0.7s0.8,0.3,1.2,0.3c0.5,0,1-0.1,1.4-0.3c0.4-0.2,0.7-0.4,1-0.7c0.3-0.3,0.5-0.7,0.6-1.1s0.2-0.8,0.2-1.3
		s-0.1-0.9-0.2-1.4s-0.4-0.8-0.7-1.1s-0.6-0.5-1-0.7s-0.8-0.2-1.3-0.2s-0.9,0.1-1.3,0.3s-0.7,0.4-1,0.7s-0.5,0.7-0.7,1.1
		S155.9,17.4,155.9,17.9z M167,8.6h1.6v5.9h7.4V8.6h1.6v13.8H176V16h-7.4v6.4H167V8.6z M180.8,7.7h1.5v6.9l0,0
		c0.1-0.2,0.2-0.4,0.4-0.5s0.4-0.3,0.7-0.5c0.3-0.1,0.5-0.3,0.8-0.4c0.3-0.1,0.6-0.1,1-0.1c0.6,0,1.1,0.1,1.6,0.3
		c0.4,0.2,0.8,0.4,1.1,0.8c0.3,0.3,0.5,0.7,0.6,1.2s0.2,1,0.2,1.5v5.6h-1.5V17c0-0.8-0.2-1.4-0.5-1.8c-0.3-0.4-0.9-0.7-1.6-0.7
		c-0.5,0-0.9,0.1-1.3,0.3c-0.4,0.2-0.7,0.4-0.9,0.7s-0.4,0.7-0.5,1.1s-0.2,0.9-0.2,1.4v4.5h-1.5L180.8,7.7L180.8,7.7z M192,8.6h1.6
		v13.8H192V8.6z M196.5,9.7c0-0.3,0.1-0.6,0.3-0.8s0.5-0.3,0.8-0.3s0.6,0.1,0.8,0.3s0.3,0.5,0.3,0.8s-0.1,0.6-0.3,0.8
		s-0.5,0.3-0.8,0.3s-0.6-0.1-0.8-0.3S196.5,10,196.5,9.7z M196.9,13.3h1.5v9.1h-1.5V13.3z M8.7,42.3c0,0.5-0.1,0.9-0.2,1.4
		S8.1,44.6,7.8,45s-0.7,0.7-1.2,0.9s-1.1,0.4-1.9,0.4c-1,0-1.8-0.2-2.4-0.7c-0.7-0.5-1.1-1.2-1.2-2.2l1.6-0.3c0.1,0.5,0.3,1,0.7,1.3
		c0.3,0.3,0.8,0.5,1.4,0.5c0.5,0,0.9-0.1,1.2-0.3c0.3-0.2,0.5-0.4,0.7-0.7S7,43.3,7,43c0.1-0.4,0.1-0.7,0.1-1.1V32h1.6V42.3z
		 M14.1,47.9c0,0.2,0,0.5-0.1,0.8s-0.2,0.6-0.4,0.9s-0.5,0.5-0.8,0.7c-0.4,0.2-0.8,0.3-1.4,0.3c-0.2,0-0.4,0-0.5,0s-0.3-0.1-0.5-0.2
		l0.2-1.3c0.2,0.1,0.5,0.1,0.7,0.1c0.3,0,0.5-0.1,0.7-0.2s0.3-0.2,0.4-0.4c0.1-0.2,0.2-0.4,0.2-0.6c0-0.2,0-0.5,0-0.7V36.7h1.5
		C14.1,36.7,14.1,47.9,14.1,47.9z M12.2,33.2c0-0.3,0.1-0.6,0.3-0.8s0.5-0.3,0.8-0.3s0.6,0.1,0.8,0.3s0.3,0.5,0.3,0.8
		s-0.1,0.6-0.3,0.8s-0.5,0.3-0.8,0.3s-0.6-0.1-0.8-0.3C12.3,33.7,12.2,33.5,12.2,33.2z M18,32h1.6v6h0.2l6.3-6h2.4l-6.8,6.3l7.2,7.5
		h-2.4l-6.6-7h-0.2v7H18V32z M30.6,31.1h1.5v9.6l4.2-4h2.2L34,40.9l4.9,5h-2.2l-4.5-4.8v4.8h-1.5V31.1H30.6z M41.2,32h1.6v12.3h6.3
		v1.5h-8V32H41.2z M51.4,31.1H53v14.8h-1.5L51.4,31.1L51.4,31.1z M56.9,32h2.4L64,42.9l0,0L68.8,32h2.4v13.8h-1.6V34.3l0,0l-5,11.6
		h-1l-5-11.6l0,0v11.6H57V32H56.9z M74.9,38.9c0-0.4,0-0.8,0-1.2s0-0.7,0-1h1.4c0,0.2,0,0.5,0,0.7s0,0.5,0,0.8l0,0
		c0.1-0.2,0.3-0.4,0.4-0.6c0.2-0.2,0.4-0.4,0.7-0.6c0.3-0.2,0.6-0.3,0.9-0.4c0.3-0.1,0.7-0.1,1.1-0.1c0.5,0,0.9,0.1,1.2,0.2
		c0.3,0.1,0.6,0.3,0.8,0.4c0.2,0.2,0.4,0.4,0.5,0.6c0.1,0.2,0.2,0.4,0.3,0.5c0.3-0.5,0.7-1,1.2-1.3c0.4-0.3,1-0.5,1.7-0.5
		s1.2,0.1,1.6,0.3s0.8,0.4,1.1,0.8s0.5,0.7,0.6,1.2s0.2,1,0.2,1.6v5.5h-1.5v-5.5c0-0.3,0-0.6-0.1-0.9c-0.1-0.3-0.2-0.6-0.4-0.8
		c-0.2-0.2-0.4-0.4-0.7-0.6c-0.3-0.1-0.7-0.2-1.1-0.2c-0.3,0-0.6,0.1-0.9,0.2c-0.3,0.1-0.5,0.3-0.8,0.5s-0.4,0.5-0.5,0.8
		s-0.2,0.7-0.2,1.1v5.3H81v-5.2c0-1-0.1-1.7-0.4-2.2c-0.3-0.4-0.7-0.6-1.3-0.6c-0.5,0-0.9,0.1-1.3,0.3s-0.7,0.4-0.9,0.7
		c-0.2,0.3-0.4,0.7-0.5,1.1c-0.1,0.4-0.2,0.9-0.2,1.4v4.5h-1.5C74.9,45.7,74.9,38.9,74.9,38.9z M92.4,32h2.1l8,11.5l0,0V32h1.6v13.8
		H102l-8-11.5l0,0v11.5h-1.6V32z M107.9,38.9c0-0.4,0-0.8,0-1.2s0-0.7,0-1h1.4c0,0.2,0,0.5,0,0.7s0,0.5,0,0.8l0,0
		c0.1-0.2,0.3-0.4,0.4-0.6c0.2-0.2,0.4-0.4,0.7-0.6c0.3-0.2,0.6-0.3,0.9-0.4s0.7-0.1,1.1-0.1c0.6,0,1.1,0.1,1.6,0.3
		c0.4,0.2,0.8,0.4,1.1,0.8c0.3,0.3,0.5,0.7,0.6,1.2s0.2,1,0.2,1.5v5.6h-1.5v-5.5c0-0.8-0.2-1.4-0.5-1.8c-0.3-0.4-0.9-0.7-1.6-0.7
		c-0.5,0-0.9,0.1-1.3,0.3s-0.7,0.4-0.9,0.7s-0.4,0.7-0.5,1.1s-0.2,0.9-0.2,1.4v4.5h-1.5C107.9,45.9,107.9,38.9,107.9,38.9z
		 M126,46.2c-1.1,0-2-0.2-2.9-0.5s-1.6-0.9-2.3-1.5s-1.1-1.4-1.5-2.3s-0.5-1.9-0.5-2.9s0.2-2,0.5-2.9c0.4-0.9,0.9-1.7,1.5-2.3
		s1.4-1.1,2.3-1.5c0.9-0.4,1.8-0.5,2.9-0.5s2,0.2,2.9,0.5c0.9,0.4,1.6,0.9,2.3,1.5s1.1,1.4,1.5,2.3c0.4,0.9,0.5,1.9,0.5,2.9
		s-0.2,2-0.5,2.9c-0.4,0.9-0.9,1.7-1.5,2.3s-1.4,1.1-2.3,1.5S127.1,46.2,126,46.2z M126,44.7c0.8,0,1.5-0.1,2.2-0.4
		c0.7-0.3,1.2-0.7,1.7-1.2s0.9-1.1,1.1-1.8c0.3-0.7,0.4-1.4,0.4-2.2s-0.1-1.5-0.4-2.2c-0.3-0.7-0.6-1.3-1.1-1.8s-1.1-0.9-1.7-1.2
		c-0.7-0.3-1.4-0.4-2.2-0.4c-0.8,0-1.5,0.1-2.2,0.4c-0.7,0.3-1.2,0.7-1.7,1.2s-0.9,1.1-1.1,1.8c-0.3,0.7-0.4,1.4-0.4,2.2
		s0.1,1.5,0.4,2.2s0.6,1.3,1.1,1.8s1.1,0.9,1.7,1.2S125.2,44.7,126,44.7z M135.7,41.3c0-0.7,0.1-1.4,0.4-2s0.6-1.1,1-1.5
		s0.9-0.8,1.5-1s1.2-0.4,2-0.4s1.4,0.1,2,0.4s1.1,0.6,1.5,1s0.8,0.9,1,1.5s0.4,1.2,0.4,2s-0.1,1.4-0.4,2c-0.2,0.6-0.6,1.1-1,1.5
		s-0.9,0.8-1.5,1s-1.2,0.4-2,0.4s-1.4-0.1-2-0.4s-1.1-0.6-1.5-1s-0.8-0.9-1-1.5S135.7,42,135.7,41.3z M137.3,41.3
		c0,0.5,0.1,0.9,0.2,1.3s0.4,0.8,0.7,1.1s0.6,0.5,1,0.7s0.8,0.3,1.3,0.3s0.9-0.1,1.3-0.3c0.4-0.2,0.7-0.4,1-0.7s0.5-0.7,0.7-1.1
		c0.1-0.4,0.2-0.9,0.2-1.3s-0.1-0.9-0.2-1.3c-0.2-0.4-0.4-0.8-0.7-1.1s-0.6-0.5-1-0.7s-0.8-0.3-1.3-0.3s-0.9,0.1-1.3,0.3
		s-0.7,0.4-1,0.7s-0.5,0.7-0.7,1.1S137.3,40.8,137.3,41.3z M148.7,32h4.1c0.6,0,1.2,0.1,1.8,0.2c0.6,0.1,1.1,0.3,1.5,0.6
		s0.8,0.7,1.1,1.2s0.4,1.1,0.4,1.8c0,0.8-0.1,1.4-0.4,1.9c-0.3,0.5-0.7,0.9-1.1,1.2c-0.4,0.3-0.9,0.5-1.5,0.6
		c-0.5,0.1-1,0.2-1.5,0.2h-2.8v6.2h-1.6V32z M150.3,38.1h2.8c0.8,0,1.5-0.2,2-0.6c0.5-0.4,0.8-0.9,0.8-1.7s-0.3-1.4-0.8-1.7
		c-0.5-0.4-1.2-0.6-2-0.6h-2.8V38.1z M160.5,36.7h1.5V38l0,0c0.4-0.5,0.9-0.9,1.5-1.2s1.2-0.4,1.8-0.4c0.7,0,1.4,0.1,2,0.4
		c0.6,0.2,1.1,0.6,1.5,1s0.7,0.9,1,1.5s0.4,1.2,0.4,1.9s-0.1,1.3-0.4,1.9s-0.6,1.1-1,1.5s-0.9,0.8-1.5,1s-1.2,0.4-1.8,0.4
		c-0.8,0-1.5-0.2-2.2-0.5s-1.1-0.8-1.4-1.3l0,0v6.1h-1.5L160.5,36.7L160.5,36.7z M162,41.3c0,0.5,0.1,0.9,0.2,1.3s0.4,0.8,0.7,1.1
		s0.6,0.5,1,0.7s0.8,0.3,1.3,0.3s0.9-0.1,1.3-0.3c0.4-0.2,0.7-0.4,1-0.7s0.5-0.7,0.7-1.1c0.1-0.4,0.2-0.9,0.2-1.3s-0.1-0.9-0.2-1.3
		c-0.2-0.4-0.4-0.8-0.7-1.1s-0.6-0.5-1-0.7s-0.8-0.3-1.3-0.3s-0.9,0.1-1.3,0.3s-0.7,0.4-1,0.7s-0.5,0.7-0.7,1.1S162,40.8,162,41.3z
		 M187.7,45.9h-8c-1,0-2-0.2-2.8-0.5s-1.6-0.9-2.2-1.5s-1.1-1.4-1.5-2.2s-0.5-1.8-0.5-2.8s0.2-1.9,0.5-2.8c0.4-0.9,0.9-1.6,1.5-2.2
		c0.6-0.6,1.4-1.1,2.2-1.5c0.9-0.4,1.8-0.5,2.8-0.5s2,0.2,2.8,0.5c0.9,0.4,1.6,0.9,2.2,1.5c0.6,0.6,1.1,1.4,1.5,2.2
		c0.4,0.9,0.5,1.8,0.5,2.8c0,0.6-0.1,1.2-0.2,1.7s-0.4,1.1-0.7,1.6s-0.6,1-1.1,1.3s-0.9,0.7-1.4,0.9l0,0h4.3L187.7,45.9L187.7,45.9z
		 M174.3,38.8c0,0.8,0.1,1.5,0.4,2.2s0.6,1.3,1.1,1.8s1,0.9,1.7,1.2s1.4,0.4,2.1,0.4c0.8,0,1.5-0.1,2.1-0.4c0.7-0.3,1.2-0.7,1.7-1.2
		s0.8-1.1,1.1-1.8s0.4-1.4,0.4-2.2s-0.1-1.5-0.4-2.2c-0.3-0.7-0.6-1.3-1.1-1.8s-1-0.9-1.7-1.2s-1.4-0.4-2.1-0.4s-1.5,0.1-2.1,0.4
		s-1.2,0.7-1.7,1.2s-0.8,1.1-1.1,1.8C174.5,37.3,174.3,38,174.3,38.8z M199.1,50.3h-1.5v-5.8l0,0c-0.4,0.5-0.9,0.9-1.5,1.2
		s-1.2,0.4-1.8,0.4c-0.7,0-1.4-0.1-2-0.4s-1.1-0.6-1.5-1s-0.7-0.9-1-1.5s-0.4-1.2-0.4-1.9s0.1-1.3,0.4-1.9s0.6-1.1,1-1.5
		s0.9-0.8,1.5-1s1.2-0.4,1.8-0.4c0.8,0,1.5,0.2,2.2,0.5c0.6,0.4,1.1,0.8,1.4,1.3l0,0v-1.6h1.5L199.1,50.3L199.1,50.3z M197.6,41.3
		c0-0.5-0.1-0.9-0.2-1.3c-0.2-0.4-0.4-0.8-0.7-1.1s-0.6-0.5-1-0.7s-0.8-0.3-1.3-0.3s-0.9,0.1-1.3,0.3s-0.7,0.4-1,0.7
		s-0.5,0.7-0.7,1.1s-0.2,0.9-0.2,1.3s0.1,0.9,0.2,1.3s0.4,0.8,0.7,1.1s0.6,0.5,1,0.7s0.8,0.3,1.3,0.3s0.9-0.1,1.3-0.3
		c0.4-0.2,0.7-0.4,1-0.7s0.5-0.7,0.7-1.1C197.5,42.2,197.6,41.8,197.6,41.3z M2.7,55.5h3.5c0.7,0,1.3,0,2,0.1s1.2,0.2,1.8,0.5
		c0.5,0.3,0.9,0.6,1.3,1.1c0.3,0.5,0.5,1.2,0.5,2c0,1-0.3,1.8-0.9,2.5c-0.6,0.6-1.5,1-2.5,1.2l3.9,6.4h-2l-3.8-6.2H4.4v6.2H2.7V55.5
		z M4.4,61.6h1.5c0.5,0,0.9,0,1.4,0s0.9-0.1,1.3-0.3c0.4-0.1,0.7-0.4,1-0.7s0.4-0.7,0.4-1.3c0-0.5-0.1-0.9-0.3-1.2s-0.5-0.5-0.8-0.7
		s-0.7-0.3-1.1-0.3C7.5,57,7.1,57,6.7,57H4.4V61.6z M14.4,62.3c0-0.4,0-0.8,0-1.2s0-0.7,0-1h1.4c0,0.2,0,0.5,0,0.7s0,0.5,0,0.8l0,0
		c0.1-0.2,0.3-0.4,0.4-0.6c0.2-0.2,0.4-0.4,0.7-0.6c0.3-0.2,0.6-0.3,0.9-0.4c0.3-0.1,0.7-0.1,1.1-0.1c0.1,0,0.2,0,0.3,0
		c0.1,0,0.2,0,0.3,0.1l-0.1,1.5c-0.3-0.1-0.5-0.1-0.8-0.1c-0.9,0-1.6,0.3-2,0.9c-0.4,0.6-0.6,1.4-0.6,2.5v4.5h-1.5L14.4,62.3
		L14.4,62.3z M28.1,57.9c-0.3-0.4-0.6-0.8-1.1-1s-0.9-0.3-1.4-0.3c-0.4,0-0.7,0-1.1,0.1s-0.7,0.2-0.9,0.4c-0.3,0.2-0.5,0.4-0.7,0.7
		s-0.3,0.7-0.3,1.1c0,0.3,0,0.6,0.1,0.8s0.3,0.5,0.5,0.7s0.5,0.4,0.9,0.5c0.4,0.2,0.8,0.3,1.4,0.5c0.5,0.2,1.1,0.4,1.6,0.5
		c0.5,0.2,0.9,0.4,1.3,0.7s0.7,0.7,0.9,1.1c0.2,0.4,0.3,1,0.3,1.7c0,0.7-0.1,1.3-0.4,1.8s-0.6,0.9-1.1,1.3s-1,0.6-1.6,0.7
		s-1.2,0.2-1.8,0.2c-0.4,0-0.8,0-1.2-0.1c-0.4-0.1-0.8-0.2-1.2-0.3s-0.7-0.3-1-0.6c-0.3-0.2-0.6-0.5-0.8-0.9l1.4-1.2
		c0.3,0.5,0.7,0.9,1.2,1.2c0.5,0.3,1.1,0.4,1.7,0.4c0.4,0,0.7-0.1,1.1-0.2s0.7-0.3,1-0.5s0.5-0.5,0.7-0.8s0.3-0.6,0.3-1
		s-0.1-0.8-0.2-1c-0.1-0.3-0.4-0.5-0.7-0.7c-0.3-0.2-0.7-0.4-1.1-0.5c-0.5-0.2-1-0.3-1.6-0.5c-0.5-0.2-1-0.3-1.4-0.5
		s-0.8-0.4-1.1-0.7c-0.3-0.3-0.5-0.6-0.7-1.1s-0.3-0.9-0.3-1.5c0-0.7,0.1-1.2,0.4-1.7s0.6-0.9,1.1-1.2c0.4-0.3,0.9-0.6,1.5-0.8
		s1.1-0.3,1.8-0.3c0.8,0,1.5,0.1,2.1,0.4c0.6,0.2,1.2,0.7,1.7,1.3L28.1,57.9z M32.3,66.9c0.3,0.4,0.6,0.7,1,0.9
		c0.4,0.2,0.8,0.3,1.4,0.3c0.2,0,0.5,0,0.7-0.1s0.5-0.1,0.7-0.3s0.4-0.3,0.5-0.4s0.2-0.4,0.2-0.6s-0.1-0.4-0.2-0.6
		c-0.1-0.2-0.3-0.3-0.4-0.4c-0.2-0.1-0.4-0.2-0.6-0.3s-0.5-0.1-0.7-0.2c-0.4-0.1-0.8-0.2-1.2-0.3s-0.7-0.3-1-0.5S32.2,64,32,63.7
		s-0.3-0.7-0.3-1.2c0-0.4,0.1-0.8,0.3-1.2c0.2-0.3,0.5-0.6,0.8-0.8s0.7-0.4,1.1-0.5c0.4-0.1,0.8-0.2,1.2-0.2c0.7,0,1.3,0.1,1.8,0.4
		c0.6,0.3,1,0.7,1.3,1.3l-1.3,0.8c-0.2-0.3-0.5-0.6-0.8-0.8s-0.7-0.3-1.2-0.3c-0.2,0-0.4,0-0.6,0.1c-0.2,0.1-0.4,0.1-0.6,0.2
		c-0.2,0.1-0.3,0.2-0.4,0.4c-0.1,0.2-0.2,0.3-0.2,0.6c0,0.2,0.1,0.4,0.2,0.5c0.1,0.1,0.3,0.3,0.5,0.4s0.5,0.2,0.7,0.3
		c0.3,0.1,0.6,0.1,0.9,0.2c0.4,0.1,0.8,0.2,1.2,0.3c0.4,0.1,0.7,0.3,1,0.5s0.5,0.5,0.6,0.8s0.2,0.7,0.2,1.2s-0.1,1-0.3,1.3
		c-0.2,0.4-0.5,0.7-0.8,0.9c-0.3,0.2-0.7,0.4-1.2,0.5c-0.4,0.1-0.9,0.2-1.3,0.2c-0.8,0-1.5-0.1-2-0.4s-1.1-0.7-1.5-1.3L32.3,66.9z
		 M50,57h-4.6v12.3h-1.6V57h-4.6v-1.5H50V57z M56.6,61.5h-2.7V66c0,0.3,0,0.6,0,0.8c0,0.3,0.1,0.5,0.2,0.7c0.1,0.2,0.2,0.3,0.4,0.4
		s0.4,0.2,0.8,0.2c0.2,0,0.4,0,0.7-0.1s0.5-0.1,0.7-0.2l0.1,1.4c-0.3,0.1-0.6,0.2-0.9,0.3c-0.3,0.1-0.6,0.1-0.9,0.1
		c-0.5,0-1-0.1-1.3-0.2s-0.6-0.3-0.8-0.6c-0.2-0.3-0.3-0.6-0.4-1s-0.1-0.8-0.1-1.3v-5h-2v-1.3h2v-2.6h1.5v2.6h2.7V61.5z M69.2,64
		c0,0.8-0.1,1.5-0.3,2.1c-0.2,0.7-0.5,1.3-0.9,1.8s-0.9,0.9-1.6,1.2s-1.5,0.5-2.4,0.5c-1,0-1.8-0.2-2.4-0.5s-1.2-0.7-1.6-1.2
		s-0.7-1.1-0.9-1.8c-0.2-0.7-0.3-1.4-0.3-2.1v-8.6h1.6v8.3c0,0.6,0.1,1.1,0.2,1.6s0.3,1,0.6,1.4s0.6,0.7,1.1,1
		c0.5,0.2,1,0.4,1.7,0.4s1.3-0.1,1.7-0.4c0.5-0.2,0.8-0.6,1.1-1s0.5-0.9,0.6-1.4s0.2-1.1,0.2-1.6v-8.3h1.6L69.2,64L69.2,64z
		 M80.2,67.1c0,0.4,0,0.8,0,1.2c0,0.4,0,0.7,0,1h-1.4c0-0.2,0-0.5,0-0.7s0-0.5,0-0.8l0,0c-0.1,0.2-0.3,0.4-0.4,0.6
		c-0.2,0.2-0.4,0.4-0.7,0.6c-0.3,0.2-0.6,0.3-0.9,0.4s-0.7,0.1-1.1,0.1c-0.6,0-1.1-0.1-1.6-0.3c-0.4-0.2-0.8-0.4-1.1-0.8
		c-0.3-0.3-0.5-0.7-0.6-1.2s-0.2-1-0.2-1.5v-5.6h1.5v5.5c0,0.8,0.2,1.4,0.5,1.8s0.9,0.7,1.6,0.7c0.5,0,0.9-0.1,1.3-0.3
		c0.4-0.2,0.7-0.4,0.9-0.7c0.2-0.3,0.4-0.7,0.5-1.1s0.2-0.9,0.2-1.4v-4.5h1.5C80.2,60.1,80.2,67.1,80.2,67.1z M81.5,55.5h1.9
		l4.3,11.4l0,0l4.4-11.4h1.7l-5.4,13.8h-1.6L81.5,55.5z M99.2,69.3h-1.7l-3.7-9.1h1.8l2.9,7.2l0,0l2.7-7.2h1.6L99.2,69.3z
		 M103.1,55.5h1.8L108,67l0,0l3.4-11.5h1.8l3.4,11.5l0,0l3.2-11.5h1.7l-4.1,13.8h-1.8l-3.4-11.7l0,0L109,69.3h-1.8L103.1,55.5z
		 M133.1,69.3h-1.5l-2.6-7l0,0l-2.3,7h-1.6l-3-9.1h1.7l2.1,7l0,0l2.4-7h1.6l2.4,7l0,0l2.1-7h1.6L133.1,69.3z M141.3,62l-4.6-6.5h2.1
		l3.7,5.4l3.7-5.4h2.1l-4.6,6.5l5.1,7.3h-2.2l-4.1-6.1l-4.1,6.1h-2L141.3,62z M152.4,64.4l-3.3-4.2h2l2.4,3.3l2.3-3.3h1.9l-3.1,4.2
		l3.8,4.9h-2l-2.9-3.9l-2.9,3.9h-1.9L152.4,64.4z M163.4,63.3l-5.2-7.9h2.1l3.9,6.2l4-6.2h2l-5.2,7.9v6h-1.6V63.3z M174.8,71.4
		c-0.2,0.4-0.3,0.7-0.5,1.1s-0.4,0.6-0.6,0.8s-0.5,0.4-0.8,0.5s-0.7,0.2-1.2,0.2c-0.2,0-0.5,0-0.7,0s-0.5-0.1-0.7-0.2l0.2-1.3
		c0.2,0.1,0.3,0.1,0.5,0.1s0.4,0,0.6,0c0.5,0,0.9-0.1,1.1-0.4s0.4-0.6,0.6-1.1l0.6-1.7l-3.8-9.2h1.8l2.8,7.2l0,0l2.7-7.2h1.7
		L174.8,71.4z M180,67.8l8-10.8h-7.9v-1.5h9.9v1.4l-8,10.9h8.1v1.5H180V67.8z M191.2,68.1l5.4-6.7h-5.1v-1.3h7.1v1.2l-5.4,6.7h5.5
		v1.3h-7.5V68.1z"/>
</g>
<g id="Layer_3">
	<path d="M12.2,20.9l-1.2-3.1H6.6l-1.2,3.1h-3L7.3,7.8h3l4.8,13.1H12.2z M8.8,10.8l-1.3,4.6h2.7L8.8,10.8z M25.7,20.9H23v-1
		c-0.3,0.4-0.7,0.7-1.2,0.9s-1,0.3-1.4,0.3c-1.2,0-2.3-0.4-3.2-1.3s-1.4-2-1.4-3.3c0-1.4,0.5-2.5,1.4-3.3s2-1.3,3.2-1.3
		c0.5,0,1,0.1,1.5,0.3c0.5,0.2,0.9,0.5,1.1,0.9v-1h2.6V20.9z M20.9,18.5c0.6,0,1.1-0.2,1.5-0.6c0.4-0.4,0.6-0.9,0.6-1.5
		c0-0.6-0.2-1.1-0.6-1.5c-0.4-0.4-0.9-0.6-1.5-0.6c-0.6,0-1.1,0.2-1.6,0.6c-0.4,0.4-0.7,0.9-0.7,1.5c0,0.6,0.2,1.1,0.7,1.5
		C19.8,18.3,20.3,18.5,20.9,18.5z M37.5,11.4c0,0.5-0.1,1-0.4,1.5c-0.3,0.4-0.7,0.8-1.3,1c0.8,0.2,1.3,0.6,1.7,1.2
		c0.4,0.6,0.6,1.2,0.6,1.8c0,1.1-0.4,2.1-1.1,2.8c-0.7,0.8-1.7,1.2-3,1.2h-5.5V7.8h5.2c1.2,0,2.1,0.3,2.8,1
		C37.1,9.4,37.5,10.3,37.5,11.4z M31.3,10.2V13h2.2c0.3,0,0.6-0.1,0.9-0.4c0.2-0.2,0.4-0.6,0.4-1c0-0.4-0.1-0.8-0.3-1
		c-0.2-0.2-0.5-0.4-0.9-0.4H31.3z M33.9,15.3h-2.6v3.2H34c0.4,0,0.8-0.2,1-0.5c0.2-0.3,0.4-0.7,0.4-1.1c0-0.4-0.1-0.8-0.4-1.1
		C34.7,15.4,34.4,15.3,33.9,15.3z M43,20.9h-2.6V7.2H43v5.9c0.2-0.4,0.6-0.7,1-0.9c0.5-0.2,1-0.4,1.6-0.4c1.2,0,2.2,0.4,3.1,1.3
		c0.9,0.8,1.3,2,1.3,3.3c0,1.4-0.4,2.5-1.3,3.3c-0.9,0.8-1.9,1.3-3.1,1.3c-0.6,0-1.1-0.1-1.6-0.3c-0.5-0.2-0.8-0.5-1-1V20.9z
		 M43.1,16.4c0,0.6,0.2,1.1,0.6,1.6c0.4,0.4,0.9,0.6,1.5,0.6c0.6,0,1-0.2,1.4-0.6c0.4-0.4,0.6-0.9,0.6-1.5s-0.2-1.1-0.6-1.5
		c-0.4-0.4-0.9-0.6-1.5-0.6s-1.1,0.2-1.5,0.6C43.3,15.3,43.1,15.8,43.1,16.4z M51.5,14.4c0-1.9,0.6-3.5,1.9-4.8
		c1.3-1.3,2.8-2,4.7-1.9c1.1,0,2.2,0.3,3.1,0.7c1,0.5,1.7,1.2,2.3,2L61.3,12c-0.8-1.1-1.8-1.7-3.2-1.7c-1.1,0-2,0.4-2.7,1.2
		c-0.7,0.8-1.1,1.8-1.1,2.9s0.4,2.1,1.1,2.9c0.7,0.8,1.6,1.2,2.7,1.2c0.7,0,1.3-0.2,1.8-0.5c0.5-0.3,1-0.7,1.4-1.3l2.2,1.6
		c-0.6,0.9-1.4,1.6-2.3,2.1c-1,0.5-2,0.8-3.2,0.7c-1.9,0-3.4-0.6-4.7-1.9C52.1,17.8,51.5,16.2,51.5,14.4z M69.7,11.8
		c0.8,0,1.5,0.2,2.2,0.5s1.2,0.8,1.7,1.4l-2.2,1.5c-0.4-0.6-0.9-0.9-1.6-0.9c-0.7,0-1.2,0.2-1.7,0.6c-0.4,0.4-0.7,0.9-0.7,1.5
		c0,0.6,0.2,1.1,0.7,1.5c0.4,0.4,1,0.6,1.7,0.6c0.7,0,1.2-0.3,1.6-0.9l2.2,1.5c-0.4,0.6-1,1.1-1.7,1.4c-0.7,0.3-1.4,0.5-2.2,0.5
		c-1.3,0-2.5-0.4-3.4-1.3c-1-0.9-1.4-2-1.4-3.3c0-1.4,0.5-2.5,1.5-3.3C67.3,12.2,68.4,11.8,69.7,11.8z M80.9,20.9h-5.1V7.8h5.1
		c1.8,0,3.3,0.6,4.3,1.9s1.6,2.8,1.6,4.7c0,1.9-0.5,3.5-1.6,4.7S82.8,20.9,80.9,20.9z M80.9,10.3h-2.4v8.1h2.4c1,0,1.8-0.4,2.3-1.1
		c0.5-0.8,0.8-1.7,0.8-2.9c0-1.2-0.3-2.1-0.8-2.9C82.7,10.7,81.9,10.3,80.9,10.3z M98.1,7.2v13.7h-2.6v-1.1c-0.2,0.4-0.6,0.7-1,1
		c-0.5,0.2-1,0.3-1.6,0.3c-1.2,0-2.2-0.4-3.1-1.3c-0.8-0.9-1.3-2-1.3-3.3s0.4-2.5,1.3-3.3c0.9-0.9,1.9-1.3,3-1.3
		c0.6,0,1.1,0.1,1.6,0.4c0.5,0.2,0.8,0.5,1,0.9V7.2H98.1z M95.4,16.4c0-0.6-0.2-1.1-0.6-1.5c-0.4-0.4-0.9-0.6-1.5-0.6
		c-0.6,0-1.1,0.2-1.5,0.6c-0.4,0.4-0.6,0.9-0.6,1.5c0,0.6,0.2,1.1,0.6,1.5c0.4,0.4,0.9,0.6,1.4,0.6c0.6,0,1.1-0.2,1.5-0.6
		C95.2,17.5,95.4,17,95.4,16.4z M109.4,20.9h-8.5V7.8h8.3v2.4h-5.5v3h4.8v2.4h-4.8v2.8h5.7V20.9z M111.1,16.4c0-1.4,0.4-2.5,1.3-3.3
		c0.9-0.8,2-1.3,3.3-1.3c1.3,0,2.4,0.4,3.3,1.3c0.9,0.9,1.3,2,1.3,3.4c0,0,0,0.3,0,0.8h-6.5c0,0.5,0.3,0.8,0.7,1.1
		c0.4,0.3,0.9,0.4,1.5,0.4c0.8,0,1.5-0.3,1.9-0.8l1.9,1.3c-0.8,1.2-2.2,1.8-4.1,1.8c-1.3,0-2.4-0.4-3.3-1.3
		C111.6,18.9,111.1,17.8,111.1,16.4z M113.8,15.7h3.8c-0.1-0.5-0.3-0.9-0.6-1.1c-0.4-0.3-0.8-0.4-1.2-0.4s-0.9,0.1-1.2,0.4
		C114.2,14.8,113.9,15.2,113.8,15.7z M125.4,20.9h-2.8V7.8h8.2v2.4h-5.4v3h4.3v2.4h-4.3V20.9z M137.5,7.2h1v2.5h-1
		c-0.9,0-1.4,0.6-1.4,1.7V12h1.8v1.9h-1.8v6.9h-2.6v-6.9h-1.7V12h1.7v-0.6c0-1.4,0.3-2.4,1-3.1C135.2,7.5,136.2,7.2,137.5,7.2z
		 M146,10.2c-1.1,0-2.1,0.4-2.8,1.2c-0.7,0.8-1.1,1.8-1.1,3c0,1.1,0.4,2.1,1.1,2.9c0.8,0.8,1.7,1.2,2.8,1.2c0.8,0,1.5-0.2,2.1-0.6
		c0.7-0.4,1-1,1-1.6h-3.5V14h6.7c0,2.4-0.6,4.2-1.7,5.3c-1.2,1.2-2.7,1.7-4.6,1.7s-3.5-0.6-4.8-1.9c-1.3-1.3-1.9-2.9-1.9-4.7
		c0-1.9,0.6-3.4,1.9-4.8c1.3-1.3,2.9-2,4.8-2c1,0,1.9,0.2,2.8,0.5c0.8,0.4,1.6,0.9,2.1,1.6l-2.1,1.8C148.1,10.7,147.1,10.2,146,10.2
		z M158.3,22.9c1.8,0,2.6-1,2.5-3.1c-0.2,0.4-0.6,0.7-1,0.9c-0.5,0.2-1,0.4-1.6,0.4c-1.2,0-2.2-0.4-3.1-1.3c-0.9-0.9-1.3-2-1.3-3.3
		s0.4-2.5,1.3-3.3c0.9-0.9,1.9-1.3,3.1-1.3c0.6,0,1.1,0.1,1.6,0.4c0.5,0.2,0.8,0.5,1.1,0.9V12h2.6v7.6c0,1.8-0.4,3.3-1.3,4.2
		c-0.9,1-2.1,1.4-3.8,1.4c-1,0-1.9-0.3-2.6-0.8c-0.8-0.5-1.4-1.2-1.8-2.1l2.2-1c0.2,0.4,0.5,0.7,0.9,1
		C157.4,22.7,157.9,22.9,158.3,22.9z M160.7,16.4c0-0.6-0.2-1.1-0.6-1.5c-0.4-0.4-0.9-0.6-1.5-0.6s-1.1,0.2-1.5,0.6
		c-0.4,0.4-0.6,0.9-0.6,1.5c0,0.6,0.2,1.1,0.6,1.5c0.4,0.4,0.9,0.6,1.5,0.6s1.1-0.2,1.5-0.6C160.5,17.5,160.7,17,160.7,16.4z
		 M173.6,13.1V7.8h2.8v13.1h-2.8v-5.3H169v5.3h-2.8V7.8h2.8v5.3H173.6z M182,16.2v4.7h-2.6V7.2h2.6v6.2c0.2-0.5,0.5-0.9,1-1.2
		c0.5-0.3,1-0.4,1.5-0.4c1.2,0,2,0.4,2.6,1.1c0.6,0.7,0.9,1.8,0.9,3.1v4.8h-2.6v-4.7c0-0.5-0.2-1-0.5-1.3c-0.3-0.3-0.7-0.5-1.2-0.5
		s-0.9,0.2-1.2,0.5S182,15.6,182,16.2z M190.8,20.9V7.8h2.8v13.1H190.8z M196.1,8.7c0-0.4,0.2-0.8,0.5-1.1c0.3-0.3,0.7-0.4,1.1-0.4
		s0.8,0.1,1.2,0.4c0.3,0.3,0.5,0.7,0.5,1.1c0,0.4-0.2,0.8-0.5,1.1c-0.3,0.3-0.7,0.5-1.2,0.5s-0.8-0.2-1.1-0.5
		C196.2,9.5,196.1,9.2,196.1,8.7z M196.4,12h2.6v8.9h-2.6V12z M2.4,45.5c1.1,0,1.6-0.6,1.6-1.8V30.6h2.8v13.1c0,1.3-0.4,2.4-1.1,3.2
		S4,48.2,2.6,48.2c-0.3,0-1-0.1-1.9-0.3l0.3-2.5C1.4,45.5,1.9,45.5,2.4,45.5z M10.1,48.1H8.5v-2.4h1.2c0.8,0,1.2-0.5,1.2-1.4v-9.5
		h2.6v9.5c0,1.3-0.3,2.2-0.8,2.9C12.2,47.8,11.3,48.1,10.1,48.1z M10.5,31.5c0-0.4,0.2-0.8,0.5-1.1c0.3-0.3,0.7-0.5,1.2-0.5
		s0.8,0.2,1.2,0.5c0.3,0.3,0.5,0.6,0.5,1.1c0,0.4-0.2,0.8-0.5,1.1c-0.3,0.3-0.7,0.5-1.2,0.5s-0.8-0.2-1.2-0.5
		C10.7,32.3,10.5,31.9,10.5,31.5z M20.3,43.7h-2.8V30.6h2.8v4.3l3.1-4.3h3.3l-5,6.5l6.1,6.6h-3.6l-3.9-4.4V43.7z M32.6,43.7H30V30
		h2.6v7.3l2.1-2.4h3.4l-3.7,3.9l4.4,5h-3.2l-3-3.5V43.7z M49.2,43.7h-7.7V30.6h2.8v10.6h4.9V43.7z M52.1,43.7V30h2.6v13.7H52.1z
		 M62,30.6l3.9,8.4l3.9-8.4h2.3l1.6,13.1H71l-1-7.8l-3,6.3h-2.1l-3.1-6.3l-1,7.8H58l1.6-13.1H62z M86.8,37.2c-0.5,0-0.8,0.1-1.1,0.4
		c-0.3,0.3-0.4,0.7-0.4,1.4v4.7h-2.6v-4.8c0-0.5-0.2-1-0.4-1.3c-0.3-0.3-0.6-0.5-1.1-0.5c-0.4,0-0.8,0.1-1.1,0.4
		c-0.3,0.3-0.4,0.7-0.4,1.4v4.7H77v-8.9h2.6v1.3c0.2-0.5,0.5-0.8,0.9-1.1c0.4-0.3,0.9-0.4,1.4-0.4c1.4,0,2.4,0.5,2.8,1.6
		c0.6-1,1.5-1.6,2.6-1.6s2,0.3,2.6,1c0.6,0.7,0.9,1.7,0.9,3v5h-2.6v-4.7c0-0.5-0.1-1-0.4-1.3C87.6,37.3,87.2,37.2,86.8,37.2z
		 M101.8,30.6h2.8v13.1h-2.5l-4.5-7.9v7.9h-2.8V30.6h2.6l4.5,7.8V30.6z M111.2,39v4.7h-2.6v-8.9h2.6v1.3c0.3-0.5,0.6-0.8,1.1-1.1
		s1-0.4,1.5-0.4c1,0,1.8,0.3,2.4,1c0.6,0.6,0.9,1.6,0.9,2.8v5.3h-2.6V39c0-0.6-0.1-1-0.4-1.3c-0.3-0.3-0.7-0.5-1.1-0.5
		C111.8,37.2,111.2,37.8,111.2,39z M120.2,37.2c0-1.9,0.6-3.5,1.9-4.8c1.3-1.3,2.9-1.9,4.7-1.9s3.4,0.6,4.7,1.9
		c1.3,1.3,1.9,2.9,1.9,4.8s-0.6,3.5-1.9,4.8c-1.3,1.3-2.9,1.9-4.7,1.9c-1.8,0-3.4-0.6-4.7-1.9C120.8,40.7,120.2,39.1,120.2,37.2z
		 M124.1,40c0.7,0.8,1.7,1.2,2.7,1.2c1.1,0,2-0.4,2.8-1.2c0.7-0.8,1.1-1.8,1.1-2.9s-0.4-2.1-1.1-2.9c-0.7-0.8-1.7-1.2-2.8-1.2
		c-1.1,0-2,0.4-2.7,1.2c-0.7,0.8-1.1,1.8-1.1,2.9S123.4,39.2,124.1,40z M140.8,34.6c1.3,0,2.4,0.4,3.3,1.3c0.9,0.9,1.3,2,1.4,3.3
		c0,1.4-0.5,2.5-1.4,3.3c-0.9,0.9-2,1.3-3.3,1.3s-2.4-0.4-3.3-1.3c-0.9-0.8-1.3-2-1.3-3.3s0.4-2.5,1.3-3.3S139.5,34.6,140.8,34.6z
		 M139.4,40.7c0.4,0.4,0.9,0.6,1.4,0.6c0.6,0,1-0.2,1.4-0.6c0.4-0.4,0.6-0.9,0.6-1.4c0-0.6-0.2-1.1-0.6-1.5s-0.9-0.6-1.4-0.6
		c-0.6,0-1,0.2-1.4,0.6c-0.4,0.4-0.6,0.9-0.6,1.5C138.8,39.8,139,40.3,139.4,40.7z M151.6,43.7h-2.8V30.6h5.4c1.4,0,2.5,0.4,3.2,1.3
		c0.7,0.8,1.1,1.8,1.1,3c0,1.2-0.4,2.2-1.1,3c-0.7,0.8-1.8,1.2-3.2,1.2h-2.6V43.7z M154.1,33h-2.5v3.7h2.4c0.5,0,0.9-0.2,1.2-0.5
		c0.3-0.4,0.5-0.8,0.5-1.3c0-0.5-0.1-0.9-0.4-1.3S154.6,33,154.1,33z M161.4,48V34.8h2.6v1.1c0.2-0.4,0.6-0.7,1-0.9
		c0.5-0.2,1-0.3,1.6-0.3c1.2,0,2.2,0.4,3,1.3c0.8,0.9,1.3,2,1.3,3.3c0,1.4-0.4,2.5-1.3,3.3s-1.9,1.3-3.1,1.3c-0.6,0-1.1-0.1-1.6-0.4
		s-0.8-0.5-1-0.9V48H161.4z M164.1,39.3c0,0.6,0.2,1.1,0.6,1.5s0.9,0.6,1.4,0.6c0.6,0,1.1-0.2,1.5-0.6c0.4-0.4,0.6-0.9,0.6-1.5
		c0-0.6-0.2-1.1-0.6-1.5c-0.4-0.4-0.9-0.6-1.5-0.6c-0.6,0-1,0.2-1.5,0.6C164.3,38.2,164.1,38.7,164.1,39.3z M173.6,37.2
		c0-1.9,0.6-3.5,1.9-4.8c1.3-1.3,2.9-2,4.8-2c1.9,0,3.5,0.7,4.8,2s1.9,2.9,1.9,4.8c0,1.1-0.3,2.1-0.8,3.1c-0.5,1-1.2,1.8-2.1,2.4
		l1.3,2.1l-2,1.2l-1.4-2.3c-0.6,0.2-1.2,0.2-1.8,0.2c-1.9,0-3.5-0.6-4.8-1.9C174.3,40.6,173.6,39.1,173.6,37.2z M184.3,37.3
		c0-1.3-0.4-2.3-1.2-3.1c-0.8-0.8-1.7-1.2-2.8-1.2s-2,0.4-2.8,1.2c-0.7,0.8-1.1,1.8-1.1,2.8c0,1,0.3,1.9,0.9,2.7
		c0.6,0.7,1.3,1.2,2.2,1.4c0.3,0.1,0.7,0.1,1.1,0.1l-1-1.8l2-1.2l1.3,2.1C183.8,39.6,184.3,38.6,184.3,37.3z M196.7,34.8h2.6V48
		h-2.6v-5.4c-0.2,0.4-0.5,0.7-1,0.9c-0.5,0.2-1,0.3-1.6,0.3c-1.2,0-2.2-0.4-3-1.3c-0.8-0.9-1.3-2-1.3-3.3s0.4-2.5,1.3-3.3
		c0.9-0.9,1.9-1.3,3-1.3c0.6,0,1.1,0.1,1.6,0.3c0.5,0.2,0.8,0.5,1,0.9V34.8z M194.6,41.4c0.6,0,1-0.2,1.4-0.6
		c0.4-0.4,0.6-0.9,0.6-1.5c0-0.6-0.2-1.1-0.6-1.5c-0.4-0.4-0.9-0.6-1.4-0.6c-0.6,0-1.1,0.2-1.5,0.6c-0.4,0.4-0.6,0.9-0.6,1.5
		s0.2,1.1,0.6,1.5C193.6,41.2,194,41.4,194.6,41.4z M6.9,62v4.5H4.1V53.4h5.3c1.4,0,2.4,0.4,3.2,1.3c0.7,0.8,1.1,1.8,1.1,2.9
		c0,1.1-0.3,2-0.8,2.8c-0.5,0.8-1.3,1.2-2.3,1.5l3.1,4.6h-3.2L7.5,62H6.9z M9.3,55.8H6.9v3.7h2.4c0.5,0,0.9-0.2,1.2-0.5
		c0.3-0.4,0.5-0.8,0.5-1.3c0-0.5-0.1-0.9-0.4-1.3C10.2,56,9.8,55.8,9.3,55.8z M18.4,63.4v3.1h-2.6v-8.9h2.6v2.2
		c0.2-0.7,0.5-1.3,1-1.7c0.5-0.4,1-0.6,1.5-0.6c0.5,0,1,0.1,1.5,0.3l-0.5,2.4c-0.4-0.2-0.8-0.3-1.4-0.3C19.1,59.9,18.4,61,18.4,63.4
		z M23.3,62.6h2.8c0,0.5,0.2,0.9,0.6,1.2c0.4,0.3,0.8,0.4,1.4,0.4c0.6,0,1-0.1,1.4-0.4c0.3-0.2,0.5-0.6,0.6-0.9c0-0.4-0.1-0.7-0.3-1
		c-0.3-0.2-0.7-0.5-1.3-0.6l-1.6-0.5c-2.3-0.7-3.4-1.9-3.4-3.7c0-1.2,0.4-2.1,1.3-2.8c0.9-0.7,1.9-1.1,3.2-1.1s2.3,0.4,3.2,1.1
		c0.8,0.7,1.2,1.7,1.2,2.9h-2.8c0-0.5-0.1-0.8-0.4-1.1c-0.3-0.3-0.7-0.4-1.2-0.4s-0.9,0.1-1.2,0.4c-0.3,0.2-0.5,0.5-0.5,0.9
		c0,0.6,0.5,1,1.4,1.3l1.6,0.5c2.5,0.7,3.6,2.1,3.6,4c0,0.8-0.3,1.6-0.7,2.2c-0.9,1.1-2.2,1.7-4,1.7c-1.4,0-2.5-0.4-3.4-1.1
		C23.7,64.8,23.3,63.8,23.3,62.6z M35.3,58.2c0.7-0.5,1.5-0.8,2.5-0.8s1.8,0.2,2.5,0.7c0.7,0.5,1,1.2,1.1,2.2h-2.5
		c0-0.5-0.4-0.7-1-0.7c-0.3,0-0.5,0.1-0.7,0.2c-0.2,0.2-0.2,0.3-0.2,0.5c0,0.3,0.3,0.5,0.8,0.7l1.5,0.4c0.6,0.2,1.2,0.5,1.5,0.8
		c0.6,0.5,0.8,1.1,0.8,1.8c0,0.9-0.4,1.5-1.2,2c-0.8,0.5-1.6,0.7-2.6,0.7c-1,0-1.9-0.3-2.6-0.8c-0.7-0.6-1.1-1.3-1.1-2.2h2.5
		c0,0.3,0.2,0.6,0.4,0.8c0.2,0.2,0.5,0.4,0.8,0.3c0.3,0,0.6-0.1,0.8-0.2c0.2-0.2,0.3-0.3,0.3-0.5s-0.1-0.4-0.2-0.5
		c-0.2-0.1-0.4-0.2-0.7-0.3L36.9,63c-1.2-0.3-2-0.8-2.4-1.5c-0.2-0.5-0.3-1-0.3-1.5C34.2,59.3,34.6,58.7,35.3,58.2z M46.2,55.9h-3.6
		v-2.5h9.9v2.5H49v10.6h-2.8V55.9z M57.7,54v3.6h1.8v1.9h-1.8v6.9H55v-6.9h-1.6v-1.9H55V54H57.7z M68.5,61.8v-8.4h2.8v8.4
		c0,1.4-0.5,2.6-1.5,3.5c-1,0.9-2.2,1.3-3.6,1.3c-1.4,0-2.6-0.4-3.6-1.3c-1-0.9-1.5-2.1-1.5-3.5v-8.4H64v8.4c0,0.7,0.2,1.2,0.7,1.6
		c0.4,0.4,1,0.6,1.6,0.6c0.6,0,1.1-0.2,1.6-0.6C68.3,63,68.5,62.4,68.5,61.8z M79.6,62.3v-4.7h2.6v8.9h-2.6v-1.2
		c-0.2,0.4-0.6,0.8-1,1c-0.4,0.3-0.9,0.4-1.3,0.4c-1.1,0-1.9-0.3-2.6-1s-0.9-1.6-1-2.8v-5.3h2.6v4.7c0,0.6,0.2,1.1,0.5,1.3
		s0.7,0.4,1.2,0.4c0.5,0,0.8-0.2,1.1-0.5C79.4,63.3,79.6,62.9,79.6,62.3z M87.6,66.5l-4-13.1h2.9l2.3,8.6l2.3-8.6H94l-4,13.1H87.6z
		 M100.3,66.5H98l-3.7-8.9h2.8l2.1,5.5l2.1-5.5h2.8L100.3,66.5z M113.5,55.2l1.7,6.4l2.6-8.2h3l-4.5,13.1h-2.2l-1.8-6.9l-1.8,6.9
		h-2.2L104,53.4h3l2.5,8.2l1.7-6.4H113.5z M132.2,57.6h2.8l-3.1,8.9h-2.2l-1.8-5.6l-1.7,5.6h-2.2l-3.2-8.9h2.8l1.6,5.3l1.6-5.3h2.3
		l1.6,5.3L132.2,57.6z M143.8,53.4h3.3l-4.1,6.1l4.5,7h-3.3l-2.9-4.8l-2.9,4.8h-3.3l4.5-7l-4.1-6.1h3.3l2.4,3.9L143.8,53.4z
		 M147.5,66.5l3.5-4.8l-2.9-4.1h3.1l1.3,2l1.3-2h3.1l-2.9,4.1l3.5,4.8h-3.1l-1.9-2.7l-1.9,2.7H147.5z M165,66.5h-2.8v-5.9l-5.1-7.2
		h3.3l3.1,4.9l3.2-4.9h3.3l-5.1,7.2V66.5z M176.5,57.6h2.8l-5.5,13.2H171l2.1-5.3l-3.4-8h2.8l2,5L176.5,57.6z M180,66.5v-2.1l6-8.5
		h-5.7v-2.4h9.3v2.1l-6,8.5h6v2.4H180z M191.5,60.1v-2.4h7.7v2l-4.3,4.4h4.3v2.4h-8v-2l4.2-4.4H191.5z"/>
</g>
</svg>
